<svg xmlns:xlink="http://www.w3.org/1999/xlink"  width="190" height="102" viewBox="0 0 190 102" fill="none" xmlns="http://www.w3.org/2000/svg">
<g opacity="0.4">
<path d="M114.741 17.4571C107.262 15.4011 90.2242 26.88 85.8242 34.8439C85.8242 48.1638 125.025 44.3353 121.285 40.5957C117.546 36.8561 124.09 20.0272 114.741 17.4571Z" fill="#F6EBD8" stroke="#2F2F2F" stroke-width="3" stroke-linecap="round"/>
<path d="M141.16 57.3454C112.31 23.172 66.4319 23.8917 57.0873 70.5019C56.6467 72.6996 58.7976 74.4774 60.9742 73.942C83.4391 68.4162 100.178 80.8013 86.8082 93.3783C85.0087 95.0711 85.3725 98.2021 87.7826 98.7455C110.054 103.766 132.066 90.3813 139.441 78.6774C140.469 77.0459 142.678 76.3795 144.269 77.4697L170.677 95.5704C173.165 97.2754 176.488 94.5725 175.543 91.7087C166.698 64.9102 176.2 52.7098 184.676 36.3443C186.054 33.684 183.159 31.3358 180.786 33.1654C162.15 47.5382 146.039 63.1243 141.16 57.3454Z" fill="#FFAD44"/>
<path d="M141.16 57.3454C112.31 23.172 66.4319 23.8917 57.0873 70.5019C56.6467 72.6996 58.7976 74.4774 60.9742 73.942C83.4391 68.4162 100.178 80.8013 86.8082 93.3783C85.0087 95.0711 85.3725 98.2021 87.7826 98.7455C110.054 103.766 132.066 90.3813 139.441 78.6774C140.469 77.0459 142.678 76.3795 144.269 77.4697L170.677 95.5704C173.165 97.2754 176.488 94.5725 175.543 91.7087C166.698 64.9102 176.2 52.7098 184.676 36.3443C186.054 33.684 183.159 31.3358 180.786 33.1654C162.15 47.5382 146.039 63.1243 141.16 57.3454Z" fill="url(#paint0_linear_3360_10112)"/>
<path d="M141.16 57.3454C112.31 23.172 66.4319 23.8917 57.0873 70.5019C56.6467 72.6996 58.7976 74.4774 60.9742 73.942C83.4391 68.4162 100.178 80.8013 86.8082 93.3783C85.0087 95.0711 85.3725 98.2021 87.7826 98.7455C110.054 103.766 132.066 90.3813 139.441 78.6774C140.469 77.0459 142.678 76.3795 144.269 77.4697L170.677 95.5704C173.165 97.2754 176.488 94.5725 175.543 91.7087C166.698 64.9102 176.2 52.7098 184.676 36.3443C186.054 33.684 183.159 31.3358 180.786 33.1654C162.15 47.5382 146.039 63.1243 141.16 57.3454Z" stroke="#2F2F2F" stroke-width="3" stroke-linecap="round"/>
<path d="M141.56 57.751C141.419 57.6298 141.285 57.4948 141.159 57.3454C141.295 57.4817 141.429 57.6169 141.56 57.751C146.872 62.3196 162.631 47.1668 180.785 33.1654C183.158 31.3358 186.053 33.684 184.675 36.3443C176.122 52.8572 166.525 65.1297 175.785 92.4364C176.732 95.2304 173.594 97.9155 171.093 96.3514L140.463 77.2003C142.594 74.2289 155.999 72.5096 141.56 57.751Z" fill="#F6EBD8"/>
<path d="M141.159 57.3454C146.038 63.1243 162.149 47.5382 180.785 33.1654C183.158 31.3358 186.053 33.684 184.675 36.3443C176.122 52.8572 166.525 65.1297 175.785 92.4364C176.732 95.2304 173.594 97.9155 171.093 96.3514L140.463 77.2003C142.613 74.2019 156.244 72.4784 141.159 57.3454Z" stroke="#2F2F2F" stroke-width="3" stroke-linecap="round"/>
<circle cx="88.2754" cy="55.0645" r="14.2793" fill="#F6EBD8" stroke="#2F2F2F" stroke-width="3"/>
<circle cx="88.2763" cy="55.0634" r="5.9111" fill="#2F2F2F"/>
<path d="M122.561 89.5644C116.834 91.139 103.786 82.3482 100.416 76.2491C100.416 66.0483 130.437 68.9804 127.573 71.8443C124.709 74.7082 129.721 87.5962 122.561 89.5644Z" fill="#F6EBD8" stroke="#2F2F2F" stroke-width="3" stroke-linecap="round"/>
<circle cx="49.0293" cy="91.75" r="8.24609" fill="white" stroke="#2F2F2F" stroke-width="3"/>
<circle cx="14.5723" cy="64.2832" r="12.0996" fill="white" stroke="#2F2F2F" stroke-width="3"/>
<circle cx="8.13477" cy="8.1582" r="5.66211" fill="white" stroke="#2F2F2F" stroke-width="3"/>
</g>
<defs>
<linearGradient id="paint0_linear_3360_10112" x1="93.6583" y1="90.421" x2="120.093" y2="-1.19573" gradientUnits="userSpaceOnUse">
<stop stop-color="#FE6742"/>
<stop offset="1" stop-color="#FFB944"/>
</linearGradient>
</defs>
</svg>
