<svg fill="none" height="610" viewBox="0 0 396 610" width="396" xmlns="http://www.w3.org/2000/svg" xmlns:xlink="http://www.w3.org/1999/xlink"><linearGradient id="a" gradientUnits="userSpaceOnUse" x1="59.4503" x2="61.9082" y1="584.64" y2="557.126"><stop offset="0" stop-color="#ffb843"/><stop offset="1" stop-color="#fff"/></linearGradient><linearGradient id="b"><stop offset="0" stop-color="#9997c8"/><stop offset="1" stop-color="#5e5faa"/></linearGradient><linearGradient id="c" gradientUnits="userSpaceOnUse" x1="43.9857" x2="4.54304" xlink:href="#b" y1="546.299" y2="586.623"/><linearGradient id="d" gradientUnits="userSpaceOnUse" x1="49.4649" x2="-12.3882" xlink:href="#b" y1="524.192" y2="510.982"/><linearGradient id="e" gradientUnits="userSpaceOnUse" x1="86.1166" x2="65.8338" xlink:href="#b" y1="475.043" y2="598.447"/><linearGradient id="f" gradientUnits="userSpaceOnUse" x1="146.517" x2="116.422" y1="508.283" y2="518.952"><stop offset="0" stop-color="#9997c8"/><stop offset="1" stop-color="#3d3f99"/></linearGradient><linearGradient id="g" gradientUnits="userSpaceOnUse" x1="58.5682" x2="19.1256" xlink:href="#b" y1="554.622" y2="594.946"/><linearGradient id="h" gradientUnits="userSpaceOnUse" x1="108.746" x2="81.3929" xlink:href="#b" y1="547.188" y2="604.215"/><mask id="i" height="22" maskUnits="userSpaceOnUse" width="21" x="47" y="492"><ellipse fill="#fff" rx="8.07829" ry="9.64907" stroke="#292929" stroke-width="2.68" transform="matrix(-.833055 -.553191 -.553191 .833055 57.0903 503.415)"/></mask><mask id="j" height="22" maskUnits="userSpaceOnUse" width="21" x="65" y="504"><ellipse fill="#fff" rx="8.07829" ry="9.64907" stroke="#292929" stroke-width="2.68" transform="matrix(-.833055 -.553191 -.553191 .833055 75.1438 515.402)"/></mask><rect fill="#2f2f2f" height="10.5799" rx="2" transform="matrix(.9163236 .40043859 -.40043859 .9163236 232.330698 26.349111)" width="47.3596" x="53.1177" y="569.091"/><rect fill="url(#a)" height="10.5799" rx="2" transform="matrix(.9163236 .40043859 -.40043859 .9163236 232.330698 26.349111)" width="47.3596" x="53.1177" y="569.091"/><rect height="10.5799" rx="2" stroke="#2f2f2f" stroke-width="3" transform="matrix(.9163236 .40043859 -.40043859 .9163236 232.330698 26.349111)" width="47.3596" x="53.1177" y="569.091"/><path d="m9.76555 577.328 17.24125 2.571c.5212.077 1.0133-.263 1.1248-.778l3.2654-15.073c.0572-.263.2184-.493.4472-.636l19.5954-12.254c.3121-.195.7062-.203 1.0259-.021l1.8997 1.084c.607.346.6805 1.193.1425 1.639l-16.4998 13.673c-.1872.155-.3114.373-.3496.613l-4.0644 25.564c-.1098.691-.876 1.058-1.4832.712l-23.90051-13.638c-.47969-.273-.64667-.884-.37296-1.364l.91229-1.599c.20446-.358.60799-.554 1.01603-.493z" fill="url(#c)" stroke="#2f2f2f" stroke-width="3"/><path d="m19.637 489.375 28.7533 27.839c.8027.777-.0797 2.086-1.101 1.633l-9.2077-4.084c-.089-.039-.1718-.092-.2457-.155l-23.1305-19.845c-.3152-.27-.762-.309-1.1493-.16-5.70303 2.208-15.74764-4.762-6.78643-14.018 5.37353-5.55 12.85153 1.191 12.55453 7.971-.0134.305.0935.606.3128.819z" fill="url(#d)" stroke="#2f2f2f" stroke-width="3"/><circle cx="86.1166" cy="526.868" fill="url(#e)" r="51.8243" stroke="#2f2f2f" stroke-width="3" transform="matrix(.8330545 .55319092 -.55319092 .8330545 305.835372 40.319318)"/><ellipse fill="#fff" rx="8.07829" ry="9.64907" stroke="#2f2f2f" stroke-width="2.68" transform="matrix(-.833055 -.553191 -.553191 .833055 57.0903 503.415)"/><g mask="url(#i)"><ellipse fill="#2f2f2f" rx="7.09737" ry="8.83965" transform="matrix(-.833055 -.553191 -.553191 .833055 54.2068 501.946)"/></g><ellipse rx="8.07829" ry="9.64907" stroke="#2f2f2f" stroke-width="2.68" transform="matrix(-.833055 -.553191 -.553191 .833055 57.0903 503.415)"/><ellipse fill="#fff" rx="8.07829" ry="9.64907" stroke="#2f2f2f" stroke-width="2.68" transform="matrix(-.833055 -.553191 -.553191 .833055 75.1442 515.402)"/><g mask="url(#j)"><ellipse fill="#2f2f2f" rx="7.09737" ry="8.83965" transform="matrix(-.833055 -.553191 -.553191 .833055 71.8242 513.642)"/></g><g stroke="#2f2f2f"><ellipse rx="8.07829" ry="9.64907" stroke-width="2.68" transform="matrix(-.833055 -.553191 -.553191 .833055 75.1442 515.402)"/><path d="m62.2866 534.029c-9.8068 1.55-16.0215-5.255-18.0616-11.217" stroke-linecap="round" stroke-width="12"/><path d="m141.654 505.526c2.739 1.553 3.812 4.96 2.456 7.803l-.772 1.617c-.733 1.537-.778 3.313-.125 4.885l3.086 7.43c.635 1.528-.887 3.064-2.421 2.443-2.279-.922-4.811.575-5.101 3.016l-.067.566c-.247 2.068-3.042 2.533-3.944.656l-2.08-4.327c-.755-1.57-2.482-2.424-4.187-2.07-2.422.502-4.669-1.412-4.557-3.883l.278-6.204c.064-1.412-.374-2.802-1.235-3.924l-3.782-4.925c-1.506-1.961-.762-4.817 1.511-5.793 1.601-.687 2.527-2.376 2.246-4.095l-.773-4.738c-.336-2.056 2.221-3.276 3.608-1.722l.379.425c1.637 1.835 4.57 1.611 5.909-.45.902-1.387 3.029-1 3.384.616l1.726 7.858c.365 1.663 1.42 3.092 2.901 3.932z" fill="url(#f)" stroke-width="3"/><ellipse cx="132.494" cy="512.771" fill="#9997c8" rx="5.43497" ry="9.11461" stroke-width="3" transform="matrix(.92759911 -.37357716 .37357716 .92759911 -181.966851 86.62181)"/><path d="m24.3481 585.651 17.2413 2.571c.5211.078 1.0132-.262 1.1248-.777l3.2654-15.073c.0571-.264.2183-.493.4471-.636l19.5955-12.255c.312-.195.7061-.203 1.0258-.02l1.8997 1.083c.607.347.6806 1.193.1425 1.639l-16.4998 13.674c-.1871.155-.3114.373-.3495.613l-4.0645 25.564c-.1098.69-.876 1.058-1.4832.711l-23.9005-13.637c-.4797-.274-.6467-.885-.373-1.364l.9123-1.599c.2045-.358.608-.554 1.0161-.494z" fill="url(#g)" stroke-width="3"/><path d="m118.069 592.077-4.457-39.773c-.125-1.11-1.699-1.212-1.965-.127l-2.397 9.784c-.023.094-.032.192-.027.289l1.567 30.436c.021.415-.221.793-.576 1.008-5.233 3.164-5.856 15.374 6.946 13.939 7.677-.86 6.913-10.899 1.366-14.808-.25-.176-.423-.444-.457-.748z" fill="url(#h)" stroke-width="3"/><path d="m259.61 168.387-179.6517 411.01" stroke-width="3"/><path d="m217.714 169.113-133.714 305.887" stroke-width="3"/></g><path clip-rule="evenodd" d="m45.1542 61.4918c-8.2528-.8187-15.245 5.6151-15.6175 14.3703s6.0157 16.5164 14.2685 17.335c8.2528.8187 15.245-5.6151 15.6175-14.3703s-6.0158-16.5164-14.2685-17.335zm45.7859 50.5652c-.8861 20.828 14.3109 39.291 33.9429 41.239 9.191.911 17.725-1.958 24.293-7.405.527-.437 1.337-.259 1.62.365 9.853 21.777 30.019 37.874 53.873 40.241 14.322 1.42 27.744-2.329 38.699-9.804.692-.473 1.652.038 1.639.876-.173 11.48 2.079 22.902 7.038 33.363 16.955 35.766 59.131 46.766 94.203 24.571 35.072-22.196 49.759-69.182 32.805-104.948-5.381-11.35-13.301-20.205-22.728-26.298-.59-.381-.633-1.238-.084-1.678 21.182-17.0023 29.354-47.5672 18.126-71.2521-12.127-25.58232-42.295-33.45084-67.381-17.5749-25.087 15.876-35.592 49.4846-23.465 75.0669 2.148 4.5294 4.86 8.5035 8.01 11.8891.467.501.328 1.319-.283 1.63-2.154 1.096-4.289 2.311-6.399 3.646-4.616 2.922-8.88 6.273-12.764 9.972-.621.591-1.671.199-1.759-.654-3.352-32.5058-28.435-59.6107-59.958-62.7378-25.947-2.5739-48.945 11.8236-59.659 34.604-.298.6347-1.139.7937-1.654.3176-5.732-5.3004-12.981-8.822-20.963-9.6138-19.632-1.9475-36.2657 13.3578-37.1519 34.185z" fill="#f4e7d2" fill-rule="evenodd"/><path clip-rule="evenodd" d="m45.1542 61.4918c-8.2528-.8187-15.245 5.6151-15.6175 14.3703s6.0157 16.5164 14.2685 17.335c8.2528.8187 15.245-5.6151 15.6175-14.3703s-6.0158-16.5164-14.2685-17.335zm45.7859 50.5652c-.8861 20.828 14.3109 39.291 33.9429 41.239 9.191.911 17.725-1.958 24.293-7.405.527-.437 1.337-.259 1.62.365 9.853 21.777 30.019 37.874 53.873 40.241 14.322 1.42 27.744-2.329 38.699-9.804.692-.473 1.652.038 1.639.876-.173 11.48 2.079 22.902 7.038 33.363 16.955 35.766 59.131 46.766 94.203 24.571 35.072-22.196 49.759-69.182 32.805-104.948-5.381-11.35-13.301-20.205-22.728-26.298-.59-.381-.633-1.238-.084-1.678 21.182-17.0023 29.354-47.5672 18.126-71.2521-12.127-25.58232-42.295-33.45084-67.381-17.5749-25.087 15.876-35.592 49.4846-23.465 75.0669 2.148 4.5294 4.86 8.5035 8.01 11.8891.467.501.328 1.319-.283 1.63-2.154 1.096-4.289 2.311-6.399 3.646-4.616 2.922-8.88 6.273-12.764 9.972-.621.591-1.671.199-1.759-.654-3.352-32.5058-28.435-59.6107-59.958-62.7378-25.947-2.5739-48.945 11.8236-59.659 34.604-.298.6347-1.139.7937-1.654.3176-5.732-5.3004-12.981-8.822-20.963-9.6138-19.632-1.9475-36.2657 13.3578-37.1519 34.185z" fill="#fff" fill-rule="evenodd"/><path d="m29.5367 75.8621-1.4987-.0638zm14.2685 17.335.1481-1.4926zm15.6175-14.3703 1.4986.0637zm65.4603 74.4692.148-1.493zm79.786 33.201.149-1.493zm47.376 24.435 1.355-.642zm94.203 24.571-.802-1.268zm32.805-104.948 1.355-.642zm-4.686-99.2281 1.356-.6426zm-67.381-17.5749-.802-1.2675zm-23.465 75.0669 1.356-.6425zm1.328 17.1651-.802-1.267zm-74.481-53.4198.148-1.4926zm-82.276 25.3078.148-1.4927zm22.617 9.2962 1.358.6384zm-1.654.3176 1.019-1.1013zm207.27 16.7712-.814 1.26zm-.084-1.678.939 1.17zm-84.156 13.377-1.034-1.087zm-1.759-.654 1.492-.154zm-26.958 61.391-.846-1.239zm1.639.876 1.5.023zm46.524-76.861-1.098 1.022zm-.283 1.63-.68-1.337zm-142.072 43.553.957 1.155zm1.62.365-1.367.618zm-122.758-70.4577c.4055-9.5301 8.0708-16.7112 17.2642-15.7992l-.2961 2.9853c-7.3121-.7253-13.6312 4.9612-13.9708 12.9415zm15.6191 18.8915c-9.1148-.9042-16.0223-9.4139-15.6191-18.8915l2.9973.1276c-.3417 8.0328 5.5272 15.0454 12.918 15.7786zm17.2642-15.7993c-.4055 9.5302-8.0707 16.7113-17.2642 15.7993l.2962-2.9853c7.3121.7253 13.6312-4.9612 13.9707-12.9415zm-15.6191-18.8914c9.1148.9042 16.0223 9.4139 15.6191 18.8914l-2.9973-.1275c.3418-8.0328-5.5271-15.0454-12.9179-15.7786zm79.4328 94.7889c-20.494-2.033-36.2104-21.244-35.2935-42.794l2.9973.127c-.8554 20.106 13.8222 37.82 32.5922 39.682zm25.398-7.742c-6.865 5.693-15.794 8.695-25.398 7.742l.296-2.985c8.778.871 16.917-1.866 23.187-7.067zm54.388 40.943c-24.45-2.425-45.045-18.91-55.092-41.115l2.734-1.236c9.659 21.349 29.397 37.059 52.655 39.366zm39.692-10.057c-11.238 7.668-25.01 11.514-39.692 10.057l.297-2.985c13.961 1.385 27.033-2.268 37.704-9.55zm6.476 33.643c-5.065-10.686-7.358-22.338-7.182-34.028l3 .045c-.17 11.27 2.041 22.461 6.893 32.698zm96.361 25.195c-35.764 22.634-78.986 11.456-96.361-25.195l2.711-1.285c16.535 34.879 57.666 45.703 92.046 23.945zm33.358-106.857c17.303 36.5 2.307 84.287-33.358 106.857l-1.604-2.535c34.48-21.82 48.857-68.007 32.251-103.037zm-23.269-26.916c9.667 6.248 17.772 15.319 23.269 26.916l-2.711 1.285c-5.263-11.103-12.998-19.743-22.186-25.681zm18.584-72.3127c11.554 24.3735 3.126 55.671-18.543 73.0647l-1.878-2.34c20.695-16.6109 28.611-46.4431 17.71-69.4396zm-69.539-18.1998c25.778-16.31377 56.991-8.26841 69.539 18.1998l-2.711 1.2851c-11.708-24.69632-40.83-32.388004-65.224-16.9498zm-24.018 76.9769c-12.476-26.3174-1.661-60.7258 24.018-76.9769l1.604 2.5351c-24.494 15.5009-34.69 48.3096-22.911 73.1568zm8.267 12.2686c-3.257-3.5007-6.055-7.6033-8.267-12.2686l2.711-1.285c2.083 4.3935 4.709 8.2392 7.752 11.5096zm-6.386 2.987c2.149-1.36 4.325-2.598 6.521-3.716l1.361 2.673c-2.112 1.076-4.207 2.268-6.277 3.578zm-12.996 10.152c3.953-3.764 8.294-7.176 12.996-10.152l1.605 2.535c-4.532 2.867-8.717 6.157-12.533 9.79zm-60.535-63.7974c32.306 3.2047 57.885 30.9387 61.302 64.0764l-2.984.308c-3.287-31.8739-27.875-58.3498-58.614-61.3991zm-61.164 35.4583c10.964-23.3127 34.539-38.0995 61.164-35.4583l-.296 2.9853c-25.27-2.5067-47.69 11.5014-58.153 33.7497zm-21.112-10.1506c8.334.8268 15.882 4.5023 21.834 10.0052l-2.037 2.2027c-5.514-5.098-12.463-8.4657-20.093-9.2225zm-38.7985 35.6147c.9191-21.6029 18.2255-37.6555 38.7985-35.6147l-.296 2.9854c-18.692-1.8542-34.652 12.7039-35.5052 32.7563zm62.6255-24.1874c-.736 1.5637-2.779 1.9369-4.03.7806l2.037-2.2027c-.221-.2041-.583-.1491-.722.1454zm203.444 17.7104c-1.453-.939-1.552-3.03-.209-4.108l1.878 2.34c.246-.198.232-.576-.041-.752zm-82.392 11.525c-1.532 1.459-4.07.494-4.285-1.586l2.984-.308c-.021-.202-.166-.338-.289-.384-.124-.046-.327-.038-.478.105zm-30.597 58.412c1.686-1.151 4.016.071 3.985 2.138l-3-.045c-.003.202.122.353.238.415.115.062.306.08.468-.03zm50.107-75.768c1.136 1.221.812 3.219-.7 3.988l-1.361-2.673c-.291.148-.337.511-.135.729zm-144.411 45.05c1.272-1.054 3.245-.645 3.945.902l-2.734 1.236c.135.299.488.351.704.172z" fill="#2f2f2f"/></svg>