<svg fill="none" height="208" viewBox="0 0 153 208" width="153" xmlns="http://www.w3.org/2000/svg" xmlns:xlink="http://www.w3.org/1999/xlink"><linearGradient id="a"><stop offset="0" stop-color="#9997c8"/><stop offset="1" stop-color="#9997c8" stop-opacity="0"/></linearGradient><linearGradient id="b" gradientUnits="userSpaceOnUse" x1="146.583" x2="61.9611" xlink:href="#a" y1="153.148" y2="145.74"/><linearGradient id="c"><stop offset="0" stop-color="#ffc9db"/><stop offset=".713144" stop-color="#dd4f7f"/></linearGradient><linearGradient id="d" gradientUnits="userSpaceOnUse" x1="123.471" x2="70.1548" xlink:href="#c" y1="33.9515" y2="115.384"/><linearGradient id="e" gradientUnits="userSpaceOnUse" x1="32.9401" x2="-44.3255" xlink:href="#a" y1="154.383" y2="119.089"/><linearGradient id="f" gradientUnits="userSpaceOnUse" x1="51.0425" x2="-26.4476" xlink:href="#c" y1="34.3236" y2="93.2241"/><linearGradient id="g" gradientUnits="userSpaceOnUse" x1="123.394" x2="32.7539" xlink:href="#a" y1="192.807" y2="145.7"/><linearGradient id="h" gradientUnits="userSpaceOnUse" x1="112.983" x2="90.5442" xlink:href="#c" y1="125.692" y2="188.561"/><linearGradient id="i" gradientUnits="userSpaceOnUse" x1="26.1419" x2="116.782" xlink:href="#a" y1="192.807" y2="145.7"/><linearGradient id="j" gradientUnits="userSpaceOnUse" x1="36.5522" x2="58.9915" xlink:href="#c" y1="125.692" y2="188.561"/><linearGradient id="k" gradientUnits="userSpaceOnUse" x1="16.6933" x2="270.038" xlink:href="#a" y1="136.84" y2="-73.6777"/><linearGradient id="l" gradientUnits="userSpaceOnUse" x1="55.4215" x2="90.4889" xlink:href="#c" y1="-19.3203" y2="137.768"/><linearGradient id="m"><stop offset="0" stop-color="#ffb843"/><stop offset="1" stop-color="#fff"/></linearGradient><linearGradient id="n" gradientUnits="userSpaceOnUse" x1="120.356" x2="82.8592" xlink:href="#m" y1="54.4525" y2="71.3209"/><linearGradient id="o" gradientUnits="userSpaceOnUse" x1="136.831" x2="96.3552" xlink:href="#m" y1="85.0992" y2="92.3285"/><linearGradient id="p" gradientUnits="userSpaceOnUse" x1="121.335" x2="80.8589" xlink:href="#m" y1="109.207" y2="116.436"/><linearGradient id="q" gradientUnits="userSpaceOnUse" x1="111.796" x2="72.3376" xlink:href="#m" y1="82.5583" y2="94.1179"/><path d="m134.743 179.412c24.267-3.092 17.217-25.608 6.024-28.576-.477-.127-.863-.496-.96-.98l-7.758-38.732-2.948-17.9083c-.021-.1248-.061-.2456-.119-.3578l-10.469-20.1814c-.618-1.1906-2.426-.626-2.257.7045l4.607 36.158 5.387 42.283c.047.363-.078.727-.325.998-8.635 9.492-5.658 28.436 8.818 26.592z" fill="url(#b)"/><path d="m134.743 179.412c24.267-3.092 17.217-25.608 6.024-28.576-.477-.127-.863-.496-.96-.98l-7.758-38.732-2.948-17.9083c-.021-.1248-.061-.2456-.119-.3578l-10.469-20.1814c-.618-1.1906-2.426-.626-2.257.7045l4.607 36.158 5.387 42.283c.047.363-.078.727-.325.998-8.635 9.492-5.658 28.436 8.818 26.592z" fill="url(#d)"/><path d="m134.743 179.412c24.267-3.092 17.217-25.608 6.024-28.576-.477-.127-.863-.496-.96-.98l-7.758-38.732-2.948-17.9083c-.021-.1248-.061-.2456-.119-.3578l-10.469-20.1814c-.618-1.1906-2.426-.626-2.257.7045l4.607 36.158 5.387 42.283c.047.363-.078.727-.325.998-8.635 9.492-5.658 28.436 8.818 26.592z" stroke="#2f2f2f" stroke-linecap="round" stroke-width="3"/><path d="m12.9954 175.172c23.9033 5.205 24.7922-18.372 15.2381-24.914-.4074-.279-.6473-.755-.5766-1.244l5.6483-39.096 3.2134-17.8623c.0224-.1245.025-.2517.0077-.377l-3.1135-22.5211c-.1836-1.3286-2.0767-1.4016-2.3621-.0911l-7.7567 35.6155-9.0704 41.648c-.078.358-.3173.659-.6404.832-11.31388 6.056-14.84651 24.904-.5878 28.01z" fill="url(#e)"/><path d="m12.9954 175.172c23.9033 5.205 24.7922-18.372 15.2381-24.914-.4074-.279-.6473-.755-.5766-1.244l5.6483-39.096 3.2134-17.8623c.0224-.1245.025-.2517.0077-.377l-3.1135-22.5211c-.1836-1.3286-2.0767-1.4016-2.3621-.0911l-7.7567 35.6155-9.0704 41.648c-.078.358-.3173.659-.6404.832-11.31388 6.056-14.84651 24.904-.5878 28.01z" fill="url(#f)"/><path d="m12.9954 175.172c23.9033 5.205 24.7922-18.372 15.2381-24.914-.4074-.279-.6473-.755-.5766-1.244l5.6483-39.096 3.2134-17.8623c.0224-.1245.025-.2517.0077-.377l-3.1135-22.5211c-.1836-1.3286-2.0767-1.4016-2.3621-.0911l-7.7567 35.6155-9.0704 41.648c-.078.358-.3173.659-.6404.832-11.31388 6.056-14.84651 24.904-.5878 28.01z" stroke="#2f2f2f" stroke-linecap="round" stroke-width="3"/><path d="m101.795 190.403-6.3562-46.427c-.0678-.495-.4909-.864-.9908-.864h-3.7757c-.5394 0-.9815.428-.9995.967l-2.0392 61.297c-.0188.565.4341 1.034.9994 1.034h37.742c.553 0 1-.448 1-1v-3.017c0-.402-.241-.765-.611-.921l-24.368-10.283c-.325-.138-.554-.436-.601-.786z" fill="url(#g)"/><path d="m101.795 190.403-6.3562-46.427c-.0678-.495-.4909-.864-.9908-.864h-3.7757c-.5394 0-.9815.428-.9995.967l-2.0392 61.297c-.0188.565.4341 1.034.9994 1.034h37.742c.553 0 1-.448 1-1v-3.017c0-.402-.241-.765-.611-.921l-24.368-10.283c-.325-.138-.554-.436-.601-.786z" fill="url(#h)"/><path d="m101.795 190.403-6.3562-46.427c-.0678-.495-.4909-.864-.9908-.864h-3.7757c-.5394 0-.9815.428-.9995.967l-2.0392 61.297c-.0188.565.4341 1.034.9994 1.034h37.742c.553 0 1-.448 1-1v-3.017c0-.402-.241-.765-.611-.921l-24.368-10.283c-.325-.138-.554-.436-.601-.786z" stroke="#2f2f2f" stroke-linecap="round" stroke-width="3"/><path d="m47.7411 190.403 6.3558-46.427c.0678-.495.4909-.864.9907-.864h3.7758c.5393 0 .9815.428.9994.967l2.0393 61.297c.0188.565-.4342 1.034-.9995 1.034h-37.7422c-.5523 0-1-.448-1-1v-3.017c0-.402.2408-.765.6112-.921l24.3676-10.283c.3252-.138.554-.436.6019-.786z" fill="url(#i)"/><path d="m47.7411 190.403 6.3558-46.427c.0678-.495.4909-.864.9907-.864h3.7758c.5393 0 .9815.428.9994.967l2.0393 61.297c.0188.565-.4342 1.034-.9995 1.034h-37.7422c-.5523 0-1-.448-1-1v-3.017c0-.402.2408-.765.6112-.921l24.3676-10.283c.3252-.138.554-.436.6019-.786z" fill="url(#j)"/><path d="m47.7411 190.403 6.3558-46.427c.0678-.495.4909-.864.9907-.864h3.7758c.5393 0 .9815.428.9994.967l2.0393 61.297c.0188.565-.4342 1.034-.9995 1.034h-37.7422c-.5523 0-1-.448-1-1v-3.017c0-.402.2408-.765.6112-.921l24.3676-10.283c.3252-.138.554-.436.6019-.786z" stroke="#2f2f2f" stroke-linecap="round" stroke-width="3"/><path d="m76.0633 4.9543c2.3535-2.0925 5.9242-2.00936 8.1778.1904l7.5666 7.386c1.2184 1.1894 2.8848 1.805 4.5838 1.6936l18.5405-1.2159c2.657-.1742 4.207 2.9411 2.466 4.9554l-1.612 1.8645c-2.587 2.9928-1.62 7.6261 1.948 9.3349l4.912 2.3529c2.707 1.2967 2.043 5.3254-.937 5.6841l-12.853 1.5472c-2.736.3294-4.896 2.4806-5.237 5.2156l-.281 2.2621c-.484 3.8842-4.4971 6.2727-8.1418 4.8457l-13.9312-5.4543c-1.3167-.5155-2.7732-.5495-4.1125-.0958l-14.1699 4.8001c-3.7072 1.2558-7.6048-1.3169-7.9071-5.2194l-.1761-2.2727c-.2129-2.7479-2.2704-4.9974-4.9885-5.4538l-12.7664-2.1436c-2.9603-.4971-3.4365-4.5523-.6719-5.7216l5.0165-2.1217c3.6433-1.541 4.8245-6.1243 2.3797-9.2342l-1.5231-1.9375c-1.6454-2.0931.0482-5.1329 2.6939-4.8352l18.4639 2.0775c1.6919.1904 3.3851-.3471 4.6575-1.4784z" fill="#a2b53a" stroke="#2f2f2f" stroke-linecap="round" stroke-width="3"/><path d="m46.1078 158.544c-79.1761-91.8239-34.4866-128.0309-.9324-134.6833 29.007-5.7473 77.0266-3.4296 96.2686 19.8935 29.986 36.3437-26.232 103.0858-73.726 121.0818-7.7332 2.93-16.2099-.029-21.6102-6.292z" fill="url(#k)"/><path d="m46.1078 158.544c-79.1761-91.8239-34.4866-128.0309-.9324-134.6833 29.007-5.7473 77.0266-3.4296 96.2686 19.8935 29.986 36.3437-26.232 103.0858-73.726 121.0818-7.7332 2.93-16.2099-.029-21.6102-6.292z" fill="url(#l)"/><g stroke="#2f2f2f" stroke-width="3"><path d="m46.1078 158.544c-79.1761-91.8239-34.4866-128.0309-.9324-134.6833 29.007-5.7473 77.0266-3.4296 96.2686 19.8935 29.986 36.3437-26.232 103.0858-73.726 121.0818-7.7332 2.93-16.2099-.029-21.6102-6.292z" stroke-linecap="round"/><path d="m107.563 44.8477c.775-2.2835 1.776-4.2633 3.228-6.2756 1.231-1.7067 3.843-1.9174 5.672-.2954 1.896 1.6809 1.948 4.4653.242 5.9478-1.724 1.4974-3.429 2.6854-5.369 3.7475-2.179 1.1932-4.552-.8277-3.773-3.1243z" fill="url(#n)" stroke-linecap="round"/><path d="m126.762 72.6681c1.307-2.026 2.761-3.7025 4.659-5.3006 1.61-1.3555 4.195-.9237 5.574 1.0949 1.429 2.0919.801 4.8052-1.215 5.8276-2.036 1.0325-3.979 1.7695-6.119 2.3273-2.404.6266-4.214-1.9115-2.899-3.9492z" fill="url(#o)" stroke-linecap="round"/><path d="m111.266 96.776c1.307-2.026 2.76-3.7025 4.658-5.3006 1.61-1.3555 4.195-.9237 5.574 1.0949 1.429 2.0919.802 4.8052-1.214 5.8276-2.036 1.0325-3.979 1.7691-6.119 2.3271-2.405.627-4.215-1.9113-2.899-3.949z" fill="url(#p)" stroke-linecap="round"/><path d="m100.442 71.2878c1.082-2.1555 2.345-3.9791 4.06-5.7729 1.454-1.5215 4.07-1.3714 5.659.4864 1.647 1.9253 1.316 4.6905-.578 5.9246-1.912 1.2465-3.765 2.1891-5.832 2.9748-2.322.8826-4.3958-1.4451-3.309-3.6129z" fill="url(#q)" stroke-linecap="round"/><ellipse fill="#fff8ec" rx="11.6627" ry="13.9305" transform="matrix(-1 .00000001 .00000001 1 28.1368 92.3731)"/><ellipse fill="#fff8ec" rx="11.6627" ry="13.9305" transform="matrix(-1 .00000001 .00000001 1 63.105 92.6954)"/></g><path d="m22.6981 105.653c5.1021-2.109 8.6825-7.0496 8.6825-12.8087 0-6.0518-3.9536-11.2002-9.4718-13.1082-6.7088 10.2724-6.281 15.953.7893 25.9169z" fill="#2f2f2f"/><path d="m57.6673 105.98c5.1021-2.109 8.6826-7.0502 8.6826-12.8093 0-6.0517-3.9536-11.2001-9.4719-13.1082-6.7088 10.2724-6.281 15.953.7893 25.9175z" fill="#2f2f2f"/><path d="m67.8312 68.7204c2.3549.6489 4.2016 2.1584 4.9698 3.6495 1.113 2.1603 3.7665 3.0094 5.9268 1.8964 2.1603-1.1129 3.0093-3.7665 1.8964-5.9268-2.0934-4.0633-6.1844-6.9265-10.4553-8.1033-4.3358-1.1946-9.5743-.8304-13.7467 2.6134-1.8742 1.5469-2.1395 4.3203-.5926 6.1945s4.3203 2.1395 6.1945.5926c1.4417-1.19 3.5172-1.5473 5.8071-.9163z" style="fill-rule:evenodd;clip-rule:evenodd;fill:#e5dbc9;stroke:#2f2f2f;stroke-width:3;stroke-linecap:round"/><path d="m23.638 68.7204c-2.3549.6489-4.2016 2.1584-4.9698 3.6495-1.1129 2.1603-3.7664 3.0094-5.9267 1.8964-2.1603-1.1129-3.00938-3.7665-1.8964-5.9268 2.0934-4.0633 6.1844-6.9265 10.4552-8.1033 4.3358-1.1946 9.5743-.8304 13.7468 2.6134 1.8742 1.5469 2.1395 4.3203.5925 6.1945-1.5469 1.8742-4.3203 2.1395-6.1945.5926-1.4417-1.19-3.5171-1.5473-5.8071-.9163z" style="fill-rule:evenodd;clip-rule:evenodd;fill:#e5dbc9;stroke:#2f2f2f;stroke-width:3;stroke-linecap:round"/><path d="m80.9289 104.32c-3.576 14.969-28.7259 24.747-46.4112 11.851" stroke="#2f2f2f" stroke-linecap="round" stroke-width="3"/></svg>