<svg fill="none" height="1217" viewBox="0 0 2413 1217" width="2413" xmlns="http://www.w3.org/2000/svg" xmlns:xlink="http://www.w3.org/1999/xlink"><linearGradient id="a"><stop offset="0" stop-color="#6d92d1"/><stop offset="1" stop-color="#dd4f7f"/></linearGradient><linearGradient id="b" gradientUnits="userSpaceOnUse" x1="1783.84" x2="1775.23" xlink:href="#a" y1="375.748" y2="445.021"/><linearGradient id="c" gradientUnits="userSpaceOnUse" x1="810.341" x2="801.737" xlink:href="#a" y1="934.119" y2="1003.39"/><linearGradient id="d" gradientUnits="userSpaceOnUse" x1="2009.68" x2="2001.08" xlink:href="#a" y1="568.959" y2="638.232"/><linearGradient id="e" gradientUnits="userSpaceOnUse" x1="171.013" x2="162.409" xlink:href="#a" y1="317.793" y2="387.066"/><linearGradient id="f"><stop offset="0" stop-color="#ffb843"/><stop offset=".936216" stop-color="#fd6641"/></linearGradient><linearGradient id="g" gradientUnits="userSpaceOnUse" x1="748.374" x2="728.366" xlink:href="#f" y1="131.412" y2="153.634"/><linearGradient id="h" gradientUnits="userSpaceOnUse" x1="2006.28" x2="1969.54" xlink:href="#f" y1="401.007" y2="441.807"/><linearGradient id="i" gradientUnits="userSpaceOnUse" x1="1141.77" x2="1112.42" xlink:href="#f" y1="284.479" y2="317.073"/><linearGradient id="j" gradientUnits="userSpaceOnUse" x1="979.915" x2="951.236" xlink:href="#f" y1="1126.65" y2="1158.5"/><linearGradient id="k"><stop offset=".212454" stop-color="#6d92d1"/><stop offset=".593089" stop-color="#dd4f7f"/></linearGradient><linearGradient id="l" gradientUnits="userSpaceOnUse" x1="1763.97" x2="1760.26" xlink:href="#k" y1="709.817" y2="739.681"/><linearGradient id="m" gradientUnits="userSpaceOnUse" x1="557.971" x2="554.261" xlink:href="#k" y1="239.067" y2="268.931"/><linearGradient id="n" gradientUnits="userSpaceOnUse" x1="108.91" x2="98.353" xlink:href="#k" y1="137.57" y2="222.566"/><linearGradient id="o" gradientUnits="userSpaceOnUse" x1="57.8379" x2="42.4169" xlink:href="#k" y1="603.183" y2="727.34"/><g stroke="#2f2f2f"><path d="m70.4117 81.2494c.3221-.8707 1.5535-.8707 1.8757 0l1.9722 5.3297c.1013.2738.3171.4896.5908.5908l5.3298 1.9722c.8706.3222.8706 1.5536 0 1.8757l-5.3298 1.9722c-.2737.1013-.4895.3171-.5908.5909l-1.9722 5.3297c-.3222.8707-1.5536.8707-1.8757 0l-1.9722-5.3297c-.1013-.2738-.3171-.4896-.5908-.5909l-5.3298-1.9721c-.8706-.3222-.8706-1.5536 0-1.8758l5.3298-1.9722c.2737-.1012.4895-.317.5908-.5908z" fill="#f4e7d2" stroke-linecap="round" stroke-width="3"/><path d="m2384.19 398.956c.32-.87 1.55-.87 1.87 0l6.17 16.674c.1.274.32.49.59.591l16.68 6.17c.87.322.87 1.553 0 1.875l-16.68 6.17c-.27.101-.49.317-.59.591l-6.17 16.674c-.32.87-1.55.87-1.87 0l-6.17-16.674c-.11-.274-.32-.49-.6-.591l-16.67-6.17c-.87-.322-.87-1.553 0-1.875l16.67-6.17c.28-.101.49-.317.6-.591z" fill="#f4e7d2" stroke-linecap="round" stroke-width="3"/><path d="m2079.13 966.124c.32-.87 1.55-.87 1.87 0l3.49 9.411c.1.273.31.489.59.59l9.41 3.482c.87.323.87 1.554 0 1.876l-9.41 3.482c-.28.101-.49.317-.59.591l-3.49 9.41c-.32.871-1.55.871-1.87 0l-3.48-9.41c-.1-.274-.32-.49-.59-.591l-9.41-3.482c-.87-.322-.87-1.553 0-1.876l9.41-3.482c.27-.101.49-.317.59-.59z" fill="#f4e7d2" stroke-linecap="round" stroke-width="3"/><path d="m355.982 1104.85c.322-.88 1.554-.88 1.876 0l2.954 7.98c.101.27.317.49.591.59l7.982 2.95c.871.32.871 1.56 0 1.88l-7.982 2.95c-.274.1-.49.32-.591.59l-2.954 7.99c-.322.87-1.554.87-1.876 0l-2.954-7.99c-.101-.27-.317-.49-.591-.59l-7.983-2.95c-.87-.32-.87-1.56 0-1.88l7.983-2.95c.274-.1.49-.32.591-.59z" fill="#f4e7d2" stroke-linecap="round" stroke-width="3"/><path d="m1473.78 808.351c.33-.871 1.56-.871 1.88 0l3.36 9.078c.1.273.31.489.59.59l9.08 3.36c.87.322.87 1.553 0 1.875l-9.08 3.359c-.28.102-.49.317-.59.591l-3.36 9.078c-.32.871-1.55.871-1.88 0l-3.36-9.078c-.1-.274-.31-.489-.59-.591l-9.07-3.359c-.88-.322-.88-1.553 0-1.875l9.07-3.36c.28-.101.49-.317.59-.59z" fill="#f4e7d2" stroke-linecap="round" stroke-width="3"/><path d="m2104.5 546.753c.32-.87 1.55-.87 1.87 0l3.36 9.078c.1.274.32.49.59.591l9.08 3.359c.87.322.87 1.553 0 1.876l-9.08 3.359c-.27.101-.49.317-.59.59l-3.36 9.078c-.32.871-1.55.871-1.87 0l-3.36-9.078c-.1-.273-.32-.489-.59-.59l-9.08-3.359c-.87-.323-.87-1.554 0-1.876l9.08-3.359c.27-.101.49-.317.59-.591z" fill="#f4e7d2" stroke-linecap="round" stroke-width="3"/><path d="m1838.45 687.007c.33-.87 1.56-.87 1.88 0l3.36 9.078c.1.274.32.489.59.591l9.08 3.359c.87.322.87 1.553 0 1.876l-9.08 3.359c-.27.101-.49.317-.59.59l-3.36 9.078c-.32.871-1.55.871-1.88 0l-3.35-9.078c-.11-.273-.32-.489-.6-.59l-9.07-3.359c-.87-.323-.87-1.554 0-1.876l9.07-3.359c.28-.102.49-.317.6-.591z" fill="#f4e7d2" stroke-linecap="round" stroke-width="3"/><path d="m2175.31 304.734c.32-.871 1.55-.871 1.87 0l3.36 9.077c.1.274.32.49.59.591l9.08 3.359c.87.323.87 1.554 0 1.876l-9.08 3.359c-.27.101-.49.317-.59.591l-3.36 9.078c-.32.87-1.55.87-1.87 0l-3.36-9.078c-.1-.274-.32-.49-.59-.591l-9.08-3.359c-.87-.322-.87-1.553 0-1.876l9.08-3.359c.27-.101.49-.317.59-.591z" fill="#f4e7d2" stroke-linecap="round" stroke-width="3"/><path d="m1775.36 380.601c.32-.871 1.55-.871 1.88 0l2.97 8.039c.1.274.32.49.59.591l8.04 2.975c.87.322.87 1.554 0 1.876l-8.04 2.975c-.27.101-.49.317-.59.591l-2.97 8.039c-.33.871-1.56.871-1.88 0l-2.97-8.039c-.11-.274-.32-.49-.6-.591l-8.03-2.975c-.88-.322-.88-1.554 0-1.876l8.03-2.975c.28-.101.49-.317.6-.591z" fill="url(#b)" stroke-linecap="round" stroke-width="3"/><path d="m801.864 938.972c.323-.871 1.554-.871 1.876 0l2.975 8.04c.101.273.317.489.591.59l8.039 2.975c.871.322.871 1.554 0 1.876l-8.039 2.975c-.274.101-.49.317-.591.591l-2.975 8.039c-.322.871-1.553.871-1.876 0l-2.975-8.039c-.101-.274-.317-.49-.59-.591l-8.04-2.975c-.871-.322-.871-1.554 0-1.876l8.04-2.975c.273-.101.489-.317.59-.59z" fill="url(#c)" stroke-linecap="round" stroke-width="3"/><path d="m2001.21 573.812c.32-.871 1.55-.871 1.87 0l2.98 8.039c.1.274.32.49.59.591l8.04 2.975c.87.322.87 1.554 0 1.876l-8.04 2.975c-.27.101-.49.317-.59.591l-2.98 8.039c-.32.871-1.55.871-1.87 0l-2.98-8.039c-.1-.274-.31-.49-.59-.591l-8.04-2.975c-.87-.322-.87-1.554 0-1.876l8.04-2.975c.28-.101.49-.317.59-.591z" fill="url(#d)" stroke-linecap="round" stroke-width="3"/><path d="m162.536 322.646c.322-.871 1.554-.871 1.876 0l2.975 8.039c.101.274.317.49.591.591l8.039 2.975c.871.322.871 1.554 0 1.876l-8.039 2.975c-.274.101-.49.317-.591.591l-2.975 8.039c-.322.871-1.554.871-1.876 0l-2.975-8.039c-.101-.274-.317-.49-.59-.591l-8.04-2.975c-.871-.322-.871-1.554 0-1.876l8.04-2.975c.273-.101.489-.317.59-.591z" fill="url(#e)" stroke-linecap="round" stroke-width="3"/><path d="m644.012 905.351c.323-.871 1.554-.871 1.876 0l5.042 13.625c.101.273.317.489.591.591l13.624 5.041c.871.322.871 1.554 0 1.876l-13.624 5.041c-.274.102-.49.318-.591.591l-5.042 13.625c-.322.871-1.553.871-1.876 0l-5.041-13.625c-.101-.273-.317-.489-.591-.591l-13.625-5.041c-.87-.322-.87-1.554 0-1.876l13.625-5.041c.274-.102.49-.318.591-.591z" fill="#f4e7d2" stroke-linecap="round" stroke-width="3"/><path d="m30.7996 275.775c.3221-.871 1.5535-.871 1.8757 0l5.0416 13.625c.1013.273.3171.489.5908.59l13.6248 5.042c.8706.322.8706 1.554 0 1.876l-13.6248 5.041c-.2737.102-.4895.317-.5908.591l-5.0416 13.625c-.3222.871-1.5536.871-1.8757 0l-5.0417-13.625c-.1013-.274-.3171-.489-.5908-.591l-13.6248-5.041c-.8706-.322-.8706-1.554 0-1.876l13.6248-5.042c.2737-.101.4895-.317.5908-.59z" fill="#f4e7d2" stroke-linecap="round" stroke-width="3"/><path d="m521.787 722.351c.322-.871 1.554-.871 1.876 0l2.55 6.891c.101.274.317.49.591.591l6.891 2.55c.871.322.871 1.554 0 1.876l-6.891 2.55c-.274.101-.49.317-.591.59l-2.55 6.892c-.322.87-1.554.87-1.876 0l-2.55-6.892c-.101-.273-.317-.489-.591-.59l-6.891-2.55c-.87-.322-.87-1.554 0-1.876l6.891-2.55c.274-.101.49-.317.591-.591z" fill="#f4e7d2" stroke-linecap="round" stroke-width="3"/><path d="m694.345 86.4486c.323-.8706 1.554-.8706 1.876 0l4.98 13.4572c.101.2732.317.4892.59.5912l13.458 4.979c.87.322.87 1.554 0 1.876l-13.458 4.98c-.273.101-.489.317-.59.59l-4.98 13.458c-.322.87-1.553.87-1.876 0l-4.979-13.458c-.102-.273-.317-.489-.591-.59l-13.457-4.98c-.871-.322-.871-1.554 0-1.876l13.457-4.979c.274-.102.489-.318.591-.5912z" fill="#f4e7d2" stroke-linecap="round" stroke-width="3"/><path d="m377.426 1019.55c.322-.87 1.553-.87 1.875 0l2.808 7.59c.102.27.317.49.591.59l7.588 2.81c.871.32.871 1.55 0 1.87l-7.588 2.81c-.274.1-.489.32-.591.59l-2.808 7.59c-.322.87-1.553.87-1.875 0l-2.808-7.59c-.101-.27-.317-.49-.591-.59l-7.588-2.81c-.871-.32-.871-1.55 0-1.87l7.588-2.81c.274-.1.49-.32.591-.59z" fill="#f4e7d2" stroke-linecap="round" stroke-width="3"/><path d="m45.2597 1170.53c.3222-.87 1.5535-.87 1.8757 0l2.8079 7.59c.1013.27.3171.49.5908.59l7.5882 2.81c.8706.32.8706 1.55 0 1.87l-7.5882 2.81c-.2737.1-.4895.32-.5908.59l-2.8079 7.59c-.3222.87-1.5535.87-1.8757 0l-2.8079-7.59c-.1013-.27-.3171-.49-.5908-.59l-7.5882-2.81c-.8706-.32-.8706-1.55 0-1.87l7.5882-2.81c.2737-.1.4895-.32.5908-.59z" fill="#f4e7d2" stroke-linecap="round" stroke-width="3"/><path d="m741.128 345.083c-.318-.879-1.562-.879-1.881 0l-2.642 7.305c-.1.274-.314.491-.587.595l-7.204 2.726c-.862.326-.862 1.545 0 1.871l7.204 2.726c.273.104.487.321.587.595l2.642 7.305c.319.879 1.563.879 1.881 0l2.643-7.305c.099-.274.313-.491.586-.595l7.205-2.726c.861-.326.861-1.545 0-1.871l-7.205-2.726c-.273-.104-.487-.321-.586-.595z" fill="#f4e7d2" stroke-linecap="round" stroke-width="3"/><path d="m736.836 131.449c.322-.871 1.553-.871 1.875 0l2.954 7.982c.102.274.317.49.591.591l7.983 2.954c.871.322.871 1.554 0 1.876l-7.983 2.954c-.274.101-.489.317-.591.591l-2.954 7.983c-.322.87-1.553.87-1.875 0l-2.954-7.983c-.102-.274-.317-.49-.591-.591l-7.983-2.954c-.871-.322-.871-1.554 0-1.876l7.983-2.954c.274-.101.489-.317.591-.591z" fill="url(#g)" stroke-linecap="round" stroke-width="3"/><path d="m1985.88 398.956c.32-.87 1.55-.87 1.87 0l6.34 17.136c.1.274.32.49.59.591l17.14 6.341c.87.322.87 1.553 0 1.875l-17.14 6.341c-.27.101-.49.317-.59.591l-6.34 17.136c-.32.87-1.55.87-1.87 0l-6.34-17.136c-.1-.274-.32-.49-.59-.591l-17.14-6.341c-.87-.322-.87-1.553 0-1.875l17.14-6.341c.27-.101.49-.317.59-.591z" fill="url(#h)" stroke-linecap="round" stroke-width="3"/><path d="m1125.28 283.351c.33-.871 1.56-.871 1.88 0l4.84 13.092c.1.274.32.49.59.591l13.1 4.845c.87.322.87 1.553 0 1.875l-13.1 4.845c-.27.101-.49.317-.59.591l-4.84 13.092c-.32.871-1.55.871-1.88 0l-4.84-13.092c-.1-.274-.32-.49-.59-.591l-13.09-4.845c-.88-.322-.88-1.553 0-1.875l13.09-4.845c.27-.101.49-.317.59-.591z" fill="url(#i)" stroke-linecap="round" stroke-width="3"/><path d="m963.783 1125.6c.322-.87 1.553-.87 1.876 0l4.709 12.73c.101.27.317.49.591.59l12.727 4.71c.871.32.871 1.55 0 1.87l-12.727 4.71c-.274.11-.49.32-.591.59l-4.709 12.73c-.323.87-1.554.87-1.876 0l-4.71-12.73c-.101-.27-.317-.48-.59-.59l-12.728-4.71c-.87-.32-.87-1.55 0-1.87l12.728-4.71c.273-.1.489-.32.59-.59z" fill="url(#j)" stroke-linecap="round" stroke-width="3"/></g><circle cx="1760.72" cy="717.316" fill="url(#l)" r="6.5"/><circle cx="1760.72" cy="717.316" fill="#f6ebd8" r="6.5"/><circle cx="1760.72" cy="717.316" r="6.5" stroke="#2f2f2f" stroke-linecap="round" stroke-width="3"/><ellipse cx="941.373" cy="1001.43" fill="#f6ebd8" rx="3.26965" ry="3.25137" transform="matrix(.97143575 .23730273 -.23730273 .97143575 264.531692 -194.785287)"/><ellipse cx="218.086" cy="3.93439" fill="#f6ebd8" rx="3.26965" ry="3.25137" transform="matrix(.97143575 .23730273 -.23730273 .97143575 7.163105 -51.640021)"/><ellipse fill="#f6ebd8" rx="3.26965" ry="3.25137" transform="matrix(-.473799 .880633 .880633 .473799 122.572 1087.09)"/><ellipse cx="1766.82" cy="83.9149" fill="#f6ebd8" opacity=".5" rx="3.26965" ry="3.25137" transform="matrix(.97143575 .23730273 -.23730273 .97143575 70.381127 -416.874249)"/><ellipse cx="986.27" cy="885.775" fill="#f6ebd8" opacity=".5" rx="4.87848" ry="4.8512" transform="matrix(.97143575 .23730273 -.23730273 .97143575 238.368893 -208.743067)"/><ellipse cx="368.6" cy="696.835" fill="#f6ebd8" opacity=".5" rx="4.87848" ry="4.8512" transform="matrix(.97143575 .23730273 -.23730273 .97143575 175.889633 -67.565217)"/><ellipse cx="2135.89" cy="527.349" fill="#f6ebd8" opacity=".5" rx="4.87848" ry="4.8512" transform="matrix(.97143575 .23730273 -.23730273 .97143575 186.151459 -491.789206)"/><ellipse cx="1823.25" cy="239.05" fill="#f6ebd8" opacity=".5" rx="4.87848" ry="4.8512" transform="matrix(.97143575 .23730273 -.23730273 .97143575 108.806991 -425.833924)"/><ellipse cx="2385.12" cy="737.648" fill="#f6ebd8" opacity=".5" rx="4.87848" ry="4.8512" transform="matrix(.97143575 .23730273 -.23730273 .97143575 243.175055 -544.925132)"/><ellipse cx="1984.48" cy="779.769" fill="#f6ebd8" opacity=".5" rx="4.87848" ry="4.8512" transform="matrix(.97143575 .23730273 -.23730273 .97143575 241.726502 -448.64901)"/><ellipse fill="#f6ebd8" opacity=".5" rx="4.87848" ry="4.8512" transform="matrix(-.473799 .880633 .880633 .473799 6.58375 1043.05)"/><ellipse fill="#f6ebd8" opacity=".5" rx="4.87848" ry="4.8512" transform="matrix(-.473799 .880633 .880633 .473799 252.674 1210.22)"/><ellipse cx="1581.36" cy="926.953" fill="#f6ebd8" rx="5.12412" ry="5.09547" transform="matrix(.80892363 -.58791374 .58791374 .80892363 -242.807873 1106.822082)"/><ellipse cx="2334.06" cy="890.713" fill="#f6ebd8" rx="5.12412" ry="5.09547" transform="matrix(.80892363 -.58791374 .58791374 .80892363 -77.678694 1542.420144)"/><ellipse cx="2124.64" cy="958.65" fill="#f6ebd8" rx="5.12412" ry="5.09547" transform="matrix(.80892363 -.58791374 .58791374 .80892363 -157.635003 1432.280405)"/><circle cx="554.721" cy="246.566" fill="url(#m)" r="6.5"/><circle cx="554.721" cy="246.566" fill="#f6ebd8" r="6.5"/><circle cx="554.721" cy="246.566" r="6.5" stroke="#2f2f2f" stroke-linecap="round" stroke-width="3"/><path d="m98.7223 142.949c.3222-.871 1.5537-.871 1.8757 0l3.899 10.537c.102.274.317.49.591.591l10.538 3.899c.87.322.87 1.554 0 1.876l-10.538 3.899c-.274.101-.489.317-.591.591l-3.899 10.538c-.322.87-1.5535.87-1.8757 0l-3.8992-10.538c-.1013-.274-.3171-.49-.5909-.591l-10.5375-3.899c-.8707-.322-.8707-1.554 0-1.876l10.5375-3.899c.2738-.101.4896-.317.5909-.591z" fill="url(#n)" stroke="#292929" stroke-linecap="round" stroke-width="3"/><path d="m43.3884 609.872c.3222-.87 1.5536-.87 1.8757 0l6.2014 16.759c.1013.274.3171.49.5908.591l16.759 6.202c.8707.322.8707 1.553 0 1.875l-16.759 6.202c-.2737.101-.4895.317-.5908.59l-6.2014 16.759c-.3221.871-1.5535.871-1.8757 0l-6.2014-16.759c-.1012-.273-.317-.489-.5908-.59l-16.759-6.202c-.8706-.322-.8706-1.553 0-1.875l16.759-6.202c.2738-.101.4896-.317.5908-.591z" fill="url(#o)" stroke="#292929" stroke-linecap="round" stroke-width="3"/></svg>