<svg fill="none" height="309" viewBox="0 0 504 309" width="504" xmlns="http://www.w3.org/2000/svg" xmlns:xlink="http://www.w3.org/1999/xlink"><linearGradient id="a"><stop offset="0" stop-color="#485466"/><stop offset="1" stop-color="#2d2d2d"/></linearGradient><linearGradient id="b" gradientUnits="userSpaceOnUse" x1="49.0736" x2="149.366" xlink:href="#a" y1="141.089" y2="141.967"/><linearGradient id="c"><stop offset="0" stop-color="#ffb843"/><stop offset="1" stop-color="#fff"/></linearGradient><linearGradient id="d" gradientUnits="userSpaceOnUse" x1="141.464" x2="118.757" xlink:href="#c" y1="23.6031" y2="138.415"/><linearGradient id="e" gradientUnits="userSpaceOnUse" x1="143.99" x2="121.652" xlink:href="#c" y1="23.6031" y2="138.566"/><linearGradient id="f" gradientUnits="userSpaceOnUse" x1="343.387" x2="351.19" xlink:href="#c" y1="28.9361" y2="44.5259"/><linearGradient id="g"><stop offset="0" stop-color="#ffc9db"/><stop offset=".713144" stop-color="#dd4f7f"/></linearGradient><linearGradient id="h" gradientUnits="userSpaceOnUse" x1="347.454" x2="341.936" xlink:href="#g" y1="20.1321" y2="38.9841"/><linearGradient id="i" gradientUnits="userSpaceOnUse" x1="278.176" x2="285.979" xlink:href="#c" y1="28.9361" y2="44.5259"/><linearGradient id="j" gradientUnits="userSpaceOnUse" x1="282.243" x2="276.725" xlink:href="#g" y1="20.1321" y2="38.9841"/><linearGradient id="k" gradientUnits="userSpaceOnUse" x1="137.733" x2="140.815" xlink:href="#a" y1="31.0289" y2="125.221"/><linearGradient id="l" gradientUnits="userSpaceOnUse" x1="52.3208" x2="146.912" xlink:href="#a" y1="113.413" y2="116.522"/><linearGradient id="m" gradientUnits="userSpaceOnUse" x1="66.3584" x2="213.108" xlink:href="#a" y1="51.9743" y2="53.0371"/><linearGradient id="n" gradientUnits="userSpaceOnUse" x1="335.852" x2="225.142" xlink:href="#a" y1="124.214" y2="125.816"/><linearGradient id="o" gradientUnits="userSpaceOnUse" x1="223.374" x2="112.665" xlink:href="#a" y1="124.214" y2="125.816"/><linearGradient id="p" gradientUnits="userSpaceOnUse" x1="19.3184" x2="23.3505" xlink:href="#c" y1="176.591" y2="215.631"/><linearGradient id="q" gradientUnits="userSpaceOnUse" x1="11.9735" x2="7.26149" xlink:href="#c" y1="3.22089" y2="17.9986"/><linearGradient id="r" gradientUnits="userSpaceOnUse" x1="13.6015" x2="8.24878" xlink:href="#c" y1="3.65882" y2="20.4457"/><clipPath id="s"><path d="m0 0h504v309h-504z"/></clipPath><g clip-path="url(#s)"><path clip-rule="evenodd" d="m212.889 130.061c1.741-3.161 5.771-4.083 9.003-2.058 3.231 2.024 4.44 6.228 2.699 9.389-1.74 3.161-5.771 4.083-9.002 2.058-3.232-2.024-4.44-6.228-2.7-9.389zm6.849 28.882c7.687 4.816 10.562 14.816 6.421 22.336-1.801 3.271-4.632 5.534-7.89 6.651-.648.222-.961.992-.621 1.587 5.018 8.786 5.656 19.651.752 28.557-2.815 5.113-7.049 8.84-11.969 11.011-.767.339-.89 1.433-.207 1.92 3.741 2.674 6.931 6.065 9.261 10.08 8.647 14.896 2.196 32.731-14.407 39.838-16.604 7.106-37.074.792-45.72-14.104-2.59-4.461-3.825-9.185-3.839-13.807-.002-.702-.685-1.224-1.364-1.043-11.125 2.963-23.633-1.653-29.225-11.287-6.185-10.654-1.571-23.412 10.305-28.495 11.877-5.083 26.518-.566 32.703 10.088.952 1.641 1.648 3.331 2.101 5.036.177.662.93 1.011 1.54.698.708-.363 1.437-.706 2.187-1.027 1.799-.77 3.644-1.383 5.515-1.844.832-.205 1.109-1.307.479-1.888-10.101-9.303-13.247-24.42-6.793-36.144 5.336-9.69 15.764-14.398 26.301-12.985.695.093 1.303-.512 1.236-1.21-.298-3.103.27-6.26 1.818-9.071 4.14-7.52 13.728-9.713 21.416-4.897z" fill="#f4e7d2" fill-rule="evenodd"/><path clip-rule="evenodd" d="m212.889 130.061c1.741-3.161 5.771-4.083 9.003-2.058 3.231 2.024 4.44 6.228 2.699 9.389-1.74 3.161-5.771 4.083-9.002 2.058-3.232-2.024-4.44-6.228-2.7-9.389zm6.849 28.882c7.687 4.816 10.562 14.816 6.421 22.336-1.801 3.271-4.632 5.534-7.89 6.651-.648.222-.961.992-.621 1.587 5.018 8.786 5.656 19.651.752 28.557-2.815 5.113-7.049 8.84-11.969 11.011-.767.339-.89 1.433-.207 1.92 3.741 2.674 6.931 6.065 9.261 10.08 8.647 14.896 2.196 32.731-14.407 39.838-16.604 7.106-37.074.792-45.72-14.104-2.59-4.461-3.825-9.185-3.839-13.807-.002-.702-.685-1.224-1.364-1.043-11.125 2.963-23.633-1.653-29.225-11.287-6.185-10.654-1.571-23.412 10.305-28.495 11.877-5.083 26.518-.566 32.703 10.088.952 1.641 1.648 3.331 2.101 5.036.177.662.93 1.011 1.54.698.708-.363 1.437-.706 2.187-1.027 1.799-.77 3.644-1.383 5.515-1.844.832-.205 1.109-1.307.479-1.888-10.101-9.303-13.247-24.42-6.793-36.144 5.336-9.69 15.764-14.398 26.301-12.985.695.093 1.303-.512 1.236-1.21-.298-3.103.27-6.26 1.818-9.071 4.14-7.52 13.728-9.713 21.416-4.897z" fill="#fff" fill-rule="evenodd"/><path d="m221.892 128.003.796-1.272zm2.699 9.389 1.314.723zm1.568 43.887-1.314-.723zm-6.421-22.336.796-1.271zm-1.338 59.131-1.314-.724zm-2.915 23.011 1.298-.753zm-14.407 39.838-.591-1.379zm-45.72-14.104 1.297-.753zm-34.428-26.137 1.297-.753zm10.305-28.495.59 1.379zm32.703 10.088 1.297-.753zm5.828 4.707-.591-1.379zm-.799-39.876-1.314-.723zm29.355-23.266-1.314-.723zm-3.054 10.281-.199 1.486zm1.236-1.21 1.493-.143zm-44.985 80.101-1.5.005zm-1.364-1.043.386 1.449zm25.126-26.831-.359-1.456zm.479-1.888-1.016 1.103zm30.671 5.835-.605-1.372zm-.207 1.92.872-1.22zm-40.185-3.694 1.45-.385zm1.54.698.685 1.334zm50.69-40.079.487 1.419zm-.621 1.587 1.302-.744zm5.04-62.786c-3.889-2.436-8.916-1.383-11.113 2.607l2.628 1.446c1.285-2.333 4.318-3.123 6.892-1.51zm3.217 11.384c2.158-3.92.627-8.975-3.217-11.384l-1.593 2.543c2.619 1.64 3.505 4.992 2.182 7.394zm-11.113 2.607c3.889 2.436 8.917 1.383 11.113-2.607l-2.628-1.447c-1.284 2.334-4.318 3.124-6.892 1.511zm-3.217-11.384c-2.158 3.92-.627 8.975 3.217 11.384l1.593-2.543c-2.619-1.64-3.505-4.992-2.182-7.395zm15.898 52.665c4.559-8.279 1.361-19.131-6.939-24.331l-1.593 2.542c7.075 4.432 9.627 13.58 5.904 20.342zm-8.717 7.346c3.599-1.234 6.731-3.739 8.717-7.346l-2.628-1.447c-1.615 2.934-4.146 4.956-7.062 5.955zm.958 29.448c5.185-9.417 4.482-20.84-.764-30.024l-2.605 1.487c4.791 8.389 5.363 18.696.741 27.09zm-12.677 11.66c5.214-2.301 9.7-6.252 12.677-11.66l-2.628-1.447c-2.653 4.819-6.635 8.321-11.26 10.363zm9.746 9.875c-2.446-4.213-5.786-7.759-9.687-10.547l-1.744 2.441c3.581 2.559 6.62 5.795 8.836 9.612zm-15.115 41.97c17.356-7.429 24.253-26.227 15.115-41.97l-2.595 1.506c8.154 14.048 2.151 30.922-13.701 37.706zm-47.607-14.73c9.055 15.599 30.358 22.112 47.607 14.73l-1.181-2.758c-15.959 6.83-35.594.714-43.832-13.478zm-4.042-14.555c.015 4.89 1.323 9.872 4.042 14.555l2.594-1.506c-2.46-4.238-3.623-8.706-3.636-13.058zm-30.387-11.582c5.968 10.28 19.2 15.102 30.909 11.983l-.772-2.899c-10.541 2.808-22.324-1.601-27.542-10.59zm11.013-30.627c-12.629 5.405-17.69 19.125-11.013 30.627l2.595-1.506c-5.693-9.806-1.525-21.602 9.598-26.363zm34.59 10.714c-6.593-11.358-22.069-16.073-34.59-10.714l1.18 2.758c11.232-4.807 25.039-.489 30.815 9.462zm2.254 5.404c-.488-1.837-1.236-3.651-2.254-5.404l-2.595 1.506c.887 1.528 1.532 3.095 1.95 4.668zm1.686-1.323c-.781.334-1.542.692-2.281 1.072l1.37 2.668c.676-.347 1.374-.675 2.092-.982zm5.747-1.921c-1.948.48-3.87 1.118-5.747 1.921l1.181 2.758c1.723-.738 3.491-1.325 5.284-1.767zm-7.269-37.299c-6.823 12.393-3.461 28.252 7.091 37.97l2.032-2.206c-9.65-8.888-12.58-23.264-6.495-34.317zm27.814-13.749c-11.106-1.489-22.159 3.478-27.814 13.749l2.628 1.447c5.016-9.11 14.821-13.559 24.788-12.223zm1.541-9.517c-1.705 3.095-2.321 6.558-1.997 9.938l2.986-.287c-.271-2.827.248-5.678 1.639-8.204zm23.526-5.445c-8.345-5.228-18.93-2.904-23.526 5.445l2.628 1.447c3.684-6.693 12.275-8.754 19.305-4.35zm-25.465 17.935c1.686.227 3.084-1.214 2.928-2.839l-2.986.287c-.013-.134.041-.245.109-.311.069-.069.195-.13.347-.11zm-42.05 77.401c-.005-1.689-1.623-2.922-3.25-2.489l.772 2.899c-.144.039-.278-.003-.362-.068-.084-.064-.16-.183-.16-.333zm22.621-26.414c2.008-.495 2.635-3.067 1.136-4.447l-2.032 2.206c-.142-.13-.151-.299-.129-.386.022-.088.113-.238.307-.285zm30.186 1.119c-1.805.796-2.125 3.334-.474 4.513l1.744-2.441c.157.112.189.279.179.368-.009.087-.072.231-.238.304zm-41.236-.017c.413 1.556 2.184 2.412 3.674 1.647l-1.37-2.668c.136-.07.279-.058.376-.014.094.043.184.134.219.265zm53.193-41.185c-1.488.51-2.27 2.291-1.438 3.749l2.605-1.487c.077.133.068.273.032.364-.034.086-.11.172-.226.212z" fill="#2f2f2f"/><path clip-rule="evenodd" d="m322.06 107.653c-2.094-3.804-6.944-4.913-10.832-2.477-3.889 2.436-5.343 7.494-3.249 11.298 2.095 3.804 6.945 4.913 10.833 2.477s5.343-7.495 3.248-11.298zm-8.239 34.753c-9.25 5.795-12.709 17.828-7.727 26.877 2.217 4.026 5.73 6.783 9.763 8.093.652.212.965.981.62 1.573-6.167 10.615-6.993 23.809-1.046 34.609 3.461 6.287 8.704 10.831 14.789 13.417.771.328.894 1.418.207 1.899-4.651 3.253-8.614 7.419-11.49 12.373-10.404 17.924-2.642 39.385 17.337 47.936s44.61.953 55.014-16.97c3.172-5.464 4.655-11.256 4.619-16.911-.004-.702.678-1.224 1.355-1.036 8.626 2.386 17.976.962 25.363-3.442.308-.184.711-.044.84.291.844 2.177 1.962 4.157 3.3 5.917.284.373.289.89.009 1.266-4.041 5.437-6.222 12.442-5.465 19.313 1.354 12.288 11.593 19.491 22.869 16.089 6.855-2.068 12.516-7.58 15.596-14.346.307-.674 1.215-.844 1.756-.337.581.544 1.195 1.057 1.841 1.532 3.445 2.537 7.295 3.667 11.036 3.517.933-.037 1.662 1.135 1.21 1.953-1.594 2.885-2.38 6.259-2.014 9.58.807 7.326 6.912 11.62 13.634 9.592 6.723-2.028 11.518-9.611 10.711-16.937-.609-5.52-4.224-9.319-8.846-9.989-.906-.131-1.503-1.333-.983-2.087.437-.635.848-1.306 1.228-2.013 5.428-10.093 2.599-23.599-6.32-30.166-3.051-2.247-6.42-3.39-9.75-3.518-.568-.022-1.033-.481-1.047-1.049-.07-2.819-.612-5.656-1.675-8.399-4.994-12.888-19.584-18.839-32.587-13.294-.983.419-1.929.892-2.836 1.414-.533.307-1.221.096-1.494-.455-2.562-5.173-7.119-9.568-13.322-12.223-14.291-6.116-31.909-.682-39.351 12.139-1.197 2.062-2.058 4.19-2.6 6.334-.168.664-.921 1.013-1.529.696-.931-.486-1.893-.943-2.885-1.367-2.304-.986-4.67-1.758-7.069-2.323-.834-.197-1.11-1.294-.473-1.868 12.415-11.167 16.34-29.558 8.504-43.791-6.47-11.75-19.163-17.413-31.941-15.585-.694.099-1.301-.505-1.224-1.202.423-3.828-.246-7.738-2.157-11.209-4.982-9.049-16.52-11.687-25.77-5.893z" fill="#f4e7d2" fill-rule="evenodd"/><path clip-rule="evenodd" d="m322.06 107.653c-2.094-3.804-6.944-4.913-10.832-2.477-3.889 2.436-5.343 7.494-3.249 11.298 2.095 3.804 6.945 4.913 10.833 2.477s5.343-7.495 3.248-11.298zm-8.239 34.753c-9.25 5.795-12.709 17.828-7.727 26.877 2.217 4.026 5.73 6.783 9.763 8.093.652.212.965.981.62 1.573-6.167 10.615-6.993 23.809-1.046 34.609 3.461 6.287 8.704 10.831 14.789 13.417.771.328.894 1.418.207 1.899-4.651 3.253-8.614 7.419-11.49 12.373-10.404 17.924-2.642 39.385 17.337 47.936s44.61.953 55.014-16.97c3.172-5.464 4.655-11.256 4.619-16.911-.004-.702.678-1.224 1.355-1.036 8.626 2.386 17.976.962 25.363-3.442.308-.184.711-.044.84.291.844 2.177 1.962 4.157 3.3 5.917.284.373.289.89.009 1.266-4.041 5.437-6.222 12.442-5.465 19.313 1.354 12.288 11.593 19.491 22.869 16.089 6.855-2.068 12.516-7.58 15.596-14.346.307-.674 1.215-.844 1.756-.337.581.544 1.195 1.057 1.841 1.532 3.445 2.537 7.295 3.667 11.036 3.517.933-.037 1.662 1.135 1.21 1.953-1.594 2.885-2.38 6.259-2.014 9.58.807 7.326 6.912 11.62 13.634 9.592 6.723-2.028 11.518-9.611 10.711-16.937-.609-5.52-4.224-9.319-8.846-9.989-.906-.131-1.503-1.333-.983-2.087.437-.635.848-1.306 1.228-2.013 5.428-10.093 2.599-23.599-6.32-30.166-3.051-2.247-6.42-3.39-9.75-3.518-.568-.022-1.033-.481-1.047-1.049-.07-2.819-.612-5.656-1.675-8.399-4.994-12.888-19.584-18.839-32.587-13.294-.983.419-1.929.892-2.836 1.414-.533.307-1.221.096-1.494-.455-2.562-5.173-7.119-9.568-13.322-12.223-14.291-6.116-31.909-.682-39.351 12.139-1.197 2.062-2.058 4.19-2.6 6.334-.168.664-.921 1.013-1.529.696-.931-.486-1.893-.943-2.885-1.367-2.304-.986-4.67-1.758-7.069-2.323-.834-.197-1.11-1.294-.473-1.868 12.415-11.167 16.34-29.558 8.504-43.791-6.47-11.75-19.163-17.413-31.941-15.585-.694.099-1.301-.505-1.224-1.202.423-3.828-.246-7.738-2.157-11.209-4.982-9.049-16.52-11.687-25.77-5.893z" fill="#fff" fill-rule="evenodd"/><path d="m311.228 105.176-.797-1.272zm10.832 2.477-1.314.723zm-14.081 8.821 1.314-.724zm10.833 2.477.796 1.271zm-12.718 50.332-1.314.724zm7.727-26.877.797 1.272zm1.61 71.152 1.314-.724zm3.506 27.689 1.297.753zm72.351 30.966 1.297.753zm30.021 5.398-1.491.164zm22.869 16.089-.433-1.436zm19.193-13.151-.889 1.208zm10.232 15.05-1.491.164zm24.345-7.345 1.491-.164zm-8.601-14.089 1.321.71zm-6.32-30.166.89-1.207zm-12.472-12.966 1.398-.542zm-32.587-13.294.588 1.38zm-17.652-11.264.59-1.379zm-39.351 12.139-1.297-.753v-.001zm-7.014 5.663.591-1.379zm.962-47.982-1.314.723zm-35.322-27.996-1.314.723zm3.381 12.411.213 1.485zm-1.224-1.202 1.491.165zm36.617 65.44 1.454.368zm-1.529.696-.694 1.329zm96.441 14.837.057-1.499zm-1.047-1.049 1.5-.037zm2.177 44.634.06 1.499zm1.21 1.953 1.313.725zm-48.852-28.987 1.195-.908zm.009 1.266 1.204.895zm-59.892-36.344-.344 1.46zm-.473-1.868-1.003-1.115zm29.498 35.216 1.5-.009zm1.355-1.036.4-1.446zm91.84 23.999.216-1.484zm-.983-2.087-1.235-.851zm-65.494-25.354.768 1.288zm12.507-31.671-.748-1.3zm-1.494-.455 1.344-.666zm-103.418 8.277.587-1.38zm.207 1.899.86 1.229zm-14.57-51.498-.463 1.427zm.62 1.573-1.297-.754zm-6.046-75.045c4.546-2.847 10.393-1.607 12.943 3.025l-2.628 1.447c-1.638-2.976-5.491-3.953-8.722-1.929zm-3.766 13.293c-2.512-4.562-.735-10.473 3.766-13.293l1.593 2.543c-3.276 2.052-4.407 6.258-2.731 9.303zm12.943 3.025c-4.545 2.848-10.392 1.607-12.943-3.025l2.628-1.447c1.639 2.976 5.492 3.954 8.723 1.93zm3.766-13.293c2.513 4.563.735 10.473-3.766 13.293l-1.592-2.542c3.275-2.052 4.407-6.259 2.73-9.304zm-18.594 63.078c-5.4-9.808-1.618-22.693 8.245-28.872l1.593 2.543c-8.637 5.411-11.774 16.592-7.21 24.882zm10.614 8.796c-4.384-1.424-8.208-4.426-10.614-8.796l2.628-1.447c2.027 3.681 5.231 6.193 8.913 7.389zm-1.277 35.478c-6.231-11.315-5.336-25.071 1.063-36.086l2.594 1.507c-5.935 10.217-6.692 22.848-1.029 33.132zm15.516 14.075c-6.386-2.715-11.889-7.487-15.516-14.075l2.628-1.447c3.295 5.986 8.279 10.303 14.062 12.761zm-11.993 12.138c2.994-5.157 7.112-9.481 11.927-12.849l1.72 2.458c-4.487 3.139-8.295 7.146-11.053 11.897zm18.044 50.068c-20.732-8.873-28.941-31.296-18.044-50.068l2.594 1.506c-9.912 17.076-2.597 37.576 16.63 45.804zm56.901-17.596c-10.812 18.627-36.277 26.423-56.901 17.596l1.18-2.758c19.334 8.275 43.131.876 53.127-16.344zm4.822-17.673c.038 5.928-1.519 11.983-4.822 17.673l-2.594-1.506c3.04-5.237 4.45-10.767 4.416-16.148zm25.986-3.181c-7.728 4.608-17.499 6.098-26.531 3.599l.8-2.891c8.221 2.274 17.15.916 24.194-3.285zm2.178 5.828c-1.422-1.871-2.609-3.974-3.504-6.284l2.797-1.083c.793 2.046 1.842 3.903 3.096 5.551zm-5.753 19.835c-.802-7.285 1.509-14.663 5.752-20.372l2.408 1.79c-3.839 5.164-5.889 11.797-5.178 18.253zm24.793 17.361c-6.058 1.828-11.918.819-16.451-2.37-4.525-3.184-7.622-8.463-8.342-14.991l2.982-.329c.635 5.761 3.335 10.227 7.086 12.866 3.744 2.634 8.641 3.526 13.859 1.952zm16.528-15.16c-3.228 7.09-9.192 12.947-16.528 15.16l-.866-2.872c6.375-1.923 11.731-7.09 14.664-13.531zm1.343 1.781c-.695-.511-1.354-1.061-1.978-1.646l2.051-2.189c.539.505 1.108.979 1.706 1.42zm11.985 3.808c-4.092.164-8.275-1.076-11.985-3.808l1.779-2.415c3.18 2.341 6.697 3.362 10.086 3.226zm-2.355 10.198c-.403-3.66.464-7.342 2.192-10.469l2.626 1.45c-1.461 2.643-2.164 5.709-1.836 8.691zm15.558 10.864c-3.781 1.141-7.47.516-10.331-1.497-2.854-2.008-4.781-5.32-5.227-9.367l2.982-.328c.362 3.279 1.891 5.777 3.971 7.241 2.073 1.458 4.798 1.966 7.739 1.079zm11.769-18.537c.88 7.991-4.304 16.285-11.769 18.537l-.866-2.872c5.981-1.804 10.386-8.677 9.653-15.337zm-10.121-11.309c5.379.779 9.447 5.195 10.121 11.309l-2.982.328c-.543-4.926-3.707-8.108-7.57-8.668zm1.35-1.906c-.406.755-.845 1.473-1.315 2.154l-2.469-1.702c.406-.589.788-1.214 1.142-1.873zm-6.751-32.083c9.551 7.032 12.514 21.367 6.751 32.083l-2.642-1.421c5.093-9.47 2.397-22.146-5.888-28.247zm-10.583-3.81c3.64.14 7.298 1.39 10.583 3.81l-1.779 2.415c-2.818-2.075-5.899-3.111-8.918-3.227zm-1.381-8.491c1.128 2.909 1.703 5.917 1.777 8.904l-2.999.074c-.066-2.651-.576-5.317-1.575-7.894zm-34.573-14.132c13.752-5.865 29.261.422 34.573 14.132l-2.797 1.084c-4.675-12.066-18.345-17.682-30.6-12.456zm-2.996 1.494c.958-.551 1.957-1.051 2.996-1.494l1.176 2.76c-.928.396-1.82.842-2.676 1.334zm-13.478-12.757c6.514 2.788 11.347 7.427 14.076 12.936l-2.688 1.332c-2.396-4.837-6.676-8.988-12.568-11.51zm-41.238 12.764c7.85-13.523 26.303-19.156 41.238-12.764l-1.18 2.758c-13.646-5.84-30.43-.604-37.464 11.513zm-2.757 6.72c.577-2.282 1.491-4.539 2.757-6.719l2.594 1.506c-1.128 1.944-1.936 3.942-2.443 5.949zm-2.369-1.682c1.027.439 2.023.912 2.988 1.416l-1.388 2.659c-.897-.468-1.824-.908-2.781-1.317zm-7.316-2.404c2.481.585 4.93 1.383 7.316 2.404l-1.181 2.758c-2.223-.952-4.506-1.696-6.823-2.242zm9.001-44.923c8.208 14.91 4.061 34.049-8.814 45.631l-2.007-2.231c11.954-10.752 15.657-28.395 8.193-41.953zm-33.467-16.346c13.35-1.91 26.675 4.011 33.467 16.346l-2.628 1.447c-6.148-11.164-18.209-16.569-30.414-14.823zm-1.855-11.65c2.072 3.763 2.788 7.987 2.334 12.098l-2.982-.33c.392-3.546-.23-7.142-1.98-10.321zm-27.88-6.44c9.907-6.206 22.442-3.437 27.88 6.44l-2.628 1.447c-4.526-8.221-15.067-10.727-23.659-5.344zm30.16 21.06c-1.694.242-3.11-1.209-2.928-2.852l2.982.33c.015-.14-.041-.26-.115-.333-.076-.075-.209-.137-.364-.115zm36.634 63.121c-.399 1.577-2.187 2.436-3.677 1.657l1.388-2.659c-.138-.072-.287-.061-.389-.014-.101.046-.196.143-.23.28zm93.401 16.664c-1.339-.051-2.455-1.13-2.489-2.511l2.999-.074c-.006-.244-.194-.405-.396-.413zm1.127 40.588c1.138-.046 2.009.637 2.459 1.363s.677 1.813.124 2.813l-2.626-1.45c-.048.085-.052.162-.049.198.003.031.009.033.002.021-.008-.013-.009-.006.015.008.029.018.098.048.195.044zm-15.938-3.835c.742-1.63 2.874-2.003 4.146-.811l-2.051 2.189c.11.103.245.123.341.105.098-.019.227-.092.294-.24zm-30.449-22.609c.684.901.699 2.153.018 3.069l-2.408-1.79c-.122.164-.116.382.001.537zm-61.422-32.71c-2.026-.478-2.659-3.069-1.132-4.443l2.007 2.231c.146-.132.16-.309.135-.408-.025-.1-.125-.254-.322-.3zm27.869 31.898c-.011-1.7 1.62-2.944 3.255-2.492l-.8 2.891c.28.078.547-.124.545-.418zm94.48 24.438c-1.055-.153-1.801-.892-2.163-1.645-.363-.754-.486-1.842.16-2.778l2.469 1.702c.058-.084.072-.164.072-.206.001-.034-.006-.037.003-.018s.018.026.013.022c-.007-.006-.047-.035-.123-.046zm-67.031-30.215c1.112-.662 2.545-.158 3.008 1.038l-2.797 1.083c.203.526.832.751 1.326.456zm14.024-29.082c-1.287.741-2.932.231-3.586-1.089l2.688-1.332c-.109-.219-.376-.307-.598-.179zm-105.073 5.142c1.833.779 2.152 3.339.48 4.508l-1.72-2.458c-.16.112-.199.286-.187.387.011.1.082.251.253.324zm-14.486-49.646c1.517.494 2.3 2.296 1.453 3.753l-2.594-1.507c-.078.136-.072.282-.033.38.038.095.122.187.247.228z" fill="#2f2f2f"/><path d="m30.3011 152.871 6.4772-31.017h58.2131l6.3956 30.626c.242 1.161-.024 2.389-.858 3.233-7.2675 7.351-21.5592 8.872-35.9985 8.872-7.8102 0-27.7472-1.545-33.7155-9.051-.5916-.744-.7083-1.733-.5139-2.663z" fill="url(#b)" stroke="#2f2f2f" stroke-linecap="round" stroke-width="3"/><rect fill="url(#d)" height="109.364" rx="18.5" stroke="#2f2f2f" stroke-linecap="round" stroke-width="3" transform="matrix(1 0 0 -1 124.185 109.364)" width="213.912" x="1.5" y="-1.5"/><rect fill="url(#e)" height="109.364" rx="18.5" stroke="#2f2f2f" stroke-linecap="round" stroke-width="3" transform="matrix(1 0 0 -1 163.006 109.364)" width="217.784" x="1.5" y="-1.5"/><circle fill="#f6ebd8" r="22.7926" stroke="#2f2f2f" stroke-linecap="round" stroke-width="3" transform="matrix(-1 0 0 1 345.519 38.2584)"/><circle fill="#f6ebd8" r="22.7926" stroke="#2f2f2f" stroke-linecap="round" stroke-width="3" transform="matrix(-1 0 0 1 280.307 38.2584)"/><path d="m367.521 43.4414h-44.005" stroke="#2f2f2f" stroke-width="3"/><path d="m302.311 43.4414h-44.006" stroke="#2f2f2f" stroke-width="3"/><path d="m346.453 27.5289c-.327-.8582-1.542-.8582-1.869 0l-6.069 15.9116h14.006z" fill="url(#f)"/><path d="m346.453 27.5289c-.327-.8582-1.542-.8582-1.869 0l-6.069 15.9116h14.006z" fill="url(#h)"/><path d="m346.453 27.5289c-.327-.8582-1.542-.8582-1.869 0l-6.069 15.9116h14.006z" stroke="#2f2f2f" stroke-linecap="round" stroke-width="3"/><path d="m281.242 27.5289c-.327-.8582-1.541-.8582-1.869 0l-6.068 15.9116h14.006z" fill="url(#i)"/><path d="m281.242 27.5289c-.327-.8582-1.541-.8582-1.869 0l-6.068 15.9116h14.006z" fill="url(#j)"/><path d="m281.242 27.5289c-.327-.8582-1.541-.8582-1.869 0l-6.068 15.9116h14.006z" stroke="#2f2f2f" stroke-linecap="round" stroke-width="3"/><path d="m343.455 71.7197h-11.174-17.733-17.733-11.174c-3.622 0-6.559 2.9364-6.559 6.5585 0 3.6222 2.937 6.5585 6.559 6.5585h11.174 17.733 17.733 11.174c3.622 0 6.559-2.9363 6.559-6.5585 0-3.6221-2.937-6.5585-6.559-6.5585z" fill="#9997c8"/><path d="m314.548 71.7197h17.733m-17.733 0h-17.733m17.733 0v13.117m17.733-13.117h11.174c3.622 0 6.559 2.9364 6.559 6.5585 0 3.6222-2.937 6.5585-6.559 6.5585h-11.174m0-13.117v13.117m-35.466-13.117h-11.174c-3.622 0-6.559 2.9364-6.559 6.5585 0 3.6222 2.937 6.5585 6.559 6.5585h11.174m0-13.117v13.117m0 0h17.733m0 0h17.733" stroke="#2f2f2f" stroke-linecap="round" stroke-width="3"/><rect fill="#f6ebd8" height="40.8058" rx="6" stroke="#2f2f2f" stroke-linecap="round" stroke-width="3" transform="matrix(-1 0 0 1 244.209 47.0566)" width="65.3941"/><path d="m-1.5 1.5h25.4636v15.3014h-25.4636z" fill="#6d92d1" transform="matrix(-1 0 0 1 222.709 57.9062)"/><path d="m-1.5 1.5h25.4636v15.3014h-25.4636z" fill="#9997c8" transform="matrix(-1 0 0 1 222.709 57.9062)"/><path d="m-1.5 1.5h25.4636v15.3014h-25.4636z" stroke="#2f2f2f" stroke-width="3" transform="matrix(-1 0 0 1 222.709 57.9062)"/><rect fill="#6d92d1" height="15.3014" rx="7.65068" transform="matrix(-1 0 0 1 231.282 15.4658)" width="53.0206" x="-1.5" y="1.5"/><rect fill="#9997c8" height="15.3014" rx="7.65068" transform="matrix(-1 0 0 1 231.282 15.4658)" width="53.0206" x="-1.5" y="1.5"/><rect height="15.3014" rx="7.65068" stroke="#2f2f2f" stroke-width="3" transform="matrix(-1 0 0 1 231.282 15.4658)" width="53.0206" x="-1.5" y="1.5"/><rect fill="#6d92d1" height="8.14493" rx="4.07244" transform="matrix(-1 0 0 1 227.704 19.0449)" width="8.14488" x="-1.5" y="1.5"/><rect fill="#f6ebd8" height="8.14493" rx="4.07244" transform="matrix(-1 0 0 1 227.704 19.0449)" width="8.14488" x="-1.5" y="1.5"/><g stroke="#2f2f2f" stroke-width="3"><rect height="8.14493" rx="4.07244" transform="matrix(-1 0 0 1 227.704 19.0449)" width="8.14488" x="-1.5" y="1.5"/><circle fill="#dd4f7f" r="7.65063" transform="matrix(-1 0 0 1 225.685 67.0569)"/><circle fill="#dd4f7f" r="7.65063" transform="matrix(-1 0 0 1 197.34 67.0569)"/><path d="m136.009 13.0977c-1.953 0-3.792.9473-4.884 2.5661-16.584 24.5678-15.172 38.1492-.013 59.0972 1.105 1.5277 2.891 2.4138 4.777 2.4138h9.023c.832 0 1.667-.1494 2.374-.587 13.84-8.5583 14.527-57.4564-.336-63.2321-.506-.1966-1.051-.258-1.594-.258z" fill="url(#k)"/><path d="m34.3135 109.976c0-.85.5089-1.616 1.2917-1.946 19.7479-8.3208 42.0178-8.3208 61.7657 0 .7828.33 1.2917 1.096 1.2917 1.946v10.477c0 .849-.5089 1.616-1.2917 1.946-19.7479 8.32-42.0178 8.32-61.7657 0-.7828-.33-1.2917-1.097-1.2917-1.946z" fill="url(#l)"/><path clip-rule="evenodd" d="m131.862 72.1667c-20.711-.0007-37.6702 16.0675-39.0894 36.4183-.1158 1.659-1.1281 3.153-2.6858 3.737-15.8114 5.929-33.2356 5.929-49.0469 0-1.5577-.584-2.5978-2.08-2.5494-3.743 1.4663-50.3084 42.7103-90.6403 93.3735-90.6386 3.817.0002 7.307 2.3046 8.444 5.9481 4.494 14.4027 3.963 28.1084-.174 42.2718-1.062 3.6362-4.484 6.0065-8.272 6.0064z" fill="url(#m)" fill-rule="evenodd"/><circle fill="#9997c8" r="2.61792" stroke-linecap="round" transform="matrix(-1 0 0 1 371.948 13.0984)"/><circle fill="#9997c8" r="2.61792" stroke-linecap="round" transform="matrix(-1 0 0 1 371.948 101.702)"/><circle fill="#9997c8" r="2.61792" stroke-linecap="round" transform="matrix(-1 0 0 1 174.266 13.0984)"/><circle fill="#9997c8" r="2.61792" stroke-linecap="round" transform="matrix(-1 0 0 1 174.266 101.702)"/><path d="m351.066 116.227c-.543-2.825-3.015-4.868-5.892-4.868h-51.778c-2.878 0-5.35 2.043-5.893 4.868l-4.473 23.282c-.71 3.7 2.125 7.132 5.893 7.132h60.724c3.767 0 6.603-3.432 5.892-7.132z" fill="url(#n)"/><path d="m238.589 116.227c-.543-2.825-3.015-4.868-5.893-4.868h-51.778c-2.877 0-5.349 2.043-5.892 4.868l-4.473 23.282c-.711 3.7 2.124 7.132 5.892 7.132h60.724c3.768 0 6.603-3.432 5.892-7.132z" fill="url(#o)"/><path d="m351.012 117.189h-63.592" stroke-linecap="round"/><path d="m238.534 117.189h-63.592" stroke-linecap="round"/><path d="m352.458 125.063h-65.852" stroke-linecap="round"/><path d="m239.98 125.063h-65.851" stroke-linecap="round"/><path d="m354.225 132.936h-69.385" stroke-linecap="round"/><path d="m241.747 132.936h-69.385" stroke-linecap="round"/><path d="m355.476 140.811h-71.888" stroke-linecap="round"/><path d="m242.998 140.811h-71.887" stroke-linecap="round"/></g><path d="m31.5926 189.332c-2.7375-1.939-4.4913-4.976-4.8015-8.316-.2144-2.309-3.1847-3.105-4.5245-1.213-1.9386 2.738-4.9764 4.492-8.3164 4.802-2.3083.214-3.1042 3.184-1.2123 4.524 2.7374 1.939 4.4912 4.977 4.8014 8.317.2144 2.308 3.1847 3.104 4.5245 1.212 1.9387-2.737 4.9764-4.491 8.3164-4.802 2.3083-.214 3.1042-3.184 1.2124-4.524z" fill="url(#p)"/><path d="m31.5926 189.332c-2.7375-1.939-4.4913-4.976-4.8015-8.316-.2144-2.309-3.1847-3.105-4.5245-1.213-1.9386 2.738-4.9764 4.492-8.3164 4.802-2.3083.214-3.1042 3.184-1.2123 4.524 2.7374 1.939 4.4912 4.977 4.8014 8.317.2144 2.308 3.1847 3.104 4.5245 1.212 1.9387-2.737 4.9764-4.491 8.3164-4.802 2.3083-.214 3.1042-3.184 1.2124-4.524z" fill="#f6ebd8"/><path d="m31.5926 189.332c-2.7375-1.939-4.4913-4.976-4.8015-8.316-.2144-2.309-3.1847-3.105-4.5245-1.213-1.9386 2.738-4.9764 4.492-8.3164 4.802-2.3083.214-3.1042 3.184-1.2123 4.524 2.7374 1.939 4.4912 4.977 4.8014 8.317.2144 2.308 3.1847 3.104 4.5245 1.212 1.9387-2.737 4.9764-4.491 8.3164-4.802 2.3083-.214 3.1042-3.184 1.2124-4.524z" stroke="#2f2f2f" stroke-linecap="round" stroke-width="3"/><path d="m79.5034 223.568 11.8936-21.384c1.6107-2.896.5689-6.549-2.327-8.16l-12.3851-6.889c-2.8959-1.61-6.5492-.569-8.1599 2.327l-11.8937 21.384" stroke="#2f2f2f" stroke-linecap="round" stroke-width="3"/><path d="m31.6572 268.778-9.4919-33.284" stroke="#2f2f2f" stroke-linecap="round" stroke-width="3"/><ellipse fill="url(#q)" rx="9.17971" ry="7.66663" stroke="#2f2f2f" stroke-linecap="round" stroke-width="3" transform="matrix(-.873917 -.486076 -.486076 .873917 87.5265 228.029)"/><ellipse fill="url(#r)" rx="10.4278" ry="8.70901" stroke="#2f2f2f" stroke-linecap="round" stroke-width="3" transform="matrix(.96166 -.274245 -.274245 -.96166 12.1377 238.354)"/><ellipse fill="url(#q)" rx="9.17971" ry="7.66663" stroke="#2f2f2f" stroke-linecap="round" stroke-width="3" transform="matrix(-.873917 -.486076 -.486076 .873917 64.6535 215.308)"/></g></svg>