<svg width="435" height="148" viewBox="0 0 435 148" fill="none" xmlns="http://www.w3.org/2000/svg">
<path d="M69.3177 33.2721C69.1616 33.399 69.0738 33.571 69.0738 33.7503L77.3502 114.969C77.3502 115.148 77.4381 115.32 77.5942 115.448L95.1443 120.875C97.6679 119.499 88.1964 132.47 81.1106 133.751L55.6611 139.289C55.0421 139.424 54.4756 138.964 54.6415 138.461L58.3425 127.243C58.4401 126.947 58.2809 126.634 57.9546 126.482L39.8245 117.979C39.2694 117.719 39.2694 117.069 39.8245 116.808L55.442 109.484C55.9971 109.224 55.9971 108.573 55.442 108.313L39.8245 100.989C39.2694 100.729 39.2694 100.078 39.8245 99.8177L55.4436 92.4928C55.9986 92.2325 55.9986 91.5824 55.4436 91.322L39.8245 83.9972C39.2694 83.7368 39.2694 83.0859 39.8245 82.8256L55.4436 75.5013C55.9986 75.241 55.9986 74.5903 55.4436 74.33L39.8245 67.0054C39.2694 66.7451 39.2694 66.0944 39.8245 65.8341L55.4422 58.5101C55.9972 58.2498 55.9972 57.5991 55.4422 57.3388L39.8245 50.0148C39.2694 49.7545 39.2694 49.1038 39.8245 48.8435L55.4436 41.5189C55.9986 41.2586 55.9986 40.6079 55.4436 40.3476L39.8245 33.023C39.2694 32.7627 39.2694 32.112 39.8245 31.8517L55.1358 24.6714C55.4621 24.5184 55.6213 24.2064 55.5237 23.9107L52.1823 13.7816C52.0164 13.2788 52.5829 12.8187 53.2019 12.9535L80.712 19.0875C81.3304 19.2223 81.538 19.8508 81.0848 20.2189L69.3177 33.2721Z" fill="url(#paint0_linear_4213_2954)" stroke="#2F2F2F" stroke-width="3"/>
<path d="M55.3995 33.3258L66.1696 35.8851M55.3995 50.4303H64.4754M56.4896 67.138H69.9203M58.031 84.1405H72.0983M54.7949 100.651H66.1696M68.4673 128.51L76.8157 123.158M55.3995 117.949L68.4673 117.261M64.4754 22.6133L72.8235 30.0826" stroke="#2F2F2F" stroke-width="3" stroke-linecap="round" stroke-linejoin="round"/>
<path d="M365.683 33.2721C365.839 33.399 365.927 33.571 365.927 33.7503L357.65 114.969C357.65 115.148 357.562 115.32 357.406 115.448L339.856 120.875C337.333 119.499 346.804 132.47 353.89 133.751L379.34 139.289C379.958 139.424 380.525 138.964 380.359 138.461L376.658 127.243C376.561 126.947 376.72 126.634 377.046 126.482L395.176 117.979C395.731 117.719 395.731 117.069 395.176 116.808L379.559 109.484C379.003 109.224 379.003 108.573 379.559 108.313L395.176 100.989C395.731 100.729 395.731 100.078 395.176 99.8177L379.557 92.4928C379.002 92.2325 379.002 91.5824 379.557 91.322L395.176 83.9972C395.731 83.7368 395.731 83.0859 395.176 82.8256L379.557 75.5013C379.002 75.241 379.002 74.5903 379.557 74.33L395.176 67.0054C395.731 66.7451 395.731 66.0944 395.176 65.8341L379.559 58.5101C379.003 58.2498 379.003 57.5991 379.559 57.3388L395.176 50.0148C395.731 49.7545 395.731 49.1038 395.176 48.8435L379.557 41.5189C379.002 41.2586 379.002 40.6079 379.557 40.3476L395.176 33.023C395.731 32.7627 395.731 32.112 395.176 31.8517L379.865 24.6714C379.538 24.5184 379.379 24.2064 379.477 23.9107L382.818 13.7816C382.984 13.2788 382.417 12.8187 381.799 12.9535L354.288 19.0875C353.67 19.2223 353.462 19.8508 353.916 20.2189L365.683 33.2721Z" fill="url(#paint1_linear_4213_2954)" stroke="#2F2F2F" stroke-width="3"/>
<path d="M379.6 33.3258L368.83 35.8851M379.6 50.4303H370.523M378.51 67.138H365.079M376.968 84.1405H362.901M380.204 100.651H368.83M366.532 128.51L358.184 123.158M379.6 117.949L366.532 117.261M370.523 22.6133L362.176 30.0826" stroke="#2F2F2F" stroke-width="3" stroke-linecap="round" stroke-linejoin="round"/>
<path d="M64.416 69.3476C64.416 41.0403 64.416 26.8867 85.3036 18.0927C106.19 9.29883 139.808 9.29883 207.044 9.29883H230.987C298.222 9.29883 331.84 9.29883 352.727 18.0927C373.615 26.8867 373.615 41.0403 373.615 69.3476V79.4284C373.615 107.735 373.615 121.889 352.727 130.683C331.84 139.477 298.222 139.477 230.987 139.477H207.044C139.808 139.477 106.19 139.477 85.3036 130.683C64.416 121.889 64.416 107.735 64.416 79.4284V69.3476Z" fill="url(#paint2_linear_4213_2954)" stroke="#2F2F2F" stroke-width="3"/>
<path fill-rule="evenodd" clip-rule="evenodd" d="M325.762 27.0655C325.762 25.7845 326.707 24.9349 328.269 25.04L339.255 25.0405C350.038 25.7668 358.61 34.5797 359.26 45.6085L359.743 53.8184C359.838 55.4156 358.647 56.7883 357.085 56.8847C355.524 56.9809 354.181 55.7643 354.087 54.1671L353.602 45.9571C353.124 37.8416 343.688 30.6205 338.894 30.1718L328.269 29.2039C326.707 29.0986 325.762 28.2339 325.762 27.0655Z" fill="white" stroke="#2F2F2F" stroke-width="3" stroke-linejoin="round"/>
<path d="M103.449 123.056C80.0733 123.056 76.541 115.384 76.541 95.543M117.846 123.056H128.467" stroke="#2F2F2F" stroke-width="3" stroke-linecap="round" stroke-linejoin="round"/>
<path d="M237.063 36.0186C254.26 36.0304 264.449 36.103 264.577 36.1826C264.705 36.2635 264.81 42.9639 264.81 51.0732V65.8184L258.851 65.6182C255.574 65.508 252.406 65.5315 251.81 65.6709L250.727 65.9248L252.897 67.0146C262.347 71.7576 266.845 78.8955 266.791 89.0625C266.768 93.4435 266.271 95.6897 264.503 99.3975C262.191 104.247 257.544 108.58 251.896 111.152C250.428 111.82 250.207 111.827 222.842 112L195.87 112.164C196.356 112.123 196.789 112.073 197.208 112.009C198.713 111.905 199.671 111.731 201.039 111.388C216.144 107.601 227.03 96.1962 229.959 81.0879C230.668 77.432 230.664 70.8205 229.951 67.1426C228.495 59.632 225.104 53.1272 219.79 47.6514C216.844 44.6156 215.012 43.1493 211.867 41.3086C206.28 38.0382 200.96 36.3963 194.737 36.0645C194.554 36.0452 194.369 36.0288 194.184 36.0137L209.534 36L237.063 36.0186Z" fill="black"/>
<path d="M181.252 112.015C173.22 110.873 165.886 107.124 159.86 101.08C152.295 93.4919 148.672 84.7734 148.662 74.1361C148.654 66.2271 150.9 58.8895 155.311 52.4088C157.183 49.6568 162.495 44.4108 165.308 42.5345C171.838 38.1797 178.991 36 186.754 36C194.06 36 200.026 37.6178 206.332 41.3088C209.476 43.1496 211.307 44.6159 214.254 47.6517C219.568 53.1277 222.959 59.6322 224.415 67.143C225.128 70.8209 225.132 77.4315 224.423 81.0874C221.495 96.196 210.609 107.601 195.503 111.388C193.258 111.951 192.115 112.064 187.85 112.145C185.092 112.198 182.123 112.139 181.252 112.015Z" fill="black"/>
<path d="M193.031 104.88C210.041 101.442 221.042 84.8656 217.604 67.8563C214.165 50.847 197.589 39.8456 180.58 43.284C163.57 46.7224 152.569 63.2986 156.007 80.3079C159.446 97.3172 176.022 108.319 193.031 104.88Z" fill="black" stroke="url(#paint3_radial_4213_2954)" stroke-width="2"/>
<path d="M242.534 96.5528V82.1005L247.689 82.0171L252.843 81.9337L250.835 80.4386C248.339 78.5801 245.068 74.8281 243.823 72.3959C241.582 68.0157 240.814 64.7056 240.807 59.3933C240.804 56.2676 240.912 55.1635 241.397 53.4131C243.019 47.5653 246.932 42.3099 252.418 38.6109L254.939 36.9116L278.66 36.6766C300.172 36.4635 302.463 36.5341 302.563 36.647C302.664 36.7599 302.773 43.2697 302.806 51.1129L302.867 65.3732H297.67C289.823 65.3732 290.14 65.2588 293.062 67.0362C297.721 69.8685 300.625 73.0338 302.511 77.3335C304.173 81.1232 304.515 83.0215 304.499 88.3737C304.487 92.4589 304.409 93.237 303.803 95.325C302.785 98.8337 301.321 101.598 299.189 104.036C297.042 106.493 294.713 108.389 292.167 109.753L290.426 110.686L266.48 110.845L242.535 111.005L242.534 96.5528Z" stroke="url(#paint4_linear_4213_2954)" stroke-width="2"/>
<path d="M190.441 36.6711C190.441 36.6711 161.549 36.6072 160.86 36.7639C157.035 37.634 152.14 39.6742 148.16 42.0572C138.772 47.6772 133.026 55.8981 131.02 66.5797C130.522 69.2317 130.5 70.2318 130.5 89.9832V111.299L145.996 111.37C154.519 111.41 162.745 111.44 164.275 111.437H167.924V99.4898L168.051 88.0799L176.969 88.0125L185.887 87.9452V79.51V71.0747L185.173 70.475C184.78 70.1452 182.498 68.4331 180.102 66.6703L175.745 63.4652L183.093 63.3973L190.441 63.3293V50.0002V36.6711ZM190.441 36.6711L176.589 36.6774" stroke="black" stroke-width="2"/>
<mask id="mask0_4213_2954" style="mask-type:alpha" maskUnits="userSpaceOnUse" x="148" y="36" width="77" height="77">
<path d="M181.252 112.015C173.22 110.873 165.886 107.124 159.86 101.08C152.295 93.4919 148.672 84.7734 148.662 74.1361C148.654 66.2271 150.9 58.8895 155.311 52.4088C157.183 49.6568 162.495 44.4108 165.308 42.5345C171.838 38.1797 178.991 36 186.754 36C194.06 36 200.026 37.6178 206.332 41.3088C209.476 43.1496 211.307 44.6159 214.254 47.6517C219.568 53.1277 222.959 59.6322 224.415 67.143C225.128 70.8209 225.132 77.4315 224.423 81.0874C221.495 96.196 210.609 107.601 195.503 111.388C193.258 111.951 192.115 112.064 187.85 112.145C185.092 112.198 182.123 112.139 181.252 112.015Z" fill="black"/>
</mask>
<g mask="url(#mask0_4213_2954)">
<path d="M190.441 36.6711C190.441 36.6711 161.549 36.6072 160.86 36.7639C157.035 37.634 152.14 39.6742 148.16 42.0572C138.772 47.6772 133.026 55.8981 131.02 66.5797C130.522 69.2317 130.5 70.2318 130.5 89.9832V110.616L145.996 110.688C154.519 110.728 162.745 110.757 164.275 110.754H167.924V99.4898L168.051 88.0799L176.969 88.0125L185.887 87.9452V79.51V71.0747L185.173 70.475C184.78 70.1452 182.498 68.4331 180.102 66.6703L175.745 63.4652L183.093 63.3973L190.441 63.3293V50.0002V36.6711ZM190.441 36.6711L176.589 36.6774" stroke="white" stroke-width="2"/>
</g>
<defs>
<linearGradient id="paint0_linear_4213_2954" x1="79.5957" y1="22.7094" x2="14.6443" y2="89.4177" gradientUnits="userSpaceOnUse">
<stop stop-color="#FFCF7F"/>
<stop offset="1" stop-color="#FFB843"/>
</linearGradient>
<linearGradient id="paint1_linear_4213_2954" x1="355.405" y1="22.7094" x2="420.356" y2="89.4176" gradientUnits="userSpaceOnUse">
<stop stop-color="#FFCF7F"/>
<stop offset="1" stop-color="#FFB843"/>
</linearGradient>
<linearGradient id="paint2_linear_4213_2954" x1="285.705" y1="19.3721" x2="262.109" y2="148.925" gradientUnits="userSpaceOnUse">
<stop stop-color="#FFCF7F"/>
<stop offset="1" stop-color="#FFB843"/>
</linearGradient>
<radialGradient id="paint3_radial_4213_2954" cx="0" cy="0" r="1" gradientTransform="matrix(-57.9718 -20.97 31.197 -86.2428 220.88 87.6936)" gradientUnits="userSpaceOnUse">
<stop stop-color="#B25DA6"/>
<stop offset="0.187905" stop-color="#6688C3"/>
<stop offset="0.414687" stop-color="#48A56A"/>
<stop offset="0.587473" stop-color="#EAAF41"/>
<stop offset="0.790497" stop-color="#CE4A4A"/>
</radialGradient>
<linearGradient id="paint4_linear_4213_2954" x1="241.695" y1="24.8205" x2="241.269" y2="112.202" gradientUnits="userSpaceOnUse">
<stop stop-color="#B25DA6"/>
<stop offset="0.155086" stop-color="#6688C3"/>
<stop offset="0.414687" stop-color="#48A56A"/>
<stop offset="0.587473" stop-color="#EAAF41"/>
<stop offset="0.790497" stop-color="#CE4A4A"/>
</linearGradient>
</defs>
</svg>
