<svg width="296" height="117" viewBox="0 0 296 117" fill="none" xmlns="http://www.w3.org/2000/svg">
<path d="M147.843 0.203125C138.65 0.203125 130.419 2.66184 123.15 7.57918C115.881 12.3896 110.162 19.1778 105.993 27.9435C105.173 29.6473 104.436 31.4109 103.777 33.2306H130.101C131.629 30.4465 133.48 28.2016 135.657 26.5004C139.185 23.8279 143.247 22.4911 147.843 22.4911C152.654 22.4911 156.77 23.8807 160.191 26.6601C162.327 28.3289 164.15 30.5196 165.661 33.2306H192.107C191.437 31.414 190.687 29.6507 189.855 27.9435C185.686 19.1778 179.967 12.3896 172.697 7.57918C165.428 2.66184 157.143 0.203125 147.843 0.203125ZM37.5248 1.96706L21.7915 33.2306H48.8716L64.9444 1.96706H37.5248ZM241.968 1.96706L226.235 33.2306H253.315L269.387 1.96706H241.968ZM0.324219 78.6618V89.9975H53.7195V115.172H78.4132V89.9975H91.0806V78.6618H0.324219ZM102.23 78.6618C103.201 82.3014 104.454 85.7603 105.993 89.0358C110.269 97.8014 116.095 104.643 123.471 109.56C130.847 114.478 139.078 116.937 148.164 116.937C157.357 116.937 165.535 114.531 172.697 109.721C179.967 104.803 185.686 97.9618 189.855 89.1961C191.467 85.8902 192.775 82.3783 193.78 78.6618H167.973C166.159 83.9023 163.566 87.8968 160.191 90.6393C156.77 93.3117 152.707 94.6478 148.004 94.6478C143.3 94.6478 139.185 93.2582 135.657 90.4789C132.317 87.7646 129.743 83.8229 127.931 78.6618H102.23ZM204.767 78.6618V89.9975H258.163V115.172H282.856V89.9975H295.524V78.6618H204.767Z" fill="#00DF08"/>
<path d="M13.3716 51.5153V37.4448H0.848214V74.8938H13.3716V60.9316H56.2474V74.8938H68.7708V37.4448H56.2474V51.5153H13.3716Z" fill="white"/>
<path d="M119.293 37.4448H107.324L75.3681 74.8938H88.8786L94.3691 68.2915H132.248L137.738 74.8938H151.249L119.293 37.4448ZM125.03 59.7411H101.587L113.308 46.0495L125.03 59.7411Z" fill="white"/>
<path d="M220.661 42.0434C216.281 38.3635 211.16 37.2811 202.524 37.2811H176.922C161.622 37.2811 152.677 44.154 152.677 56.168V56.2221C152.677 68.182 161.622 75.0549 176.922 75.0549H202.524C211.346 75.0549 216.343 73.9184 220.661 70.2926L213.381 62.7703C211.037 64.989 207.706 65.4761 202.524 65.4761H176.922C169.148 65.4761 164.707 62.2832 164.707 56.2221V56.168C164.707 50.0527 169.087 46.8599 176.922 46.8599H202.524C207.521 46.8599 210.975 47.2928 213.381 49.5657L220.661 42.0434Z" fill="white"/>
<path d="M270.446 51.7858H240.217V37.4448H227.694V74.8938H240.217V61.1481H270.384L281.18 74.8938H295.185L280.317 56.6022L295.185 37.4448H281.242L270.446 51.7858Z" fill="white"/>
</svg>
