<svg width="461" height="161" viewBox="0 0 461 161" fill="none" xmlns="http://www.w3.org/2000/svg">
<path d="M73.4609 36.1957C73.2954 36.3337 73.2024 36.5208 73.2024 36.7159L81.9735 125.068C81.9735 125.264 82.0666 125.451 82.2321 125.589L100.831 131.493C103.506 129.996 93.468 144.107 85.9586 145.5L58.988 151.525C58.332 151.672 57.7316 151.171 57.9074 150.624L61.8297 138.42C61.9331 138.098 61.7644 137.759 61.4186 137.593L42.2048 128.343C41.6166 128.061 41.6166 127.353 42.2048 127.069L58.7559 119.102C59.3441 118.819 59.3441 118.111 58.7559 117.828L42.2048 109.861C41.6166 109.578 41.6166 108.87 42.2048 108.586L58.7575 100.618C59.3457 100.335 59.3457 99.6278 58.7575 99.3445L42.2048 91.3763C41.6166 91.0931 41.6166 90.385 42.2048 90.1018L58.7575 82.1341C59.3457 81.851 59.3457 81.1431 58.7575 80.86L42.2048 72.892C41.6166 72.6088 41.6166 71.901 42.2048 71.6178L58.756 63.6505C59.3442 63.3674 59.3442 62.6595 58.756 62.3763L42.2048 54.409C41.6166 54.1259 41.6166 53.418 42.2048 53.1348L58.7575 45.1669C59.3457 44.8837 59.3457 44.1758 58.7575 43.8927L42.2048 35.9247C41.6166 35.6416 41.6166 34.9337 42.2048 34.6505L58.4313 26.8395C58.7771 26.673 58.9458 26.3337 58.8424 26.012L55.3013 14.9932C55.1254 14.4462 55.7258 13.9457 56.3819 14.0923L85.5362 20.7652C86.1915 20.9117 86.4116 21.5954 85.9313 21.9959L73.4609 36.1957Z" fill="#FFB843"/>
<path d="M73.4609 36.1957C73.2954 36.3337 73.2024 36.5208 73.2024 36.7159L81.9735 125.068C81.9735 125.264 82.0666 125.451 82.2321 125.589L100.831 131.493C103.506 129.996 93.468 144.107 85.9586 145.5L58.988 151.525C58.332 151.672 57.7316 151.171 57.9074 150.624L61.8297 138.42C61.9331 138.098 61.7644 137.759 61.4186 137.593L42.2048 128.343C41.6166 128.061 41.6166 127.353 42.2048 127.069L58.7559 119.102C59.3441 118.819 59.3441 118.111 58.7559 117.828L42.2048 109.861C41.6166 109.578 41.6166 108.87 42.2048 108.586L58.7575 100.618C59.3457 100.335 59.3457 99.6278 58.7575 99.3445L42.2048 91.3763C41.6166 91.0931 41.6166 90.385 42.2048 90.1018L58.7575 82.1341C59.3457 81.851 59.3457 81.1431 58.7575 80.86L42.2048 72.892C41.6166 72.6088 41.6166 71.901 42.2048 71.6178L58.756 63.6505C59.3442 63.3674 59.3442 62.6595 58.756 62.3763L42.2048 54.409C41.6166 54.1259 41.6166 53.418 42.2048 53.1348L58.7575 45.1669C59.3457 44.8837 59.3457 44.1758 58.7575 43.8927L42.2048 35.9247C41.6166 35.6416 41.6166 34.9337 42.2048 34.6505L58.4313 26.8395C58.7771 26.673 58.9458 26.3337 58.8424 26.012L55.3013 14.9932C55.1254 14.4462 55.7258 13.9457 56.3819 14.0923L85.5362 20.7652C86.1915 20.9117 86.4116 21.5954 85.9313 21.9959L73.4609 36.1957Z" fill="url(#paint0_linear_4213_3211)"/>
<path d="M73.4609 36.1957C73.2954 36.3337 73.2024 36.5208 73.2024 36.7159L81.9735 125.068C81.9735 125.264 82.0666 125.451 82.2321 125.589L100.831 131.493C103.506 129.996 93.468 144.107 85.9586 145.5L58.988 151.525C58.332 151.672 57.7316 151.171 57.9074 150.624L61.8297 138.42C61.9331 138.098 61.7644 137.759 61.4186 137.593L42.2048 128.343C41.6166 128.061 41.6166 127.353 42.2048 127.069L58.7559 119.102C59.3441 118.819 59.3441 118.111 58.7559 117.828L42.2048 109.861C41.6166 109.578 41.6166 108.87 42.2048 108.586L58.7575 100.618C59.3457 100.335 59.3457 99.6278 58.7575 99.3445L42.2048 91.3763C41.6166 91.0931 41.6166 90.385 42.2048 90.1018L58.7575 82.1341C59.3457 81.851 59.3457 81.1431 58.7575 80.86L42.2048 72.892C41.6166 72.6088 41.6166 71.901 42.2048 71.6178L58.756 63.6505C59.3442 63.3674 59.3442 62.6595 58.756 62.3763L42.2048 54.409C41.6166 54.1259 41.6166 53.418 42.2048 53.1348L58.7575 45.1669C59.3457 44.8837 59.3457 44.1758 58.7575 43.8927L42.2048 35.9247C41.6166 35.6416 41.6166 34.9337 42.2048 34.6505L58.4313 26.8395C58.7771 26.673 58.9458 26.3337 58.8424 26.012L55.3013 14.9932C55.1254 14.4462 55.7258 13.9457 56.3819 14.0923L85.5362 20.7652C86.1915 20.9117 86.4116 21.5954 85.9313 21.9959L73.4609 36.1957Z" fill="url(#paint1_linear_4213_3211)"/>
<path d="M73.4609 36.1957C73.2954 36.3337 73.2024 36.5208 73.2024 36.7159L81.9735 125.068C81.9735 125.264 82.0666 125.451 82.2321 125.589L100.831 131.493C103.506 129.996 93.468 144.107 85.9586 145.5L58.988 151.525C58.332 151.672 57.7316 151.171 57.9074 150.624L61.8297 138.42C61.9331 138.098 61.7644 137.759 61.4186 137.593L42.2048 128.343C41.6166 128.061 41.6166 127.353 42.2048 127.069L58.7559 119.102C59.3441 118.819 59.3441 118.111 58.7559 117.828L42.2048 109.861C41.6166 109.578 41.6166 108.87 42.2048 108.586L58.7575 100.618C59.3457 100.335 59.3457 99.6278 58.7575 99.3445L42.2048 91.3763C41.6166 91.0931 41.6166 90.385 42.2048 90.1018L58.7575 82.1341C59.3457 81.851 59.3457 81.1431 58.7575 80.86L42.2048 72.892C41.6166 72.6088 41.6166 71.901 42.2048 71.6178L58.756 63.6505C59.3442 63.3674 59.3442 62.6595 58.756 62.3763L42.2048 54.409C41.6166 54.1259 41.6166 53.418 42.2048 53.1348L58.7575 45.1669C59.3457 44.8837 59.3457 44.1758 58.7575 43.8927L42.2048 35.9247C41.6166 35.6416 41.6166 34.9337 42.2048 34.6505L58.4313 26.8395C58.7771 26.673 58.9458 26.3337 58.8424 26.012L55.3013 14.9932C55.1254 14.4462 55.7258 13.9457 56.3819 14.0923L85.5362 20.7652C86.1915 20.9117 86.4116 21.5954 85.9313 21.9959L73.4609 36.1957Z" fill="url(#paint2_linear_4213_3211)"/>
<path d="M73.4609 36.1957C73.2954 36.3337 73.2024 36.5208 73.2024 36.7159L81.9735 125.068C81.9735 125.264 82.0666 125.451 82.2321 125.589L100.831 131.493C103.506 129.996 93.468 144.107 85.9586 145.5L58.988 151.525C58.332 151.672 57.7316 151.171 57.9074 150.624L61.8297 138.42C61.9331 138.098 61.7644 137.759 61.4186 137.593L42.2048 128.343C41.6166 128.061 41.6166 127.353 42.2048 127.069L58.7559 119.102C59.3441 118.819 59.3441 118.111 58.7559 117.828L42.2048 109.861C41.6166 109.578 41.6166 108.87 42.2048 108.586L58.7575 100.618C59.3457 100.335 59.3457 99.6278 58.7575 99.3445L42.2048 91.3763C41.6166 91.0931 41.6166 90.385 42.2048 90.1018L58.7575 82.1341C59.3457 81.851 59.3457 81.1431 58.7575 80.86L42.2048 72.892C41.6166 72.6088 41.6166 71.901 42.2048 71.6178L58.756 63.6505C59.3442 63.3674 59.3442 62.6595 58.756 62.3763L42.2048 54.409C41.6166 54.1259 41.6166 53.418 42.2048 53.1348L58.7575 45.1669C59.3457 44.8837 59.3457 44.1758 58.7575 43.8927L42.2048 35.9247C41.6166 35.6416 41.6166 34.9337 42.2048 34.6505L58.4313 26.8395C58.7771 26.673 58.9458 26.3337 58.8424 26.012L55.3013 14.9932C55.1254 14.4462 55.7258 13.9457 56.3819 14.0923L85.5362 20.7652C86.1915 20.9117 86.4116 21.5954 85.9313 21.9959L73.4609 36.1957Z" fill="#6566AE"/>
<path d="M73.4609 36.1957C73.2954 36.3337 73.2024 36.5208 73.2024 36.7159L81.9735 125.068C81.9735 125.264 82.0666 125.451 82.2321 125.589L100.831 131.493C103.506 129.996 93.468 144.107 85.9586 145.5L58.988 151.525C58.332 151.672 57.7316 151.171 57.9074 150.624L61.8297 138.42C61.9331 138.098 61.7644 137.759 61.4186 137.593L42.2048 128.343C41.6166 128.061 41.6166 127.353 42.2048 127.069L58.7559 119.102C59.3441 118.819 59.3441 118.111 58.7559 117.828L42.2048 109.861C41.6166 109.578 41.6166 108.87 42.2048 108.586L58.7575 100.618C59.3457 100.335 59.3457 99.6278 58.7575 99.3445L42.2048 91.3763C41.6166 91.0931 41.6166 90.385 42.2048 90.1018L58.7575 82.1341C59.3457 81.851 59.3457 81.1431 58.7575 80.86L42.2048 72.892C41.6166 72.6088 41.6166 71.901 42.2048 71.6178L58.756 63.6505C59.3442 63.3674 59.3442 62.6595 58.756 62.3763L42.2048 54.409C41.6166 54.1259 41.6166 53.418 42.2048 53.1348L58.7575 45.1669C59.3457 44.8837 59.3457 44.1758 58.7575 43.8927L42.2048 35.9247C41.6166 35.6416 41.6166 34.9337 42.2048 34.6505L58.4313 26.8395C58.7771 26.673 58.9458 26.3337 58.8424 26.012L55.3013 14.9932C55.1254 14.4462 55.7258 13.9457 56.3819 14.0923L85.5362 20.7652C86.1915 20.9117 86.4116 21.5954 85.9313 21.9959L73.4609 36.1957Z" stroke="#292929" stroke-width="3"/>
<path d="M58.7111 36.2531L70.1249 39.0372M58.7111 54.86H68.3294M59.8663 73.0353H74.0998M61.4998 91.5313H76.4079M58.0703 109.492H70.1249M72.5598 139.798L81.4073 133.976M58.7111 128.309L72.5598 127.561M68.3294 24.5996L77.1765 32.7251" stroke="#2F2F2F" stroke-width="3" stroke-linecap="round" stroke-linejoin="round"/>
<path d="M387.54 36.1957C387.706 36.3337 387.799 36.5208 387.799 36.7159L379.028 125.068C379.028 125.264 378.935 125.451 378.769 125.589L360.17 131.493C357.496 129.996 367.533 144.107 375.043 145.5L402.014 151.525C402.669 151.672 403.27 151.171 403.094 150.624L399.171 138.42C399.068 138.098 399.237 137.759 399.582 137.593L418.797 128.343C419.385 128.061 419.385 127.353 418.797 127.069L402.246 119.102C401.657 118.819 401.657 118.111 402.246 117.828L418.797 109.861C419.385 109.578 419.385 108.87 418.797 108.586L402.244 100.618C401.655 100.335 401.655 99.6278 402.244 99.3445L418.797 91.3763C419.385 91.0931 419.385 90.385 418.797 90.1018L402.244 82.1341C401.655 81.851 401.655 81.1431 402.244 80.86L418.797 72.892C419.385 72.6088 419.385 71.901 418.797 71.6178L402.246 63.6505C401.657 63.3674 401.657 62.6595 402.246 62.3763L418.797 54.409C419.385 54.1259 419.385 53.418 418.797 53.1348L402.244 45.1669C401.655 44.8837 401.655 44.1758 402.244 43.8927L418.797 35.9247C419.385 35.6416 419.385 34.9337 418.797 34.6505L402.57 26.8395C402.224 26.673 402.055 26.3337 402.159 26.012L405.7 14.9932C405.876 14.4462 405.275 13.9457 404.62 14.0923L375.465 20.7652C374.81 20.9117 374.59 21.5954 375.07 21.9959L387.54 36.1957Z" fill="#FFB843"/>
<path d="M387.54 36.1957C387.706 36.3337 387.799 36.5208 387.799 36.7159L379.028 125.068C379.028 125.264 378.935 125.451 378.769 125.589L360.17 131.493C357.496 129.996 367.533 144.107 375.043 145.5L402.014 151.525C402.669 151.672 403.27 151.171 403.094 150.624L399.171 138.42C399.068 138.098 399.237 137.759 399.582 137.593L418.797 128.343C419.385 128.061 419.385 127.353 418.797 127.069L402.246 119.102C401.657 118.819 401.657 118.111 402.246 117.828L418.797 109.861C419.385 109.578 419.385 108.87 418.797 108.586L402.244 100.618C401.655 100.335 401.655 99.6278 402.244 99.3445L418.797 91.3763C419.385 91.0931 419.385 90.385 418.797 90.1018L402.244 82.1341C401.655 81.851 401.655 81.1431 402.244 80.86L418.797 72.892C419.385 72.6088 419.385 71.901 418.797 71.6178L402.246 63.6505C401.657 63.3674 401.657 62.6595 402.246 62.3763L418.797 54.409C419.385 54.1259 419.385 53.418 418.797 53.1348L402.244 45.1669C401.655 44.8837 401.655 44.1758 402.244 43.8927L418.797 35.9247C419.385 35.6416 419.385 34.9337 418.797 34.6505L402.57 26.8395C402.224 26.673 402.055 26.3337 402.159 26.012L405.7 14.9932C405.876 14.4462 405.275 13.9457 404.62 14.0923L375.465 20.7652C374.81 20.9117 374.59 21.5954 375.07 21.9959L387.54 36.1957Z" fill="url(#paint3_linear_4213_3211)"/>
<path d="M387.54 36.1957C387.706 36.3337 387.799 36.5208 387.799 36.7159L379.028 125.068C379.028 125.264 378.935 125.451 378.769 125.589L360.17 131.493C357.496 129.996 367.533 144.107 375.043 145.5L402.014 151.525C402.669 151.672 403.27 151.171 403.094 150.624L399.171 138.42C399.068 138.098 399.237 137.759 399.582 137.593L418.797 128.343C419.385 128.061 419.385 127.353 418.797 127.069L402.246 119.102C401.657 118.819 401.657 118.111 402.246 117.828L418.797 109.861C419.385 109.578 419.385 108.87 418.797 108.586L402.244 100.618C401.655 100.335 401.655 99.6278 402.244 99.3445L418.797 91.3763C419.385 91.0931 419.385 90.385 418.797 90.1018L402.244 82.1341C401.655 81.851 401.655 81.1431 402.244 80.86L418.797 72.892C419.385 72.6088 419.385 71.901 418.797 71.6178L402.246 63.6505C401.657 63.3674 401.657 62.6595 402.246 62.3763L418.797 54.409C419.385 54.1259 419.385 53.418 418.797 53.1348L402.244 45.1669C401.655 44.8837 401.655 44.1758 402.244 43.8927L418.797 35.9247C419.385 35.6416 419.385 34.9337 418.797 34.6505L402.57 26.8395C402.224 26.673 402.055 26.3337 402.159 26.012L405.7 14.9932C405.876 14.4462 405.275 13.9457 404.62 14.0923L375.465 20.7652C374.81 20.9117 374.59 21.5954 375.07 21.9959L387.54 36.1957Z" fill="url(#paint4_linear_4213_3211)"/>
<path d="M387.54 36.1957C387.706 36.3337 387.799 36.5208 387.799 36.7159L379.028 125.068C379.028 125.264 378.935 125.451 378.769 125.589L360.17 131.493C357.496 129.996 367.533 144.107 375.043 145.5L402.014 151.525C402.669 151.672 403.27 151.171 403.094 150.624L399.171 138.42C399.068 138.098 399.237 137.759 399.582 137.593L418.797 128.343C419.385 128.061 419.385 127.353 418.797 127.069L402.246 119.102C401.657 118.819 401.657 118.111 402.246 117.828L418.797 109.861C419.385 109.578 419.385 108.87 418.797 108.586L402.244 100.618C401.655 100.335 401.655 99.6278 402.244 99.3445L418.797 91.3763C419.385 91.0931 419.385 90.385 418.797 90.1018L402.244 82.1341C401.655 81.851 401.655 81.1431 402.244 80.86L418.797 72.892C419.385 72.6088 419.385 71.901 418.797 71.6178L402.246 63.6505C401.657 63.3674 401.657 62.6595 402.246 62.3763L418.797 54.409C419.385 54.1259 419.385 53.418 418.797 53.1348L402.244 45.1669C401.655 44.8837 401.655 44.1758 402.244 43.8927L418.797 35.9247C419.385 35.6416 419.385 34.9337 418.797 34.6505L402.57 26.8395C402.224 26.673 402.055 26.3337 402.159 26.012L405.7 14.9932C405.876 14.4462 405.275 13.9457 404.62 14.0923L375.465 20.7652C374.81 20.9117 374.59 21.5954 375.07 21.9959L387.54 36.1957Z" fill="url(#paint5_linear_4213_3211)"/>
<path d="M387.54 36.1957C387.706 36.3337 387.799 36.5208 387.799 36.7159L379.028 125.068C379.028 125.264 378.935 125.451 378.769 125.589L360.17 131.493C357.496 129.996 367.533 144.107 375.043 145.5L402.014 151.525C402.669 151.672 403.27 151.171 403.094 150.624L399.171 138.42C399.068 138.098 399.237 137.759 399.582 137.593L418.797 128.343C419.385 128.061 419.385 127.353 418.797 127.069L402.246 119.102C401.657 118.819 401.657 118.111 402.246 117.828L418.797 109.861C419.385 109.578 419.385 108.87 418.797 108.586L402.244 100.618C401.655 100.335 401.655 99.6278 402.244 99.3445L418.797 91.3763C419.385 91.0931 419.385 90.385 418.797 90.1018L402.244 82.1341C401.655 81.851 401.655 81.1431 402.244 80.86L418.797 72.892C419.385 72.6088 419.385 71.901 418.797 71.6178L402.246 63.6505C401.657 63.3674 401.657 62.6595 402.246 62.3763L418.797 54.409C419.385 54.1259 419.385 53.418 418.797 53.1348L402.244 45.1669C401.655 44.8837 401.655 44.1758 402.244 43.8927L418.797 35.9247C419.385 35.6416 419.385 34.9337 418.797 34.6505L402.57 26.8395C402.224 26.673 402.055 26.3337 402.159 26.012L405.7 14.9932C405.876 14.4462 405.275 13.9457 404.62 14.0923L375.465 20.7652C374.81 20.9117 374.59 21.5954 375.07 21.9959L387.54 36.1957Z" fill="#6566AE"/>
<path d="M387.54 36.1957C387.706 36.3337 387.799 36.5208 387.799 36.7159L379.028 125.068C379.028 125.264 378.935 125.451 378.769 125.589L360.17 131.493C357.496 129.996 367.533 144.107 375.043 145.5L402.014 151.525C402.669 151.672 403.27 151.171 403.094 150.624L399.171 138.42C399.068 138.098 399.237 137.759 399.582 137.593L418.797 128.343C419.385 128.061 419.385 127.353 418.797 127.069L402.246 119.102C401.657 118.819 401.657 118.111 402.246 117.828L418.797 109.861C419.385 109.578 419.385 108.87 418.797 108.586L402.244 100.618C401.655 100.335 401.655 99.6278 402.244 99.3445L418.797 91.3763C419.385 91.0931 419.385 90.385 418.797 90.1018L402.244 82.1341C401.655 81.851 401.655 81.1431 402.244 80.86L418.797 72.892C419.385 72.6088 419.385 71.901 418.797 71.6178L402.246 63.6505C401.657 63.3674 401.657 62.6595 402.246 62.3763L418.797 54.409C419.385 54.1259 419.385 53.418 418.797 53.1348L402.244 45.1669C401.655 44.8837 401.655 44.1758 402.244 43.8927L418.797 35.9247C419.385 35.6416 419.385 34.9337 418.797 34.6505L402.57 26.8395C402.224 26.673 402.055 26.3337 402.159 26.012L405.7 14.9932C405.876 14.4462 405.275 13.9457 404.62 14.0923L375.465 20.7652C374.81 20.9117 374.59 21.5954 375.07 21.9959L387.54 36.1957Z" stroke="#292929" stroke-width="3"/>
<path d="M402.288 36.2531L390.874 39.0372M402.288 54.86H392.669M401.133 73.0353H386.9M399.499 91.5313H384.591M402.929 109.492H390.874M388.439 139.798L379.592 133.976M402.288 128.309L388.439 127.561M392.669 24.5996L383.823 32.7251" stroke="#2F2F2F" stroke-width="3" stroke-linecap="round" stroke-linejoin="round"/>
<path d="M68.2656 75.4386C68.2656 44.6448 68.2656 29.248 90.4017 19.6816C112.537 10.1152 148.164 10.1152 219.418 10.1152H244.792C316.047 10.1152 351.674 10.1152 373.809 19.6816C395.945 29.248 395.945 44.6448 395.945 75.4386V86.4048C395.945 117.198 395.945 132.595 373.809 142.161C351.674 151.728 316.047 151.728 244.792 151.728H219.418C148.164 151.728 112.537 151.728 90.4017 142.161C68.2656 132.595 68.2656 117.198 68.2656 86.4048V75.4386Z" fill="url(#paint6_linear_4213_3211)" stroke="#2F2F2F" stroke-width="3" stroke-linecap="round"/>
<path fill-rule="evenodd" clip-rule="evenodd" d="M345.232 29.4434C345.232 28.0499 346.235 27.1256 347.889 27.24L359.532 27.2405C370.959 28.0306 380.044 37.6176 380.733 49.6152L381.245 58.5463C381.345 60.2837 380.084 61.777 378.428 61.8818C376.773 61.9865 375.35 60.663 375.25 58.9256L374.737 49.9945C374.23 41.1661 364.23 33.3106 359.15 32.8226L347.889 31.7696C346.235 31.6551 345.233 30.7144 345.232 29.4434Z" fill="white" stroke="#292929" stroke-width="3" stroke-linejoin="round"/>
<path d="M109.633 133.866C84.8606 133.866 81.1172 125.52 81.1172 103.936M124.891 133.866H136.146" stroke="#2F2F2F" stroke-width="3" stroke-linecap="round" stroke-linejoin="round"/>
<path d="M167.848 99.3709V84.2734H171.049V99.3709H167.848Z" fill="black"/>
<path d="M183.121 99.3709H174.426V84.2734H183.121V86.8964H177.627V90.2112H182.739V92.8342H177.627V96.7273H183.121V99.3709Z" fill="black"/>
<path d="M194.553 99.3709H185.858V84.2734H194.553V86.8964H189.059V90.2112H194.171V92.8342H189.059V96.7273H194.553V99.3709Z" fill="black"/>
<path d="M205.985 99.3709H197.29V84.2734H205.985V86.8964H200.491V90.2112H205.603V92.8342H200.491V96.7273H205.985V99.3709Z" fill="black"/>
<path d="M222.611 95.1783C222.611 96.0732 222.394 96.8512 221.96 97.5121C221.526 98.173 220.893 98.6824 220.06 99.0404C219.234 99.3984 218.229 99.5774 217.045 99.5774C216.522 99.5774 216.009 99.543 215.506 99.4741C215.01 99.4053 214.532 99.3055 214.071 99.1746C213.616 99.037 213.183 98.8683 212.77 98.6686V95.6946C213.486 96.0113 214.229 96.297 215 96.5517C215.771 96.8064 216.535 96.9338 217.293 96.9338C217.816 96.9338 218.236 96.8649 218.552 96.7273C218.876 96.5896 219.11 96.4002 219.255 96.1593C219.399 95.9183 219.471 95.643 219.471 95.3332C219.471 94.9545 219.344 94.631 219.089 94.3625C218.835 94.094 218.484 93.8427 218.036 93.6086C217.595 93.3746 217.096 93.1233 216.539 92.8548C216.188 92.6896 215.806 92.4899 215.392 92.2559C214.979 92.0149 214.587 91.7223 214.215 91.3781C213.843 91.0339 213.537 90.6174 213.296 90.1286C213.062 89.6329 212.945 89.0409 212.945 88.3524C212.945 87.4506 213.152 86.6795 213.565 86.0393C213.978 85.399 214.566 84.9102 215.331 84.5729C216.102 84.2287 217.01 84.0566 218.057 84.0566C218.842 84.0566 219.588 84.1495 220.298 84.3354C221.014 84.5144 221.761 84.776 222.538 85.1202L221.506 87.6089C220.81 87.3266 220.187 87.1098 219.637 86.9583C219.086 86.8 218.525 86.7208 217.953 86.7208C217.554 86.7208 217.213 86.7862 216.931 86.917C216.649 87.0409 216.435 87.2199 216.291 87.454C216.146 87.6812 216.074 87.9462 216.074 88.2492C216.074 88.6071 216.177 88.9101 216.384 89.1579C216.597 89.3988 216.914 89.6329 217.334 89.8601C217.761 90.0873 218.291 90.3523 218.924 90.6552C219.695 91.0201 220.353 91.4022 220.897 91.8015C221.447 92.1939 221.871 92.6586 222.167 93.1956C222.463 93.7257 222.611 94.3866 222.611 95.1783Z" fill="black"/>
<path d="M243.193 87.8258V99.3709H240.777L240.353 97.8942H240.188C239.94 98.2866 239.631 98.6067 239.259 98.8545C238.887 99.1024 238.477 99.2848 238.03 99.4018C237.582 99.5189 237.118 99.5774 236.636 99.5774C235.81 99.5774 235.09 99.4328 234.478 99.1437C233.865 98.8476 233.386 98.3898 233.042 97.7702C232.705 97.1506 232.536 96.3452 232.536 95.3538V87.8258H235.686V94.569C235.686 95.3951 235.834 96.0182 236.13 96.4381C236.426 96.8581 236.897 97.068 237.545 97.068C238.185 97.068 238.687 96.9235 239.052 96.6343C239.417 96.3383 239.672 95.908 239.816 95.3435C239.968 94.7721 240.044 94.0768 240.044 93.2575V87.8258H243.193Z" fill="black"/>
<path d="M249.307 99.5774C248.02 99.5774 246.97 99.0748 246.158 98.0697C245.352 97.0577 244.95 95.5741 244.95 93.619C244.95 91.6431 245.359 90.1492 246.178 89.1372C246.998 88.1184 248.068 87.6089 249.39 87.6089C249.941 87.6089 250.426 87.6846 250.846 87.8361C251.266 87.9875 251.627 88.1906 251.93 88.4454C252.24 88.7001 252.367 88.9819 252.581 89.2986V88.3793C252.581 88.3793 252.581 87.454 252.581 86.9996V83.3027H255.741V99.3709H252.715V97.8735H252.581C252.381 98.1902 252.13 98.4793 251.827 98.7409C251.531 98.9957 251.176 99.1987 250.763 99.3502C250.35 99.5017 249.865 99.5774 249.307 99.5774ZM250.412 97.068C251.273 97.068 251.879 96.8133 252.23 96.3039C252.588 95.7875 252.777 95.013 252.798 93.9804V93.6396C252.798 92.5175 252.626 91.6604 252.281 91.0683C251.937 90.4694 251.297 90.1699 250.361 90.1699C249.665 90.1699 249.121 90.4694 248.729 91.0683C248.337 91.6672 248.14 92.5312 248.14 93.6603C248.14 94.7893 248.337 95.6395 248.729 96.2109C249.128 96.7823 249.689 97.068 250.412 97.068Z" fill="black"/>
<path d="M262.95 87.6089C264.017 87.6089 264.936 87.8154 265.707 88.2285C266.478 88.6347 267.073 89.2267 267.493 90.0047C267.913 90.7826 268.123 91.7326 268.123 92.8548V94.3831H260.678C260.712 95.2712 260.977 95.97 261.473 96.4794C261.975 96.982 262.671 97.2333 263.559 97.2333C264.295 97.2333 264.97 97.1575 265.583 97.0061C266.196 96.8546 266.825 96.6274 267.473 96.3245V98.7616C266.901 99.0438 266.302 99.2504 265.676 99.3812C265.056 99.512 264.302 99.5774 263.414 99.5774C262.258 99.5774 261.232 99.364 260.337 98.9371C259.449 98.5103 258.75 97.8597 258.241 96.9854C257.738 96.1111 257.487 95.0096 257.487 93.6809C257.487 92.3316 257.714 91.2094 258.168 90.3145C258.63 89.4126 259.27 88.7379 260.089 88.2905C260.908 87.8361 261.862 87.6089 262.95 87.6089ZM262.97 89.8498C262.357 89.8498 261.848 90.046 261.442 90.4384C261.043 90.8308 260.812 91.4469 260.75 92.2868H265.17C265.163 91.8187 265.077 91.4022 264.912 91.0373C264.753 90.6725 264.512 90.3833 264.189 90.1699C263.872 89.9565 263.466 89.8498 262.97 89.8498Z" fill="black"/>
<path d="M276.396 87.6089C277.628 87.6089 278.619 87.9462 279.37 88.6209C280.12 89.2887 280.495 90.3627 280.495 91.8428V99.3709H277.346V92.6276C277.346 91.8015 277.194 91.1785 276.891 90.7585C276.595 90.3386 276.127 90.1286 275.487 90.1286C274.523 90.1286 273.866 90.4556 273.514 91.1096C273.163 91.7636 272.988 92.7068 272.988 93.9391V99.3709H269.838V87.8258H272.244L272.668 89.3025H272.843C273.091 88.9032 273.397 88.5796 273.762 88.3318C274.134 88.0839 274.544 87.9015 274.991 87.7845C275.446 87.6674 275.914 87.6089 276.396 87.6089Z" fill="black"/>
<path d="M287.05 97.2571C287.394 97.2571 287.728 97.2227 288.052 97.1538C288.382 97.085 288.709 96.9989 289.033 96.8957V99.2398C288.695 99.3913 288.275 99.5152 287.773 99.6116C287.277 99.7148 286.733 99.7665 286.141 99.7665C285.453 99.7665 284.977 99.4797 284.672 99.2398C284.367 98.9999 284.014 98.6308 283.697 98.08C283.387 97.5224 283.233 96.7479 283.233 95.7566V90.2711H281.525V88.5156H283.233V85.5809H285.599V88.5156H288.01V90.2711H285.599L285.677 95.9456C285.677 96.3862 285.8 96.7167 286.048 96.937C286.303 97.1504 286.637 97.2571 287.05 97.2571Z" fill="black"/>
<path d="M229.616 97.068C229.96 97.068 230.294 97.0336 230.618 96.9648C230.948 96.8959 231.275 96.8099 231.599 96.7066V99.0507C231.262 99.2022 230.842 99.3261 230.339 99.4225C229.843 99.5258 229.3 99.5774 228.707 99.5774C228.019 99.5774 227.543 99.2906 227.238 99.0507C226.933 98.8108 226.58 98.4417 226.264 97.891C225.954 97.3333 225.799 96.5588 225.799 95.5675V90.082H224.091V88.3265H225.799V85.3919H228.166V88.3265H230.576V90.082H228.166L228.243 95.7566C228.243 96.1972 228.367 96.5276 228.615 96.7479C228.869 96.9613 229.203 97.068 229.616 97.068Z" fill="black"/>
<path d="M295.682 84.2734H300.38C302.39 84.2734 303.912 84.5557 304.945 85.1202C305.977 85.6847 306.494 86.6761 306.494 88.0943C306.494 88.6657 306.401 89.182 306.215 89.6432C306.036 90.1045 305.774 90.4831 305.43 90.7792C305.086 91.0752 304.666 91.2679 304.17 91.3574V91.4607C304.673 91.564 305.127 91.743 305.533 91.9977C305.939 92.2455 306.263 92.6104 306.504 93.0923C306.752 93.5673 306.876 94.2007 306.876 94.9924C306.876 95.908 306.652 96.6928 306.204 97.3468C305.757 98.0009 305.117 98.5034 304.284 98.8545C303.458 99.1987 302.473 99.3708 301.33 99.3708H295.682V84.2734ZM298.883 90.2525H300.742C301.671 90.2525 302.315 90.1079 302.673 89.8188C303.031 89.5228 303.21 89.089 303.21 88.5176C303.21 87.9394 302.996 87.5263 302.569 87.2785C302.15 87.0237 301.482 86.8964 300.566 86.8964H298.883V90.2525ZM298.883 92.7928V96.7273H300.969C301.933 96.7273 302.604 96.5414 302.983 96.1696C303.361 95.7979 303.55 95.2987 303.55 94.6723C303.55 94.3005 303.468 93.9735 303.303 93.6912C303.137 93.409 302.859 93.1887 302.466 93.0303C302.081 92.872 301.547 92.7928 300.866 92.7928H298.883Z" fill="black"/>
<path d="M314.818 87.6089C314.976 87.6089 315.159 87.6192 315.365 87.6399C315.579 87.6537 315.751 87.6743 315.882 87.7018L315.644 90.6552C315.541 90.6208 315.393 90.5967 315.2 90.583C315.014 90.5623 314.852 90.552 314.715 90.552C314.309 90.552 313.913 90.6036 313.527 90.7069C313.149 90.8101 312.808 90.9788 312.505 91.2129C312.202 91.4401 311.961 91.743 311.782 92.1216C311.61 92.4934 311.524 92.9512 311.524 93.495V99.3708H308.374V87.8258H310.76L311.224 89.7672H311.379C311.606 89.3747 311.889 89.0168 312.226 88.6932C312.57 88.3627 312.959 88.1011 313.393 87.9084C313.834 87.7087 314.309 87.6089 314.818 87.6089Z" fill="black"/>
<path d="M321.439 87.5883C322.988 87.5883 324.175 87.9256 325.001 88.6003C325.827 89.2749 326.24 90.3007 326.24 91.6776V99.3708H323.432V97.8012H323.349C323.019 98.2143 322.681 98.5516 322.337 98.8132C321.993 99.0748 321.597 99.2676 321.149 99.3915C320.702 99.5154 320.158 99.5774 319.518 99.5774C318.836 99.5774 318.224 99.4466 317.68 99.185C317.143 98.9234 316.719 98.5241 316.41 97.9871C316.1 97.4432 315.945 96.7548 315.945 95.9218C315.945 94.6964 316.375 93.7945 317.236 93.2162C318.096 92.6311 319.387 92.3075 321.108 92.2455L323.111 92.1836V91.6776C323.111 91.0717 322.953 90.6277 322.636 90.3454C322.32 90.0632 321.879 89.9221 321.315 89.9221C320.757 89.9221 320.21 90.0012 319.673 90.1596C319.136 90.3179 317.556 90.6697 317.019 90.9107V88.6312C317.631 88.3077 318.316 88.0529 319.074 87.8671C319.838 87.6812 320.626 87.5883 321.439 87.5883ZM323.111 94.0217L321.893 94.063C320.874 94.0905 320.165 94.273 319.766 94.6103C319.373 94.9476 319.177 95.3917 319.177 95.9424C319.177 96.4243 319.318 96.7686 319.6 96.9751C319.883 97.1747 320.251 97.2746 320.705 97.2746C321.38 97.2746 321.948 97.0749 322.409 96.6756C322.877 96.2763 323.111 95.7084 323.111 94.9717V94.0217Z" fill="black"/>
<path d="M334.538 87.5883C335.77 87.5883 336.762 87.9256 337.512 88.6003C338.263 89.268 338.638 90.342 338.638 91.8221V99.3502H335.488V92.607C335.488 91.7808 335.337 91.1578 335.034 90.7379C334.738 90.3179 334.27 90.1079 333.629 90.1079C332.666 90.1079 332.008 90.4349 331.657 91.089C331.306 91.743 331.13 92.6861 331.13 93.9184V99.3502H327.981V87.8051H330.387L330.81 89.2818H330.986C331.234 88.8825 331.54 88.5589 331.905 88.3111C332.277 88.0633 332.686 87.8808 333.134 87.7638C333.588 87.6468 334.056 87.5883 334.538 87.5883Z" fill="black"/>
<path d="M345.543 99.5774C344.4 99.5774 343.426 99.3708 342.621 98.9578C341.815 98.5378 341.203 97.8907 340.783 97.0164C340.363 96.1421 340.153 95.0234 340.153 93.6603C340.153 92.249 340.39 91.0993 340.865 90.2112C341.347 89.3162 342.012 88.6588 342.858 88.2388C343.712 87.8189 344.7 87.6089 345.822 87.6089C346.621 87.6089 347.309 87.6881 347.887 87.8464C348.472 87.9979 348.982 88.1803 349.416 88.3937L348.486 90.8308C347.991 90.6311 347.529 90.4694 347.103 90.3454C346.676 90.2146 346.249 90.1492 345.822 90.1492C345.271 90.1492 344.813 90.28 344.449 90.5416C344.084 90.7964 343.812 91.1819 343.633 91.6982C343.454 92.2145 343.364 92.8617 343.364 93.6396C343.364 94.4038 343.461 95.0371 343.653 95.5397C343.846 96.0423 344.125 96.4175 344.49 96.6653C344.855 96.9062 345.299 97.0267 345.822 97.0267C346.476 97.0267 347.058 96.9407 347.567 96.7686C348.077 96.5896 348.572 96.3417 349.054 96.025V98.7203C348.572 99.0232 348.066 99.24 347.536 99.3708C347.013 99.5085 346.349 99.5774 345.543 99.5774Z" fill="black"/>
<path d="M353.62 83.3027V86.5763C353.62 87.1477 353.599 87.6915 353.558 88.2078C353.523 88.7242 353.496 89.089 353.475 89.3025H353.64C353.888 88.9032 354.181 88.5796 354.518 88.3318C354.862 88.0839 355.241 87.9015 355.654 87.7845C356.067 87.6674 356.511 87.6089 356.986 87.6089C357.819 87.6089 358.546 87.7569 359.165 88.0529C359.785 88.3421 360.267 88.7999 360.611 89.4264C360.955 90.046 361.127 90.8514 361.127 91.8428V99.3708H357.978V92.6276C357.978 91.8015 357.826 91.1785 357.523 90.7585C357.22 90.3386 356.752 90.1286 356.119 90.1286C355.485 90.1286 354.986 90.2766 354.621 90.5726C354.257 90.8618 353.998 91.292 353.847 91.8634C353.696 92.428 353.62 93.1198 353.62 93.9391V99.3708H350.47V83.3027H353.62Z" fill="black"/>
<path d="M170.182 69.0579C169.815 69.0579 169.489 69.1301 169.204 69.2745C168.924 69.4147 168.687 69.6189 168.493 69.887C168.303 70.1552 168.159 70.479 168.06 70.8585C167.961 71.238 167.911 71.6649 167.911 72.1392C167.911 72.7786 167.99 73.3252 168.146 73.7789C168.307 74.2285 168.555 74.573 168.889 74.8122C169.223 75.0473 169.654 75.1649 170.182 75.1649C170.549 75.1649 170.916 75.1236 171.283 75.0411C171.655 74.9586 172.057 74.8411 172.49 74.6884V76.2972C172.09 76.4622 171.696 76.5797 171.308 76.6498C170.92 76.7241 170.485 76.7612 170.003 76.7612C169.07 76.7612 168.303 76.5694 167.701 76.1858C167.103 75.7981 166.659 75.2577 166.371 74.5647C166.082 73.8676 165.938 73.055 165.938 72.1269C165.938 71.4421 166.03 70.8152 166.216 70.2459C166.402 69.6767 166.674 69.1837 167.033 68.7671C167.392 68.3505 167.835 68.0288 168.363 67.8019C168.891 67.575 169.497 67.4616 170.182 67.4616C170.632 67.4616 171.081 67.5193 171.531 67.6348C171.985 67.7462 172.418 67.9009 172.83 68.0989L172.211 69.6581C171.873 69.4972 171.533 69.357 171.191 69.2374C170.848 69.1177 170.512 69.0579 170.182 69.0579Z" fill="black"/>
<path d="M181.807 72.1021C181.807 72.7992 181.721 73.4345 181.548 74.0078C181.374 74.5771 181.11 75.0679 180.756 75.4804C180.405 75.8929 179.959 76.2105 179.419 76.4333C178.879 76.6519 178.239 76.7612 177.501 76.7612C176.763 76.7612 176.123 76.6519 175.583 76.4333C175.043 76.2105 174.595 75.8929 174.24 75.4804C173.89 75.0679 173.628 74.575 173.454 74.0016C173.281 73.4283 173.195 72.791 173.195 72.0898C173.195 71.1534 173.347 70.3387 173.652 69.6457C173.962 68.9486 174.436 68.4083 175.076 68.0246C175.715 67.641 176.527 67.4492 177.513 67.4492C178.495 67.4492 179.301 67.641 179.933 68.0246C180.568 68.4083 181.038 68.9486 181.343 69.6457C181.653 70.3428 181.807 71.1616 181.807 72.1021ZM175.205 72.1021C175.205 72.7332 175.284 73.2777 175.441 73.7356C175.601 74.1893 175.851 74.54 176.189 74.7874C176.527 75.0308 176.965 75.1525 177.501 75.1525C178.045 75.1525 178.487 75.0308 178.825 74.7874C179.163 74.54 179.409 74.1893 179.561 73.7356C179.718 73.2777 179.796 72.7332 179.796 72.1021C179.796 71.1534 179.619 70.4068 179.264 69.8623C178.91 69.3178 178.326 69.0456 177.513 69.0456C176.973 69.0456 176.532 69.1693 176.189 69.4168C175.851 69.6602 175.601 70.0108 175.441 70.4687C175.284 70.9224 175.205 71.4669 175.205 72.1021Z" fill="black"/>
<path d="M182.858 76.6375V67.5915H184.777V75.0535H188.446V76.6375H182.858Z" fill="black"/>
<path d="M189.2 76.6375V67.5915H191.118V75.0535H194.787V76.6375H189.2Z" fill="black"/>
<path d="M200.751 76.6375H195.541V67.5915H200.751V69.1631H197.459V71.1493H200.522V72.7209H197.459V75.0535H200.751V76.6375Z" fill="black"/>
<path d="M205.255 71.5576H208.843V76.2477C208.369 76.4044 207.876 76.5302 207.364 76.6251C206.853 76.7158 206.273 76.7612 205.626 76.7612C204.727 76.7612 203.963 76.5838 203.336 76.2291C202.709 75.8744 202.233 75.3505 201.907 74.6575C201.581 73.9645 201.418 73.1127 201.418 72.1021C201.418 71.1534 201.6 70.3325 201.963 69.6395C202.33 68.9466 202.864 68.4103 203.565 68.0308C204.271 67.6513 205.131 67.4616 206.146 67.4616C206.624 67.4616 207.096 67.5132 207.562 67.6163C208.029 67.7194 208.451 67.8535 208.831 68.0185L208.194 69.5529C207.917 69.4127 207.602 69.2951 207.247 69.2002C206.892 69.1054 206.521 69.0579 206.133 69.0579C205.576 69.0579 205.092 69.1858 204.679 69.4416C204.271 69.6973 203.953 70.0562 203.726 70.5182C203.504 70.976 203.392 71.5164 203.392 72.1392C203.392 72.7291 203.473 73.253 203.633 73.7108C203.794 74.1646 204.048 74.5214 204.395 74.7813C204.741 75.037 205.193 75.1649 205.75 75.1649C206.022 75.1649 206.251 75.1525 206.436 75.1278C206.626 75.0989 206.803 75.07 206.968 75.0411V73.154H205.255V71.5576Z" fill="black"/>
<path d="M215.389 76.6375H210.179V67.5915H215.389V69.1631H212.097V71.1493H215.16V72.7209H212.097V75.0535H215.389V76.6375Z" fill="black"/>
<path d="M330.291 76.6388L329.636 74.4856H326.338L325.682 76.6388H323.615L326.808 67.5557H329.153L332.358 76.6388H330.291ZM329.178 72.8768L328.522 70.7731C328.481 70.6329 328.425 70.4535 328.355 70.2348C328.289 70.0121 328.221 69.7873 328.151 69.5604C328.085 69.3294 328.031 69.1294 327.99 68.9602C327.948 69.1294 327.891 69.3397 327.816 69.5913C327.746 69.8388 327.678 70.074 327.612 70.2967C327.546 70.5195 327.499 70.6783 327.47 70.7731L326.82 72.8768H329.178Z" fill="black"/>
<path d="M336.321 76.6388H334.403V69.1892H331.946V67.5928H338.777V69.1892H336.321V76.6388Z" fill="black"/>
<path d="M342.987 76.6388H341.069V69.1892H338.613V67.5928H345.444V69.1892H342.987V76.6388Z" fill="black"/>
<path d="M346.164 76.6388V67.5928H348.082V76.6388H346.164Z" fill="black"/>
<path d="M357.713 76.6388H355.275L351.34 69.7955H351.284C351.301 70.0802 351.315 70.3668 351.327 70.6556C351.34 70.9443 351.352 71.2331 351.365 71.5218C351.377 71.8064 351.389 72.0931 351.402 72.3819V76.6388H349.688V67.5928H352.107L356.036 74.368H356.079C356.071 74.0875 356.061 73.8091 356.048 73.5327C356.036 73.2563 356.024 72.98 356.011 72.7036C356.003 72.4272 355.995 72.1509 355.986 71.8745V67.5928H357.713V76.6388Z" fill="black"/>
<path d="M362.758 71.5589H366.347V76.249C365.873 76.4057 365.38 76.5315 364.868 76.6264C364.357 76.7171 363.777 76.7625 363.13 76.7625C362.23 76.7625 361.467 76.5851 360.84 76.2304C360.213 75.8757 359.737 75.3518 359.411 74.6588C359.085 73.9658 358.922 73.114 358.922 72.1034C358.922 71.1547 359.104 70.3338 359.467 69.6408C359.834 68.9479 360.368 68.4116 361.069 68.0321C361.775 67.6526 362.635 67.4629 363.649 67.4629C364.128 67.4629 364.6 67.5145 365.066 67.6176C365.532 67.7207 365.955 67.8548 366.335 68.0198L365.697 69.5542C365.421 69.414 365.105 69.2964 364.751 69.2015C364.396 69.1067 364.025 69.0592 363.637 69.0592C363.08 69.0592 362.595 69.1871 362.183 69.4429C361.775 69.6986 361.457 70.0575 361.23 70.5195C361.007 70.9773 360.896 71.5177 360.896 72.1405C360.896 72.7304 360.976 73.2543 361.137 73.7121C361.298 74.1659 361.552 74.5227 361.898 74.7826C362.245 75.0383 362.696 75.1662 363.253 75.1662C363.526 75.1662 363.754 75.1538 363.94 75.129C364.13 75.1002 364.307 75.0713 364.472 75.0424V73.1553H362.758V71.5589Z" fill="black"/>
<path d="M373.372 76.6388L372.717 74.4856H369.419L368.763 76.6388H366.696L369.889 67.5557H372.234L375.439 76.6388H373.372ZM372.259 72.8768L371.603 70.7731C371.562 70.6329 371.506 70.4535 371.436 70.2348C371.37 70.0121 371.302 69.7873 371.232 69.5604C371.166 69.3294 371.112 69.1294 371.071 68.9602C371.03 69.1294 370.972 69.3397 370.898 69.5913C370.827 69.8388 370.759 70.074 370.693 70.2967C370.627 70.5195 370.58 70.6783 370.551 70.7731L369.901 72.8768H372.259Z" fill="black"/>
<path d="M375.912 76.6388V67.5928H377.83V75.0548H381.499V76.6388H375.912Z" fill="black"/>
<path d="M245.311 76.6388H240.102V67.5928H245.311V69.1644H242.02V71.1506H245.082V72.7222H242.02V75.0548H245.311V76.6388Z" fill="black"/>
<path d="M254.659 76.6388H252.222L248.286 69.7955H248.231C248.247 70.0802 248.262 70.3668 248.274 70.6556C248.286 70.9443 248.299 71.2331 248.311 71.5218C248.324 71.8064 248.336 72.0931 248.348 72.3819V76.6388H246.634V67.5928H249.054L252.983 74.368H253.026C253.018 74.0875 253.007 73.8091 252.995 73.5327C252.983 73.2563 252.97 72.98 252.958 72.7036C252.95 72.4272 252.941 72.1509 252.933 71.8745V67.5928H254.659V76.6388Z" fill="black"/>
<path d="M259.806 71.5589H263.395V76.249C262.921 76.4057 262.428 76.5315 261.916 76.6264C261.405 76.7171 260.825 76.7625 260.178 76.7625C259.278 76.7625 258.515 76.5851 257.888 76.2304C257.261 75.8757 256.785 75.3518 256.459 74.6588C256.133 73.9658 255.97 73.114 255.97 72.1034C255.97 71.1547 256.152 70.3338 256.515 69.6408C256.882 68.9479 257.416 68.4116 258.117 68.0321C258.823 67.6526 259.683 67.4629 260.697 67.4629C261.176 67.4629 261.648 67.5145 262.114 67.6176C262.58 67.7207 263.003 67.8548 263.383 68.0198L262.745 69.5542C262.469 69.414 262.153 69.2964 261.799 69.2015C261.444 69.1067 261.073 69.0592 260.685 69.0592C260.128 69.0592 259.643 69.1871 259.231 69.4429C258.823 69.6986 258.505 70.0575 258.278 70.5195C258.055 70.9773 257.944 71.5177 257.944 72.1405C257.944 72.7304 258.024 73.2543 258.185 73.7121C258.346 74.1659 258.6 74.5227 258.946 74.7826C259.293 75.0383 259.744 75.1662 260.301 75.1662C260.574 75.1662 260.803 75.1538 260.988 75.129C261.178 75.1002 261.355 75.0713 261.52 75.0424V73.1553H259.806V71.5589Z" fill="black"/>
<path d="M264.984 76.6388V67.5928H266.902V76.6388H264.984Z" fill="black"/>
<path d="M276.634 76.6388H274.196L270.261 69.7955H270.205C270.222 70.0802 270.236 70.3668 270.249 70.6556C270.261 70.9443 270.273 71.2331 270.286 71.5218C270.298 71.8064 270.311 72.0931 270.323 72.3819V76.6388H268.609V67.5928H271.028L274.957 74.368H275.001C274.992 74.0875 274.982 73.8091 274.97 73.5327C274.957 73.2563 274.945 72.98 274.933 72.7036C274.924 72.4272 274.916 72.1509 274.908 71.8745V67.5928H276.634V76.6388Z" fill="black"/>
<path d="M283.557 76.6388H278.347V67.5928H283.557V69.1644H280.265V71.1506H283.328V72.7222H280.265V75.0548H283.557V76.6388Z" fill="black"/>
<path d="M290.09 76.6388H284.88V67.5928H290.09V69.1644H286.798V71.1506H289.861V72.7222H286.798V75.0548H290.09V76.6388Z" fill="black"/>
<path d="M294.049 67.5928C294.869 67.5928 295.546 67.6918 296.078 67.8898C296.614 68.0878 297.012 68.3869 297.272 68.787C297.532 69.1871 297.662 69.6924 297.662 70.3029C297.662 70.7154 297.584 71.0763 297.427 71.3857C297.27 71.6951 297.064 71.957 296.808 72.1715C296.552 72.386 296.276 72.5613 295.979 72.6974L298.64 76.6388H296.511L294.352 73.1677H293.331V76.6388H291.413V67.5928H294.049ZM293.912 69.1644H293.331V71.6084H293.95C294.585 71.6084 295.039 71.5032 295.311 71.2929C295.587 71.0784 295.725 70.7649 295.725 70.3524C295.725 69.9234 295.577 69.6182 295.28 69.4367C294.987 69.2552 294.531 69.1644 293.912 69.1644Z" fill="black"/>
<path d="M299.208 76.6388V67.5928H301.126V76.6388H299.208Z" fill="black"/>
<path d="M310.858 76.6388H308.42L304.485 69.7955H304.429C304.445 70.0802 304.46 70.3668 304.472 70.6556C304.485 70.9443 304.497 71.2331 304.509 71.5218C304.522 71.8064 304.534 72.0931 304.547 72.3819V76.6388H302.833V67.5928H305.252L309.181 74.368H309.224C309.216 74.0875 309.206 73.8091 309.193 73.5327C309.181 73.2563 309.169 72.98 309.156 72.7036C309.148 72.4272 309.14 72.1509 309.131 71.8745V67.5928H310.858V76.6388Z" fill="black"/>
<path d="M316.005 71.5589H319.593V76.249C319.119 76.4057 318.626 76.5315 318.114 76.6264C317.603 76.7171 317.023 76.7625 316.376 76.7625C315.477 76.7625 314.713 76.5851 314.086 76.2304C313.459 75.8757 312.983 75.3518 312.657 74.6588C312.331 73.9658 312.168 73.114 312.168 72.1034C312.168 71.1547 312.35 70.3338 312.713 69.6408C313.08 68.9479 313.614 68.4116 314.315 68.0321C315.021 67.6526 315.881 67.4629 316.896 67.4629C317.374 67.4629 317.846 67.5145 318.312 67.6176C318.779 67.7207 319.201 67.8548 319.581 68.0198L318.944 69.5542C318.667 69.414 318.352 69.2964 317.997 69.2015C317.642 69.1067 317.271 69.0592 316.883 69.0592C316.326 69.0592 315.842 69.1871 315.429 69.4429C315.021 69.6986 314.703 70.0575 314.476 70.5195C314.254 70.9773 314.142 71.5177 314.142 72.1405C314.142 72.7304 314.223 73.2543 314.383 73.7121C314.544 74.1659 314.798 74.5227 315.145 74.7826C315.491 75.0383 315.943 75.1662 316.5 75.1662C316.772 75.1662 317.001 75.1538 317.186 75.129C317.376 75.1002 317.553 75.0713 317.718 75.0424V73.1553H316.005V71.5589Z" fill="black"/>
<path d="M228.888 72.1021C228.888 72.7992 228.802 73.4345 228.628 74.0078C228.455 74.5771 228.191 75.0679 227.836 75.4804C227.486 75.8929 227.04 76.2105 226.5 76.4333C225.96 76.6519 225.32 76.7612 224.582 76.7612C223.843 76.7612 223.204 76.6519 222.664 76.4333C222.123 76.2105 221.676 75.8929 221.321 75.4804C220.97 75.0679 220.709 74.575 220.535 74.0016C220.362 73.4283 220.275 72.791 220.275 72.0898C220.275 71.1534 220.428 70.3387 220.733 69.6457C221.043 68.9486 221.517 68.4083 222.156 68.0246C222.796 67.641 223.608 67.4492 224.594 67.4492C225.576 67.4492 226.382 67.641 227.013 68.0246C227.649 68.4083 228.119 68.9486 228.424 69.6457C228.734 70.3428 228.888 71.1616 228.888 72.1021ZM222.286 72.1021C222.286 72.7332 222.365 73.2777 222.521 73.7356C222.682 74.1893 222.932 74.54 223.27 74.7874C223.608 75.0308 224.046 75.1525 224.582 75.1525C225.126 75.1525 225.568 75.0308 225.906 74.7874C226.244 74.54 226.49 74.1893 226.642 73.7356C226.799 73.2777 226.877 72.7332 226.877 72.1021C226.877 71.1534 226.7 70.4068 226.345 69.8623C225.99 69.3178 225.407 69.0456 224.594 69.0456C224.054 69.0456 223.612 69.1693 223.27 69.4168C222.932 69.6602 222.682 70.0108 222.521 70.4687C222.365 70.9224 222.286 71.4669 222.286 72.1021Z" fill="black"/>
<path d="M231.826 76.6375H229.939V67.5915H235.124V69.1631H231.826V71.4958H234.895V73.0612H231.826V76.6375Z" fill="black"/>
<path d="M113.038 62H144.117L138.24 67.8769L114.002 67.9492C97.7333 72.3557 98.3904 89.8591 114.002 93.1464H134.714L129.549 81.1304H120.742V79.5625H130.794L136.651 93.1464H141.908V69.2329L148.004 62.6736L147.834 93.1464H157.587L163.484 99.0434H113.038C89.1628 95.1074 90.1506 65.0778 113.038 62Z" fill="black"/>
<path d="M120.742 85.554V84.4567H129.549V85.554H120.742Z" fill="black"/>
<path d="M120.742 89.6606V88.5633H129.549V89.6606H120.742Z" fill="black"/>
<defs>
<linearGradient id="paint0_linear_4213_3211" x1="79.7016" y1="55.4827" x2="-20.8578" y2="140.511" gradientUnits="userSpaceOnUse">
<stop stop-color="#FFB843"/>
<stop offset="1" stop-color="white"/>
</linearGradient>
<linearGradient id="paint1_linear_4213_3211" x1="63.2952" y1="-23.7695" x2="126.183" y2="97.5924" gradientUnits="userSpaceOnUse">
<stop stop-color="#FFC9DB"/>
<stop offset="0.713144" stop-color="#DD4F7F"/>
</linearGradient>
<linearGradient id="paint2_linear_4213_3211" x1="71.5181" y1="18.9765" x2="5.56533" y2="64.3013" gradientUnits="userSpaceOnUse">
<stop stop-color="#F98EB2"/>
<stop offset="1" stop-color="#DD4F7F"/>
</linearGradient>
<linearGradient id="paint3_linear_4213_3211" x1="381.3" y1="55.4827" x2="481.859" y2="140.511" gradientUnits="userSpaceOnUse">
<stop stop-color="#FFB843"/>
<stop offset="1" stop-color="white"/>
</linearGradient>
<linearGradient id="paint4_linear_4213_3211" x1="397.706" y1="-23.7695" x2="334.818" y2="97.5923" gradientUnits="userSpaceOnUse">
<stop stop-color="#FFC9DB"/>
<stop offset="0.713144" stop-color="#DD4F7F"/>
</linearGradient>
<linearGradient id="paint5_linear_4213_3211" x1="389.483" y1="18.9765" x2="455.436" y2="64.3013" gradientUnits="userSpaceOnUse">
<stop stop-color="#F98EB2"/>
<stop offset="1" stop-color="#DD4F7F"/>
</linearGradient>
<linearGradient id="paint6_linear_4213_3211" x1="342.465" y1="24.2464" x2="297.947" y2="156.92" gradientUnits="userSpaceOnUse">
<stop stop-color="#9997C8"/>
<stop offset="1" stop-color="#5E5FAA"/>
</linearGradient>
</defs>
</svg>
