<svg width="462" height="148" viewBox="0 0 462 148" fill="none" xmlns="http://www.w3.org/2000/svg">
<path fill-rule="evenodd" clip-rule="evenodd" d="M96.5129 75.0021L96.5161 75.0009L96.5201 75.0014L96.5129 75.0021ZM43.1826 89.0523C38.32 86.0164 34.9512 80.7581 34.9512 74.4576C34.9512 68.3236 38.1444 63.1772 42.8006 60.1081C40.8166 55.4027 40.9292 49.8472 43.898 44.8882C50.4039 34.0209 66.3407 33.1772 74.041 43.2925L97.7494 74.4369L97.7984 74.4576L97.7735 74.4682L98.0555 74.8383L98.3255 74.8097L98.1793 75.0014L98.3255 75.1931L98.0555 75.1644L74.041 106.71C66.3407 116.825 50.4039 115.982 43.898 105.115C40.75 99.8563 40.8134 93.927 43.1826 89.0523Z" fill="#FF7743"/>
<path d="M96.5162 75.0011L96.648 73.8457C96.4375 73.8235 96.2254 73.8549 96.0317 73.9369L96.5162 75.0011ZM96.513 75.0023L96.0285 73.9381C95.4838 74.1688 95.1953 74.7487 95.3488 75.3031C95.503 75.8575 96.0534 76.2204 96.6456 76.1576L96.513 75.0023ZM96.5202 75.0016L96.652 76.1568C97.2635 76.092 97.7255 75.594 97.7255 75.0013C97.7255 74.4086 97.2627 73.9109 96.652 73.8462L96.5202 75.0016ZM43.1827 89.0525L44.2741 89.5453C44.5297 89.0192 44.3433 88.3923 43.8377 88.0762L43.1827 89.0525ZM42.8007 60.1084L43.4808 61.068C43.9491 60.7592 44.1308 60.1773 43.9172 59.6706L42.8007 60.1084ZM97.7496 74.4371L96.7782 75.1249C96.9035 75.2894 97.0714 75.4191 97.2651 75.5012L97.7496 74.4371ZM97.7986 74.4578L98.2831 75.5219C98.721 75.3364 99.0038 74.9189 99.0038 74.4578C99.0038 73.9966 98.721 73.5791 98.2831 73.3936L97.7986 74.4578ZM97.7737 74.4684L97.2892 73.4042C96.9541 73.5461 96.7042 73.8269 96.6094 74.1675C96.5146 74.5082 96.5853 74.8719 96.8023 75.1562L97.7737 74.4684ZM98.0557 74.8385L97.0843 75.5264C97.339 75.8611 97.7592 76.0393 98.1875 75.9939L98.0557 74.8385ZM98.3257 74.8099L99.2971 75.4977C99.5799 75.1259 99.608 74.6281 99.3694 74.2287C99.1299 73.8293 98.6687 73.604 98.1939 73.6545L98.3257 74.8099ZM98.1794 75.0016L97.208 74.3137C96.8963 74.723 96.8963 75.2801 97.208 75.6893L98.1794 75.0016ZM98.3257 75.1933L98.1939 76.3486C98.6687 76.399 99.1299 76.1738 99.3694 75.7744C99.608 75.3751 99.5799 74.8771 99.2971 74.5054L98.3257 75.1933ZM98.0557 75.1646L98.1875 74.0093C97.7592 73.9638 97.339 74.142 97.0843 74.4768L98.0557 75.1646ZM96.0317 73.9369L96.0285 73.9381L96.9975 76.0665L97.0007 76.0653L96.0317 73.9369ZM96.652 73.8462L96.648 73.8457L96.3845 76.1564L96.3893 76.1569L96.652 73.8462ZM96.3885 73.8462L96.3812 73.847L96.6456 76.1576L96.652 76.1568L96.3885 73.8462ZM43.8377 88.0762C39.2948 85.2402 36.1565 80.3376 36.1565 74.4578H33.7461C33.7461 81.1783 37.3454 86.7922 42.5278 90.0281L43.8377 88.0762ZM36.1565 74.4578C36.1565 68.7325 39.1315 63.9348 43.4808 61.068L42.1207 59.1488C37.1577 62.4202 33.7461 67.9152 33.7461 74.4578H36.1565ZM43.9172 59.6706C42.0647 55.277 42.1702 50.0994 44.9418 45.4696L42.8543 44.3073C39.6885 49.5955 39.5687 55.5288 41.6843 60.5462L43.9172 59.6706ZM44.9418 45.4696C51.0128 35.3288 65.8842 34.5415 73.0697 43.9805L75.0127 42.6049C66.7976 31.8133 49.7952 32.7134 42.8543 44.3073L44.9418 45.4696ZM73.0697 43.9805L96.7782 75.1249L98.721 73.7492L75.0127 42.6049L73.0697 43.9805ZM97.2651 75.5012L97.3141 75.5219L98.2831 73.3936L98.2349 73.373L97.2651 75.5012ZM97.3141 73.3936L97.2892 73.4042L98.2582 75.5325L98.2831 75.5219L97.3141 73.3936ZM96.8023 75.1562L97.0843 75.5264L99.0271 74.1507L98.7451 73.7805L96.8023 75.1562ZM98.1939 73.6545L97.9239 73.6832L98.1875 75.9939L98.4574 75.9652L98.1939 73.6545ZM99.1508 75.6894L99.2971 75.4977L97.3543 74.122L97.208 74.3137L99.1508 75.6894ZM97.208 75.6893L97.3543 75.881L99.2971 74.5054L99.1508 74.3137L97.208 75.6893ZM98.4574 74.0379L98.1875 74.0093L97.9239 76.3199L98.1939 76.3486L98.4574 74.0379ZM75.0127 107.398L99.0271 75.8524L97.0843 74.4768L73.0697 106.023L75.0127 107.398ZM42.8543 105.696C49.7952 117.29 66.7976 118.19 75.0127 107.398L73.0697 106.023C65.8842 115.462 51.0128 114.674 44.9418 104.534L42.8543 105.696ZM42.0914 88.5589C39.566 93.756 39.4967 100.087 42.8543 105.696L44.9418 104.534C42.0035 99.6256 42.0611 94.0992 44.2741 89.5453L42.0914 88.5589Z" fill="#2F2F2F"/>
<path d="M42.6543 60.7676L56.104 64.8138M42.6543 90.0376L51.1897 87.3255M71.8166 69.9084L85.0853 75.003L64.4489 83.1126" stroke="#2F2F2F" stroke-width="3" stroke-linecap="round" stroke-linejoin="round"/>
<path fill-rule="evenodd" clip-rule="evenodd" d="M366.293 75.0001L366.292 75.0008L366.289 75.0005L366.293 75.0001ZM419.619 60.9517C424.482 63.9875 427.851 69.246 427.851 75.5465C427.851 81.6796 424.658 86.8263 420.003 89.8955C421.986 94.6005 421.872 100.155 418.904 105.113C412.398 115.98 396.461 116.824 388.761 106.709L365.056 75.5686L365.004 75.5465L365.03 75.5352L364.748 75.1642L364.477 75.193L364.624 75.0005L364.477 74.8081L364.748 74.8368L388.761 43.2925C396.461 33.1772 412.398 34.0209 418.904 44.8883C422.052 50.1469 421.989 56.0763 419.619 60.9517Z" fill="#FF7743"/>
<path d="M366.291 75.001L366.16 76.1564C366.37 76.1786 366.582 76.1473 366.775 76.0656L366.291 75.001ZM366.293 75.0004L366.777 76.0649C367.322 75.8344 367.612 75.2545 367.457 74.6999C367.303 74.1452 366.753 73.782 366.16 73.845L366.293 75.0004ZM366.289 75.0008L366.157 73.8454C365.546 73.9105 365.084 74.4084 365.084 75.0012C365.085 75.5939 365.547 76.0915 366.158 76.1561L366.289 75.0008ZM419.619 60.9519L418.527 60.4586C418.272 60.9846 418.458 61.6119 418.964 61.9276L419.619 60.9519ZM420.002 89.8958L419.322 88.9357C418.854 89.2449 418.673 89.826 418.886 90.3328L420.002 89.8958ZM365.056 75.5688L366.027 74.881C365.902 74.7165 365.734 74.5867 365.54 74.5047L365.056 75.5688ZM365.003 75.5467L364.519 74.4826C364.081 74.668 363.798 75.0856 363.798 75.5467C363.798 76.0079 364.081 76.4254 364.519 76.6109L365.003 75.5467ZM365.03 75.5354L365.515 76.5995C365.85 76.4577 366.099 76.1769 366.194 75.8362C366.289 75.4955 366.218 75.1319 366.001 74.8476L365.03 75.5354ZM364.748 75.1644L365.719 74.4766C365.465 74.1419 365.044 73.9637 364.616 74.0092L364.748 75.1644ZM364.476 75.1932L363.505 74.5054C363.222 74.8771 363.194 75.375 363.433 75.7744C363.672 76.1738 364.133 76.399 364.608 76.3486L364.476 75.1932ZM364.623 75.0008L365.595 75.6886C365.907 75.2792 365.907 74.7222 365.595 74.3129L364.623 75.0008ZM364.476 74.8083L364.608 73.653C364.133 73.6024 363.672 73.8278 363.433 74.2271C363.194 74.6265 363.222 75.1244 363.505 75.4961L364.476 74.8083ZM364.748 74.837L364.616 75.9924C365.044 76.0378 365.465 75.8596 365.719 75.5249L364.748 74.837ZM366.775 76.0656L366.777 76.0649L365.809 73.9358L365.808 73.9364L366.775 76.0656ZM366.158 76.1561L366.16 76.1564L366.423 73.8456L366.421 73.8454L366.158 76.1561ZM366.422 76.156L366.426 76.1556L366.16 73.845L366.157 73.8454L366.422 76.156ZM418.964 61.9276C423.507 64.7638 426.646 69.6666 426.646 75.5467H429.056C429.056 68.8259 425.456 63.2115 420.274 59.9762L418.964 61.9276ZM426.646 75.5467C426.646 81.2715 423.671 86.0687 419.322 88.9357L420.682 90.855C425.645 87.5835 429.056 82.089 429.056 75.5467H426.646ZM418.886 90.3328C420.738 94.7263 420.632 99.9032 417.86 104.532L419.948 105.695C423.113 100.407 423.233 94.4745 421.119 89.458L418.886 90.3328ZM417.86 104.532C411.789 114.673 396.918 115.46 389.732 106.021L387.789 107.397C396.005 118.189 413.006 117.288 419.948 105.695L417.86 104.532ZM389.732 106.021L366.027 74.881L364.084 76.2567L387.789 107.397L389.732 106.021ZM365.54 74.5047L365.488 74.4826L364.519 76.6109L364.571 76.6329L365.54 74.5047ZM365.488 76.6109L365.515 76.5995L364.546 74.4712L364.519 74.4826L365.488 76.6109ZM366.001 74.8476L365.719 74.4766L363.777 75.8523L364.059 76.2232L366.001 74.8476ZM364.608 76.3486L364.88 76.3197L364.616 74.0092L364.345 74.0379L364.608 76.3486ZM363.652 74.3129L363.505 74.5054L365.448 75.8811L365.595 75.6886L363.652 74.3129ZM365.595 74.3129L365.448 74.1204L363.505 75.4961L363.652 75.6886L365.595 74.3129ZM364.345 75.9635L364.616 75.9924L364.88 73.6817L364.608 73.653L364.345 75.9635ZM387.789 42.6049L363.777 74.1492L365.719 75.5249L389.732 43.9806L387.789 42.6049ZM419.948 44.3073C413.006 32.7134 396.005 31.8133 387.789 42.6049L389.732 43.9806C396.918 34.5415 411.789 35.3289 417.86 45.4696L419.948 44.3073ZM420.71 61.4452C423.236 56.2484 423.305 49.9162 419.948 44.3073L417.86 45.4696C420.799 50.3781 420.741 55.9047 418.527 60.4586L420.71 61.4452Z" fill="#2F2F2F"/>
<path d="M420.148 89.2407L406.698 85.1943M420.148 59.9707L411.612 62.6827M390.985 80.0996L377.717 75.0052L398.353 66.8955" stroke="#2F2F2F" stroke-width="3" stroke-linecap="round" stroke-linejoin="round"/>
<path d="M79.9453 36.4187C79.9453 21.0125 92.8958 8.52344 108.871 8.52344H354.735C370.71 8.52344 383.66 21.0126 383.66 36.4187V112.356C383.66 127.762 370.71 140.251 354.735 140.251H108.871C92.8958 140.251 79.9453 127.762 79.9453 112.356V36.4187Z" fill="#FF9E70"/>
<path d="M79.9453 36.4187C79.9453 21.0125 92.8958 8.52344 108.871 8.52344H354.735C370.71 8.52344 383.66 21.0126 383.66 36.4187V112.356C383.66 127.762 370.71 140.251 354.735 140.251H108.871C92.8958 140.251 79.9453 127.762 79.9453 112.356V36.4187Z" fill="url(#paint0_linear_4213_3253)"/>
<path d="M79.9453 36.4187C79.9453 21.0125 92.8958 8.52344 108.871 8.52344H354.735C370.71 8.52344 383.66 21.0126 383.66 36.4187V112.356C383.66 127.762 370.71 140.251 354.735 140.251H108.871C92.8958 140.251 79.9453 127.762 79.9453 112.356V36.4187Z" stroke="#2F2F2F" stroke-width="3" stroke-linecap="round" stroke-linejoin="round"/>
<path d="M121.809 127.079C108.254 127.079 94.0078 118.245 94.0078 107.707M134.941 127.079H144.627" stroke="#2F2F2F" stroke-width="3" stroke-linecap="round" stroke-linejoin="round"/>
<path fill-rule="evenodd" clip-rule="evenodd" d="M318.742 20.0956C318.742 18.4242 320.05 17.3156 322.21 17.4529C343.001 17.4529 370.92 22.8855 370.92 47.2993L371.589 58.0111C371.72 60.095 370.074 61.8862 367.913 62.0118C365.752 62.1374 363.895 60.5499 363.765 58.4661L363.095 47.7542C363.095 27.4924 332.233 23.7468 322.21 22.8855C320.05 22.7483 318.742 21.62 318.742 20.0956Z" fill="white" stroke="#2F2F2F" stroke-width="3" stroke-linejoin="round"/>
<g filter="url(#filter0_d_4213_3253)">
<path d="M155.502 81.0078C155.558 81.1673 155.817 82.6378 156.077 84.2765L156.55 87.256L164.984 87.2567L165.997 90.2959C166.636 92.2153 166.918 93.4195 166.761 93.5627C166.562 93.7453 160.868 98.3169 160.566 98.5374C160.498 98.587 163.452 104.092 163.729 104.432C163.787 104.504 169.593 102.585 171.397 101.898C171.662 101.797 174.953 105.748 175.234 106.505C175.298 106.678 174.368 108.405 173.166 110.345L170.982 113.873L172.955 115.775C175.938 118.653 175.633 118.614 178.277 116.467C179.519 115.457 180.967 114.297 181.494 113.888L182.453 113.145L184.872 114.802C186.203 115.714 187.289 116.592 187.288 116.755C187.286 116.918 186.894 118.779 186.416 120.891C185.938 123.004 185.624 124.81 185.718 124.906C185.886 125.077 187.896 125.978 190.354 126.984L191.595 127.492L193.814 123.927C195.034 121.966 196.102 120.365 196.187 120.368C196.592 120.381 201.597 121.627 201.706 121.74C201.774 121.811 202.021 123.782 202.254 126.12L202.678 130.37L205.119 130.546C206.462 130.643 207.916 130.784 208.35 130.861L209.139 131L210.233 126.895C210.835 124.638 211.4 122.669 211.488 122.521C211.576 122.373 212.901 122.214 214.432 122.168L217.216 122.084L218.941 125.924C220.244 128.826 220.774 129.753 221.108 129.719C221.352 129.694 222.744 129.345 224.201 128.944L226.852 128.215L226.659 124.62C226.335 118.55 226.033 119.402 228.976 118.068L231.525 116.913L237.559 123.521L239.641 122.023C240.786 121.199 241.967 120.332 242.267 120.098L242.811 119.672L246.398 106.883C245.391 108.479 242.394 108.811 239.298 108.989C236.201 109.168 232.885 109.01 230.657 108.541C226.202 107.607 225.793 105.745 224.684 101.099C224.012 101.309 217.413 105.269 216.483 105.542C215.922 105.707 213.664 105.907 211.465 105.986C206.921 106.149 204.175 105.773 200.085 104.424C197.763 103.659 197.717 103.628 198.065 103.063C198.261 102.745 199.775 100.01 201.431 96.9848L203.525 93.1604C201.357 91.1583 199.392 89.1062 197.724 87.0295C197.656 87.3569 196.308 89.9061 194.661 92.8186C192.973 95.8047 191.499 98.4158 191.385 98.6208C191.068 99.1917 189.737 98.219 187.485 95.7709C185.489 93.6003 183.477 90.7076 182.393 88.4489C180.917 85.3724 179.659 80.9697 179.647 78.8437L179.644 77.9786L192.72 78.117C192.312 76.7377 192.087 75.3629 192.087 74.0001C192.087 72.5152 192.348 71.0163 192.83 69.5124H186.218C178.432 69.5124 179.149 69.8082 179.754 66.8441C180.657 62.4183 182.47 58.2958 185.104 54.6808C187.162 51.8546 190.766 48.1155 191.093 48.4669C191.223 48.6071 192.773 51.3294 194.538 54.5161C196.302 57.7029 197.743 60.444 197.742 60.6074C197.742 60.6074 197.948 60.1891 197.746 60.603C199.514 58.3433 201.285 56.9008 203.649 54.7279L201.152 50.2401C198.68 45.7995 197.888 44.1679 198.134 44.0211C199.076 43.4577 203.523 42.1568 205.649 41.8229C210.175 41.1117 215.072 54.97 218.654 58.5293C229.51 57.6078 243.441 56.1464 246.561 62.724C247.382 62.0416 242.616 28.2991 242.616 28.1928C242.616 28.0708 241.47 27.1916 240.069 26.2378L237.521 24.5033L235.394 26.8136C234.224 28.0842 232.833 29.6306 232.303 30.2496C231.773 30.8687 231.191 31.3747 231.009 31.3747C230.828 31.3747 229.569 30.8176 228.212 30.1362L225.746 28.897L225.886 27.8187C226.101 26.1719 226.386 19.4571 226.241 19.4571C226.171 19.4571 224.827 19.1063 223.254 18.6777L220.396 17.8983L219.666 19.5382C219.265 20.4402 218.433 22.3703 217.816 23.827L216.696 26.4751L214.643 26.3818C213.514 26.3302 212.205 26.2059 211.734 26.1061L210.878 25.9244L208.349 17L205.534 17.1779C203.859 17.2836 202.603 17.4859 202.432 17.6778C202.275 17.8548 201.976 19.9391 201.768 22.3089C201.56 24.6787 201.332 26.6788 201.26 26.7533C201.126 26.8924 196.106 28.1967 195.704 28.1967C195.581 28.1967 194.423 26.5838 193.132 24.6121C191.841 22.6405 190.679 20.9596 190.551 20.8772C190.225 20.6681 184.999 23.229 184.999 23.598C184.998 23.7638 185.4 25.6293 185.891 27.7441C186.381 29.8589 186.783 31.7674 186.783 31.9848C186.783 32.2024 185.69 33.1153 184.354 34.0144L181.925 35.6491L178.471 32.9821C176.572 31.5153 174.917 30.3157 174.793 30.3157C174.669 30.3157 173.585 31.2986 172.384 32.5003L170.199 34.6855L172.493 38.261C173.754 40.2274 174.791 41.9886 174.793 42.1749C174.795 42.3613 173.999 43.5691 173.02 44.8587L171.239 47.2035L167.82 46.07C162.348 44.2559 163.074 44.0958 161.441 47.479L160.041 50.3776L163.335 52.9927C165.638 54.8209 166.627 55.7679 166.624 56.1382C166.622 56.4295 166.193 57.8595 165.673 59.3161L164.727 61.9643L160.458 62.037C158.11 62.0772 156.188 62.1373 156.187 62.1698C156.186 62.2012 156.02 63.6 155.819 65.2751C155.618 66.9503 155.546 68.4182 155.659 68.5368C155.773 68.6557 157.516 69.3248 159.533 70.0249L163.2 71.2984V77.8554L159.3 79.2871C157.044 80.1155 155.442 80.8402 155.502 81.0078Z" fill="black"/>
<path d="M212.412 87.9087V60.8216H206.426V87.9087H212.412Z" fill="black"/>
<path d="M245.084 64.814C243.205 62.0349 239.684 60.4691 234.715 60.4691H228.376C221.489 60.4691 217.616 63.4832 217.616 68.4544C217.616 71.9381 219.533 74.9521 224.815 75.8524L236.084 77.1833C238.51 77.6139 239.645 78.475 239.645 80.1973C239.645 82.037 238.119 83.0939 235.106 83.0939H228.493C225.324 83.0939 223.133 82.1153 221.724 79.1405L216.638 82.3502C218.359 86.1862 222.389 88.2608 228.415 88.2608H235.028C241.601 88.2608 245.436 85.0902 245.436 80.2756C245.475 76.5179 243.753 72.9558 237.884 72.0164L227.202 70.9595C224.228 70.4507 223.446 69.5504 223.446 68.2586C223.446 66.6147 225.167 65.6752 228.102 65.6752H234.558C237.649 65.6752 239.567 66.5363 240.975 68.5326L245.084 64.814Z" fill="black"/>
<path d="M247.783 60.8216V66.4582H258.895V87.9087H264.921V66.4582H275.994V60.8216H247.783Z" fill="black"/>
<path d="M280.184 60.8216V87.9087H305.5V82.5069H286.093V77.066H303.504V71.7425H286.093V66.2233H305.5V60.8216H280.184Z" fill="black"/>
<path d="M238.929 95.6401H237.135C237.028 95.1237 236.843 94.67 236.577 94.2791C236.317 93.8881 235.998 93.5599 235.622 93.2945C235.251 93.0242 234.838 92.8215 234.385 92.6863C233.931 92.5512 233.458 92.4836 232.966 92.4836C232.069 92.4836 231.256 92.7105 230.527 93.1641C229.804 93.6178 229.227 94.2863 228.798 95.1695C228.373 96.0528 228.161 97.1363 228.161 98.4202C228.161 99.704 228.373 100.788 228.798 101.671C229.227 102.554 229.804 103.223 230.527 103.676C231.256 104.13 232.069 104.357 232.966 104.357C233.458 104.357 233.931 104.289 234.385 104.154C234.838 104.019 235.251 103.819 235.622 103.553C235.998 103.283 236.317 102.952 236.577 102.561C236.843 102.166 237.028 101.712 237.135 101.2H238.929C238.794 101.958 238.548 102.636 238.191 103.235C237.834 103.833 237.39 104.342 236.86 104.762C236.329 105.177 235.733 105.493 235.072 105.711C234.416 105.928 233.714 106.036 232.966 106.036C231.702 106.036 230.578 105.727 229.594 105.11C228.61 104.492 227.835 103.613 227.271 102.474C226.706 101.335 226.424 99.984 226.424 98.4202C226.424 96.8564 226.706 95.505 227.271 94.3659C227.835 93.2269 228.61 92.3485 229.594 91.7307C230.578 91.1129 231.702 90.804 232.966 90.804C233.714 90.804 234.416 90.9126 235.072 91.1298C235.733 91.347 236.329 91.6655 236.86 92.0854C237.39 92.5005 237.834 93.0073 238.191 93.6058C238.548 94.1994 238.794 94.8775 238.929 95.6401Z" fill="black"/>
<path d="M241.83 105.834V91.0067H250.774V92.5994H243.624V97.6093H250.311V99.2021H243.624V104.241H250.89V105.834H241.83Z" fill="black"/>
<path d="M254.617 105.834H252.736L258.178 91.0067H260.03L265.472 105.834H263.591L259.162 93.3524H259.046L254.617 105.834ZM255.312 100.042H262.896V101.635H255.312V100.042Z" fill="black"/>
<path d="M267.781 105.834V91.0067H269.576V104.241H276.465V105.834H267.781Z" fill="black"/>
<path d="M155.502 81.0078C155.558 81.1673 155.817 82.6378 156.077 84.2765L156.55 87.256L164.984 87.2567L165.997 90.2959C166.636 92.2153 166.918 93.4195 166.761 93.5627C166.562 93.7453 160.868 98.3169 160.566 98.5374C160.498 98.587 163.452 104.092 163.729 104.432C163.787 104.504 169.593 102.585 171.397 101.898C171.662 101.797 174.953 105.748 175.234 106.505C175.298 106.678 174.368 108.405 173.166 110.345L170.982 113.873L172.955 115.775C175.938 118.653 175.633 118.614 178.277 116.467C179.519 115.457 180.967 114.297 181.494 113.888L182.453 113.145L184.872 114.802C186.203 115.714 187.289 116.592 187.288 116.755C187.286 116.918 186.894 118.779 186.416 120.891C185.938 123.004 185.624 124.81 185.718 124.906C185.886 125.077 187.896 125.978 190.354 126.984L191.595 127.492L193.814 123.927C195.034 121.966 196.102 120.365 196.187 120.368C196.592 120.381 201.597 121.627 201.706 121.74C201.774 121.811 202.021 123.782 202.254 126.12L202.678 130.37L205.119 130.546C206.462 130.643 207.916 130.784 208.35 130.861L209.139 131L210.233 126.895C210.835 124.638 211.4 122.669 211.488 122.521C211.576 122.373 212.901 122.214 214.432 122.168L217.216 122.084L218.941 125.924C220.244 128.826 220.774 129.753 221.108 129.719C221.352 129.694 222.744 129.345 224.201 128.944L226.852 128.215L226.659 124.62C226.335 118.55 226.033 119.402 228.976 118.068L231.525 116.913L237.559 123.521L239.641 122.023C240.786 121.199 241.967 120.332 242.267 120.098L242.811 119.672L246.398 106.883C245.391 108.479 242.394 108.811 239.298 108.989C236.201 109.168 232.885 109.01 230.657 108.541C226.202 107.607 225.793 105.745 224.684 101.099C224.012 101.309 217.413 105.269 216.483 105.542C215.922 105.707 213.664 105.907 211.465 105.986C206.921 106.149 204.175 105.773 200.085 104.424C197.763 103.659 197.717 103.628 198.065 103.063C198.261 102.745 199.775 100.01 201.431 96.9848L203.525 93.1604C201.357 91.1583 199.392 89.1062 197.724 87.0295C197.656 87.3569 196.308 89.9061 194.661 92.8186C192.973 95.8047 191.499 98.4158 191.385 98.6208C191.068 99.1917 189.737 98.219 187.485 95.7709C185.489 93.6003 183.477 90.7076 182.393 88.4489C180.917 85.3724 179.659 80.9697 179.647 78.8437L179.644 77.9786L192.72 78.117C192.312 76.7377 192.087 75.3629 192.087 74.0001C192.087 72.5152 192.348 71.0163 192.83 69.5124H186.218C178.432 69.5124 179.149 69.8082 179.754 66.8441C180.657 62.4183 182.47 58.2958 185.104 54.6808C187.162 51.8546 190.766 48.1155 191.093 48.4669C191.223 48.6071 192.773 51.3294 194.538 54.5161C196.302 57.7029 197.743 60.444 197.742 60.6074C197.742 60.6074 197.948 60.1891 197.746 60.603C199.514 58.3433 201.285 56.9008 203.649 54.7279L201.152 50.2401C198.68 45.7995 197.888 44.1679 198.134 44.0211C199.076 43.4577 203.523 42.1568 205.649 41.8229C210.175 41.1117 215.072 54.97 218.654 58.5293C229.51 57.6078 243.441 56.1464 246.561 62.724C247.382 62.0416 242.616 28.2991 242.616 28.1928C242.616 28.0708 241.47 27.1916 240.069 26.2378L237.521 24.5033L235.394 26.8136C234.224 28.0842 232.833 29.6306 232.303 30.2496C231.773 30.8687 231.191 31.3747 231.009 31.3747C230.828 31.3747 229.569 30.8176 228.212 30.1362L225.746 28.897L225.886 27.8187C226.101 26.1719 226.386 19.4571 226.241 19.4571C226.171 19.4571 224.827 19.1063 223.254 18.6777L220.396 17.8983L219.666 19.5382C219.265 20.4402 218.433 22.3703 217.816 23.827L216.696 26.4751L214.643 26.3818C213.514 26.3302 212.205 26.2059 211.734 26.1061L210.878 25.9244L208.349 17L205.534 17.1779C203.859 17.2836 202.603 17.4859 202.432 17.6778C202.275 17.8548 201.976 19.9391 201.768 22.3089C201.56 24.6787 201.332 26.6788 201.26 26.7533C201.126 26.8924 196.106 28.1967 195.704 28.1967C195.581 28.1967 194.423 26.5838 193.132 24.6121C191.841 22.6405 190.679 20.9596 190.551 20.8772C190.225 20.6681 184.999 23.229 184.999 23.598C184.998 23.7638 185.4 25.6293 185.891 27.7441C186.381 29.8589 186.783 31.7674 186.783 31.9848C186.783 32.2024 185.69 33.1153 184.354 34.0144L181.925 35.6491L178.471 32.9821C176.572 31.5153 174.917 30.3157 174.793 30.3157C174.669 30.3157 173.585 31.2986 172.384 32.5003L170.199 34.6855L172.493 38.261C173.754 40.2274 174.791 41.9886 174.793 42.1749C174.795 42.3613 173.999 43.5691 173.02 44.8587L171.239 47.2035L167.82 46.07C162.348 44.2559 163.074 44.0958 161.441 47.479L160.041 50.3776L163.335 52.9927C165.638 54.8209 166.627 55.7679 166.624 56.1382C166.622 56.4295 166.193 57.8595 165.673 59.3161L164.727 61.9643L160.458 62.037C158.11 62.0772 156.188 62.1373 156.187 62.1698C156.186 62.2012 156.02 63.6 155.819 65.2751C155.618 66.9503 155.546 68.4182 155.659 68.5368C155.773 68.6557 157.516 69.3248 159.533 70.0249L163.2 71.2984V77.8554L159.3 79.2871C157.044 80.1155 155.442 80.8402 155.502 81.0078Z" stroke="white"/>
<path d="M212.412 87.9087V60.8216H206.426V87.9087H212.412Z" stroke="white"/>
<path d="M245.084 64.814C243.205 62.0349 239.684 60.4691 234.715 60.4691H228.376C221.489 60.4691 217.616 63.4832 217.616 68.4544C217.616 71.9381 219.533 74.9521 224.815 75.8524L236.084 77.1833C238.51 77.6139 239.645 78.475 239.645 80.1973C239.645 82.037 238.119 83.0939 235.106 83.0939H228.493C225.324 83.0939 223.133 82.1153 221.724 79.1405L216.638 82.3502C218.359 86.1862 222.389 88.2608 228.415 88.2608H235.028C241.601 88.2608 245.436 85.0902 245.436 80.2756C245.475 76.5179 243.753 72.9558 237.884 72.0164L227.202 70.9595C224.228 70.4507 223.446 69.5504 223.446 68.2586C223.446 66.6147 225.167 65.6752 228.102 65.6752H234.558C237.649 65.6752 239.567 66.5363 240.975 68.5326L245.084 64.814Z" stroke="white"/>
<path d="M247.783 60.8216V66.4582H258.895V87.9087H264.921V66.4582H275.994V60.8216H247.783Z" stroke="white"/>
<path d="M280.184 60.8216V87.9087H305.5V82.5069H286.093V77.066H303.504V71.7425H286.093V66.2233H305.5V60.8216H280.184Z" stroke="white"/>
<path d="M238.929 95.6401H237.135C237.028 95.1237 236.843 94.67 236.577 94.2791C236.317 93.8881 235.998 93.5599 235.622 93.2945C235.251 93.0242 234.838 92.8215 234.385 92.6863C233.931 92.5512 233.458 92.4836 232.966 92.4836C232.069 92.4836 231.256 92.7105 230.527 93.1641C229.804 93.6178 229.227 94.2863 228.798 95.1695C228.373 96.0528 228.161 97.1363 228.161 98.4202C228.161 99.704 228.373 100.788 228.798 101.671C229.227 102.554 229.804 103.223 230.527 103.676C231.256 104.13 232.069 104.357 232.966 104.357C233.458 104.357 233.931 104.289 234.385 104.154C234.838 104.019 235.251 103.819 235.622 103.553C235.998 103.283 236.317 102.952 236.577 102.561C236.843 102.166 237.028 101.712 237.135 101.2H238.929C238.794 101.958 238.548 102.636 238.191 103.235C237.834 103.833 237.39 104.342 236.86 104.762C236.329 105.177 235.733 105.493 235.072 105.711C234.416 105.928 233.714 106.036 232.966 106.036C231.702 106.036 230.578 105.727 229.594 105.11C228.61 104.492 227.835 103.613 227.271 102.474C226.706 101.335 226.424 99.984 226.424 98.4202C226.424 96.8564 226.706 95.505 227.271 94.3659C227.835 93.2269 228.61 92.3485 229.594 91.7307C230.578 91.1129 231.702 90.804 232.966 90.804C233.714 90.804 234.416 90.9126 235.072 91.1298C235.733 91.347 236.329 91.6655 236.86 92.0854C237.39 92.5005 237.834 93.0073 238.191 93.6058C238.548 94.1994 238.794 94.8775 238.929 95.6401Z" stroke="white"/>
<path d="M241.83 105.834V91.0067H250.774V92.5994H243.624V97.6093H250.311V99.2021H243.624V104.241H250.89V105.834H241.83Z" stroke="white"/>
<path d="M254.617 105.834H252.736L258.178 91.0067H260.03L265.472 105.834H263.591L259.162 93.3524H259.046L254.617 105.834ZM255.312 100.042H262.896V101.635H255.312V100.042Z" stroke="white"/>
<path d="M267.781 105.834V91.0067H269.576V104.241H276.465V105.834H267.781Z" stroke="white"/>
</g>
<defs>
<filter id="filter0_d_4213_3253" x="151.5" y="17" width="158" height="122" filterUnits="userSpaceOnUse" color-interpolation-filters="sRGB">
<feFlood flood-opacity="0" result="BackgroundImageFix"/>
<feColorMatrix in="SourceAlpha" type="matrix" values="0 0 0 0 0 0 0 0 0 0 0 0 0 0 0 0 0 0 127 0" result="hardAlpha"/>
<feOffset dy="4"/>
<feGaussianBlur stdDeviation="2"/>
<feComposite in2="hardAlpha" operator="out"/>
<feColorMatrix type="matrix" values="0 0 0 0 0 0 0 0 0 0 0 0 0 0 0 0 0 0 0.25 0"/>
<feBlend mode="normal" in2="BackgroundImageFix" result="effect1_dropShadow_4213_3253"/>
<feBlend mode="normal" in="SourceGraphic" in2="effect1_dropShadow_4213_3253" result="shape"/>
</filter>
<linearGradient id="paint0_linear_4213_3253" x1="153.85" y1="120.649" x2="189.469" y2="-47.4572" gradientUnits="userSpaceOnUse">
<stop stop-color="#FE6742"/>
<stop offset="1" stop-color="#FFB944"/>
</linearGradient>
</defs>
</svg>
