<svg width="438" height="232" viewBox="0 0 438 232" fill="none" xmlns="http://www.w3.org/2000/svg">
<path fill-rule="evenodd" clip-rule="evenodd" d="M77.2441 116.852L77.4399 116.767L77.5528 116.78L77.5184 116.734L78.0009 116.524L77.059 116.116L49.5089 79.0871C40.6165 67.135 22.2124 68.1319 14.6992 80.9726C11.0562 87.1987 11.1374 94.2207 13.8905 99.9881C8.83999 103.654 5.42383 109.549 5.42383 116.524C5.42383 123.528 8.86715 129.442 13.9507 133.104C11.1388 138.895 11.0298 145.974 14.6992 152.245C22.2124 165.085 40.6165 166.082 49.5089 154.13L77.2441 116.852Z" fill="#FF7743"/>
<path d="M77.4407 116.767L77.6429 114.956C77.3207 114.921 76.9949 114.971 76.6982 115.099L77.4407 116.767ZM77.2449 116.852L76.5022 115.184C76.2056 115.313 75.9483 115.516 75.7565 115.774L77.2449 116.852ZM77.5536 116.779L77.3515 118.591C78.0796 118.67 78.7863 118.317 79.1527 117.69C79.519 117.064 79.4756 116.284 79.042 115.701L77.5536 116.779ZM77.5191 116.733L76.7765 115.065C76.2635 115.288 75.8806 115.728 75.7356 116.262C75.5906 116.796 75.6991 117.366 76.0308 117.812L77.5191 116.733ZM78.0017 116.524L78.7443 118.192C79.4151 117.901 79.8482 117.247 79.8482 116.524C79.8482 115.801 79.4151 115.147 78.7443 114.856L78.0017 116.524ZM77.0597 116.116L75.5714 117.194C75.7631 117.452 76.0203 117.655 76.3171 117.784L77.0597 116.116ZM13.8913 99.9878L14.9854 101.455C15.6963 100.939 15.9378 99.9991 15.5618 99.2114L13.8913 99.9878ZM13.9515 133.104L15.6167 133.891C16.0011 133.099 15.7589 132.151 15.0403 131.633L13.9515 133.104ZM76.6982 115.099L76.5022 115.184L77.9875 118.52L78.1834 118.435L76.6982 115.099ZM77.7556 114.968L77.6429 114.956L77.2387 118.578L77.3515 118.591L77.7556 114.968ZM76.0308 117.812L76.0651 117.858L79.042 115.701L79.0075 115.655L76.0308 117.812ZM77.259 114.856L76.7765 115.065L78.2618 118.401L78.7443 118.192L77.259 114.856ZM76.3171 117.784L77.259 118.192L78.7443 114.856L77.8024 114.448L76.3171 117.784ZM48.0213 80.165L75.5714 117.194L78.5482 115.038L50.998 78.0085L48.0213 80.165ZM16.299 81.8833C23.1458 70.1816 39.9176 69.2732 48.0213 80.165L50.998 78.0085C41.317 64.9965 21.2804 66.0818 13.1009 80.0613L16.299 81.8833ZM15.5618 99.2114C13.0495 93.9486 12.9779 87.5594 16.299 81.8833L13.1009 80.0613C9.13599 86.8375 9.22692 94.4924 12.2209 100.764L15.5618 99.2114ZM7.27108 116.524C7.27108 110.164 10.3778 104.8 14.9854 101.455L12.7972 98.52C7.3037 102.507 3.57812 108.933 3.57812 116.524H7.27108ZM15.0403 131.633C10.4025 128.292 7.27108 122.909 7.27108 116.524H3.57812C3.57812 124.146 7.33338 130.592 12.8627 134.575L15.0403 131.633ZM12.2863 132.317C9.22855 138.614 9.10717 146.33 13.1009 153.156L16.299 151.334C12.9539 145.616 13.0506 139.176 15.6167 133.891L12.2863 132.317ZM13.1009 153.156C21.2804 167.135 41.317 168.22 50.998 155.208L48.0213 153.052C39.9176 163.944 23.1458 163.036 16.299 151.334L13.1009 153.156ZM50.998 155.208L78.7334 117.93L75.7565 115.774L48.0213 153.052L50.998 155.208Z" fill="#2F2F2F"/>
<path d="M14.041 99.6016L29.5729 104.382M14.041 134.187L23.8978 130.982M49.129 110.402L68.6852 116.422L39.2096 126.003" stroke="#2F2F2F" stroke-width="3" stroke-linecap="round" stroke-linejoin="round"/>
<path fill-rule="evenodd" clip-rule="evenodd" d="M360.756 116.361L360.56 116.446L360.448 116.434L360.481 116.48L360 116.689L360.942 117.097L388.491 154.126C397.384 166.079 415.788 165.081 423.301 152.241C426.945 146.015 426.863 138.993 424.11 133.226C429.161 129.56 432.576 123.665 432.576 116.689C432.576 109.686 429.133 103.772 424.049 100.109C426.861 94.3185 426.971 87.2399 423.301 80.9686C415.788 68.128 397.384 67.1312 388.491 79.083L360.756 116.361Z" fill="#FF9043"/>
<path d="M360.559 116.446L360.357 118.257C360.68 118.292 361.005 118.242 361.301 118.114L360.559 116.446ZM360.755 116.361L361.498 118.029C361.795 117.9 362.052 117.697 362.243 117.439L360.755 116.361ZM360.447 116.433L360.649 114.622C359.92 114.543 359.213 114.896 358.847 115.522C358.481 116.148 358.524 116.929 358.957 117.512L360.447 116.433ZM360.48 116.48L361.224 118.148C361.737 117.925 362.12 117.485 362.264 116.951C362.409 116.417 362.301 115.847 361.97 115.401L360.48 116.48ZM359.999 116.689L359.255 115.021C358.584 115.311 358.152 115.966 358.152 116.689C358.152 117.412 358.584 118.066 359.255 118.357L359.999 116.689ZM360.941 117.097L362.429 116.019C362.237 115.761 361.979 115.558 361.683 115.429L360.941 117.097ZM424.109 133.225L423.014 131.758C422.304 132.273 422.063 133.213 422.438 134.002L424.109 133.225ZM424.048 100.109L422.383 99.3215C421.999 100.113 422.241 101.063 422.96 101.58L424.048 100.109ZM361.301 118.114L361.498 118.029L360.012 114.693L359.817 114.777L361.301 118.114ZM360.244 118.244L360.357 118.257L360.761 114.635L360.649 114.622L360.244 118.244ZM361.97 115.401L361.935 115.355L358.957 117.512L358.992 117.558L361.97 115.401ZM360.741 118.357L361.224 118.148L359.738 114.811L359.255 115.021L360.741 118.357ZM361.683 115.429L360.741 115.021L359.255 118.357L360.197 118.765L361.683 115.429ZM389.978 153.047L362.429 116.019L359.452 118.175L387.002 155.205L389.978 153.047ZM421.701 151.33C414.854 163.032 398.082 163.939 389.978 153.047L387.002 155.205C396.683 168.216 416.719 167.131 424.899 153.152L421.701 151.33ZM422.438 134.002C424.951 139.265 425.022 145.654 421.701 151.33L424.899 153.152C428.864 146.375 428.773 138.72 425.779 132.449L422.438 134.002ZM430.729 116.689C430.729 123.049 427.622 128.413 423.014 131.758L425.203 134.693C430.697 130.705 434.422 124.279 434.422 116.689H430.729ZM422.96 101.58C427.597 104.922 430.729 110.303 430.729 116.689H434.422C434.422 109.067 430.666 102.621 425.138 98.6373L422.96 101.58ZM425.714 100.896C428.772 94.5993 428.892 86.8828 424.899 80.0573L421.701 81.8793C425.045 87.5963 424.949 94.0372 422.383 99.3215L425.714 100.896ZM424.899 80.0573C416.719 66.0779 396.683 64.9926 387.002 78.0046L389.978 80.161C398.082 69.2693 414.854 70.1777 421.701 81.8793L424.899 80.0573ZM387.002 78.0046L359.266 115.283L362.243 117.439L389.978 80.161L387.002 78.0046Z" fill="#2F2F2F"/>
<path d="M423.959 133.612L408.428 128.831M423.959 99.0273L414.103 102.232M388.871 122.811L369.314 116.792L398.79 107.209" stroke="#2F2F2F" stroke-width="3" stroke-linecap="round" stroke-linejoin="round"/>
<path d="M65.7422 86.2414C65.7422 62.0913 85.5828 42.5137 110.058 42.5137H327.971C352.446 42.5137 372.286 62.0913 372.286 86.2414V146.369C372.286 170.519 352.446 190.097 327.971 190.097H110.058C85.5828 190.097 65.7422 170.519 65.7422 146.369V86.2414Z" fill="#FF9E70"/>
<path d="M65.7422 86.2414C65.7422 62.0913 85.5828 42.5137 110.058 42.5137H327.971C352.446 42.5137 372.286 62.0913 372.286 86.2414V146.369C372.286 170.519 352.446 190.097 327.971 190.097H110.058C85.5828 190.097 65.7422 170.519 65.7422 146.369V86.2414Z" fill="url(#paint0_linear_4213_3234)"/>
<path d="M65.7422 86.2414C65.7422 62.0913 85.5828 42.5137 110.058 42.5137H327.971C352.446 42.5137 372.286 62.0913 372.286 86.2414V146.369C372.286 170.519 352.446 190.097 327.971 190.097H110.058C85.5828 190.097 65.7422 170.519 65.7422 146.369V86.2414Z" stroke="#2F2F2F" stroke-width="3" stroke-linecap="round" stroke-linejoin="round"/>
<path d="M114.683 177.341C97.6865 177.341 83.9082 163.745 83.9082 146.975M131.149 177.341H143.295" stroke="#2F2F2F" stroke-width="3" stroke-linecap="round" stroke-linejoin="round"/>
<path fill-rule="evenodd" clip-rule="evenodd" d="M307.016 57.8237C307.016 55.944 308.453 54.6972 310.828 54.8516C327.475 54.8522 352.184 51.4177 353.541 73.6183L354.277 85.6658C354.42 88.0095 352.61 90.0239 350.236 90.1653C347.86 90.3065 345.819 88.5211 345.675 86.1774L344.939 74.13C344.031 59.2644 321.845 61.9303 310.828 60.9616C308.453 60.8072 307.016 59.5382 307.016 57.8237Z" fill="white" stroke="#2F2F2F" stroke-width="3" stroke-linejoin="round"/>
<path d="M108.305 117.672V86.7261H97.5V80.2715H126.968V86.7261H116.134V117.672H108.305Z" fill="black"/>
<path d="M129.611 82.9123C129.611 80.6575 131.426 79 133.654 79C135.883 79 137.697 80.6575 137.697 82.9123C137.697 85.1162 135.883 86.8267 133.654 86.8267C131.426 86.8267 129.611 85.1162 129.611 82.9123ZM129.87 89.8849H137.438V117.669H129.87V89.8849Z" fill="black"/>
<path d="M142.467 89.8904H149.776V94.8935H149.931C151.511 91.342 154.336 89.4766 158.614 89.4766C164.781 89.4766 168.255 93.3624 168.255 99.8742V117.681H160.687V101.45C160.687 97.8211 159.001 95.7416 155.556 95.7416C152.11 95.7416 150.035 98.2289 150.035 101.858V117.668H142.467V89.8904Z" fill="black"/>
<path d="M190.339 89.8882H198.918L188.317 101.811L199.434 117.672H190.727L182.776 106.371L180.806 108.498V117.672H173.238V80.2715H180.806V101.032H180.91L190.339 89.8882Z" fill="black"/>
<path d="M225.666 109.174C224.836 114.591 219.808 118.169 212.991 118.169C204.489 118.169 199.307 112.752 199.307 103.914C199.307 95.0763 204.516 89.3984 212.705 89.3984C220.766 89.3984 225.898 94.7644 225.898 103.213V105.521H206.746V105.988C206.746 109.9 209.311 112.571 213.121 112.571C215.843 112.571 218.014 111.274 218.72 109.174H225.666ZM206.823 100.879H218.616C218.461 97.3291 216.128 94.9948 212.785 94.9948C209.492 94.9968 207.082 97.4127 206.823 100.879Z" fill="black"/>
<path d="M229.787 89.8912H237.096V94.8942H237.253C238.211 91.4467 240.597 89.5548 243.861 89.5548C244.589 89.5372 245.315 89.6335 246.014 89.8402V96.5008C245.402 96.2419 244.354 96.0604 243.265 96.0604C239.532 96.0604 237.353 98.3397 237.353 102.254V117.675H229.785L229.787 89.8912Z" fill="black"/>
<path d="M275.454 117.672V100.645H254.928V117.672H250.264V80.2715H254.928V96.4448H275.454V80.2715H280.121V117.672H275.454Z" fill="black"/>
<path d="M308.812 117.669H304.531V113.184H304.433C302.776 116.319 300.027 117.926 295.87 117.926C289.986 117.926 286.541 114.116 286.541 107.999V90.7148H291.051V107.192C291.051 111.573 293.089 113.92 297.271 113.92C301.65 113.92 304.294 110.915 304.294 106.328V90.7148H308.804L308.812 117.669Z" fill="black"/>
<path d="M319.285 113.107H319.181V117.668H314.879V80.2715H319.389V95.0972H319.493C321.177 92.1431 324.312 90.4591 328.123 90.4591C334.914 90.4591 339.501 95.9637 339.501 104.194C339.501 112.425 334.914 117.931 328.045 117.931C324.106 117.931 321.022 116.221 319.285 113.107ZM319.362 104.19C319.362 109.996 322.524 113.935 327.164 113.935C331.805 113.935 334.887 110.127 334.887 104.19C334.887 98.2532 331.829 94.4448 327.164 94.4448C322.5 94.4448 319.362 98.4143 319.362 104.194V104.19Z" fill="black"/>
<path d="M117.23 129.371C116.381 129.371 115.648 129.61 115.033 130.089C114.428 130.567 113.93 131.227 113.539 132.066C113.158 132.896 112.875 133.849 112.689 134.923C112.514 135.987 112.426 137.11 112.426 138.292C112.426 140.128 112.626 141.71 113.026 143.038C113.437 144.366 114.013 145.392 114.755 146.114C115.497 146.827 116.371 147.184 117.377 147.184C117.982 147.184 118.554 147.105 119.091 146.949C119.628 146.793 120.121 146.603 120.57 146.378V148.487C120.102 148.761 119.579 148.961 119.003 149.088C118.427 149.225 117.797 149.293 117.113 149.293C115.658 149.293 114.398 148.854 113.334 147.975C112.27 147.096 111.449 145.836 110.873 144.195C110.297 142.545 110.009 140.567 110.009 138.263C110.009 136.749 110.15 135.328 110.434 134C110.727 132.672 111.166 131.5 111.752 130.484C112.348 129.469 113.095 128.678 113.993 128.111C114.892 127.535 115.946 127.247 117.157 127.247C117.86 127.247 118.534 127.34 119.179 127.525C119.833 127.701 120.458 127.96 121.054 128.302L120.219 130.279C119.77 129.996 119.296 129.776 118.798 129.62C118.3 129.454 117.777 129.371 117.23 129.371ZM132.406 149H123.983V127.584H132.406V129.664H126.312V136.769H132.04V138.863H126.312V146.876H132.406V149ZM144.55 149L142.938 142.115H137.855L136.244 149H133.754L138.925 127.584H141.752L147.025 149H144.55ZM142.499 139.962L140.858 132.696C140.79 132.335 140.722 131.983 140.653 131.642C140.595 131.29 140.536 130.953 140.478 130.631C140.429 130.299 140.38 129.977 140.331 129.664C140.302 129.977 140.263 130.299 140.214 130.631C140.165 130.963 140.106 131.3 140.038 131.642C139.97 131.974 139.896 132.315 139.818 132.667L138.222 139.962H142.499ZM149.237 149V127.584H151.566V146.876H157.543V149H149.237Z" fill="black"/>
<defs>
<linearGradient id="paint0_linear_4213_3234" x1="152.08" y1="168.135" x2="198.015" y2="-17.2806" gradientUnits="userSpaceOnUse">
<stop stop-color="#FE6742"/>
<stop offset="1" stop-color="#FFB944"/>
</linearGradient>
</defs>
</svg>
