<svg xmlns:xlink="http://www.w3.org/1999/xlink"  fill="none" height="18" viewBox="0 0 23 18" width="23" xmlns="http://www.w3.org/2000/svg"><path d="m19.1567 1.68415c-1.4383-.67295-2.9762-1.162017-4.5841-1.440498-.1974.357002-.4281.837178-.5872 1.219158-1.7091-.25704-3.4026-.25704-5.08032 0-.15902-.38198-.39496-.862156-.59418-1.219158-1.60957.278481-3.14924.769348-4.58754 1.444058-2.901073 4.3839-3.6875047 8.65889-3.294288 12.87319 1.924138 1.4369 3.788868 2.3098 5.622118 2.881.45265-.623.85634-1.2852 1.20411-1.9831-.66234-.2517-1.29673-.5623-1.89615-.9229.15902-.1178.31457-.2409.46486-.3677 3.65603 1.71 7.62839 1.71 11.24079 0 .152.1268.3075.2499.4648.3677-.6012.3624-1.2373.673-1.8996.9247.3477.6961.7497 1.3601 1.2041 1.9831 1.835-.5712 3.7015-1.4441 5.6256-2.8828.4614-4.88543-.7882-9.12118-3.303-12.87675zm-11.40331 10.28505c-1.09751 0-1.99755-1.0246-1.99755-2.27232 0-1.24769.88082-2.27405 1.99755-2.27405 1.11675 0 2.01676 1.02456 1.99755 2.27405.00173 1.24772-.8808 2.27232-1.99755 2.27232zm7.38201 0c-1.0975 0-1.9976-1.0246-1.9976-2.27232 0-1.24769.8808-2.27405 1.9976-2.27405 1.1167 0 2.0168 1.02456 1.9975 2.27405 0 1.24772-.8808 2.27232-1.9975 2.27232z" fill="#2f2f2f"/></svg>