<svg xmlns:xlink="http://www.w3.org/1999/xlink"  width="324" height="357" viewBox="0 0 324 357" fill="none" xmlns="http://www.w3.org/2000/svg">
<path d="M305.851 46.7492C331.628 33.5961 319.776 -4.22875 300.655 24.0062" stroke="#2F2F2F" stroke-width="6" stroke-linecap="round"/>
<path d="M278.88 35.9177C301.279 17.7108 282.645 -15.3456 268.637 15.8926" stroke="#2F2F2F" stroke-width="6" stroke-linecap="round"/>
<path d="M301.485 35.4034C289.849 24.4726 268.428 28.792 259.172 32.3181L278.566 45.9809L312.064 72.4266C313.386 64.6401 313.121 46.3343 301.485 35.4034Z" fill="#2F2F2F"/>
<path d="M316.031 81.9115C316.031 153.755 245.95 178.879 213.333 151.552C177.229 120.607 202.767 44.3219 249.476 38.7169C266.649 36.6561 284.876 48.8577 298.604 61.9722C303.35 66.5064 307.558 71.1497 310.999 75.3505L314.683 74.4906L316.031 81.9115Z" fill="#2F2F2F"/>
<path d="M246.831 31.8771C273.277 28.7036 302.22 59.3512 313.386 75.0716C313.386 146.915 243.305 172.039 210.689 144.712C216.86 71.9867 238.898 68.4606 267.547 48.1856C219.504 64.4941 212.892 89.6171 204.518 139.423C176.309 84.7687 213.774 35.8439 246.831 31.8771Z" fill="url(#paint0_linear_2742_6668)"/>
<path d="M246.831 31.8771C273.277 28.7036 302.22 59.3512 313.386 75.0716C313.386 146.915 243.305 172.039 210.689 144.712C216.86 71.9867 238.898 68.4606 267.547 48.1856C219.504 64.4941 212.892 89.6171 204.518 139.423C176.309 84.7687 213.774 35.8439 246.831 31.8771Z" fill="#7B9DD9"/>
<path d="M246.831 31.8771C273.277 28.7036 302.22 59.3512 313.386 75.0716C313.386 146.915 243.305 172.039 210.689 144.712C216.86 71.9867 238.898 68.4606 267.547 48.1856C219.504 64.4941 212.892 89.6171 204.518 139.423C176.309 84.7687 213.774 35.8439 246.831 31.8771Z" fill="#F6EBD8"/>
<path d="M246.831 31.8771C273.277 28.7036 302.22 59.3512 313.386 75.0716C313.386 146.915 243.305 172.039 210.689 144.712C216.86 71.9867 238.898 68.4606 267.547 48.1856C219.504 64.4941 212.892 89.6171 204.518 139.423C176.309 84.7687 213.774 35.8439 246.831 31.8771Z" fill="url(#paint1_linear_2742_6668)"/>
<path d="M246.831 31.8771C273.277 28.7036 302.22 59.3512 313.386 75.0716C313.386 146.915 243.305 172.039 210.689 144.712C216.86 71.9867 238.898 68.4606 267.547 48.1856C219.504 64.4941 212.892 89.6171 204.518 139.423C176.309 84.7687 213.774 35.8439 246.831 31.8771Z" stroke="#2F2F2F" stroke-width="3" stroke-linecap="round"/>
<mask id="mask0_2742_6668" style="mask-type:alpha" maskUnits="userSpaceOnUse" x="193" y="30" width="122" height="128">
<path d="M246.831 31.8771C272.995 28.7374 301.604 58.7022 313.024 74.5643C313.266 74.9012 313.387 75.3063 313.384 75.7213C312.967 146.482 244.344 171.546 211.495 145.371C210.986 144.965 210.724 144.3 210.781 143.652C216.203 81.8825 233.254 70.6626 256.102 55.8394C258.038 54.5837 256.825 52.2382 254.721 53.1838C219.846 68.8533 212.693 92.226 205.53 133.49C205.201 135.384 202.7 135.761 201.924 134.002C178.791 81.5709 214.871 35.7123 246.831 31.8771Z" fill="url(#paint2_linear_2742_6668)"/>
<path d="M246.831 31.8771C272.995 28.7374 301.604 58.7022 313.024 74.5643C313.266 74.9012 313.387 75.3063 313.384 75.7213C312.967 146.482 244.344 171.546 211.495 145.371C210.986 144.965 210.724 144.3 210.781 143.652C216.203 81.8825 233.254 70.6626 256.102 55.8394C258.038 54.5837 256.825 52.2382 254.721 53.1838C219.846 68.8533 212.693 92.226 205.53 133.49C205.201 135.384 202.7 135.761 201.924 134.002C178.791 81.5709 214.871 35.7123 246.831 31.8771Z" fill="#7B9DD9"/>
<path d="M246.831 31.8771C272.995 28.7374 301.604 58.7022 313.024 74.5643C313.266 74.9012 313.387 75.3063 313.384 75.7213C312.967 146.482 244.344 171.546 211.495 145.371C210.986 144.965 210.724 144.3 210.781 143.652C216.203 81.8825 233.254 70.6626 256.102 55.8394C258.038 54.5837 256.825 52.2382 254.721 53.1838C219.846 68.8533 212.693 92.226 205.53 133.49C205.201 135.384 202.7 135.761 201.924 134.002C178.791 81.5709 214.871 35.7123 246.831 31.8771Z" fill="#F6EBD8"/>
<path d="M246.831 31.8771C272.995 28.7374 301.604 58.7022 313.024 74.5643C313.266 74.9012 313.387 75.3063 313.384 75.7213C312.967 146.482 244.344 171.546 211.495 145.371C210.986 144.965 210.724 144.3 210.781 143.652C216.203 81.8825 233.254 70.6626 256.102 55.8394C258.038 54.5837 256.825 52.2382 254.721 53.1838C219.846 68.8533 212.693 92.226 205.53 133.49C205.201 135.384 202.7 135.761 201.924 134.002C178.791 81.5709 214.871 35.7123 246.831 31.8771Z" fill="url(#paint3_linear_2742_6668)"/>
<path d="M246.831 31.8771C272.995 28.7374 301.604 58.7022 313.024 74.5643C313.266 74.9012 313.387 75.3063 313.384 75.7213C312.967 146.482 244.344 171.546 211.495 145.371C210.986 144.965 210.724 144.3 210.781 143.652C216.203 81.8825 233.254 70.6626 256.102 55.8394C258.038 54.5837 256.825 52.2382 254.721 53.1838C219.846 68.8533 212.693 92.226 205.53 133.49C205.201 135.384 202.7 135.761 201.924 134.002C178.791 81.5709 214.871 35.7123 246.831 31.8771Z" stroke="#2F2F2F" stroke-width="3" stroke-linecap="round"/>
</mask>
<g mask="url(#mask0_2742_6668)">
<ellipse cx="212.011" cy="62.7312" rx="10.5783" ry="7.49293" fill="#2F2F2F" stroke="#2F2F2F" stroke-width="3" stroke-linecap="round"/>
<ellipse cx="252.561" cy="97.5497" rx="12.3413" ry="14.1043" fill="#FFF8EC" stroke="#2F2F2F" stroke-width="3" stroke-linecap="round"/>
<ellipse cx="245.509" cy="127.96" rx="8.81522" ry="8.37446" fill="#FFF8EC" stroke="#2F2F2F" stroke-width="3" stroke-linecap="round"/>
<ellipse cx="291.348" cy="106.807" rx="7.9337" ry="9.25598" fill="#2F2F2F" stroke="#2F2F2F" stroke-width="3" stroke-linecap="round"/>
<ellipse cx="267.311" cy="53.0863" rx="28.6495" ry="13.2228" transform="rotate(35.1193 267.311 53.0863)" fill="#2F2F2F" stroke="#2F2F2F" stroke-width="3" stroke-linecap="round"/>
</g>
<path d="M246.831 31.6661C273.277 28.4927 302.22 59.1402 313.386 74.8607C313.386 146.704 243.305 171.828 210.689 144.501C216.86 71.7757 238.898 68.2496 267.547 47.9746C219.504 64.2831 212.892 89.4062 204.518 139.212C176.309 84.5578 213.774 35.633 246.831 31.6661Z" stroke="#2F2F2F" stroke-width="3" stroke-linecap="round" stroke-linejoin="round"/>
<path fill-rule="evenodd" clip-rule="evenodd" d="M76.2083 323.785C74.6931 326.922 70.8544 328.019 67.6342 326.234C64.4141 324.448 63.0319 320.457 64.5471 317.32C66.0623 314.182 69.901 313.085 73.1212 314.871C76.3413 316.656 77.7234 320.647 76.2083 323.785ZM68.116 296.292C60.4557 292.046 57.1677 282.552 60.7722 275.087C62.3325 271.856 64.9287 269.534 67.993 268.285C68.6275 268.027 68.8992 267.242 68.529 266.665C63.2588 258.458 62.0941 248.034 66.356 239.208C68.7956 234.156 72.6611 230.356 77.2643 228.006C78.011 227.625 78.0753 226.525 77.3691 226.073C73.6491 223.694 70.4203 220.601 67.9792 216.87C58.8739 202.954 64.1737 185.424 79.8164 177.716C95.4592 170.008 115.521 175.04 124.627 188.956C127.343 193.108 128.777 197.581 129.037 202.019C129.079 202.72 129.787 203.205 130.456 202.989C137.195 200.818 144.628 201.581 150.654 204.751C150.909 204.885 151.225 204.756 151.314 204.482V204.482C151.88 202.754 152.66 201.165 153.616 199.731C153.876 199.342 153.853 198.825 153.557 198.463C150.147 194.295 148.141 188.828 148.451 183.344C148.759 177.881 151.299 173.542 155.056 171.125C155.619 170.762 155.757 169.967 155.326 169.454C148.573 161.41 147.587 148.39 153.401 139C158.374 130.969 166.844 127.98 174.363 130.792C174.725 130.927 175.122 130.663 175.143 130.277V130.277C175.476 124.372 180.183 120.669 185.657 122.006C191.131 123.343 195.298 129.214 194.965 135.119C194.703 139.77 191.727 143.055 187.8 143.587C187.094 143.682 186.576 144.39 186.781 145.071C188.932 152.197 188.167 160.438 184.141 166.939C182.103 170.23 179.478 172.675 176.571 174.22C175.95 174.55 175.783 175.395 176.241 175.928C177.315 177.178 178.26 178.554 179.049 180.019C179.401 180.671 180.318 180.792 180.841 180.268C181.218 179.89 181.614 179.529 182.029 179.188C184.074 177.506 186.348 176.485 188.66 176.087C189.496 175.943 189.978 174.889 189.535 174.165C188.18 171.946 187.435 169.322 187.583 166.691C187.916 160.786 192.623 157.083 198.097 158.42C199.721 158.817 201.23 159.613 202.541 160.691C203.001 161.069 203.691 161.025 204.083 160.577C209.904 153.932 218.724 152.334 226.448 156.317C227.104 156.655 227.931 156.246 228.113 155.531C229.301 150.865 233.512 148.162 238.312 149.334C243.786 150.671 247.953 156.542 247.621 162.447C247.351 167.237 244.203 170.577 240.102 170.955C239.381 171.021 238.828 171.73 239.03 172.426C241.212 179.941 240.475 188.326 236.421 194.874C229.747 205.652 216.613 207.369 207.085 198.71C207.004 198.636 206.923 198.561 206.842 198.486C206.243 197.927 205.21 198.214 204.972 198.999C203.955 202.358 202.053 205.407 199.346 207.633C197.057 209.514 194.482 210.57 191.889 210.849C191.324 210.91 190.885 211.393 190.895 211.961C190.936 214.156 190.62 216.38 189.908 218.556C186.459 229.096 175.023 234.491 164.366 230.605C163.634 230.338 162.924 230.034 162.239 229.696C161.688 229.424 161.012 229.672 160.762 230.233C158.907 234.399 155.479 238.033 150.703 240.386C139.515 245.899 125.164 242.3 118.652 232.346C117.659 230.828 116.905 229.25 116.381 227.646C116.168 226.995 115.397 226.687 114.804 227.031C114.153 227.409 113.481 227.77 112.789 228.111C111.117 228.935 109.394 229.613 107.639 230.151C106.819 230.402 106.601 231.518 107.26 232.066C117.436 240.521 121.224 254.903 115.616 266.517C110.979 276.12 101.191 281.197 90.9763 280.398C90.277 280.344 89.7024 280.98 89.8045 281.674C90.2401 284.636 89.8527 287.691 88.5127 290.466C84.9083 297.931 75.7764 300.539 68.116 296.292Z" fill="#F4E7D2"/>
<path fill-rule="evenodd" clip-rule="evenodd" d="M76.2083 323.785C74.6931 326.922 70.8544 328.019 67.6342 326.234C64.4141 324.448 63.0319 320.457 64.5471 317.32C66.0623 314.182 69.901 313.085 73.1212 314.871C76.3413 316.656 77.7234 320.647 76.2083 323.785ZM68.116 296.292C60.4557 292.046 57.1677 282.552 60.7722 275.087C62.3325 271.856 64.9287 269.534 67.993 268.285C68.6275 268.027 68.8992 267.242 68.529 266.665C63.2588 258.458 62.0941 248.034 66.356 239.208C68.7956 234.156 72.6611 230.356 77.2643 228.006C78.011 227.625 78.0753 226.525 77.3691 226.073C73.6491 223.694 70.4203 220.601 67.9792 216.87C58.8739 202.954 64.1737 185.424 79.8164 177.716C95.4592 170.008 115.521 175.04 124.627 188.956C127.343 193.108 128.777 197.581 129.037 202.019C129.079 202.72 129.787 203.205 130.456 202.989C137.195 200.818 144.628 201.581 150.654 204.751C150.909 204.885 151.225 204.756 151.314 204.482V204.482C151.88 202.754 152.66 201.165 153.616 199.731C153.876 199.342 153.853 198.825 153.557 198.463C150.147 194.295 148.141 188.828 148.451 183.344C148.759 177.881 151.299 173.542 155.056 171.125C155.619 170.762 155.757 169.967 155.326 169.454C148.573 161.41 147.587 148.39 153.401 139C158.374 130.969 166.844 127.98 174.363 130.792C174.725 130.927 175.122 130.663 175.143 130.277V130.277C175.476 124.372 180.183 120.669 185.657 122.006C191.131 123.343 195.298 129.214 194.965 135.119C194.703 139.77 191.727 143.055 187.8 143.587C187.094 143.682 186.576 144.39 186.781 145.071C188.932 152.197 188.167 160.438 184.141 166.939C182.103 170.23 179.478 172.675 176.571 174.22C175.95 174.55 175.783 175.395 176.241 175.928C177.315 177.178 178.26 178.554 179.049 180.019C179.401 180.671 180.318 180.792 180.841 180.268C181.218 179.89 181.614 179.529 182.029 179.188C184.074 177.506 186.348 176.485 188.66 176.087C189.496 175.943 189.978 174.889 189.535 174.165C188.18 171.946 187.435 169.322 187.583 166.691C187.916 160.786 192.623 157.083 198.097 158.42C199.721 158.817 201.23 159.613 202.541 160.691C203.001 161.069 203.691 161.025 204.083 160.577C209.904 153.932 218.724 152.334 226.448 156.317C227.104 156.655 227.931 156.246 228.113 155.531C229.301 150.865 233.512 148.162 238.312 149.334C243.786 150.671 247.953 156.542 247.621 162.447C247.351 167.237 244.203 170.577 240.102 170.955C239.381 171.021 238.828 171.73 239.03 172.426C241.212 179.941 240.475 188.326 236.421 194.874C229.747 205.652 216.613 207.369 207.085 198.71C207.004 198.636 206.923 198.561 206.842 198.486C206.243 197.927 205.21 198.214 204.972 198.999C203.955 202.358 202.053 205.407 199.346 207.633C197.057 209.514 194.482 210.57 191.889 210.849C191.324 210.91 190.885 211.393 190.895 211.961C190.936 214.156 190.62 216.38 189.908 218.556C186.459 229.096 175.023 234.491 164.366 230.605C163.634 230.338 162.924 230.034 162.239 229.696C161.688 229.424 161.012 229.672 160.762 230.233C158.907 234.399 155.479 238.033 150.703 240.386C139.515 245.899 125.164 242.3 118.652 232.346C117.659 230.828 116.905 229.25 116.381 227.646C116.168 226.995 115.397 226.687 114.804 227.031C114.153 227.409 113.481 227.77 112.789 228.111C111.117 228.935 109.394 229.613 107.639 230.151C106.819 230.402 106.601 231.518 107.26 232.066C117.436 240.521 121.224 254.903 115.616 266.517C110.979 276.12 101.191 281.197 90.9763 280.398C90.277 280.344 89.7024 280.98 89.8045 281.674C90.2401 284.636 89.8527 287.691 88.5127 290.466C84.9083 297.931 75.7764 300.539 68.116 296.292Z" fill="white"/>
<path d="M67.6342 326.234L68.3615 324.922L68.3615 324.922L67.6342 326.234ZM76.2083 323.785L77.559 324.437L77.559 324.437L76.2083 323.785ZM64.5471 317.32L65.8979 317.972L65.8979 317.972L64.5471 317.32ZM60.7722 275.087L59.4214 274.435L59.4214 274.435L60.7722 275.087ZM66.356 239.208L67.7068 239.86L67.7068 239.86L66.356 239.208ZM67.9792 216.87L66.724 217.691L66.724 217.691L67.9792 216.87ZM79.8164 177.716L80.4795 179.062L80.4795 179.062L79.8164 177.716ZM124.627 188.956L123.371 189.778L123.371 189.778L124.627 188.956ZM148.451 183.344L146.953 183.26L146.953 183.26L148.451 183.344ZM153.401 139L154.676 139.79L154.676 139.79L153.401 139ZM185.657 122.006L185.301 123.463L185.301 123.463L185.657 122.006ZM194.965 135.119L196.463 135.203L196.463 135.203L194.965 135.119ZM184.141 166.939L185.417 167.728L185.417 167.728L184.141 166.939ZM182.029 179.188L181.076 178.029L181.076 178.029L182.029 179.188ZM187.583 166.691L189.08 166.775L189.08 166.775L187.583 166.691ZM198.097 158.42L198.452 156.963L198.452 156.963L198.097 158.42ZM238.312 149.334L237.956 150.791L237.956 150.791L238.312 149.334ZM247.621 162.447L249.118 162.531L249.118 162.531L247.621 162.447ZM236.421 194.874L235.145 194.084L236.421 194.874ZM207.085 198.71L208.094 197.6L208.094 197.6L207.085 198.71ZM199.346 207.633L198.393 206.474L198.393 206.474L199.346 207.633ZM189.908 218.556L191.333 219.022L191.333 219.022L189.908 218.556ZM164.366 230.605L163.852 232.014L163.852 232.014L164.366 230.605ZM150.703 240.386L150.04 239.04L150.04 239.04L150.703 240.386ZM118.652 232.346L117.396 233.167L117.397 233.167L118.652 232.346ZM112.789 228.111L112.126 226.765L112.126 226.765L112.789 228.111ZM115.616 266.517L114.265 265.865L114.265 265.865L115.616 266.517ZM88.5127 290.466L87.1619 289.814L87.1619 289.814L88.5127 290.466ZM90.9763 280.398L90.8593 281.894L90.9763 280.398ZM89.8045 281.674L88.3204 281.892L89.8045 281.674ZM162.239 229.696L162.902 228.35L162.239 229.696ZM160.762 230.233L159.391 229.623L160.762 230.233ZM226.448 156.317L225.76 157.65L226.448 156.317ZM228.113 155.531L229.567 155.901L228.113 155.531ZM107.639 230.151L107.2 228.717L107.639 230.151ZM107.26 232.066L108.219 230.912L107.26 232.066ZM176.571 174.22L177.275 175.545L176.571 174.22ZM176.241 175.928L175.103 176.906L176.241 175.928ZM179.049 180.019L177.729 180.73L179.049 180.019ZM180.841 180.268L179.779 179.209L180.841 180.268ZM206.842 198.486L207.866 197.39L206.842 198.486ZM204.972 198.999L203.537 198.564L204.972 198.999ZM153.616 199.731L152.368 198.899L152.368 198.899L153.616 199.731ZM153.557 198.463L154.717 197.513L153.557 198.463ZM116.381 227.646L117.807 227.18L116.381 227.646ZM114.804 227.031L114.051 225.734L114.804 227.031ZM187.8 143.587L188.001 145.073L187.8 143.587ZM186.781 145.071L188.217 144.638L186.781 145.071ZM240.102 170.955L240.239 172.449L240.102 170.955ZM239.03 172.426L237.589 172.844L239.03 172.426ZM129.037 202.019L130.535 201.931L129.037 202.019ZM130.456 202.989L129.996 201.562L130.456 202.989ZM150.654 204.751L151.352 203.424L150.654 204.751ZM174.363 130.792L174.888 129.387L174.363 130.792ZM202.541 160.691L201.589 161.85L202.541 160.691ZM204.083 160.577L202.954 159.589L204.083 160.577ZM77.2643 228.006L77.9464 229.342L77.2643 228.006ZM77.3691 226.073L78.1774 224.809L77.3691 226.073ZM188.66 176.087L188.914 177.565L188.914 177.565L188.66 176.087ZM189.535 174.165L188.255 174.947L189.535 174.165ZM191.889 210.849L192.05 212.341L191.889 210.849ZM190.895 211.961L192.395 211.933L190.895 211.961ZM155.056 171.125L155.867 172.386L155.056 171.125ZM155.326 169.454L154.177 170.419L155.326 169.454ZM68.529 266.665L67.2668 267.476L67.2668 267.476L68.529 266.665ZM66.9069 327.545C70.8054 329.707 75.6328 328.426 77.559 324.437L74.8575 323.132C73.7534 325.419 70.9033 326.331 68.3615 324.922L66.9069 327.545ZM63.1963 316.667C61.3045 320.585 63.0545 325.41 66.9069 327.545L68.3615 324.922C65.7737 323.487 64.7594 320.33 65.8979 317.972L63.1963 316.667ZM73.8485 313.559C69.9499 311.397 65.1226 312.678 63.1963 316.667L65.8979 317.972C67.002 315.685 69.8521 314.773 72.3939 316.182L73.8485 313.559ZM77.559 324.437C79.4509 320.519 77.7009 315.694 73.8485 313.559L72.3939 316.182C74.9817 317.617 75.996 320.774 74.8575 323.132L77.559 324.437ZM59.4214 274.435C55.4403 282.679 59.0961 293.007 67.3887 297.604L68.8433 294.981C61.8153 291.084 58.8952 282.424 62.1229 275.739L59.4214 274.435ZM67.4268 266.896C64.0293 268.281 61.148 270.859 59.4214 274.435L62.1229 275.739C63.5171 272.852 65.8282 270.788 68.5592 269.674L67.4268 266.896ZM65.0053 238.556C60.4899 247.907 61.7495 258.884 67.2668 267.476L69.7911 265.855C64.7681 258.032 63.6984 248.161 67.7068 239.86L65.0053 238.556ZM76.5823 226.67C71.694 229.166 67.5903 233.202 65.0053 238.556L67.7068 239.86C70.0009 235.109 73.6281 231.547 77.9464 229.342L76.5823 226.67ZM66.724 217.691C69.2898 221.613 72.676 224.852 76.5608 227.337L78.1774 224.809C74.6222 222.535 71.5509 219.589 69.2344 216.049L66.724 217.691ZM79.1534 176.371C62.7762 184.441 57.0819 202.955 66.724 217.691L69.2344 216.049C60.6659 202.953 65.5711 186.408 80.4795 179.062L79.1534 176.371ZM125.882 188.135C116.331 173.538 95.4253 168.352 79.1534 176.371L80.4795 179.062C95.4932 171.663 114.712 176.542 123.371 189.778L125.882 188.135ZM130.535 201.931C130.259 197.226 128.738 192.501 125.882 188.135L123.371 189.778C125.947 193.715 127.295 197.936 127.54 202.106L130.535 201.931ZM151.352 203.424C144.979 200.07 137.129 199.263 129.996 201.562L130.916 204.417C137.261 202.372 144.277 203.091 149.956 206.079L151.352 203.424ZM152.368 198.899C151.337 200.445 150.497 202.158 149.889 204.016L152.74 204.949C153.263 203.351 153.983 201.884 154.864 200.564L152.368 198.899ZM146.953 183.26C146.62 189.156 148.773 194.985 152.396 199.413L154.717 197.513C151.52 193.605 149.662 188.501 149.948 183.429L146.953 183.26ZM154.244 169.863C150.041 172.567 147.285 177.37 146.953 183.26L149.948 183.429C150.232 178.392 152.557 174.516 155.867 172.386L154.244 169.863ZM152.125 138.211C145.978 148.14 146.999 161.868 154.177 170.419L156.475 168.49C150.146 160.951 149.197 148.639 154.676 139.79L152.125 138.211ZM174.888 129.387C166.618 126.294 157.428 129.648 152.125 138.211L154.676 139.79C159.32 132.29 167.07 129.666 173.837 132.197L174.888 129.387ZM186.013 120.549C182.849 119.776 179.827 120.452 177.545 122.247C175.271 124.036 173.834 126.855 173.646 130.192L176.641 130.361C176.786 127.794 177.869 125.809 179.4 124.605C180.923 123.406 182.991 122.899 185.301 123.463L186.013 120.549ZM196.463 135.203C196.834 128.63 192.239 122.07 186.013 120.549L185.301 123.463C190.022 124.617 193.763 129.799 193.468 135.034L196.463 135.203ZM188.001 145.073C192.727 144.433 196.165 140.481 196.463 135.203L193.468 135.034C193.241 139.059 190.727 141.677 187.598 142.1L188.001 145.073ZM185.417 167.728C189.689 160.829 190.481 152.137 188.217 144.638L185.345 145.505C187.384 152.257 186.644 160.047 182.866 166.149L185.417 167.728ZM177.275 175.545C180.433 173.866 183.249 171.229 185.417 167.728L182.866 166.149C180.957 169.232 178.523 171.484 175.867 172.896L177.275 175.545ZM180.37 179.307C179.529 177.748 178.523 176.283 177.379 174.951L175.103 176.906C176.106 178.073 176.99 179.36 177.729 180.73L180.37 179.307ZM181.076 178.029C180.623 178.402 180.19 178.796 179.779 179.209L181.904 181.326C182.246 180.983 182.606 180.656 182.982 180.346L181.076 178.029ZM188.405 174.609C185.829 175.052 183.316 176.188 181.076 178.029L182.982 180.346C184.833 178.824 186.868 177.917 188.914 177.565L188.405 174.609ZM186.085 166.606C185.918 169.572 186.757 172.495 188.255 174.947L190.815 173.383C189.602 171.396 188.951 169.071 189.08 166.775L186.085 166.606ZM198.452 156.963C195.289 156.19 192.266 156.866 189.984 158.661C187.71 160.45 186.273 163.269 186.085 166.606L189.08 166.775C189.225 164.208 190.309 162.223 191.839 161.019C193.363 159.82 195.43 159.313 197.741 159.877L198.452 156.963ZM203.494 159.532C202.028 158.327 200.319 157.419 198.452 156.963L197.741 159.877C199.123 160.215 200.433 160.899 201.589 161.85L203.494 159.532ZM227.135 154.984C218.803 150.687 209.233 152.422 202.954 159.589L205.211 161.566C210.575 155.443 218.645 153.98 225.76 157.65L227.135 154.984ZM238.668 147.877C233.035 146.501 228.042 149.732 226.66 155.161L229.567 155.901C230.56 151.999 233.989 149.822 237.956 150.791L238.668 147.877ZM249.118 162.531C249.489 155.958 244.895 149.398 238.668 147.877L237.956 150.791C242.677 151.945 246.418 157.127 246.123 162.362L249.118 162.531ZM240.239 172.449C245.169 171.995 248.812 167.969 249.118 162.531L246.123 162.362C245.889 166.504 243.236 169.16 239.964 169.461L240.239 172.449ZM237.696 195.664C242.005 188.705 242.754 179.87 240.47 172.007L237.589 172.844C239.671 180.012 238.945 187.948 235.145 194.084L237.696 195.664ZM206.076 199.82C211.139 204.421 217.236 206.324 223.018 205.568C228.803 204.812 234.138 201.41 237.696 195.664L235.145 194.084C232.03 199.116 227.462 201.962 222.629 202.594C217.793 203.226 212.56 201.658 208.094 197.6L206.076 199.82ZM205.819 199.583C205.904 199.662 205.99 199.741 206.076 199.82L208.094 197.6C208.017 197.53 207.941 197.46 207.866 197.39L205.819 199.583ZM200.299 208.791C203.259 206.357 205.314 203.044 206.408 199.434L203.537 198.564C202.595 201.672 200.846 204.457 198.393 206.474L200.299 208.791ZM192.05 212.341C194.944 212.029 197.792 210.852 200.299 208.791L198.393 206.474C196.323 208.177 194.021 209.111 191.728 209.358L192.05 212.341ZM191.333 219.022C192.099 216.683 192.438 214.292 192.395 211.933L189.396 211.989C189.433 214.02 189.14 216.077 188.482 218.089L191.333 219.022ZM163.852 232.014C175.274 236.179 187.61 230.401 191.333 219.022L188.482 218.089C185.307 227.792 174.772 232.803 164.88 229.195L163.852 232.014ZM161.576 231.041C162.309 231.403 163.069 231.728 163.852 232.014L164.88 229.195C164.199 228.947 163.539 228.664 162.902 228.35L161.576 231.041ZM151.366 241.732C156.44 239.231 160.128 235.346 162.132 230.843L159.391 229.623C157.687 233.452 154.518 236.834 150.04 239.04L151.366 241.732ZM117.397 233.167C124.355 243.802 139.548 247.555 151.366 241.732L150.04 239.04C139.481 244.244 125.974 240.798 119.907 231.525L117.397 233.167ZM114.955 228.112C115.521 229.844 116.333 231.541 117.396 233.167L119.907 231.525C118.985 230.115 118.289 228.656 117.807 227.18L114.955 228.112ZM113.452 229.456C114.175 229.1 114.877 228.724 115.558 228.328L114.051 225.734C113.43 226.095 112.788 226.439 112.126 226.765L113.452 229.456ZM108.078 231.585C109.908 231.025 111.706 230.317 113.452 229.456L112.126 226.765C110.527 227.553 108.879 228.202 107.2 228.717L108.078 231.585ZM116.967 267.17C122.907 254.867 118.865 239.759 108.219 230.912L106.302 233.22C116.007 241.284 119.542 254.938 114.265 265.865L116.967 267.17ZM90.8593 281.894C101.646 282.737 112.042 277.368 116.967 267.17L114.265 265.865C109.916 274.872 100.736 279.657 91.0932 278.903L90.8593 281.894ZM89.8635 291.119C91.3439 288.053 91.7644 284.691 91.2885 281.456L88.3204 281.892C88.7158 284.581 88.3615 287.33 87.1619 289.814L89.8635 291.119ZM67.3887 297.604C75.7275 302.227 85.848 299.434 89.8635 291.119L87.1619 289.814C83.9686 296.427 75.8253 298.851 68.8433 294.981L67.3887 297.604ZM91.0932 278.903C89.3985 278.77 88.0835 280.281 88.3204 281.892L91.2885 281.456C91.3078 281.587 91.2602 281.698 91.1973 281.767C91.1326 281.838 91.0115 281.906 90.8593 281.894L91.0932 278.903ZM162.902 228.35C161.581 227.699 159.984 228.29 159.391 229.623L162.132 230.843C162.039 231.053 161.795 231.149 161.576 231.041L162.902 228.35ZM225.76 157.65C227.342 158.466 229.166 157.475 229.567 155.901L226.66 155.161C226.688 155.052 226.756 154.992 226.81 154.966C226.869 154.938 226.995 154.912 227.135 154.984L225.76 157.65ZM107.2 228.717C105.225 229.322 104.737 231.919 106.302 233.22L108.219 230.912C108.367 231.035 108.384 231.201 108.367 231.287C108.35 231.374 108.268 231.527 108.078 231.585L107.2 228.717ZM175.867 172.896C174.415 173.668 174.006 175.628 175.103 176.906L177.379 174.951C177.475 175.062 177.491 175.194 177.474 175.285C177.456 175.374 177.395 175.481 177.275 175.545L175.867 172.896ZM177.729 180.73C178.571 182.294 180.692 182.542 181.904 181.326L179.779 179.209C179.879 179.109 180 179.087 180.084 179.098C180.17 179.11 180.295 179.168 180.37 179.307L177.729 180.73ZM207.866 197.39C206.437 196.056 204.09 196.739 203.537 198.564L206.408 199.434C206.359 199.595 206.239 199.666 206.17 199.685C206.1 199.704 205.95 199.705 205.819 199.583L207.866 197.39ZM154.864 200.564C155.487 199.631 155.436 198.391 154.717 197.513L152.396 199.413C152.271 199.26 152.266 199.053 152.368 198.899L154.864 200.564ZM117.807 227.18C117.308 225.653 115.497 224.894 114.051 225.734L115.558 228.328C115.426 228.405 115.283 228.4 115.186 228.361C115.091 228.324 114.997 228.24 114.955 228.112L117.807 227.18ZM187.598 142.1C186.103 142.303 184.838 143.824 185.345 145.505L188.217 144.638C188.264 144.793 188.214 144.917 188.177 144.97C188.144 145.017 188.088 145.061 188.001 145.073L187.598 142.1ZM239.964 169.461C238.439 169.602 237.088 171.118 237.589 172.844L240.47 172.007C240.517 172.169 240.462 172.298 240.423 172.351C240.388 172.397 240.33 172.44 240.239 172.449L239.964 169.461ZM127.54 202.106C127.639 203.789 129.315 204.933 130.916 204.417L129.996 201.562C130.138 201.516 130.272 201.551 130.358 201.61C130.445 201.669 130.526 201.782 130.535 201.931L127.54 202.106ZM149.956 206.079C151.038 206.648 152.364 206.1 152.74 204.949L149.889 204.016C150.086 203.413 150.78 203.123 151.352 203.424L149.956 206.079ZM173.837 132.197C175.167 132.694 176.564 131.734 176.641 130.361L173.646 130.192C173.68 129.591 174.282 129.16 174.888 129.387L173.837 132.197ZM201.589 161.85C202.65 162.722 204.265 162.646 205.211 161.566L202.954 159.589C203.116 159.404 203.352 159.416 203.494 159.532L201.589 161.85ZM77.9464 229.342C79.6993 228.447 79.884 225.901 78.1774 224.809L76.5608 227.337C76.3982 227.233 76.359 227.069 76.3639 226.983C76.3686 226.898 76.4218 226.752 76.5823 226.67L77.9464 229.342ZM188.914 177.565C189.907 177.394 190.605 176.704 190.942 175.966C191.278 175.228 191.342 174.246 190.815 173.383L188.255 174.947C188.215 174.881 188.204 174.819 188.203 174.78C188.202 174.744 188.21 174.727 188.212 174.721C188.215 174.715 188.223 174.699 188.249 174.677C188.278 174.653 188.331 174.621 188.405 174.609L188.914 177.565ZM191.728 209.358C190.417 209.499 189.37 210.618 189.396 211.989L192.395 211.933C192.399 212.167 192.231 212.321 192.05 212.341L191.728 209.358ZM155.867 172.386C157.157 171.557 157.512 169.726 156.475 168.49L154.177 170.419C154.087 170.311 154.07 170.187 154.084 170.102C154.098 170.019 154.147 169.926 154.244 169.863L155.867 172.386ZM68.5592 269.674C70.0115 269.082 70.6977 267.266 69.7911 265.855L67.2668 267.476C67.184 267.347 67.1854 267.207 67.2158 267.117C67.2449 267.03 67.3144 266.942 67.4268 266.896L68.5592 269.674Z" fill="#2F2F2F"/>
<rect width="7.9337" height="116.891" rx="2" transform="matrix(0.470276 -0.882519 -0.882519 -0.470276 317.485 102.547)" fill="url(#paint4_linear_2742_6668)"/>
<rect width="7.9337" height="116.891" rx="2" transform="matrix(0.470276 -0.882519 -0.882519 -0.470276 317.485 102.547)" fill="#7B9DD9"/>
<rect width="7.9337" height="116.891" rx="2" transform="matrix(0.470276 -0.882519 -0.882519 -0.470276 317.485 102.547)" fill="#F6EBD8"/>
<rect width="7.9337" height="116.891" rx="2" transform="matrix(0.470276 -0.882519 -0.882519 -0.470276 317.485 102.547)" fill="#E5DBCA"/>
<rect width="7.9337" height="116.891" rx="2" transform="matrix(0.470276 -0.882519 -0.882519 -0.470276 317.485 102.547)" stroke="#2F2F2F" stroke-width="3" stroke-linecap="round"/>
<path d="M245.955 128.388L247.157 144.451L232.645 137.459L245.955 128.388Z" fill="url(#paint5_linear_2742_6668)"/>
<path d="M245.955 128.388L247.157 144.451L232.645 137.459L245.955 128.388Z" fill="#7B9DD9"/>
<path d="M245.955 128.388L247.157 144.451L232.645 137.459L245.955 128.388Z" fill="#F6EBD8"/>
<path d="M245.955 128.388L247.157 144.451L232.645 137.459L245.955 128.388Z" fill="#E5DBCA"/>
<path d="M245.955 128.388L247.157 144.451L232.645 137.459L245.955 128.388Z" stroke="#2F2F2F" stroke-width="3" stroke-linecap="round"/>
<path d="M203.096 106.239L204.297 122.302L189.786 115.311L203.096 106.239Z" fill="url(#paint6_linear_2742_6668)"/>
<path d="M203.096 106.239L204.297 122.302L189.786 115.311L203.096 106.239Z" fill="#7B9DD9"/>
<path d="M203.096 106.239L204.297 122.302L189.786 115.311L203.096 106.239Z" fill="#F6EBD8"/>
<path d="M203.096 106.239L204.297 122.302L189.786 115.311L203.096 106.239Z" fill="#E5DBCA"/>
<path d="M203.096 106.239L204.297 122.302L189.786 115.311L203.096 106.239Z" stroke="#2F2F2F" stroke-width="3" stroke-linecap="round"/>
<rect width="7.9337" height="114.321" rx="2" transform="matrix(0.470276 -0.882519 -0.882519 -0.470276 294.565 143.98)" fill="url(#paint7_linear_2742_6668)"/>
<rect width="7.9337" height="114.321" rx="2" transform="matrix(0.470276 -0.882519 -0.882519 -0.470276 294.565 143.98)" fill="#7B9DD9"/>
<rect width="7.9337" height="114.321" rx="2" transform="matrix(0.470276 -0.882519 -0.882519 -0.470276 294.565 143.98)" fill="#F6EBD8"/>
<rect width="7.9337" height="114.321" rx="2" transform="matrix(0.470276 -0.882519 -0.882519 -0.470276 294.565 143.98)" fill="#E5DBCA"/>
<rect width="7.9337" height="114.321" rx="2" transform="matrix(0.470276 -0.882519 -0.882519 -0.470276 294.565 143.98)" stroke="#2F2F2F" stroke-width="3" stroke-linecap="round"/>
<path d="M286.961 74.4018L254.635 135.063L237.591 125.981L269.917 65.3193L281.664 63.2946L286.961 74.4018Z" fill="url(#paint8_linear_2742_6668)"/>
<path d="M286.961 74.4018L254.635 135.063L237.591 125.981L269.917 65.3193L281.664 63.2946L286.961 74.4018Z" fill="#7B9DD9"/>
<path d="M286.961 74.4018L254.635 135.063L237.591 125.981L269.917 65.3193L281.664 63.2946L286.961 74.4018Z" fill="#F6EBD8"/>
<path d="M286.961 74.4018L254.635 135.063L237.591 125.981L269.917 65.3193L281.664 63.2946L286.961 74.4018Z" fill="#E5DBCA"/>
<path d="M286.961 74.4018L254.635 135.063L237.591 125.981L269.917 65.3193L281.664 63.2946L286.961 74.4018Z" stroke="#2F2F2F" stroke-width="3" stroke-linecap="round"/>
<path d="M244.101 52.2572L211.776 112.919L194.732 103.836L227.057 43.1748L238.804 41.1501L244.101 52.2572Z" fill="url(#paint9_linear_2742_6668)"/>
<path d="M244.101 52.2572L211.776 112.919L194.732 103.836L227.057 43.1748L238.804 41.1501L244.101 52.2572Z" fill="#7B9DD9"/>
<path d="M244.101 52.2572L211.776 112.919L194.732 103.836L227.057 43.1748L238.804 41.1501L244.101 52.2572Z" fill="#F6EBD8"/>
<path d="M244.101 52.2572L211.776 112.919L194.732 103.836L227.057 43.1748L238.804 41.1501L244.101 52.2572Z" fill="#E5DBCA"/>
<path d="M244.101 52.2572L211.776 112.919L194.732 103.836L227.057 43.1748L238.804 41.1501L244.101 52.2572Z" stroke="#2F2F2F" stroke-width="3" stroke-linecap="round"/>
<path d="M214.421 157.707L194.194 146.929L218.239 101.807L238.466 112.585L214.421 157.707Z" fill="url(#paint10_linear_2742_6668)"/>
<path d="M214.421 157.707L194.194 146.929L218.239 101.807L238.466 112.585L214.421 157.707Z" fill="#7B9DD9"/>
<path d="M214.421 157.707L194.194 146.929L218.239 101.807L238.466 112.585L214.421 157.707Z" fill="#F6EBD8"/>
<path d="M214.421 157.707L194.194 146.929L218.239 101.807L238.466 112.585L214.421 157.707Z" fill="#E5DBCA"/>
<path d="M214.421 157.707L194.194 146.929L218.239 101.807L238.466 112.585L214.421 157.707Z" stroke="#2F2F2F" stroke-width="3" stroke-linecap="round"/>
<rect x="276.271" y="53.8242" width="74.9293" height="32.6163" transform="rotate(118.052 276.271 53.8242)" fill="url(#paint11_linear_2742_6668)"/>
<rect x="276.271" y="53.8242" width="74.9293" height="32.6163" transform="rotate(118.052 276.271 53.8242)" fill="#7B9DD9"/>
<rect x="276.271" y="53.8242" width="74.9293" height="32.6163" transform="rotate(118.052 276.271 53.8242)" fill="#F6EBD8"/>
<rect x="276.271" y="53.8242" width="74.9293" height="32.6163" transform="rotate(118.052 276.271 53.8242)" fill="#E5DBCA"/>
<rect x="276.271" y="53.8242" width="74.9293" height="32.6163" transform="rotate(118.052 276.271 53.8242)" stroke="#2F2F2F" stroke-width="3" stroke-linecap="round"/>
<rect x="255.135" y="108.484" width="52.8913" height="44.0761" rx="22.038" transform="rotate(-151.948 255.135 108.484)" fill="url(#paint12_linear_2742_6668)"/>
<rect x="255.135" y="108.484" width="52.8913" height="44.0761" rx="22.038" transform="rotate(-151.948 255.135 108.484)" fill="#7B9DD9"/>
<rect x="255.135" y="108.484" width="52.8913" height="44.0761" rx="22.038" transform="rotate(-151.948 255.135 108.484)" fill="#F6EBD8"/>
<rect x="255.135" y="108.484" width="52.8913" height="44.0761" rx="22.038" transform="rotate(-151.948 255.135 108.484)" stroke="#2F2F2F" stroke-width="3" stroke-linecap="round"/>
<circle r="22.038" transform="matrix(0.882519 0.470276 0.470276 -0.882519 238.27 74.5243)" fill="url(#paint13_linear_2742_6668)"/>
<circle r="22.038" transform="matrix(0.882519 0.470276 0.470276 -0.882519 238.27 74.5243)" fill="#7B9DD9"/>
<circle r="22.038" transform="matrix(0.882519 0.470276 0.470276 -0.882519 238.27 74.5243)" fill="#F6EBD8"/>
<circle r="22.038" transform="matrix(0.882519 0.470276 0.470276 -0.882519 238.27 74.5243)" stroke="#2F2F2F" stroke-width="3" stroke-linecap="round"/>
<circle r="15.8674" transform="matrix(0.882519 0.470276 0.470276 -0.882519 238.27 74.5252)" fill="url(#paint14_linear_2742_6668)" stroke="#2F2F2F" stroke-width="3" stroke-linecap="round"/>
<path d="M238.684 73.7451L229.144 76.6523" stroke="#2F2F2F" stroke-width="3" stroke-linecap="round"/>
<rect width="7.9337" height="42.313" rx="2" transform="matrix(0.470276 -0.882519 -0.882519 -0.470276 241.607 128.246)" fill="url(#paint15_linear_2742_6668)"/>
<rect width="7.9337" height="42.313" rx="2" transform="matrix(0.470276 -0.882519 -0.882519 -0.470276 241.607 128.246)" fill="#7B9DD9"/>
<rect width="7.9337" height="42.313" rx="2" transform="matrix(0.470276 -0.882519 -0.882519 -0.470276 241.607 128.246)" fill="#F6EBD8"/>
<rect width="7.9337" height="42.313" rx="2" transform="matrix(0.470276 -0.882519 -0.882519 -0.470276 241.607 128.246)" fill="#E5DBCA"/>
<rect width="7.9337" height="42.313" rx="2" transform="matrix(0.470276 -0.882519 -0.882519 -0.470276 241.607 128.246)" stroke="#2F2F2F" stroke-width="3" stroke-linecap="round"/>
<rect width="14.5935" height="42.313" rx="2" transform="matrix(0.470276 -0.882519 -0.882519 -0.470276 279.523 57.4531)" fill="url(#paint16_linear_2742_6668)"/>
<rect width="14.5935" height="42.313" rx="2" transform="matrix(0.470276 -0.882519 -0.882519 -0.470276 279.523 57.4531)" fill="#7B9DD9"/>
<rect width="14.5935" height="42.313" rx="2" transform="matrix(0.470276 -0.882519 -0.882519 -0.470276 279.523 57.4531)" fill="#F6EBD8"/>
<rect width="14.5935" height="42.313" rx="2" transform="matrix(0.470276 -0.882519 -0.882519 -0.470276 279.523 57.4531)" fill="#E5DBCA"/>
<rect width="14.5935" height="42.313" rx="2" transform="matrix(0.470276 -0.882519 -0.882519 -0.470276 279.523 57.4531)" stroke="#2F2F2F" stroke-width="3" stroke-linecap="round"/>
<defs>
<linearGradient id="paint0_linear_2742_6668" x1="157.436" y1="71.9209" x2="386.046" y2="75.005" gradientUnits="userSpaceOnUse">
<stop stop-color="#FFB843"/>
<stop offset="0.484345" stop-color="#FD6641"/>
</linearGradient>
<linearGradient id="paint1_linear_2742_6668" x1="239.248" y1="85.4665" x2="287.69" y2="94.4212" gradientUnits="userSpaceOnUse">
<stop stop-color="#FD6641"/>
<stop offset="1" stop-color="#FFC692"/>
</linearGradient>
<linearGradient id="paint2_linear_2742_6668" x1="157.436" y1="71.9209" x2="386.046" y2="75.005" gradientUnits="userSpaceOnUse">
<stop stop-color="#FFB843"/>
<stop offset="0.484345" stop-color="#FD6641"/>
</linearGradient>
<linearGradient id="paint3_linear_2742_6668" x1="239.248" y1="85.4665" x2="287.69" y2="94.4212" gradientUnits="userSpaceOnUse">
<stop stop-color="#FD6641"/>
<stop offset="1" stop-color="#FFC692"/>
</linearGradient>
<linearGradient id="paint4_linear_2742_6668" x1="-2.48038" y1="49.0288" x2="12.7886" y2="49.0401" gradientUnits="userSpaceOnUse">
<stop stop-color="#FFB843"/>
<stop offset="0.484345" stop-color="#FD6641"/>
</linearGradient>
<linearGradient id="paint5_linear_2742_6668" x1="231.067" y1="129.875" x2="260.073" y2="144.204" gradientUnits="userSpaceOnUse">
<stop stop-color="#FFB843"/>
<stop offset="0.484345" stop-color="#FD6641"/>
</linearGradient>
<linearGradient id="paint6_linear_2742_6668" x1="188.207" y1="107.727" x2="217.214" y2="122.055" gradientUnits="userSpaceOnUse">
<stop stop-color="#FFB843"/>
<stop offset="0.484345" stop-color="#FD6641"/>
</linearGradient>
<linearGradient id="paint7_linear_2742_6668" x1="-2.48038" y1="47.9507" x2="12.7886" y2="47.9622" gradientUnits="userSpaceOnUse">
<stop stop-color="#FFB843"/>
<stop offset="0.484345" stop-color="#FD6641"/>
</linearGradient>
<linearGradient id="paint8_linear_2742_6668" x1="289.918" y1="51.6249" x2="223.276" y2="165.786" gradientUnits="userSpaceOnUse">
<stop stop-color="#FFB843"/>
<stop offset="0.484345" stop-color="#FD6641"/>
</linearGradient>
<linearGradient id="paint9_linear_2742_6668" x1="247.058" y1="29.4804" x2="180.416" y2="143.642" gradientUnits="userSpaceOnUse">
<stop stop-color="#FFB843"/>
<stop offset="0.484345" stop-color="#FD6641"/>
</linearGradient>
<linearGradient id="paint10_linear_2742_6668" x1="230.83" y1="142.151" x2="192.004" y2="121.217" gradientUnits="userSpaceOnUse">
<stop stop-color="#FFB843"/>
<stop offset="0.484345" stop-color="#FD6641"/>
</linearGradient>
<linearGradient id="paint11_linear_2742_6668" x1="252.845" y1="67.5048" x2="396.962" y2="71.1144" gradientUnits="userSpaceOnUse">
<stop stop-color="#FFB843"/>
<stop offset="0.484345" stop-color="#FD6641"/>
</linearGradient>
<linearGradient id="paint12_linear_2742_6668" x1="238.599" y1="126.972" x2="340.374" y2="128.303" gradientUnits="userSpaceOnUse">
<stop stop-color="#FFB843"/>
<stop offset="0.484345" stop-color="#FD6641"/>
</linearGradient>
<linearGradient id="paint13_linear_2742_6668" x1="-13.7799" y1="18.4872" x2="71.0375" y2="19.412" gradientUnits="userSpaceOnUse">
<stop stop-color="#FFB843"/>
<stop offset="0.484345" stop-color="#FD6641"/>
</linearGradient>
<linearGradient id="paint14_linear_2742_6668" x1="-9.92154" y1="13.3108" x2="51.147" y2="13.9766" gradientUnits="userSpaceOnUse">
<stop stop-color="#FFB843"/>
<stop offset="0.484345" stop-color="#FD6641"/>
</linearGradient>
<linearGradient id="paint15_linear_2742_6668" x1="-2.48038" y1="17.7477" x2="12.7885" y2="17.779" gradientUnits="userSpaceOnUse">
<stop stop-color="#FFB843"/>
<stop offset="0.484345" stop-color="#FD6641"/>
</linearGradient>
<linearGradient id="paint16_linear_2742_6668" x1="-4.5625" y1="17.7477" x2="23.5233" y2="17.8534" gradientUnits="userSpaceOnUse">
<stop stop-color="#FFB843"/>
<stop offset="0.484345" stop-color="#FD6641"/>
</linearGradient>
</defs>
</svg>
