<svg xmlns:xlink="http://www.w3.org/1999/xlink"  fill="none" height="152" viewBox="0 0 515 152" width="515" xmlns="http://www.w3.org/2000/svg"><path d="m113.707 107.272.009-.003c19.311-7.589 31.539-27.8128 31.539-51.6457 0-19.3155-7.243-32.9394-18.986-41.6844-11.674-8.69397-27.6221-12.4389-44.8657-12.4389h-71.95933-2.94779l1.7352 2.38297c6.88202 9.45113 10.33952 18.69733 12.27462 33.14543l.0007.005c2.7268 19.8487 2.9234 52.362.5845 72.6206-2.1474 17.921-6.6029 28.894-13.39991 34.639l-3.12952 2.646h4.0979 69.60643 3.2749l-2.1391-2.48c-8.4551-9.801-11.4997-22.979-11.772-36.024 7.2194 1.877 14.8744 2.894 22.2046 2.894 8.5808 0 17.0045-1.407 23.8725-4.057zm79.839 43.228c13.407 0 26.419-7.098 34.738-17.519-.347 3.762-.775 7.483-1.153 10.772-.06.516-.118 1.022-.174 1.516l-.191 1.67h1.681 52.352 2.614l-1.319-2.257c-4.353-7.447-6.868-17.089-7.839-29.625-.973-12.76-.582-32.8285 1.362-46.9584 1.932-13.4428 5.388-21.9431 10.956-30.6597l1.473-2.3075h-2.738-64.9-2.714l1.444 2.2979c4.246 6.7601 6.954 16.654 8.587 27.1054 1.627 10.4132 2.163 21.2132 2.163 29.6658 0 6.1765-1.153 10.9085-3.106 14.0445-1.911 3.066-4.589 4.634-7.943 4.634-3.026 0-5.64-.938-7.477-2.833-1.832-1.89-3.076-4.924-2.984-9.484.047-2.3017.482-5.4045 1.089-9.0647.23-1.3806.484-2.8433.748-4.3602.425-2.4456.874-5.0319 1.283-7.641 1.321-8.4415 2.304-17.6473.77-24.7767-3.13-15.1355-17.65-23.3468-31.663-23.3468-9.722 0-19.363 3.4657-25.393 9.7569-8.78 9.0711-9.9 24.6561-2.973 36.9899l2.793-.9401c-.55-3.9765.204-7.607 1.74-10.0176 1.502-2.3565 3.671-3.4883 6.273-2.9478l.012.0025.012.0023c2.78.5306 4.807 2.9342 5.727 7.1778.915 4.2235.614 9.9074-1.014 16.0915l-.003.0106-.003.0106c-.466 1.8828-1.122 4.036-1.853 6.4365-.095.3125-.191.6293-.289.9502-.84 2.766-1.746 5.8061-2.516 8.9921-1.538 6.355-2.57 13.409-1.444 20.229 2.688 16.878 17.549 26.383 31.872 26.383zm207.819-80.8857-2.738-4.0062v4.8526c0 2.0968-.605 3.5676-1.45 4.4559-.817.8586-1.999 1.3249-3.539 1.1763-.84-.1195-1.483-.3987-1.976-.7981-.498-.4029-.921-.9914-1.224-1.8468-.623-1.764-.686-4.554.176-8.6106l.003-.0167.004-.0167c.132-.7.32-1.5253.538-2.485.096-.4206.198-.867.303-1.34.34-1.5242.704-3.2638.982-5.1079.55-3.6608.78-7.858-.28-11.7149-2.375-9.1252-11.35-14.5741-21.086-14.3659-10.101.1831-19.065 6.1643-26.078 16.6875.307-3.7747.693-7.8239.932-9.8705l.195-1.6737h-1.685-53.529-2.727l1.461 2.3035c6.142 9.6828 9.21 18.7591 10.559 30.816 1.362 12.362 1.556 35.7949.196 48.7389-1.349 12.442-4.405 20.259-10.456 27.701l-1.99 2.446h3.153 65.685 2.833l-1.592-2.343c-4.57-6.724-8.427-15.824-10.946-28.332-1.949-9.834-3.301-20.598-3.108-29.7473v-.0158-.0158c0-2.6061.29-8.1087 1.499-12.9136.606-2.4119 1.415-4.5275 2.449-6.0074 1.019-1.4576 2.123-2.1318 3.375-2.1318.36 0 1.03.2205 1.644.6852l.028.0211.029.0197c1.708 1.172 2.046 3.2814 1.995 6.9525-.006.495-.02 1.0122-.034 1.5481-.083 3.163-.183 6.9752.986 10.6932 2.75 8.7525 10.743 14.2144 18.645 15.4739h.004c9.35 1.468 19.926-2.6923 25.373-10.3025 4.359-6.0753 5.776-14.4947 1.391-20.9092zm75.063 51.3777c-9.17-.363-19.481-4.798-22.44-14.213h54.929 1.182l.277-1.149c4.943-20.5472 4.074-43.9151-8.957-58.7096-10.107-11.5578-25.417-17.0662-40.557-16.8885-15.137.1778-30.304 6.0416-40.139 17.4921l-.005.0057-.005.0059c-9.037 10.7383-14.655 24.7118-15.058 39.8943-.4 13.5381 3.398 28.3511 12.685 39.7611 9.328 11.66 24.283 19.748 45.676 19.748h39.411 2.339l-.974-2.123v-.001h-.001v-.001-.001l-.006-.012c-.006-.015-.017-.04-.033-.076-.03-.071-.077-.183-.137-.337-.122-.308-.299-.783-.511-1.425-.422-1.283-.983-3.234-1.51-5.856-1.054-5.244-1.976-13.179-1.394-23.833l-2.887-.648c-1.126 2.758-4.238 4.983-8.493 6.47-4.189 1.464-9.144 2.086-13.384 1.896zm-396.3972-38.9744c-9.2021 0-16.5389-7.2721-16.5389-16.107 0-8.835 7.3368-16.1071 16.5389-16.1071 9.1805 0 16.3427 7.2509 16.3427 16.1071s-7.1622 16.107-16.3427 16.107zm383.0052 6.7263c-6.218 0-11.245-5.0529-11.245-11.3591 0-6.3061 5.027-11.3591 11.245-11.3591 6.188 0 11.049 5.0222 11.049 11.3591s-4.861 11.3591-11.049 11.3591z" fill="#5a5ba8" stroke="#2f2f2f" stroke-width="3"/></svg>