<svg xmlns:xlink="http://www.w3.org/1999/xlink"  fill="none" height="186" viewBox="0 0 639 186" width="639" xmlns="http://www.w3.org/2000/svg"><path d="m139.465 131.231.009-.004c23.9-9.289 39.085-34.0699 39.085-63.349 0-23.7217-8.989-40.4101-23.524-51.1162-14.465-10.65427-34.253-15.2618-55.6989-15.2618h-89.69879-2.96701l1.75907 2.38932c8.61993 11.70828 12.94593 23.16448 15.36383 41.01928l.0007.0051c3.4031 24.5003 3.648 64.6143.7294 89.6163-2.6786 22.111-8.2439 35.754-16.82578 42.929l-3.17042 2.651h4.13257 86.76583 3.2987l-2.1682-2.486c-10.7166-12.287-14.491-28.823-14.7673-45.097 9.1077 2.386 18.7933 3.68 28.0573 3.68 10.657 0 21.109-1.729 29.619-4.976zm99.659 53.269c17.002 0 33.518-9.135 43.781-22.441-.45 5.055-1.036 10.099-1.549 14.509-.074.637-.147 1.261-.217 1.869l-.194 1.673h1.684 65.258 2.628l-1.337-2.263c-5.462-9.243-8.604-21.187-9.817-36.67-1.214-15.753-.727-40.52 1.701-57.9656 2.414-16.619 6.739-27.145 13.706-37.9342l1.494-2.3138h-2.754-80.9-2.73l1.464 2.3042c5.331 8.3946 8.715 20.6479 10.752 33.5457 2.032 12.8597 2.701 26.1927 2.701 36.6257 0 7.649-1.442 13.553-3.924 17.493-2.439 3.872-5.89 5.885-10.218 5.885-3.853 0-7.218-1.183-9.591-3.605-2.367-2.415-3.935-6.253-3.819-11.937.059-2.865.605-6.712 1.362-11.223.287-1.708.605-3.514.933-5.385.53-3.012 1.089-6.193 1.598-9.4082 1.647-10.4105 2.861-21.7035.963-30.4255-3.858-18.4602-21.77-28.504-39.106-28.504-12.038 0-23.949 4.2458-31.381 11.9163-10.816 11.0527-12.228 30.1001-3.652 45.2024l2.79-.9484c-.694-4.9634.252-9.5234 2.219-12.5775 1.932-2.9995 4.78-4.4998 8.214-3.7943l.011.0025.012.0022c3.68.6948 6.27 3.8325 7.429 9.1214 1.155 5.2741.77 12.3374-1.268 19.9941l-.003.011-.002.011c-.584 2.33-1.404 4.995-2.315 7.953-.119.385-.239.775-.36 1.17-1.047 3.41-2.174 7.15-3.132 11.068-1.912 7.818-3.188 16.463-1.795 24.806 3.318 20.62 21.67 32.233 39.364 32.233zm258.742-99.1821-2.734-3.956v4.8088c0 2.6453-.771 4.5517-1.903 5.7284-1.106 1.1492-2.702 1.758-4.732 1.5622-1.109-.1549-1.979-.5225-2.656-1.0643-.68-.5449-1.242-1.3281-1.637-2.4319-.807-2.2614-.871-5.7734.207-10.7965l.004-.0168.003-.0169c.166-.8693.402-1.8963.676-3.0831.119-.5174.245-1.0652.376-1.6435.422-1.8763.874-4.0122 1.218-6.2743.684-4.4965.963-9.6174-.34-14.3064-2.911-11.0664-13.921-17.7026-25.917-17.4493-12.806.2288-24.184 7.952-33 21.6179.398-5.0275.949-10.8155 1.278-13.6011l.197-1.6756h-1.687-66.724-2.744l1.481 2.3098c7.687 11.9858 11.527 23.2259 13.215 38.1367 1.699 15.264 1.942 44.179.243 60.163-1.687 15.386-5.514 25.09-13.109 34.328l-2.017 2.453h3.175 81.878 2.85l-1.614-2.35c-5.728-8.336-10.551-19.6-13.697-35.055-2.432-12.137-4.123-25.433-3.882-36.746l.001-.016v-.016c0-3.227.363-10.0416 1.878-16.0025.76-2.9895 1.781-5.644 3.106-7.5187 1.307-1.8507 2.783-2.7838 4.514-2.7838.558 0 1.472.3165 2.279.9204l.028.0208.028.0195c2.307 1.5653 2.705 4.3627 2.642 8.8598-.008.6169-.025 1.2592-.043 1.9227-.102 3.902-.224 8.539 1.213 13.0648 3.383 10.646 13.218 17.299 22.949 18.832l.004.001c11.516 1.787 24.554-3.286 31.262-12.553 5.378-7.412 7.091-17.6362 1.731-25.3921zm93.862 63.5001c-11.65-.456-24.891-6.101-28.45-18.22h68.963 1.179l.279-1.146c6.152-25.296 5.042-53.9668-11.088-72.0797-12.527-14.1679-31.488-20.9368-50.262-20.7203-18.773.2164-37.562 7.4183-49.758 21.462l-.005.0057-.005.0058c-11.214 13.1796-18.189 30.3338-18.688 48.9755-.498 16.629 4.221 34.807 15.734 48.797 11.553 14.285 30.085 24.212 56.644 24.212h49.127 2.349l-.987-2.129-.001-.001v-.001-.001h-.001l-.008-.02-.014-.03-.029-.067c-.039-.09-.098-.231-.175-.424-.154-.386-.377-.978-.643-1.775-.531-1.594-1.233-4.013-1.893-7.259-1.319-6.493-2.47-16.304-1.744-29.467l-2.884-.654c-1.461 3.54-5.464 6.332-10.805 8.178-5.273 1.823-11.498 2.595-16.827 2.359zm-494.1028-48.05c-11.683 0-20.9858-9.13-20.9858-20.207 0-11.0771 9.3028-20.2073 20.9858-20.2073 11.6618 0 20.7418 9.1091 20.7418 20.2073s-9.08 20.207-20.7418 20.207zm477.4238 8.293c-7.973 0-14.386-6.405-14.386-14.3537 0-7.9491 6.413-14.3536 14.386-14.3536 7.943 0 14.143 6.374 14.143 14.3536 0 7.9797-6.2 14.3537-14.143 14.3537z" fill="#ffb944" stroke="#2f2f2f" stroke-width="3"/></svg>