<svg xmlns:xlink="http://www.w3.org/1999/xlink"  fill="none" height="172" viewBox="0 0 591 172" width="591" xmlns="http://www.w3.org/2000/svg"><path d="m129.492 121.366.009-.003c22.122-8.587 36.166-31.4893 36.166-58.531 0-21.911-8.316-37.3379-21.771-47.2351-13.384-9.84521-31.684-14.0969-51.5016-14.0969h-82.83193-2.96935l1.76197 2.39008c7.94611 10.77872 11.93511 21.32412 14.16581 37.77492l.0007.0051c3.1411 22.5842 3.3673 59.5679.6733 82.6159-2.4728 20.384-7.6075 32.927-15.49663 39.514l-3.17537 2.651h4.13677 80.12343 3.3016l-2.1718-2.486c-9.8372-11.264-13.3291-26.417-13.6051-41.361 8.3769 2.178 17.2762 3.359 25.7912 3.359 9.853 0 19.519-1.596 27.393-4.597zm91.989 49.134c15.606 0 30.766-8.302 40.28-20.432-.41 4.529-.935 9.034-1.396 12.989-.068.586-.135 1.161-.2 1.722l-.193 1.672h1.683 60.262 2.631l-1.34-2.264c-5.032-8.503-7.931-19.498-9.049-33.768-1.121-14.521-.671-37.3548 1.57-53.4342 2.227-15.3072 6.215-24.9972 12.639-34.9318l1.496-2.3145h-2.756-74.706-2.732l1.466 2.3049c4.91 7.721 8.031 19.0019 9.912 30.8918 1.875 11.8518 2.493 24.1414 2.493 33.7588 0 7.041-1.33 12.461-3.606 16.069-2.232 3.54-5.384 5.374-9.339 5.374-3.535 0-6.61-1.084-8.776-3.29-2.158-2.2-3.599-5.706-3.492-10.925.054-2.631.557-6.172 1.256-10.332.264-1.573.557-3.238.861-4.9632.489-2.7788 1.006-5.7152 1.476-8.6807 1.521-9.5999 2.646-20.0352.888-28.1031-3.578-17.0947-20.181-26.3782-36.225-26.3782-11.139 0-22.171 3.9233-29.061 11.0252-10.03 10.2373-11.329 27.8619-3.389 41.826l2.789-.9495c-.637-4.5551.234-8.7305 2.032-11.5189 1.764-2.7337 4.349-4.0883 7.466-3.4487l.012.0024.012.0023c3.335.6287 5.704 3.4687 6.769 8.3226 1.061 4.8398.709 11.3336-1.17 18.3834l-.002.0107-.003.0107c-.538 2.146-1.295 4.6-2.136 7.328-.11.356-.221.716-.333 1.08-.967 3.145-2.008 6.597-2.894 10.213-1.767 7.216-2.949 15.207-1.659 22.925 3.076 19.084 20.081 29.823 36.464 29.823zm239.027-91.6517-2.733-3.95v4.8036c0 2.4171-.705 4.143-1.725 5.2012-.993 1.0311-2.43 1.5834-4.273 1.4064-1.007-.1407-1.79-.473-2.395-.9573-.61-.4872-1.117-1.1904-1.475-2.1909-.735-2.0546-.799-5.2675.195-9.8921l.004-.0168.003-.0169c.153-.7993.37-1.7431.623-2.8362.11-.4776.226-.9838.347-1.5189.391-1.7313.809-3.7043 1.127-5.7945.633-4.1524.892-8.8939-.317-13.2414-2.704-10.2713-12.931-16.4137-24.047-16.1789-11.756.2102-22.2 7.2224-30.319 19.6103.363-4.525.849-9.6019 1.143-12.0865l.198-1.6758h-1.688-61.616-2.746l1.484 2.3105c7.088 11.038 10.629 21.3868 12.185 35.1225 1.568 14.0679 1.792 40.7194.225 55.4504-1.555 14.175-5.083 23.102-12.08 31.601l-2.02 2.453h3.178 75.609 2.853l-1.617-2.35c-5.28-7.673-9.728-18.047-12.631-32.289-2.245-11.188-3.804-23.439-3.581-33.8586v-.016-.016c0-2.971.335-9.2444 1.731-14.7285.701-2.7511 1.639-5.1831 2.85-6.895 1.194-1.6878 2.526-2.5188 4.076-2.5188.483 0 1.304.2791 2.036.8262l.027.0208.029.0194c2.072 1.4043 2.447 3.9168 2.389 8.0721-.008.5665-.024 1.1572-.04 1.7681-.095 3.5977-.209 7.8966 1.126 12.091 3.14 9.8683 12.264 16.0273 21.283 17.4473h.004c10.673 1.655 22.757-3.038 28.978-11.622 4.986-6.8619 6.587-16.3473 1.6-23.5537zm86.588 58.5117c-10.692-.418-22.79-5.568-26.122-16.57h63.529 1.179l.279-1.145c5.685-23.344 4.668-49.8368-10.269-66.5838-11.596-13.0945-29.137-19.3457-46.498-19.146-17.359.1997-34.743 6.8519-46.034 19.8349l-.005.0058-.004.0058c-10.372 12.174-16.824 28.0195-17.286 45.2395-.46 15.3578 3.904 32.1518 14.557 45.0798 10.693 13.203 27.839 22.37 52.396 22.37h45.366 2.35l-.989-2.129v-.001l-.001-.001v-.001l-.008-.017-.017-.038-.021-.05c-.036-.082-.091-.212-.161-.389-.141-.353-.346-.897-.591-1.63-.489-1.466-1.136-3.691-1.745-6.681-1.216-5.977-2.278-15.015-1.608-27.144l-2.884-.656c-1.33 3.218-4.986 5.779-9.909 7.478-4.854 1.675-10.588 2.386-15.497 2.169zm-456.2815-44.3126c-10.7307 0-19.2644-8.3733-19.2644-18.5189 0-10.1457 8.5337-18.519 19.2644-18.519 10.7085 0 19.0385 8.3521 19.0385 18.519 0 10.1668-8.33 18.5189-19.0385 18.5189zm440.8745 7.6476c-7.301 0-13.17-5.8562-13.17-13.1205s5.869-13.1206 13.17-13.1206c7.272 0 12.945 5.8258 12.945 13.1206 0 7.2949-5.673 13.1205-12.945 13.1205z" fill="#fe6742" stroke="#2f2f2f" stroke-width="3"/></svg>