<svg xmlns:xlink="http://www.w3.org/1999/xlink"  fill="none" height="159" viewBox="0 0 545 159" width="545" xmlns="http://www.w3.org/2000/svg"><path d="m120.275 112.206.009-.003c20.419-7.935 33.369-29.0946 33.369-54.0567 0-20.2279-7.67-34.4833-20.089-43.63-12.349-9.09476-29.224-13.0163-47.4818-13.0163h-76.25113-2.96717l1.75927 2.38937c7.30083 9.91563 10.96723 19.61563 13.01863 34.76313l.0007.0051c2.8902 20.8052 3.0984 54.8821.6196 76.1164-2.2756 18.781-6.9981 30.302-14.2242 36.343l-3.17076 2.651h4.13286 73.7579 3.2988l-2.1684-2.486c-8.9964-10.314-12.2174-24.182-12.4925-37.891 7.6764 1.984 15.8226 3.06 23.6204 3.06 9.0818 0 17.9948-1.473 25.2588-4.245zm84.638 45.294c14.272 0 28.132-7.528 36.925-18.562-.372 4.038-.838 8.042-1.248 11.571-.063.541-.125 1.07-.184 1.587l-.194 1.672h1.684 55.474 2.629l-1.338-2.263c-4.619-7.816-7.285-17.93-8.314-31.072-1.031-13.375-.617-34.41 1.444-49.2216 2.048-14.0946 5.713-23.0108 11.618-32.1537l1.494-2.3138h-2.754-68.772-2.73l1.464 2.3043c4.507 7.0957 7.378 17.474 9.108 28.4283 1.725 10.916 2.293 22.2368 2.293 31.0967 0 6.4778-1.222 11.4488-3.301 14.7488-2.035 3.232-4.9 4.898-8.496 4.898-3.229 0-6.027-.991-7.993-2.997-1.959-1.999-3.279-5.197-3.181-9.985.049-2.416.511-5.6713 1.155-9.5068.243-1.4477.512-2.981.792-4.5708.45-2.5623.926-5.2713 1.359-8.0052 1.4-8.8466 2.44-18.484.817-25.9438-3.308-15.8261-18.656-24.4065-33.464-24.4065-10.279 0-20.469 3.6244-26.839 10.1983-9.275 9.4798-10.467 25.7822-3.137 38.6888l2.79-.9485c-.584-4.1768.215-7.9959 1.853-10.5378 1.602-2.4873 3.936-3.7042 6.748-3.1266l.011.0024.012.0022c3.003.5668 5.162 3.1284 6.137 7.5803.972 4.4372.652 10.4028-1.075 16.8892l-.003.0106-.002.0107c-.495 1.9747-1.191 4.2329-1.965 6.7484-.101.3274-.203.6593-.306.9954-.891 2.8987-1.85 6.0827-2.666 9.4197-1.628 6.657-2.721 14.041-1.529 21.178 2.843 17.654 18.556 27.584 33.684 27.584zm220.136-84.6577-2.734-3.9556v4.8084c0 2.2063-.643 3.765-1.555 4.7131-.885.9207-2.17 1.4196-3.833 1.2604-.908-.1274-1.606-.4263-2.144-.8568-.541-.4334-.997-1.0623-1.32-1.9672-.666-1.8635-.73-4.7992.184-9.054l.003-.0168.003-.0169c.141-.7344.34-1.6007.572-2.6067.101-.4408.209-.9084.321-1.4036.36-1.5968.745-3.4183 1.039-5.3489.583-3.8327.825-8.2212-.294-12.2511-2.507-9.5311-11.98-15.217-22.254-15-10.752.1924-20.301 6.5427-27.753 17.7402.33-4.048.755-8.4698 1.014-10.6746l.198-1.6756h-1.687-56.721-2.744l1.481 2.3098c6.515 10.1566 9.769 19.6771 11.199 32.3196 1.443 12.9576 1.65 37.515.208 51.085-1.43 13.047-4.671 21.252-11.095 29.065l-2.017 2.452h3.176 69.602 2.851l-1.615-2.349c-4.848-7.056-8.938-16.601-11.608-29.714-2.066-10.307-3.5-21.592-3.295-31.1852v-.016-.016c0-2.7333.308-8.5048 1.59-13.5465.643-2.5299 1.503-4.7556 2.606-6.3165 1.085-1.5369 2.279-2.2711 3.654-2.2711.411 0 1.142.2434 1.802.7375l.028.0208.029.0195c1.848 1.2543 2.2 3.503 2.147 7.3415-.008.5199-.022 1.0628-.037 1.6249-.088 3.3151-.193 7.2994 1.042 11.1856 2.906 9.146 11.348 14.8475 19.688 16.1615l.003.001c9.867 1.531 21.037-2.811 26.792-10.7601 4.609-6.3511 6.101-15.1487 1.474-21.8436zm79.614 53.8787c-9.772-.383-20.779-5.071-23.89-15.038h58.321 1.179l.279-1.146c5.236-21.5269 4.309-45.9909-9.476-61.4697-10.702-12.1022-26.887-17.875-42.898-17.6906-16.008.1844-32.046 6.3261-42.466 18.3226l-.004.0058-.005.0058c-9.566 11.2416-15.515 25.8733-15.94 41.7734-.423 14.1767 3.6 29.6827 13.427 41.6227 9.869 12.199 25.688 20.661 48.325 20.661h41.762 2.349l-.987-2.128-.001-.001v-.001l-.001-.001-.006-.014c-.007-.016-.019-.043-.035-.08-.032-.075-.082-.193-.147-.355-.129-.324-.317-.823-.541-1.496-.449-1.347-1.044-3.394-1.603-6.145-1.117-5.5-2.094-13.82-1.478-24.989l-2.884-.655c-1.205 2.919-4.53 5.263-9.051 6.826-4.452 1.539-9.716 2.192-14.221 1.992zm-420.0352-40.8429c-9.8144 0-17.6147-7.667-17.6147-16.9513 0-9.2842 7.8003-16.9512 17.6147-16.9512 9.7927 0 17.4072 7.6458 17.4072 16.9512s-7.6145 16.9513-17.4072 16.9513zm405.8482 7.0487c-6.654 0-12.005-5.3437-12.005-11.9756s5.351-11.9756 12.005-11.9756c6.624 0 11.798 5.3132 11.798 11.9756 0 6.6625-5.174 11.9756-11.798 11.9756z" fill="#df5584" stroke="#2f2f2f" stroke-width="3"/></svg>