<svg xmlns:xlink="http://www.w3.org/1999/xlink"  fill="none" height="200" viewBox="0 0 685 200" width="685" xmlns="http://www.w3.org/2000/svg"><path d="m149.237 140.695.008-.004c25.582-9.963 41.844-36.547 41.844-67.9716 0-25.4587-9.625-43.3573-25.181-54.8397-15.487-11.43069-36.682-16.3797-59.668-16.3797h-96.1916-2.96334l1.75453 2.38811c9.25731 12.60019 13.90201 24.93019 16.49691 44.13239l.0007.005c3.6509 26.3388 3.9135 69.4555.7826 96.3325-2.8734 23.768-8.846 38.467-18.08313 46.206l-3.16264 2.65h4.12597 93.047 3.294l-2.163-2.485c-11.5487-13.268-15.59-31.131-15.8664-48.681 9.7986 2.585 20.2264 3.988 30.1994 3.988 11.418 0 22.613-1.857 31.726-5.341zm106.91 57.237c18.322 0 36.122-9.934 47.091-24.369-.486 5.56-1.132 11.123-1.695 15.971-.079.684-.157 1.354-.232 2.008l-.193 1.672h1.683 69.981 2.626l-1.334-2.262c-5.869-9.953-9.242-22.808-10.542-39.457-1.303-16.937-.78-43.559 1.824-62.3152 2.591-17.8748 7.235-29.2016 14.716-40.8098l1.49-2.3125h-2.751-86.756-2.727l1.46 2.303c5.73 9.0408 9.361 22.2273 11.547 36.0922 2.18 13.8268 2.897 28.1613 2.897 39.3763 0 8.232-1.548 14.601-4.225 18.86-2.634 4.19-6.368 6.375-11.049 6.375-4.152 0-7.791-1.278-10.362-3.906-2.565-2.623-4.252-6.78-4.127-12.911.063-3.087.651-7.229 1.463-12.077.307-1.837.648-3.778 1.001-5.789.567-3.235 1.166-6.652 1.712-10.106 1.766-11.1885 3.064-23.3039 1.034-32.653-4.122-19.7702-23.272-30.5445-41.831-30.5445-12.888 0-25.631 4.556-33.576 12.7733-11.558 11.8353-13.076 32.2461-3.899 48.4392l2.79-.947c-.747-5.355.27-10.2842 2.397-13.5934 2.093-3.2547 5.187-4.8939 8.92-4.1253l.012.0024.012.0022c4.006.758 6.805 4.1808 8.053 9.8876 1.243 5.6911.828 13.3005-1.361 21.5405l-.003.011-.002.01c-.627 2.508-1.508 5.374-2.484 8.552-.128.414-.256.834-.387 1.259-1.123 3.664-2.33 7.68-3.356 11.886-2.05 8.396-3.413 17.668-1.924 26.61 3.547 22.093 23.172 34.547 42.107 34.547zm277.382-106.4065-2.735-3.9655v4.8171c0 2.8645-.833 4.9442-2.072 6.2345-1.211 1.2624-2.957 1.9254-5.163 1.7114-1.206-.168-2.159-.5699-2.903-1.1667-.747-.6-1.361-1.4599-1.79-2.6631-.877-2.4601-.941-6.2594.217-11.6649l.004-.0168.003-.0168c.179-.9364.433-2.0433.726-3.3198.128-.5557.263-1.1434.403-1.7632.453-2.0153.937-4.3076 1.305-6.7346.732-4.8257 1.028-10.3096-.362-15.3253-3.104-11.8308-14.857-18.9429-27.688-18.6708-13.799.2475-26.059 8.653-35.531 23.5447.428-5.5018 1.042-11.9798 1.404-15.055l.197-1.6753h-1.687-71.554-2.741l1.478 2.3086c8.254 12.8967 12.377 24.993 14.188 41.034 1.823 16.41 2.084 47.485.262 64.67-1.811 16.554-5.921 27.006-14.084 36.955l-2.012 2.451h3.171 87.805 2.847l-1.61-2.348c-6.153-8.974-11.33-21.093-14.706-37.713-2.61-13.047-4.424-27.345-4.165-39.514v-.016-.016c0-3.473.39-10.806 2.018-17.2243.817-3.2184 1.916-6.0863 3.348-8.1172 1.415-2.0073 3.026-3.0378 4.929-3.0378.628 0 1.63.3522 2.507 1.0105l.028.0209.029.0195c2.529 1.7197 2.949 4.7907 2.882 9.616-.009.6652-.028 1.357-.046 2.071-.11 4.1944-.24 9.1554 1.295 13.9984 3.612 11.391 14.118 18.519 24.523 20.162h.004c12.314 1.916 26.255-3.523 33.422-13.445 5.749-7.94 7.567-18.8727 1.854-27.1555zm100.741 68.2855c-12.554-.492-26.878-6.611-30.65-19.804h74.101 1.179l.278-1.146c6.595-27.17 5.396-57.933-11.865-77.3561-13.407-15.194-33.71-22.4575-53.82-22.2249-20.109.2326-40.228 7.9615-53.28 23.0213l-.005.0057-.004.0058c-12.01 14.1443-19.48 32.554-20.014 52.5602-.533 17.849 4.522 37.356 16.85 52.366 12.367 15.321 32.207 25.975 60.659 25.975h52.683 2.347l-.985-2.128-.001-.001v-.001l-.001-.001-.009-.022c-.01-.022-.025-.057-.047-.106-.042-.098-.106-.251-.189-.459-.166-.417-.405-1.054-.691-1.913-.571-1.718-1.325-4.321-2.034-7.815-1.416-6.986-2.652-17.539-1.872-31.694l-2.885-.654c-1.585 3.85-5.917 6.865-11.652 8.852-5.668 1.963-12.357 2.794-18.085 2.54zm-529.865-51.635c-12.5819 0-22.613-9.8555-22.613-21.8273 0-11.9717 10.0311-21.8271 22.613-21.8271 12.561 0 22.352 9.8342 22.352 21.8271 0 11.993-9.791 21.8273-22.352 21.8273zm511.984 8.911c-8.608 0-15.537-6.929-15.537-15.536 0-8.6076 6.929-15.537 15.537-15.537 8.577 0 15.274 6.8988 15.274 15.537 0 8.638-6.697 15.536-15.274 15.536z" fill="#fff8ec" stroke="#2f2f2f" stroke-linecap="round" stroke-width="3"/></svg>