<svg fill="none" height="147" viewBox="0 0 147 147" width="147" xmlns="http://www.w3.org/2000/svg" xmlns:xlink="http://www.w3.org/1999/xlink"><linearGradient id="a" gradientUnits="userSpaceOnUse" x1="115.122" x2="121.219" y1="16.7913" y2="55.8322"><stop offset="0" stop-color="#fff8ec"/><stop offset="1" stop-color="#fff8ec" stop-opacity="0"/></linearGradient><linearGradient id="b"><stop offset="0" stop-color="#ffb944"/><stop offset="1" stop-color="#ffeed2"/></linearGradient><linearGradient id="c" gradientUnits="userSpaceOnUse" x1="76.2163" x2="114.93" xlink:href="#b" y1="43.116" y2="136.968"/><linearGradient id="d" gradientUnits="userSpaceOnUse" x1="76.2179" x2="114.932" xlink:href="#b" y1="43.1153" y2="136.968"/><linearGradient id="e" gradientUnits="userSpaceOnUse" x1="11.9818" x2="28.0823" y1="27.495" y2="49.5857"><stop offset="0" stop-color="#e3628e"/><stop offset="1" stop-color="#e3628e" stop-opacity="0"/></linearGradient><mask id="f" height="107" maskUnits="userSpaceOnUse" width="107" x="31" y="37"><circle cx="84.9614" cy="90.4907" fill="url(#d)" r="52.9794"/></mask><circle cx="121.219" cy="35.4764" fill="url(#a)" opacity=".2" r="25.4844"/><path d="m86.0755 15.9057c15.7075 7.4991 24.5205-6.97064 38.7445 3.4853l-10.887 20.1423c-3.921-17.0872-21.0399-9.3991-27.8575-23.6276z" fill="#fe6843"/><path d="m103.045 59.6756 10.888-20.1423m0 0 10.887-20.1423c-14.224-10.45594-23.037 4.0138-38.7445-3.4853 6.8176 14.2285 23.9365 6.5404 27.8575 23.6276z" stroke="#2f2f2f" stroke-width="3"/><circle cx="84.9599" cy="90.4914" fill="url(#c)" r="54.4794" stroke="#2f2f2f" stroke-width="3"/><ellipse cx="70.3407" cy="58.083" fill="#f5ae36" rx="9.60396" ry="5.89502" transform="matrix(.76681686 -.64186595 .64186595 .76681686 -20.879235 58.693277)"/><ellipse cx="127.928" cy="81.4779" fill="#f5ae36" opacity=".4" rx="5.67024" ry="3.48046" transform="matrix(-.06635575 -.99779603 .99779603 -.06635575 55.118433 214.530478)"/><path d="m49.1876 64.9228c.4149.2395.8372.8552.8697 2.0628.0317 1.1785-.3371 2.678-1.1959 4.1655-.8588 1.4874-1.973 2.5566-3.0095 3.1184-1.0621.5756-1.8063.5178-2.2213.2782-.4149-.2395-.8371-.8552-.8696-2.0628-.0317-1.1785.3371-2.678 1.1959-4.1655.8587-1.4874 1.9729-2.5566 3.0094-3.1184 1.0621-.5756 1.8064-.5178 2.2213-.2782z" stroke="#f5ae36" stroke-width="3"/><g mask="url(#f)"><ellipse cx="43.642" cy="123.533" fill="#f5ae36" opacity=".3" rx="9.60396" ry="5.89502" transform="matrix(.62772125 .7784382 -.7784382 .62772125 112.409795 12.016111)"/><path d="m121.793 51.3078c.989-.3355 2.334-.058 3.808 1.1662 1.451 1.2055 2.82 3.1871 3.667 5.6852.848 2.4981.968 4.9034.55 6.7433-.424 1.8682-1.323 2.9072-2.312 3.2427-.988.3355-2.334.058-3.808-1.1661-1.451-1.2056-2.82-3.1872-3.667-5.6853-.848-2.498-.968-4.9034-.55-6.7432.424-1.8682 1.323-2.9073 2.312-3.2428z" stroke="#f5ae36" stroke-width="3"/></g><g stroke="#2f2f2f" stroke-width="3"><path d="m108.338 121.861c-8.6117 9.978-28.9089 8.604-32.6617-8.678" stroke-linecap="round"/><path d="m80.1315 106.297c-1.2304 7.438-8.1049 9.075-13.3552 4.932" stroke-linecap="round"/><ellipse cx="109.476" cy="105.553" fill="#fff8ec" rx="7.60855" ry="9.08799" transform="matrix(.93952656 .34247604 -.34247604 .93952656 42.769764 -31.109754)"/><ellipse cx="90.1503" cy="98.5075" fill="#fff8ec" rx="7.60855" ry="9.08799" transform="matrix(.93952656 .34247604 -.34247604 .93952656 39.188157 -24.917231)"/></g><path d="m109.836 114.909c-2.656-2.433-3.746-6.261-2.46-9.791 1.353-3.71 4.926-5.9819 8.735-5.9185 1.817 7.7955.285 11.1815-6.275 15.7095z" fill="#2f2f2f"/><path d="m90.5139 107.866c-2.6561-2.433-3.7467-6.261-2.46-9.7909 1.3521-3.7093 4.9257-5.9816 8.7343-5.9182 1.8169 7.7952.2855 11.1811-6.2743 15.7091z" fill="#2f2f2f"/><path d="m96.5364 113.284-2.1451 5.405m-2.0837-7.08-5.5551 4.052m13.9595-.736.603 6.512" stroke="#2f2f2f" stroke-linecap="round" stroke-width="3"/><ellipse cx="47.9496" cy="93.1224" fill="#f5ae36" rx="5.67024" ry="3.48046" transform="matrix(.43577314 -.90005654 .90005654 .43577314 -56.760973 95.699511)"/><ellipse cx="43.5102" cy="8.91095" fill="#f6ebd8" opacity=".5" rx="3.26965" ry="3.25137" transform="matrix(.97143575 .23730273 -.23730273 .97143575 3.357429 -10.070555)"/><circle cx="15.7497" cy="39.0427" fill="url(#e)" opacity=".22" r="15.7497"/></svg>