<svg fill="none" height="122" viewBox="0 0 113 122" width="113" xmlns="http://www.w3.org/2000/svg" xmlns:xlink="http://www.w3.org/1999/xlink"><linearGradient id="a" gradientUnits="userSpaceOnUse" x1="75.7408" x2="49.9134" y1="37.8377" y2="25.1777"><stop offset="0" stop-color="#a2b539"/><stop offset="1" stop-color="#f1cc3d"/></linearGradient><linearGradient id="b" gradientUnits="userSpaceOnUse" x1="26.1603" x2="87.2059" y1="90.5123" y2="32.6141"><stop offset="0" stop-color="#fe6742"/><stop offset="1" stop-color="#ffb944"/></linearGradient><path d="m91.0197 33.0626c-7.5306 1.9697-12.1529 4.1284-20.1208 10.577l-3.4857 2.2427 2.4374 1.1788c8.2825-4.7382 13.689-6.7021 23.0937-8.2837 1.1703-.1968 1.8175-1.4824 1.2572-2.5286l-1.2518-2.3378c-.3715-.6936-1.1688-1.0475-1.93-.8484z" fill="#2f2f2f" stroke="#2f2f2f" stroke-linecap="round" stroke-width="3"/><path d="m74.9339 16.3844c-.5784-.7523-1.6572-.8933-2.4095-.3149l-3.887 2.9886c-10.7462 8.2624-12.7597 23.6719-4.4973 34.4181l2.9885 3.887c.5785.7523 1.6573.8933 2.4096.3149l3.887-2.9886c10.7462-8.2624 12.7597-23.6719 4.4973-34.4181z" fill="url(#a)" stroke="#2f2f2f" stroke-linecap="round" stroke-width="3"/><path d="m19.5238 98.8189c64.3698 24.0051 90.9362-32.1573 65.208-45.1775-9.5793-4.8477-17.3609-2.8938-22.9501 1.0526-9.8276-44.3841-66.64949-14.7471-42.6483 36.6007.4943 1.0575.303 2.351-.5316 3.1672-1.3794 1.3487-.8856 3.6829.922 4.357z" fill="url(#b)"/><g stroke-linecap="round"><path d="m52.9844 65.0889c1.5337-3.1972 4.525-7.3782 8.7973-10.3949m0 0c5.5892-3.9464 13.3708-5.9003 22.9501-1.0526 25.7282 13.0202-.8382 69.1826-65.208 45.1775-1.8076-.6741-2.3014-3.0083-.922-4.357.8346-.8162 1.0259-2.1097.5316-3.1672-24.00119-51.3478 32.8207-80.9848 42.6483-36.6007z" stroke="#2f2f2f" stroke-width="3"/><path d="m76.53 58.7109c8.8003 0 12.917 9.6821 7.8786 19.6377" opacity=".23" stroke="#fff" stroke-width="4"/></g></svg>