<svg fill="none" height="96" viewBox="0 0 100 96" width="100" xmlns="http://www.w3.org/2000/svg" xmlns:xlink="http://www.w3.org/1999/xlink"><linearGradient id="a" gradientUnits="userSpaceOnUse" x1="51.1174" x2="-8.04561" y1="90.8143" y2="-13.8792"><stop offset="0" stop-color="#f1cc3d"/><stop offset="1" stop-color="#e29052"/></linearGradient><linearGradient id="b" gradientUnits="userSpaceOnUse" x1="89.0738" x2="68.1517" y1="85.3882" y2="52.1335"><stop offset="0" stop-color="#ce5d8b"/><stop offset="1" stop-color="#cf2639"/></linearGradient><path d="m81.3863 58.6646-19.3695 20.317-49.4438-47.138 19.3695-20.317z" fill="url(#a)" stroke="#2f2f2f" stroke-width="3"/><path d="m31.9298 10.9189-1.7278 8.3506-8.0784 2.0905-1.7025 8.169-8.4922 2.2667-.9312-21.0378z" fill="#eebc97"/><path d="m31.9298 10.9189 1.4689.304-1.4573-1.80393zm-20.0009 20.8768-1.4985.0664 1.8853 1.3829zm-.9312-21.0378.0115-1.49998-1.57989-.01216.06986 1.57844zm11.1259 10.6021-.3758-1.4521-.9024.2335-.1902.9126zm8.0784-2.0905.3758 1.4522.9039-.234.1892-.9143zm-9.7809 10.2595.3868 1.4493.893-.2384.1886-.9048zm-6.9937 2.2004-.9312-21.0379-2.99703.1327.93123 21.0379zm-2.4412-19.4716 20.9321.1611.0231-2.99993-20.9322-.16105zm19.4748-1.6428-1.7279 8.3506 2.9378.6078 1.7278-8.3505zm-.6348 7.2023-8.0784 2.0906.7516 2.9043 8.0784-2.0905zm-9.171 3.2367-1.7026 8.169 2.9369.6121 1.7026-8.169zm-.621 7.0258-8.4921 2.2667.7736 2.8985 8.4922-2.2667z" fill="#2f2f2f"/><path d="m29.2828 18.7618 47.2243 45.022" stroke="#2f2f2f" stroke-width="3"/><path d="m19.8733 28.6307 47.2244 45.022" stroke="#2f2f2f" stroke-width="3"/><path d="m11.473 19.42c5.4651 1.0525 9.8608-3.7763 8.1951-8.596l-8.5718-.1678z" fill="#d9d9d9"/><path d="m11.473 19.42c5.4651 1.0525 9.8608-3.7763 8.1951-8.596l-8.5718-.1678z" fill="#2f2f2f"/><g stroke="#2f2f2f" stroke-width="3"><path d="m88.3388 65.2947h28.0706v8.45501h-28.0706z" fill="#2f2f2f" transform="matrix(-.69002389 .72378659 -.72378659 -.69002389 196.554111 46.411164)"/><path d="m92.9683 69.7095c3.1979 3.0487 3.3188 8.1126.27 11.3104l-8.329 8.7365c-3.0487 3.1979-8.1126 3.3188-11.3105.27l-4.6288-4.413 19.3695-20.3169z" fill="url(#b)"/></g></svg>