<svg fill="none" height="179" viewBox="0 0 629 179" width="629" xmlns="http://www.w3.org/2000/svg" xmlns:xlink="http://www.w3.org/1999/xlink"><linearGradient id="a" gradientUnits="userSpaceOnUse" x1="208.259" x2="258.856" y1="71.0425" y2="315.355"><stop offset="0" stop-color="#ffc9db"/><stop offset=".713144" stop-color="#dd4f7f"/></linearGradient><linearGradient id="b" gradientUnits="userSpaceOnUse" x1="168.632" x2="340.708" y1="150.986" y2="-.275934"><stop offset="0" stop-color="#b3afd4"/><stop offset="1" stop-color="#2e3192"/></linearGradient><path d="m260.116 49.047c-4.323 16.6298-16.58 33.2882-39.052 16.6298-28.925-21.4414-42.334-6.548-52.395 38.1052-3.373 14.969-8.861 12.282-16.564 8.511-7.378-3.612-16.788-8.218-28.315.747-8.786 6.834-8.16 16.152-7.571 24.919.511 7.6.994 14.785-4.708 19.579-8.971 7.542-19.6549 5.108-32.4375 2.195-19.6159-4.469-44.1746-10.065-75.0735 17.539h620.971c-30.899-27.604-55.458-22.008-75.074-17.539-12.782 2.913-23.466 5.347-32.438-2.195-5.701-4.794-5.218-11.979-4.708-19.579.59-8.767 1.216-18.085-7.571-24.919-11.527-8.965-20.936-4.359-28.315-.747-7.702 3.771-13.191 6.458-16.564-8.511-10.061-44.6532-23.47-59.5466-52.394-38.1052-22.472 16.6584-34.73 0-39.053-16.6298-16.307-62.7293-92.431-62.7293-108.738 0z" fill="#fff8ec"/><path d="m260.116 49.047c-4.323 16.6298-16.58 33.2882-39.052 16.6298-28.925-21.4414-42.334-6.548-52.395 38.1052-3.373 14.969-8.861 12.282-16.564 8.511-7.378-3.612-16.788-8.218-28.315.747-8.786 6.834-8.16 16.152-7.571 24.919.511 7.6.994 14.785-4.708 19.579-8.971 7.542-19.6549 5.108-32.4375 2.195-19.6159-4.469-44.1746-10.065-75.0735 17.539h620.971c-30.899-27.604-55.458-22.008-75.074-17.539-12.782 2.913-23.466 5.347-32.438-2.195-5.701-4.794-5.218-11.979-4.708-19.579.59-8.767 1.216-18.085-7.571-24.919-11.527-8.965-20.936-4.359-28.315-.747-7.702 3.771-13.191 6.458-16.564-8.511-10.061-44.6532-23.47-59.5466-52.394-38.1052-22.472 16.6584-34.73 0-39.053-16.6298-16.307-62.7293-92.431-62.7293-108.738 0z" fill="url(#a)"/><path d="m260.116 49.047c-4.323 16.6298-16.58 33.2882-39.052 16.6298-28.925-21.4414-42.334-6.548-52.395 38.1052-3.373 14.969-8.861 12.282-16.564 8.511-7.378-3.612-16.788-8.218-28.315.747-8.786 6.834-8.16 16.152-7.571 24.919.511 7.6.994 14.785-4.708 19.579-8.971 7.542-19.6549 5.108-32.4375 2.195-19.6159-4.469-44.1746-10.065-75.0735 17.539h620.971c-30.899-27.604-55.458-22.008-75.074-17.539-12.782 2.913-23.466 5.347-32.438-2.195-5.701-4.794-5.218-11.979-4.708-19.579.59-8.767 1.216-18.085-7.571-24.919-11.527-8.965-20.936-4.359-28.315-.747-7.702 3.771-13.191 6.458-16.564-8.511-10.061-44.6532-23.47-59.5466-52.394-38.1052-22.472 16.6584-34.73 0-39.053-16.6298-16.307-62.7293-92.431-62.7293-108.738 0z" stroke="#2f2f2f" stroke-linecap="round" stroke-width="3"/><path d="m315.45 69.0253v-.0498c-.32 0-.64.004-.962.0124-.322-.0084-.643-.0124-.962-.0124v.0498c-11.58.6012-24.942 6.7667-39.946 24.9726-.377.4581-.759.9304-1.147 1.4108-5.622 6.9593-12.617 15.6183-28.663 7.3803-22.079-11.3348-33.886 1.367-39.995 20.145-2.754 8.464-7.118 8.163-13.443 7.727-5.254-.362-11.86-.817-20.02 3.579-4.468 2.407-7.364 6.604-10.402 11.007-5.475 7.935-11.411 16.539-27.844 16.539h364.843c-16.432 0-22.368-8.604-27.843-16.539-3.038-4.403-5.934-8.6-10.403-11.007-8.16-4.396-14.766-3.941-20.019-3.579-6.326.436-10.69.737-13.443-7.727-6.11-18.778-17.916-31.4798-39.996-20.145-16.046 8.238-23.041-.421-28.663-7.3803-.388-.4804-.769-.9527-1.147-1.4108-15.004-18.2059-28.366-24.3714-39.945-24.9726z" fill="#fff8ec"/><path d="m315.45 69.0253v-.0498c-.32 0-.64.004-.962.0124-.322-.0084-.643-.0124-.962-.0124v.0498c-11.58.6012-24.942 6.7667-39.946 24.9726-.377.4581-.759.9304-1.147 1.4108-5.622 6.9593-12.617 15.6183-28.663 7.3803-22.079-11.3348-33.886 1.367-39.995 20.145-2.754 8.464-7.118 8.163-13.443 7.727-5.254-.362-11.86-.817-20.02 3.579-4.468 2.407-7.364 6.604-10.402 11.007-5.475 7.935-11.411 16.539-27.844 16.539h364.843c-16.432 0-22.368-8.604-27.843-16.539-3.038-4.403-5.934-8.6-10.403-11.007-8.16-4.396-14.766-3.941-20.019-3.579-6.326.436-10.69.737-13.443-7.727-6.11-18.778-17.916-31.4798-39.996-20.145-16.046 8.238-23.041-.421-28.663-7.3803-.388-.4804-.769-.9527-1.147-1.4108-15.004-18.2059-28.366-24.3714-39.945-24.9726z" fill="#f4e7d2"/><g stroke="#2f2f2f" stroke-linecap="round" stroke-linejoin="round" stroke-width="3"><path d="m315.45 69.0253v-.0498c-.32 0-.64.004-.962.0124-.322-.0084-.643-.0124-.962-.0124v.0498c-11.58.6012-24.942 6.7667-39.946 24.9726-.377.4581-.759.9304-1.147 1.4108-5.622 6.9593-12.617 15.6183-28.663 7.3803-22.079-11.3348-33.886 1.367-39.995 20.145-2.754 8.464-7.118 8.163-13.443 7.727-5.254-.362-11.86-.817-20.02 3.579-4.468 2.407-7.364 6.604-10.402 11.007-5.475 7.935-11.411 16.539-27.844 16.539h364.843c-16.432 0-22.368-8.604-27.843-16.539-3.038-4.403-5.934-8.6-10.403-11.007-8.16-4.396-14.766-3.941-20.019-3.579-6.326.436-10.69.737-13.443-7.727-6.11-18.778-17.916-31.4798-39.996-20.145-16.046 8.238-23.041-.421-28.663-7.3803-.388-.4804-.769-.9527-1.147-1.4108-15.004-18.2059-28.366-24.3714-39.945-24.9726z"/><path d="m227.672 145.244c10.43 0 15.705-7.352 21.025-14.768 6.885-9.596 13.845-19.298 32.146-13.314 8.166 4.192 11.282 0 14.19-4.185 4.081-5.871 13.694-12.882 19.45-12.004 5.756-.878 15.368 6.133 19.449 12.004 2.909 4.185 6.025 8.377 14.19 4.185 18.301-5.984 25.262 3.718 32.146 13.314 5.321 7.416 10.596 14.768 21.025 14.768z" fill="url(#b)"/></g></svg>