<svg xmlns:xlink="http://www.w3.org/1999/xlink"  width="1743" height="1062" viewBox="0 0 1743 1062" fill="none" xmlns="http://www.w3.org/2000/svg">
<mask id="mask0_2393_3504" style="mask-type:alpha" maskUnits="userSpaceOnUse" x="0" y="0" width="1743" height="1062">
<path d="M1742.33 0H0V1061.94H1742.33V0Z" fill="url(#paint0_linear_2393_3504)"/>
</mask>
<g mask="url(#mask0_2393_3504)">
<path d="M936.899 351.754C1166.25 292.869 1356.6 372.747 1334.3 488.803C1316.3 582.505 1234.28 632.659 1154.5 666.268C1128.79 677.098 1006.23 718.616 1013.04 758.556C1020.59 802.861 1087.98 804.638 1166.17 806.699L1166.2 806.7C1174.22 806.912 1182.34 807.126 1190.53 807.389C1287.53 810.511 1393.03 820.531 1419.25 914.092C1419.82 916.147 1420.43 918.161 1421.07 920.134C1454.36 1022.84 1572.53 1016.27 1608.42 1011.76L1618.84 1010.17L1617.72 1016.31C1617.72 1016.31 1478.25 1108.56 1387.18 990.749C1226.7 783.11 1020.1 963.063 904.625 817.528C865.78 768.573 889.597 723.979 936.316 683.064C969.39 654.097 1013.94 626.974 1055.87 601.452C1058.09 600.101 1060.3 598.755 1062.5 597.414C1134.63 553.458 1196.62 514.275 1174.94 478.6C1146.75 432.231 1074.61 454.871 971.844 487.122L971.841 487.123C958.709 491.244 945.077 495.522 930.973 499.833C855.925 522.771 767.507 546.643 669.911 552.778C475.345 565.009 244.303 506.744 9.99854 230.046L268.435 8.28394C268.435 8.28394 432.099 338.852 753.08 367.851C809.503 372.948 870.788 368.727 936.899 351.754Z" fill="url(#paint1_linear_2393_3504)" stroke="#2F2F2F" stroke-width="3" stroke-linecap="round"/>
<path d="M1408.8 930.228C1410.63 934.652 1412.5 938.999 1414.51 943.21C1466.03 1049.87 1599.14 1017.1 1616.65 1012.26C1617.9 1011.91 1618.56 1011.71 1618.56 1011.71L1618.28 1013.24C1618.28 1013.24 1472.55 1074.51 1405.39 959.056C1402.98 954.852 1400.67 950.606 1398.33 946.377C1296.1 761.578 1024.16 910.682 958.829 788.055C932.813 739.376 979.503 702.721 1043.3 665.685C1053.59 659.708 1064.33 653.722 1075.28 647.673C1078.59 645.847 1081.92 644.015 1085.25 642.176C1157.09 602.609 1234.89 559.759 1254.58 499.337C1258.15 488.365 1258.74 477.966 1254.99 467.721C1223.26 380.824 1052.79 403.651 836.38 448.87C820.747 452.136 805.308 454.684 790.068 456.558C760.386 460.207 731.453 461.3 703.292 460.164C444.902 449.743 251.404 251.689 139.211 119.198L203.825 63.7322C209.525 70.4635 216.504 79.2646 224.749 89.6635V89.6636C261.821 136.418 324.505 215.474 411.756 283.941C454.244 317.283 502.559 348.114 556.579 371.482C607.933 393.696 664.444 409.165 726.007 413.632C776.22 417.276 829.794 413.601 886.673 400.299C1098.57 350.729 1271.41 369.83 1295.05 462.255C1297.68 472.538 1297.27 483.073 1294.46 494.066C1273.3 577.15 1176.5 622.398 1096.33 661.777C1085.08 667.301 1074.16 672.711 1063.82 678.093C1009.58 706.328 971.361 733.814 985.945 773.298C1004.19 822.919 1073.78 823.995 1152.39 825.211C1252.22 826.754 1366.59 828.522 1408.8 930.228Z" fill="url(#paint2_linear_2393_3504)" stroke="#2F2F2F" stroke-width="3" stroke-linecap="round"/>
<path fill-rule="evenodd" clip-rule="evenodd" d="M344.025 293.211C336.306 297.442 330.926 304.983 329.457 313.696L324.423 343.558C322.77 353.361 329.377 362.647 339.18 364.3L363.832 368.457C373.634 370.109 382.921 363.502 384.574 353.7L389.609 323.837C391.128 314.827 388.285 305.63 381.946 299.049C377.117 294.034 374.951 287.027 376.108 280.162L378.185 267.843C380.922 266.108 380.076 261.912 376.88 261.374L361.962 258.859C358.767 258.32 356.592 262.006 358.608 264.543L357.091 273.545C355.262 271.295 352.639 269.675 349.555 269.155C342.822 268.02 336.444 272.558 335.309 279.291C334.256 285.538 338.088 291.481 344.025 293.211ZM353.623 282.381C353.053 285.764 349.848 288.044 346.465 287.473C343.082 286.903 340.802 283.698 341.373 280.315C341.943 276.932 345.148 274.652 348.531 275.223C351.914 275.793 354.194 278.998 353.623 282.381Z" fill="url(#paint3_linear_2393_3504)"/>
<path fill-rule="evenodd" clip-rule="evenodd" d="M344.025 293.211C336.306 297.442 330.926 304.983 329.457 313.696L324.423 343.558C322.77 353.361 329.377 362.647 339.18 364.3L363.832 368.457C373.634 370.109 382.921 363.502 384.574 353.7L389.609 323.837C391.128 314.827 388.285 305.63 381.946 299.049C377.117 294.034 374.951 287.027 376.108 280.162L378.185 267.843C380.922 266.108 380.076 261.912 376.88 261.374L361.962 258.859C358.767 258.32 356.592 262.006 358.608 264.543L357.091 273.545C355.262 271.295 352.639 269.675 349.555 269.155C342.822 268.02 336.444 272.558 335.309 279.291C334.256 285.538 338.088 291.481 344.025 293.211ZM353.623 282.381C353.053 285.764 349.848 288.044 346.465 287.473C343.082 286.903 340.802 283.698 341.373 280.315C341.943 276.932 345.148 274.652 348.531 275.223C351.914 275.793 354.194 278.998 353.623 282.381Z" fill="url(#paint4_linear_2393_3504)"/>
<path d="M329.457 313.696L327.978 313.446L329.457 313.696ZM344.025 293.211L344.746 294.527L347.924 292.785L344.445 291.771L344.025 293.211ZM324.423 343.558L325.902 343.807L324.423 343.558ZM339.18 364.3L338.93 365.779L339.18 364.3ZM363.832 368.457L364.081 366.977L363.832 368.457ZM381.946 299.049L380.866 300.089L381.946 299.049ZM376.108 280.162L377.587 280.411L376.108 280.162ZM378.185 267.843L377.382 266.577L376.817 266.935L376.706 267.594L378.185 267.843ZM376.88 261.374L377.13 259.895L376.88 261.374ZM361.962 258.859L361.713 260.338L361.962 258.859ZM358.608 264.543L360.088 264.792L360.199 264.133L359.783 263.609L358.608 264.543ZM357.091 273.545L355.927 274.491L358.018 277.065L358.57 273.795L357.091 273.545ZM330.937 313.945C332.329 305.686 337.429 298.538 344.746 294.527L343.304 291.896C335.183 296.347 329.524 304.28 327.978 313.446L330.937 313.945ZM325.902 343.807L330.937 313.945L327.978 313.446L322.944 343.309L325.902 343.807ZM339.429 362.821C330.443 361.306 324.387 352.793 325.902 343.807L322.944 343.309C321.153 353.928 328.311 363.989 338.93 365.779L339.429 362.821ZM364.081 366.977L339.429 362.821L338.93 365.779L363.582 369.936L364.081 366.977ZM383.095 353.45C381.58 362.436 373.067 368.492 364.081 366.977L363.582 369.936C374.202 371.726 384.262 364.569 386.053 353.949L383.095 353.45ZM388.129 323.588L383.095 353.45L386.053 353.949L391.088 324.087L388.129 323.588ZM380.866 300.089C386.875 306.328 389.569 315.047 388.129 323.588L391.088 324.087C392.686 314.608 389.695 304.932 383.027 298.008L380.866 300.089ZM374.629 279.913C373.393 287.246 375.706 294.732 380.866 300.089L383.027 298.008C378.527 293.336 376.509 286.807 377.587 280.411L374.629 279.913ZM376.706 267.594L374.629 279.913L377.587 280.411L379.664 268.093L376.706 267.594ZM376.631 262.853C378.47 263.163 378.957 265.578 377.382 266.577L378.988 269.11C382.886 266.639 381.681 260.662 377.13 259.895L376.631 262.853ZM361.713 260.338L376.631 262.853L377.13 259.895L362.212 257.379L361.713 260.338ZM359.783 263.609C358.622 262.15 359.874 260.028 361.713 260.338L362.212 257.379C357.66 256.612 354.562 261.863 357.434 265.476L359.783 263.609ZM358.57 273.795L360.088 264.792L357.129 264.293L355.612 273.296L358.57 273.795ZM358.255 272.599C356.205 270.077 353.261 268.259 349.804 267.676L349.306 270.635C352.016 271.092 354.319 272.513 355.927 274.491L358.255 272.599ZM349.804 267.676C342.255 266.403 335.103 271.492 333.83 279.041L336.788 279.54C337.786 273.624 343.39 269.637 349.306 270.635L349.804 267.676ZM333.83 279.041C332.649 286.048 336.946 292.71 343.606 294.651L344.445 291.771C339.229 290.251 335.863 285.029 336.788 279.54L333.83 279.041ZM346.216 288.952C350.416 289.661 354.394 286.83 355.103 282.63L352.144 282.131C351.712 284.697 349.281 286.427 346.715 285.994L346.216 288.952ZM339.894 280.066C339.186 284.266 342.016 288.244 346.216 288.952L346.715 285.994C344.149 285.562 342.419 283.131 342.852 280.565L339.894 280.066ZM348.78 273.744C344.58 273.035 340.602 275.866 339.894 280.066L342.852 280.565C343.285 277.999 345.715 276.269 348.281 276.702L348.78 273.744ZM355.103 282.63C355.811 278.43 352.98 274.452 348.78 273.744L348.281 276.702C350.847 277.134 352.577 279.565 352.144 282.131L355.103 282.63Z" fill="#2F2F2F"/>
<path d="M365.129 310.941C373.693 310.605 383.112 316.471 382.652 324.153L380.041 339.637L346.428 346.032C346.647 339.02 347.238 311.642 365.129 310.941Z" fill="url(#paint5_linear_2393_3504)" stroke="#2F2F2F" stroke-width="3" stroke-linecap="round"/>
<path d="M335.51 316.115C335.541 315.934 335.629 315.755 335.75 315.617C352.799 296.203 361.419 323.385 381.483 323.798C382.115 323.811 382.617 324.373 382.512 324.997L377.187 356.576C376.453 360.933 372.325 363.869 367.969 363.134L336.588 357.844C332.231 357.109 329.295 352.982 330.029 348.625L335.51 316.115Z" fill="url(#paint6_linear_2393_3504)" stroke="#2F2F2F" stroke-width="3" stroke-linecap="round"/>
<path d="M371.936 336.112C373.613 336.395 375.202 335.264 375.485 333.587C375.768 331.91 374.637 330.321 372.96 330.038C371.283 329.756 369.694 330.886 369.411 332.563C369.129 334.24 370.259 335.829 371.936 336.112Z" fill="white" fill-opacity="0.5" stroke="#2F2F2F" stroke-width="3"/>
<path d="M355.316 354.616C356.414 354.801 357.455 354.061 357.64 352.962C357.825 351.864 357.085 350.824 355.987 350.638C354.888 350.453 353.848 351.194 353.663 352.292C353.478 353.39 354.218 354.43 355.316 354.616Z" fill="white" fill-opacity="0.5" stroke="#2F2F2F" stroke-width="3"/>
<path d="M346.785 320.086C347.98 320.287 349.112 319.482 349.314 318.287C349.515 317.092 348.71 315.96 347.515 315.758C346.32 315.557 345.188 316.362 344.986 317.557C344.785 318.752 345.59 319.884 346.785 320.086Z" fill="white" fill-opacity="0.5" stroke="#2F2F2F" stroke-width="3"/>
<path d="M345.763 337.292C347.264 337.546 348.687 336.534 348.94 335.032C349.193 333.531 348.181 332.108 346.679 331.855C345.178 331.602 343.756 332.614 343.503 334.116C343.249 335.617 344.261 337.039 345.763 337.292Z" fill="white" fill-opacity="0.5" stroke="#2F2F2F" stroke-width="3"/>
<path d="M377.677 268.03L366.764 266.19" stroke="#2F2F2F" stroke-width="3" stroke-linecap="round"/>
<path fill-rule="evenodd" clip-rule="evenodd" d="M392.397 233.343C392.613 232.966 393.047 232.774 393.475 232.848C394.069 232.951 394.672 233.027 395.285 233.076C403.834 233.757 411.566 228.821 415.016 221.296C415.235 220.818 415.774 220.57 416.285 220.696C416.943 220.859 417.622 220.971 418.319 221.026C425.476 221.596 431.757 216.032 432.349 208.6C432.94 201.168 427.618 194.681 420.461 194.111C417.045 193.839 413.829 194.964 411.335 197.023C410.922 197.363 410.317 197.364 409.913 197.011C406.824 194.312 402.902 192.553 398.537 192.205C396.892 192.074 395.276 192.152 393.716 192.415C393.316 192.483 392.911 192.317 392.674 191.988C389.278 187.269 383.907 184.019 377.657 183.521C366.371 182.623 356.493 191.044 355.595 202.33C355.45 204.153 355.548 205.939 355.862 207.656C355.947 208.123 355.712 208.591 355.293 208.813C351.391 210.884 348.575 214.943 348.189 219.799C347.597 227.231 352.92 233.718 360.077 234.288C362.471 234.478 364.768 233.983 366.786 232.96C367.627 232.534 368.765 233.265 368.572 234.188L363.626 257.829C363.513 258.366 363.855 258.893 364.391 259.011L375.526 261.442C375.952 261.535 376.39 261.34 376.607 260.961L392.397 233.343ZM402.022 249.324C402.263 246.296 404.69 244.019 407.443 244.238C410.196 244.457 412.232 247.09 411.991 250.118C411.75 253.146 409.323 255.423 406.57 255.204C403.818 254.985 401.781 252.352 402.022 249.324ZM334.473 228.239C329.518 227.845 325.164 231.765 324.748 236.995C324.332 242.225 328.011 246.785 332.966 247.179C337.921 247.574 342.275 243.653 342.691 238.423C343.107 233.193 339.428 228.634 334.473 228.239Z" fill="url(#paint7_linear_2393_3504)"/>
<path fill-rule="evenodd" clip-rule="evenodd" d="M392.397 233.343C392.613 232.966 393.047 232.774 393.475 232.848C394.069 232.951 394.672 233.027 395.285 233.076C403.834 233.757 411.566 228.821 415.016 221.296C415.235 220.818 415.774 220.57 416.285 220.696C416.943 220.859 417.622 220.971 418.319 221.026C425.476 221.596 431.757 216.032 432.349 208.6C432.94 201.168 427.618 194.681 420.461 194.111C417.045 193.839 413.829 194.964 411.335 197.023C410.922 197.363 410.317 197.364 409.913 197.011C406.824 194.312 402.902 192.553 398.537 192.205C396.892 192.074 395.276 192.152 393.716 192.415C393.316 192.483 392.911 192.317 392.674 191.988C389.278 187.269 383.907 184.019 377.657 183.521C366.371 182.623 356.493 191.044 355.595 202.33C355.45 204.153 355.548 205.939 355.862 207.656C355.947 208.123 355.712 208.591 355.293 208.813C351.391 210.884 348.575 214.943 348.189 219.799C347.597 227.231 352.92 233.718 360.077 234.288C362.471 234.478 364.768 233.983 366.786 232.96C367.627 232.534 368.765 233.265 368.572 234.188L363.626 257.829C363.513 258.366 363.855 258.893 364.391 259.011L375.526 261.442C375.952 261.535 376.39 261.34 376.607 260.961L392.397 233.343ZM402.022 249.324C402.263 246.296 404.69 244.019 407.443 244.238C410.196 244.457 412.232 247.09 411.991 250.118C411.75 253.146 409.323 255.423 406.57 255.204C403.818 254.985 401.781 252.352 402.022 249.324ZM334.473 228.239C329.518 227.845 325.164 231.765 324.748 236.995C324.332 242.225 328.011 246.785 332.966 247.179C337.921 247.574 342.275 243.653 342.691 238.423C343.107 233.193 339.428 228.634 334.473 228.239Z" fill="#7B9DD9"/>
<path fill-rule="evenodd" clip-rule="evenodd" d="M392.397 233.343C392.613 232.966 393.047 232.774 393.475 232.848C394.069 232.951 394.672 233.027 395.285 233.076C403.834 233.757 411.566 228.821 415.016 221.296C415.235 220.818 415.774 220.57 416.285 220.696C416.943 220.859 417.622 220.971 418.319 221.026C425.476 221.596 431.757 216.032 432.349 208.6C432.94 201.168 427.618 194.681 420.461 194.111C417.045 193.839 413.829 194.964 411.335 197.023C410.922 197.363 410.317 197.364 409.913 197.011C406.824 194.312 402.902 192.553 398.537 192.205C396.892 192.074 395.276 192.152 393.716 192.415C393.316 192.483 392.911 192.317 392.674 191.988C389.278 187.269 383.907 184.019 377.657 183.521C366.371 182.623 356.493 191.044 355.595 202.33C355.45 204.153 355.548 205.939 355.862 207.656C355.947 208.123 355.712 208.591 355.293 208.813C351.391 210.884 348.575 214.943 348.189 219.799C347.597 227.231 352.92 233.718 360.077 234.288C362.471 234.478 364.768 233.983 366.786 232.96C367.627 232.534 368.765 233.265 368.572 234.188L363.626 257.829C363.513 258.366 363.855 258.893 364.391 259.011L375.526 261.442C375.952 261.535 376.39 261.34 376.607 260.961L392.397 233.343ZM402.022 249.324C402.263 246.296 404.69 244.019 407.443 244.238C410.196 244.457 412.232 247.09 411.991 250.118C411.75 253.146 409.323 255.423 406.57 255.204C403.818 254.985 401.781 252.352 402.022 249.324ZM334.473 228.239C329.518 227.845 325.164 231.765 324.748 236.995C324.332 242.225 328.011 246.785 332.966 247.179C337.921 247.574 342.275 243.653 342.691 238.423C343.107 233.193 339.428 228.634 334.473 228.239Z" fill="white"/>
<path fill-rule="evenodd" clip-rule="evenodd" d="M392.397 233.343C392.613 232.966 393.047 232.774 393.475 232.848C394.069 232.951 394.672 233.027 395.285 233.076C403.834 233.757 411.566 228.821 415.016 221.296C415.235 220.818 415.774 220.57 416.285 220.696C416.943 220.859 417.622 220.971 418.319 221.026C425.476 221.596 431.757 216.032 432.349 208.6C432.94 201.168 427.618 194.681 420.461 194.111C417.045 193.839 413.829 194.964 411.335 197.023C410.922 197.363 410.317 197.364 409.913 197.011C406.824 194.312 402.902 192.553 398.537 192.205C396.892 192.074 395.276 192.152 393.716 192.415C393.316 192.483 392.911 192.317 392.674 191.988C389.278 187.269 383.907 184.019 377.657 183.521C366.371 182.623 356.493 191.044 355.595 202.33C355.45 204.153 355.548 205.939 355.862 207.656C355.947 208.123 355.712 208.591 355.293 208.813C351.391 210.884 348.575 214.943 348.189 219.799C347.597 227.231 352.92 233.718 360.077 234.288C362.471 234.478 364.768 233.983 366.786 232.96C367.627 232.534 368.765 233.265 368.572 234.188L363.626 257.829C363.513 258.366 363.855 258.893 364.391 259.011L375.526 261.442C375.952 261.535 376.39 261.34 376.607 260.961L392.397 233.343ZM402.022 249.324C402.263 246.296 404.69 244.019 407.443 244.238C410.196 244.457 412.232 247.09 411.991 250.118C411.75 253.146 409.323 255.423 406.57 255.204C403.818 254.985 401.781 252.352 402.022 249.324ZM334.473 228.239C329.518 227.845 325.164 231.765 324.748 236.995C324.332 242.225 328.011 246.785 332.966 247.179C337.921 247.574 342.275 243.653 342.691 238.423C343.107 233.193 339.428 228.634 334.473 228.239Z" fill="#F6EDDA"/>
<path d="M375.526 261.442L375.846 259.976L375.526 261.442ZM376.607 260.961L375.305 260.216L376.607 260.961ZM363.626 257.829L362.157 257.522L363.626 257.829ZM364.391 259.011L364.711 257.545L364.391 259.011ZM366.786 232.96L366.108 231.622L366.786 232.96ZM368.572 234.188L370.04 234.495L368.572 234.188ZM393.716 192.415L393.966 193.894L393.716 192.415ZM392.674 191.988L393.892 191.111L392.674 191.988ZM393.475 232.848L393.219 234.326L393.475 232.848ZM392.397 233.343L393.699 234.088L392.397 233.343ZM355.862 207.656L354.387 207.926L355.862 207.656ZM355.293 208.813L355.997 210.138L355.293 208.813ZM411.335 197.023L412.29 198.179L411.335 197.023ZM409.913 197.011L410.9 195.882L409.913 197.011ZM415.016 221.296L416.379 221.922L415.016 221.296ZM416.285 220.696L416.645 219.24L416.285 220.696ZM393.219 234.326C393.858 234.437 394.507 234.519 395.166 234.571L395.404 231.581C394.837 231.536 394.28 231.465 393.731 231.37L393.219 234.326ZM395.166 234.571C404.382 235.305 412.684 229.982 416.379 221.922L413.652 220.671C410.449 227.659 403.287 232.208 395.404 231.581L395.166 234.571ZM415.924 222.152C416.661 222.335 417.421 222.459 418.2 222.521L418.438 219.531C417.823 219.482 417.224 219.384 416.645 219.24L415.924 222.152ZM418.2 222.521C426.235 223.161 433.191 216.923 433.844 208.719L430.853 208.481C430.323 215.141 424.716 220.03 418.438 219.531L418.2 222.521ZM433.844 208.719C434.497 200.514 428.615 193.255 420.58 192.616L420.342 195.606C426.62 196.106 431.383 201.821 430.853 208.481L433.844 208.719ZM420.58 192.616C416.753 192.311 413.156 193.574 410.38 195.866L412.29 198.179C414.501 196.354 417.337 195.367 420.342 195.606L420.58 192.616ZM410.9 195.882C407.579 192.979 403.355 191.084 398.656 190.71L398.418 193.701C402.448 194.021 406.069 195.644 408.926 198.141L410.9 195.882ZM398.656 190.71C396.886 190.569 395.147 190.652 393.466 190.936L393.966 193.894C395.405 193.651 396.897 193.58 398.418 193.701L398.656 190.71ZM393.892 191.111C390.249 186.051 384.483 182.56 377.776 182.026L377.538 185.017C383.33 185.477 388.307 188.488 391.457 192.864L393.892 191.111ZM377.776 182.026C365.664 181.062 355.064 190.099 354.1 202.211L357.091 202.449C357.923 191.989 367.078 184.184 377.538 185.017L377.776 182.026ZM354.1 202.211C353.944 204.165 354.049 206.082 354.387 207.926L357.338 207.387C357.047 205.796 356.956 204.141 357.091 202.449L354.1 202.211ZM354.59 207.488C350.239 209.797 347.121 214.309 346.694 219.68L349.684 219.918C350.03 215.577 352.544 211.971 355.997 210.138L354.59 207.488ZM346.694 219.68C346.041 227.884 351.922 235.144 359.958 235.783L360.196 232.792C353.917 232.293 349.154 226.578 349.684 219.918L346.694 219.68ZM359.958 235.783C362.638 235.996 365.209 235.44 367.464 234.298L366.108 231.622C364.326 232.525 362.305 232.96 360.196 232.792L359.958 235.783ZM367.104 233.88L362.157 257.522L365.094 258.136L370.04 234.495L367.104 233.88ZM364.071 260.476L375.206 262.907L375.846 259.976L364.711 257.545L364.071 260.476ZM377.909 261.705L393.699 234.088L391.095 232.599L375.305 260.216L377.909 261.705ZM407.562 242.743C403.852 242.448 400.823 245.489 400.527 249.205L403.518 249.443C403.704 247.104 405.528 245.591 407.324 245.734L407.562 242.743ZM413.486 250.237C413.782 246.52 411.271 243.038 407.562 242.743L407.324 245.734C409.12 245.877 410.682 247.659 410.496 249.999L413.486 250.237ZM406.451 256.699C410.161 256.994 413.19 253.953 413.486 250.237L410.496 249.999C410.309 252.338 408.485 253.851 406.689 253.708L406.451 256.699ZM400.527 249.205C400.231 252.922 402.742 256.404 406.451 256.699L406.689 253.708C404.893 253.565 403.331 251.783 403.518 249.443L400.527 249.205ZM326.243 237.114C326.6 232.633 330.3 229.412 334.354 229.734L334.592 226.744C328.736 226.278 323.728 230.898 323.253 236.876L326.243 237.114ZM333.085 245.684C329.031 245.361 325.886 241.596 326.243 237.114L323.253 236.876C322.777 242.855 326.991 248.209 332.847 248.675L333.085 245.684ZM341.196 238.304C340.839 242.786 337.139 246.007 333.085 245.684L332.847 248.675C338.703 249.141 343.711 244.521 344.186 238.542L341.196 238.304ZM334.354 229.734C338.408 230.057 341.552 233.823 341.196 238.304L344.186 238.542C344.662 232.563 340.448 227.21 334.592 226.744L334.354 229.734ZM375.206 262.907C376.273 263.14 377.367 262.654 377.909 261.705L375.305 260.216C375.413 260.027 375.632 259.93 375.846 259.976L375.206 262.907ZM362.157 257.522C361.876 258.865 362.73 260.183 364.071 260.476L364.711 257.545C364.979 257.604 365.15 257.867 365.094 258.136L362.157 257.522ZM367.464 234.298C367.392 234.334 367.328 234.338 367.292 234.334C367.262 234.331 367.245 234.323 367.232 234.314C367.22 234.306 367.179 234.276 367.143 234.2C367.1 234.112 367.08 233.994 367.104 233.88L370.04 234.495C370.292 233.292 369.642 232.318 368.901 231.821C368.17 231.332 367.097 231.121 366.108 231.622L367.464 234.298ZM393.466 190.936C393.629 190.909 393.794 190.975 393.892 191.111L391.457 192.864C392.029 193.659 393.004 194.057 393.966 193.894L393.466 190.936ZM393.731 231.37C392.713 231.194 391.64 231.646 391.095 232.599L393.699 234.088C393.586 234.286 393.38 234.354 393.219 234.326L393.731 231.37ZM354.387 207.926C354.351 207.729 354.45 207.563 354.59 207.488L355.997 210.138C356.975 209.619 357.544 208.516 357.338 207.387L354.387 207.926ZM410.38 195.866C410.517 195.753 410.734 195.736 410.9 195.882L408.926 198.141C409.899 198.991 411.328 198.974 412.29 198.179L410.38 195.866ZM416.379 221.922C416.287 222.122 416.087 222.193 415.924 222.152L416.645 219.24C415.46 218.947 414.183 219.514 413.652 220.671L416.379 221.922Z" fill="#2F2F2F"/>
<path d="M1254.99 467.724C1258.74 477.969 1258.15 488.368 1254.58 499.341C1234.89 559.762 1157.09 602.612 1085.25 642.18C1081.92 644.019 1078.59 645.85 1075.28 647.676C1064.33 653.725 1053.59 659.712 1043.3 665.688C1032.27 672.091 1021.75 678.481 1012.03 684.925C965.534 715.756 937.311 747.795 958.829 788.058C988.157 843.108 1059.12 843.396 1137.68 843.714C1234.12 844.105 1341.99 844.542 1398.33 946.38C1398.75 947.133 1399.16 947.887 1399.58 948.64L1399.7 948.869C1401.58 952.272 1403.45 955.679 1405.39 959.059C1468.18 1067 1599.65 1020.47 1616.49 1013.96C1617.66 1013.5 1618.28 1013.24 1618.28 1013.24L1618 1014.78C1618 1014.78 1475.4 1091.53 1396.3 974.909L1395.23 973.315C1392.77 969.662 1390.34 966.053 1387.88 962.533C1257.7 775.436 1020.97 935.412 931.737 802.798C898.505 753.501 933.758 711.934 989.594 672.71C1013.63 655.822 1041.49 639.369 1069.34 622.92V622.918C1073.33 620.56 1077.33 618.202 1081.31 615.843C1141.02 580.457 1198.16 544.806 1214.72 504.616C1219.21 493.693 1219.89 483.373 1214.97 473.177C1185.15 411.32 1081.11 434.349 936.113 466.445C930.338 467.724 924.499 469.016 918.597 470.318C877.282 479.433 832.886 489.018 786.13 497.431C752.071 503.56 718.295 506.63 684.876 506.839C456.913 508.263 245.586 376.566 74.6211 174.65L139.211 119.201C193.118 182.861 265.795 261.657 355.421 327.502C410.552 368.005 472.095 403.607 539.628 427.774C590.805 446.088 645.421 457.834 703.292 460.168C731.454 461.304 760.386 460.211 790.068 456.561C805.309 454.687 820.747 452.139 836.38 448.873C1052.79 403.655 1223.26 380.827 1254.99 467.724Z" fill="url(#paint8_linear_2393_3504)" stroke="#2F2F2F" stroke-width="3" stroke-linecap="round"/>
<path d="M1387.18 990.751C1478.25 1108.56 1617.72 1016.31 1617.72 1016.31L1618 1014.77C1618 1014.77 1475.4 1091.52 1396.3 974.905L1395.21 973.291C1392.76 969.644 1390.34 966.042 1387.88 962.528C1257.7 775.431 1020.97 935.408 931.736 802.794C898.504 753.497 933.756 711.93 989.593 672.706C1013.63 655.818 1041.49 639.365 1069.34 622.916V622.913C1073.33 620.555 1077.32 618.197 1081.31 615.838C1141.01 580.452 1198.15 544.801 1214.72 504.612C1219.21 493.689 1219.89 483.368 1214.97 473.173C1185.15 411.316 1081.11 434.345 936.112 466.441H936.111L936.101 466.443C930.33 467.721 924.494 469.013 918.596 470.314C877.28 479.429 832.885 489.014 786.129 497.427C752.07 503.556 718.293 506.625 684.874 506.834C456.912 508.259 245.585 376.561 74.6198 174.646L9.99756 230.048C244.301 506.746 475.344 565.011 669.91 552.78C785.838 545.493 888.815 513.179 971.819 487.131C1041.57 466.443 1136.71 445.455 1166.16 483.758C1187.84 519.433 1134.63 553.46 1062.5 597.416C1060.3 598.757 1058.08 600.104 1055.87 601.454L1055.86 601.455C1013.94 626.977 969.389 654.1 936.315 683.066C889.596 723.981 865.779 768.575 904.624 817.53C1020.1 963.065 1226.7 783.112 1387.18 990.751Z" fill="url(#paint9_linear_2393_3504)" stroke="#2F2F2F" stroke-width="3" stroke-linecap="round"/>
</g>
<defs>
<linearGradient id="paint0_linear_2393_3504" x1="1502.73" y1="1227.99" x2="180.168" y2="78.7453" gradientUnits="userSpaceOnUse">
<stop stop-color="#1E1E1E" stop-opacity="0"/>
<stop offset="0.0743843" stop-color="#303030"/>
<stop offset="0.722489" stop-color="#1E1E1E"/>
<stop offset="1" stop-color="#1E1E1E" stop-opacity="0"/>
</linearGradient>
<linearGradient id="paint1_linear_2393_3504" x1="1466.83" y1="962.712" x2="215.93" y2="439.116" gradientUnits="userSpaceOnUse">
<stop stop-color="#B3AFD4"/>
<stop offset="1" stop-color="#2E3192"/>
</linearGradient>
<linearGradient id="paint2_linear_2393_3504" x1="1560.36" y1="1037.85" x2="603.974" y2="1385.73" gradientUnits="userSpaceOnUse">
<stop stop-color="#FFC9DB"/>
<stop offset="0.713144" stop-color="#DD4F7F"/>
</linearGradient>
<linearGradient id="paint3_linear_2393_3504" x1="505.491" y1="332.074" x2="222.149" y2="284.302" gradientUnits="userSpaceOnUse">
<stop stop-color="#B3AFD4"/>
<stop offset="1" stop-color="#2E3192"/>
</linearGradient>
<linearGradient id="paint4_linear_2393_3504" x1="413.108" y1="354.034" x2="298.955" y2="334.609" gradientUnits="userSpaceOnUse">
<stop stop-color="#8FAEE3"/>
<stop offset="1" stop-color="#6D92D1"/>
</linearGradient>
<linearGradient id="paint5_linear_2393_3504" x1="372.099" y1="337.95" x2="369.475" y2="320.127" gradientUnits="userSpaceOnUse">
<stop stop-color="#FFC9DB"/>
<stop offset="0.713144" stop-color="#DD4F7F"/>
</linearGradient>
<linearGradient id="paint6_linear_2393_3504" x1="425.768" y1="370.491" x2="327.211" y2="392.891" gradientUnits="userSpaceOnUse">
<stop stop-color="#F5AC83"/>
<stop offset="0.713144" stop-color="#DD4F7F"/>
<stop offset="0.802083" stop-color="#DD934F"/>
</linearGradient>
<linearGradient id="paint7_linear_2393_3504" x1="514.922" y1="239.984" x2="269.484" y2="216.032" gradientUnits="userSpaceOnUse">
<stop stop-color="#FFB843"/>
<stop offset="0.484345" stop-color="#FD6641"/>
</linearGradient>
<linearGradient id="paint8_linear_2393_3504" x1="652.401" y1="504.311" x2="1160.66" y2="881.207" gradientUnits="userSpaceOnUse">
<stop stop-color="#FD6641"/>
<stop offset="1" stop-color="#FFC692"/>
</linearGradient>
<linearGradient id="paint9_linear_2393_3504" x1="669.014" y1="565.599" x2="1245.74" y2="891.964" gradientUnits="userSpaceOnUse">
<stop stop-color="#FFB843"/>
<stop offset="1" stop-color="white"/>
</linearGradient>
</defs>
</svg>
