<svg fill="none" height="1189" viewBox="0 0 1238 1189" width="1238" xmlns="http://www.w3.org/2000/svg" xmlns:xlink="http://www.w3.org/1999/xlink"><linearGradient id="a" gradientUnits="userSpaceOnUse" x1="1094.69" x2="536.773" y1="720.817" y2="539.551"><stop offset=".000830646" stop-color="#ffc9db"/><stop offset="1" stop-color="#dd4f7f"/></linearGradient><linearGradient id="b" gradientUnits="userSpaceOnUse" x1="1142.14" x2="527.936" y1="732.494" y2="579.406"><stop offset="0" stop-color="#b3afd4"/><stop offset="1" stop-color="#2e3192"/></linearGradient><linearGradient id="c" gradientUnits="userSpaceOnUse" x1="566.647" x2="1116.76" y1="558.342" y2="651.114"><stop offset="0" stop-color="#fd6641"/><stop offset="1" stop-color="#ffc692"/></linearGradient><linearGradient id="d" gradientUnits="userSpaceOnUse" x1="608.805" x2="1111.94" y1="595.664" y2="711.641"><stop offset="0" stop-color="#ffb843"/><stop offset="1" stop-color="#fff"/></linearGradient><g stroke="#2f2f2f" stroke-linecap="round" stroke-width="3"><path d="m1101.77 700.26c100.8.858 110.01 114.305 110.01 114.305l-2.81 3.126s-1.19-2.379-3.5-6.291c-31.89-53.846-59.8-88.162-124.86-62.168-60.78 24.28-116.467-28.808-158.69-80.04-3.569-4.331-7.087-8.649-10.555-12.907-33.792-41.483-62.918-77.236-89.664-63.109-7.589 4.008-11.71 10.528-13.388 19.038-3.607 18.293 4.076 45.78 12.875 77.264 1.54 5.51 3.114 11.141 4.668 16.867 15.471 57.017 34.869 140.153-11.323 177.326-123.514 99.399-234.343-177.326-314.094-271.458-103.599-122.282-394.085-114.533-394.085-114.533l14.55-230.224c245.285 13.074 372.916 114.202 447.764 224.568 37.544 55.361 61.807 113.046 80.977 163.109 3.603 9.41 7.026 18.55 10.324 27.354 25.803 68.899 43.917 117.267 80.388 113.459 28.058-2.932 22.999-52.603 16.237-109.73-.206-1.744-.414-3.494-.623-5.25v-.002c-3.943-33.192-8.133-68.465-6.542-98.282 2.247-42.118 16.028-73.349 58.335-72.448 125.768 2.676 116.353 188.521 294.006 190.026z" fill="url(#a)"/><path d="m1078.58 736.852c3.12-.827 6.22-1.605 9.3-2.247 78.33-15.969 116.54 69.577 121.29 81.045.33.819.5 1.26.5 1.26l.7-.782s-28.32-104.088-117.86-92.975c-3.25.42-6.48.915-9.71 1.391-141.131 20.639-175.464-187.899-268.066-172.844-36.795 5.931-36.786 46.281-29.827 96.048 1.123 8.031 2.426 16.308 3.786 24.724.41 2.541.826 5.094 1.243 7.658 8.974 55.163 18.693 114.902-5.24 150.408-4.348 6.446-9.638 11.041-16.662 13.222-59.531 18.552-118.659-83.124-185.08-218.882-4.798-9.807-9.897-19.213-15.273-28.235-10.468-17.57-21.985-33.684-34.365-48.463-113.596-135.606-299.949-158.927-417.399-165.188l-2.511 57.789c5.967.318 13.571.478 22.555.666 40.394.845 108.693 2.275 181.628 21.358 35.518 9.294 72.135 22.773 107.164 42.411 33.301 18.669 65.167 42.903 93.288 74.395 22.937 25.687 43.383 56.203 60.085 92.467 62.215 135.101 144.661 220.826 203.75 195.617 6.575-2.802 12.012-7.357 16.691-13.396 35.382-45.624 18.995-116.634 6.436-176.231-1.762-8.362-3.449-16.498-4.907-24.309-7.649-40.976-8.999-72.971 18.12-81.311 34.045-10.528 63.719 26.707 97.237 68.766 42.567 53.413 91.337 114.607 163.127 95.638z" fill="url(#b)"/><path d="m767.957 843.765c7.024-2.181 12.314-6.776 16.662-13.221 23.933-35.507 14.214-95.246 5.24-150.409-.417-2.563-.833-5.117-1.243-7.658-1.36-8.416-2.664-16.693-3.786-24.724-1.203-8.603-2.199-16.924-2.832-24.835-3.03-37.853 2.225-66.307 32.659-71.213 41.571-6.759 71.399 31.544 104.419 73.945 40.533 52.049 85.874 110.273 163.654 98.899l.48-.071c.47-.07.94-.14 1.41-.21 2.6-.386 5.2-.772 7.81-1.109 83.72-10.391 113.92 79.919 117.5 91.713.25.821.37 1.261.37 1.261l.7-.781s-18.77-108.762-113.94-103.636l-1.29.075c-2.98.173-5.91.343-8.81.46-154.05 6.45-167.87-187.495-275.785-181.274-40.141 2.279-47.529 38.456-45.063 84.814 1.061 19.96 3.95 41.806 6.838 63.647v.003c.414 3.131.828 6.262 1.237 9.387 6.128 46.877 11.042 92.471-3.429 117.965-3.935 6.924-9.147 11.535-16.631 13.065-45.403 9.288-76.645-56.505-120.191-148.206l-.039-.083c-1.721-3.624-3.462-7.29-5.223-10.992-12.424-26.116-25.885-54.093-40.958-82.866-10.979-20.96-23.468-40.508-37.331-58.687-94.566-124.004-253.047-184.262-432.034-193.796l-2.512 57.77c56.433 3.008 128.773 9.955 201.306 31.403 44.616 13.193 89.305 31.872 130.411 58.497 31.149 20.177 60.241 44.916 85.683 75.287 12.38 14.78 23.897 30.893 34.365 48.463 5.376 9.022 10.475 18.428 15.273 28.235 66.421 135.759 125.549 237.434 185.08 218.882z" fill="url(#c)"/><path d="m1101.77 700.26c100.8.858 110.01 114.304 110.01 114.304l-.7.782s-18.77-108.762-113.94-103.635l-1.29.075c-2.97.172-5.91.343-8.81.459-154.051 6.451-167.871-187.495-275.786-181.274-40.141 2.279-47.53 38.457-45.063 84.815 1.061 19.96 3.95 41.806 6.838 63.647v.003c.414 3.131.828 6.262 1.237 9.387 6.128 46.876 11.042 92.471-3.429 117.964-3.935 6.925-9.147 11.535-16.631 13.065-45.403 9.289-76.646-56.504-120.191-148.205l-.003-.007c-1.733-3.65-3.486-7.34-5.259-11.069-12.424-26.116-25.885-54.093-40.958-82.865-10.979-20.96-23.468-40.509-37.332-58.688-94.565-124.004-253.046-184.262-432.033-193.795l2.473-57.767c245.285 13.074 372.916 114.201 447.764 224.568 37.544 55.361 61.807 113.046 80.977 163.109 15.619 40.791 64.628 145.866 89.155 143.303 28.058-2.932 23.933-41.049 17.171-98.176-4.509-38.091-8.587-79.264-6.542-117.578 2.247-42.118 16.028-73.349 58.335-72.448 125.768 2.676 116.353 188.521 294.007 190.026z" fill="url(#d)"/></g></svg>