<svg fill="none" height="149" viewBox="0 0 520 149" width="520" xmlns="http://www.w3.org/2000/svg" xmlns:xlink="http://www.w3.org/1999/xlink"><linearGradient id="a" gradientUnits="userSpaceOnUse" x1="529.597" x2="160.363" y1="139.722" y2="422.597"><stop offset="0" stop-color="#ffc9db"/><stop offset=".713144" stop-color="#dd4f7f"/></linearGradient><linearGradient id="b" gradientUnits="userSpaceOnUse" x1="395.176" x2="86.0892" y1="2.00001" y2="68.2452"><stop offset="0" stop-color="#fd6641"/><stop offset="1" stop-color="#ffc692"/></linearGradient><linearGradient id="c" gradientUnits="userSpaceOnUse" x1="163.937" x2="270.09" y1="124.885" y2="78.4728"><stop offset="0" stop-color="#b3afd4"/><stop offset="1" stop-color="#2e3192"/></linearGradient><linearGradient id="d" gradientUnits="userSpaceOnUse" x1="247.283" x2="294.794" y1="100.275" y2="122.818"><stop offset="0" stop-color="#ffb843"/><stop offset="1" stop-color="#ffe3b5"/></linearGradient><path d="m215.16 40.7888c-3.564 13.7107-13.67 27.445-32.198 13.7107-23.847-17.6778-34.903-5.3986-43.198 31.4166-2.78 12.3413-7.305 10.126-13.656 7.0172-6.083-2.9779-13.841-6.7758-23.345.616-7.2441 5.6344-6.7277 13.3167-6.2419 20.5447.4212 6.266.8195 12.19-3.8815 16.142-7.3967 6.218-16.2051 4.211-26.7438 1.81-16.1728-3.685-36.4206-8.298-61.8958 14.46h511.971c-25.476-22.758-45.723-18.145-61.896-14.46-10.539 2.401-19.347 4.408-26.744-1.81-4.701-3.952-4.303-9.876-3.882-16.142.486-7.228 1.003-14.9103-6.242-20.5447-9.503-7.3918-17.261-3.5939-23.344-.616-6.351 3.1088-10.876 5.3241-13.657-7.0172-8.295-36.8152-19.35-49.0944-43.198-31.4166-18.527 13.7343-28.633 0-32.197-13.7107-13.445-51.7184-76.207-51.7184-89.651 0z" fill="#fff8ec"/><path d="m215.16 40.7888c-3.564 13.7107-13.67 27.445-32.198 13.7107-23.847-17.6778-34.903-5.3986-43.198 31.4166-2.78 12.3413-7.305 10.126-13.656 7.0172-6.083-2.9779-13.841-6.7758-23.345.616-7.2441 5.6344-6.7277 13.3167-6.2419 20.5447.4212 6.266.8195 12.19-3.8815 16.142-7.3967 6.218-16.2051 4.211-26.7438 1.81-16.1728-3.685-36.4206-8.298-61.8958 14.46h511.971c-25.476-22.758-45.723-18.145-61.896-14.46-10.539 2.401-19.347 4.408-26.744-1.81-4.701-3.952-4.303-9.876-3.882-16.142.486-7.228 1.003-14.9103-6.242-20.5447-9.503-7.3918-17.261-3.5939-23.344-.616-6.351 3.1088-10.876 5.3241-13.657-7.0172-8.295-36.8152-19.35-49.0944-43.198-31.4166-18.527 13.7343-28.633 0-32.197-13.7107-13.445-51.7184-76.207-51.7184-89.651 0z" fill="url(#a)"/><path d="m215.16 40.7888c-3.564 13.7107-13.67 27.445-32.198 13.7107-23.847-17.6778-34.903-5.3986-43.198 31.4166-2.78 12.3413-7.305 10.126-13.656 7.0172-6.083-2.9779-13.841-6.7758-23.345.616-7.2441 5.6344-6.7277 13.3167-6.2419 20.5447.4212 6.266.8195 12.19-3.8815 16.142-7.3967 6.218-16.2051 4.211-26.7438 1.81-16.1728-3.685-36.4206-8.298-61.8958 14.46h511.971c-25.476-22.758-45.723-18.145-61.896-14.46-10.539 2.401-19.347 4.408-26.744-1.81-4.701-3.952-4.303-9.876-3.882-16.142.486-7.228 1.003-14.9103-6.242-20.5447-9.503-7.3918-17.261-3.5939-23.344-.616-6.351 3.1088-10.876 5.3241-13.657-7.0172-8.295-36.8152-19.35-49.0944-43.198-31.4166-18.527 13.7343-28.633 0-32.197-13.7107-13.445-51.7184-76.207-51.7184-89.651 0z" fill="url(#b)"/><path d="m215.16 40.7888c-3.564 13.7107-13.67 27.445-32.198 13.7107-23.847-17.6778-34.903-5.3986-43.198 31.4166-2.78 12.3413-7.305 10.126-13.656 7.0172-6.083-2.9779-13.841-6.7758-23.345.616-7.2441 5.6344-6.7277 13.3167-6.2419 20.5447.4212 6.266.8195 12.19-3.8815 16.142-7.3967 6.218-16.2051 4.211-26.7438 1.81-16.1728-3.685-36.4206-8.298-61.8958 14.46h511.971c-25.476-22.758-45.723-18.145-61.896-14.46-10.539 2.401-19.347 4.408-26.744-1.81-4.701-3.952-4.303-9.876-3.882-16.142.486-7.228 1.003-14.9103-6.242-20.5447-9.503-7.3918-17.261-3.5939-23.344-.616-6.351 3.1088-10.876 5.3241-13.657-7.0172-8.295-36.8152-19.35-49.0944-43.198-31.4166-18.527 13.7343-28.633 0-32.197-13.7107-13.445-51.7184-76.207-51.7184-89.651 0z" stroke="#2f2f2f" stroke-linecap="round" stroke-width="3"/><path d="m260.78 57.2603v-.0411c-.263 0-.527.0034-.793.0103-.265-.0069-.53-.0103-.793-.0103v.0411c-9.547.4957-20.563 5.5789-32.933 20.5891-.312.3777-.626.7671-.946 1.1632-4.635 5.7379-10.403 12.8771-23.632 6.0852-18.204-9.3456-27.938 1.1264-32.975 16.6082-2.27 6.979-5.868 6.731-11.083 6.371-4.332-.298-9.778-.673-16.506 2.95-3.684 1.985-6.072 5.446-8.576 9.076-4.514 6.542-9.408 13.635-22.957 13.635h300.802c-13.548 0-18.442-7.093-22.956-13.635-2.505-3.63-4.892-7.091-8.577-9.076-6.727-3.623-12.174-3.248-16.505-2.95-5.215.36-8.813.608-11.083-6.371-5.037-15.4818-14.772-25.9538-32.975-16.6082-13.23 6.7919-18.997-.3473-23.632-6.0852-.32-.3961-.635-.7855-.946-1.1632-12.37-15.0102-23.387-20.0934-32.934-20.5891z" fill="#fff8ec"/><path d="m260.78 57.2603v-.0411c-.263 0-.527.0034-.793.0103-.265-.0069-.53-.0103-.793-.0103v.0411c-9.547.4957-20.563 5.5789-32.933 20.5891-.312.3777-.626.7671-.946 1.1632-4.635 5.7379-10.403 12.8771-23.632 6.0852-18.204-9.3456-27.938 1.1264-32.975 16.6082-2.27 6.979-5.868 6.731-11.083 6.371-4.332-.298-9.778-.673-16.506 2.95-3.684 1.985-6.072 5.446-8.576 9.076-4.514 6.542-9.408 13.635-22.957 13.635h300.802c-13.548 0-18.442-7.093-22.956-13.635-2.505-3.63-4.892-7.091-8.577-9.076-6.727-3.623-12.174-3.248-16.505-2.95-5.215.36-8.813.608-11.083-6.371-5.037-15.4818-14.772-25.9538-32.975-16.6082-13.23 6.7919-18.997-.3473-23.632-6.0852-.32-.3961-.635-.7855-.946-1.1632-12.37-15.0102-23.387-20.0934-32.934-20.5891z" fill="#f4e7d2"/><path d="m260.78 57.2603v-.0411c-.263 0-.527.0034-.793.0103-.265-.0069-.53-.0103-.793-.0103v.0411c-9.547.4957-20.563 5.5789-32.933 20.5891-.312.3777-.626.7671-.946 1.1632-4.635 5.7379-10.403 12.8771-23.632 6.0852-18.204-9.3456-27.938 1.1264-32.975 16.6082-2.27 6.979-5.868 6.731-11.083 6.371-4.332-.298-9.778-.673-16.506 2.95-3.684 1.985-6.072 5.446-8.576 9.076-4.514 6.542-9.408 13.635-22.957 13.635h300.802c-13.548 0-18.442-7.093-22.956-13.635-2.505-3.63-4.892-7.091-8.577-9.076-6.727-3.623-12.174-3.248-16.505-2.95-5.215.36-8.813.608-11.083-6.371-5.037-15.4818-14.772-25.9538-32.975-16.6082-13.23 6.7919-18.997-.3473-23.632-6.0852-.32-.3961-.635-.7855-.946-1.1632-12.37-15.0102-23.387-20.0934-32.934-20.5891z" stroke="#2f2f2f" stroke-linecap="round" stroke-linejoin="round" stroke-width="3"/><path d="m188.411 120.1c8.598 0 12.948-6.062 17.334-12.176 5.676-7.912 11.415-15.9104 26.504-10.9765 6.732 3.4565 9.301 0 11.699-3.4503 3.364-4.8407 11.289-10.6207 16.035-9.8974 4.746-.7233 12.671 5.0567 16.036 9.8974 2.398 3.4503 4.967 6.9068 11.699 3.4503 15.089-4.9339 20.827 3.0645 26.503 10.9765 4.387 6.114 8.736 12.176 17.335 12.176z" fill="url(#c)"/><path d="m188.411 120.1c8.598 0 12.948-6.062 17.334-12.176 5.676-7.912 11.415-15.9104 26.504-10.9765 6.732 3.4565 9.301 0 11.699-3.4503 3.364-4.8407 11.289-10.6207 16.035-9.8974 4.746-.7233 12.671 5.0567 16.036 9.8974 2.398 3.4503 4.967 6.9068 11.699 3.4503 15.089-4.9339 20.827 3.0645 26.503 10.9765 4.387 6.114 8.736 12.176 17.335 12.176z" fill="url(#d)"/><path d="m188.411 120.1c8.598 0 12.948-6.062 17.334-12.176 5.676-7.912 11.415-15.9104 26.504-10.9765 6.732 3.4565 9.301 0 11.699-3.4503 3.364-4.8407 11.289-10.6207 16.035-9.8974 4.746-.7233 12.671 5.0567 16.036 9.8974 2.398 3.4503 4.967 6.9068 11.699 3.4503 15.089-4.9339 20.827 3.0645 26.503 10.9765 4.387 6.114 8.736 12.176 17.335 12.176z" stroke="#2f2f2f" stroke-linecap="round" stroke-linejoin="round" stroke-width="3"/></svg>