<svg fill="none" height="132" viewBox="0 0 132 132" width="132" xmlns="http://www.w3.org/2000/svg" xmlns:xlink="http://www.w3.org/1999/xlink"><mask id="a" height="93" maskUnits="userSpaceOnUse" width="94" x="23" y="15"><path d="m42.2576 17.0169c-6.8435-1.6504-13.7292 2.5593-15.3797 9.4028-5.3483 22.1762 4.2291 43.8484 18.8976 58.4607 14.7012 14.6448 36.5214 24.2846 59.0055 20.4846 6.942-1.174 11.618-7.7517 10.445-14.6929-1.174-6.9413-7.752-11.6173-14.693-10.4442-12.6406 2.1364-26.541-3.2227-36.7658-13.4084-10.2574-10.218-14.8115-23.208-12.1068-34.4229 1.6505-6.8435-2.5593-13.7292-9.4028-15.3797z" style="fill-rule:evenodd;clip-rule:evenodd;fill:#dc4f7e;stroke:#2f2f2f;stroke-width:3;stroke-linecap:round"/></mask><g stroke-linecap="round"><g stroke="#2f2f2f"><path clip-rule="evenodd" d="m121.997 82.8722c-1.124-1.124-2.946-1.124-4.07 0l-6.217 6.2166c-1.562 1.5621-1.562 4.0947 0 5.6568l6.708 6.7074c1.124 1.124 2.946 1.124 4.07 0s1.124-2.9463 0-4.0703c-.955-.9548-.278-2.5872 1.072-2.5872h.459c1.59 0 2.879-1.2887 2.879-2.8783s-1.289-2.8782-2.879-2.8782h-1.153c-1.094 0-1.642-1.3227-.869-2.0963 1.124-1.124 1.124-2.9464 0-4.0705z" fill="#dc4f7e" fill-rule="evenodd" stroke-width="3"/><path clip-rule="evenodd" d="m48.8345 9.70856c1.1241 1.12404 1.1241 2.94644 0 4.07044l-5.5094 5.5094c-1.9526 1.9527-5.1184 1.9527-7.0711 0l-6.0004-6.0004c-1.124-1.124-1.124-2.9464 0-4.07044 1.1241-1.12402 2.9465-1.12402 4.0705 0 .9547.95474 2.5872.27856 2.5872-1.07167v-.45955c0-1.58961 1.2887-2.87825 2.8783-2.87825s2.8782 1.28864 2.8782 2.87825v1.15393c0 1.09399 1.3227 1.64183 2.0963.86829 1.124-1.12402 2.9464-1.12403 4.0704 0z" fill="#dc4f7e" fill-rule="evenodd" stroke-width="3"/><path clip-rule="evenodd" d="m42.2576 17.0164c-6.8435-1.6504-13.7292 2.5594-15.3797 9.4029-5.3483 22.1761 4.2291 43.8483 18.8976 58.4607 14.7012 14.6447 36.5214 24.284 59.0055 20.484 6.942-1.173 11.618-7.7511 10.445-14.6924-1.174-6.9413-7.752-11.6173-14.693-10.4441-12.6406 2.1364-26.541-3.2228-36.7658-13.4084-10.2574-10.2181-14.8115-23.2081-12.1068-34.423 1.6505-6.8435-2.5593-13.7292-9.4028-15.3797z" fill="#dc4f7e" fill-rule="evenodd" stroke-width="3"/><g mask="url(#a)" stroke-width="5"><path d="m93.2378 78.5676c5.2477 5.2478 4.7361 13.1831 1.7913 17.6638" opacity=".4"/><path d="m77.5336 73.0836c3.818 6.3641 1.3966 13.9382-2.5472 17.5707" opacity=".4"/><path d="m64.3388 63.2399c1.9392 7.1636-2.4546 13.7912-7.2391 16.2115" opacity=".4"/><path d="m55.8163 51.3641c-1.8542 7.186-8.9493 10.7765-14.3047 10.5162" opacity=".4"/><path d="m51.9122 36.5774c-5.0235 5.4628-12.9733 5.2838-17.5734 2.5291" opacity=".4"/></g><path clip-rule="evenodd" d="m42.2576 17.0164c-6.8435-1.6504-13.7292 2.5594-15.3797 9.4029-5.3483 22.1761 4.2291 43.8483 18.8976 58.4607 14.7012 14.6447 36.5214 24.284 59.0055 20.484 6.942-1.173 11.618-7.7511 10.445-14.6924-1.174-6.9413-7.752-11.6173-14.693-10.4441-12.6406 2.1364-26.541-3.2228-36.7658-13.4084-10.2574-10.2181-14.8115-23.2081-12.1068-34.423 1.6505-6.8435-2.5593-13.7292-9.4028-15.3797z" fill-rule="evenodd" stroke-width="3"/></g><path d="m38.0337 21.2664c-4.1212 1.091-9.3334 8.485-7.8786 19.6376" opacity=".23" stroke="#fff" stroke-width="4"/></g></svg>