<svg fill="none" height="451" viewBox="0 0 380 451" width="380" xmlns="http://www.w3.org/2000/svg"><path d="m217.63 282.459c.233-.706.993-1.09 1.699-.857l6.455 2.125c23.179 7.63 35.784 32.605 28.154 55.783l-2.546 7.734-7.733-2.546c-23.179-7.63-35.783-32.605-28.154-55.784z" fill="#a2b53a"/><path d="m251.392 347.244 2.546-7.734c7.63-23.178-4.975-48.153-28.154-55.783l-6.455-2.125c-.706-.233-1.466.151-1.699.857l-2.125 6.455c-7.629 23.179 4.975 48.154 28.154 55.784zm0 0-19.379-36.174" stroke="#2f2f2f" stroke-linecap="round" stroke-width="3"/><path d="m292.391 312.696-.545-1.398-1.398.545c-23.103 9.005-37.466 21.663-48.239 38.98-10.606 17.05-17.697 38.592-26.434 65.134l-.05.15-.055.167-.469 1.425 1.425.469 3.08 1.014 1.425.469.469-1.425c8.862-26.919 15.741-47.758 25.91-64.105 10.045-16.148 23.332-27.936 45.205-36.461l1.398-.545-.545-1.398z" fill="#a2b53a" stroke="#2f2f2f" stroke-width="3"/><path d="m303.829 262.601-1.811 26.966 6.522 2.147 6.523 2.147 14.56-22.769c4.932-7.712 1.269-18.004-7.426-20.866-8.694-2.862-17.755 3.242-18.368 12.375z" fill="#fff8ec"/><path d="m308.54 291.714 6.523 2.147 14.56-22.769c4.932-7.712 1.269-18.004-7.426-20.866-8.694-2.862-17.755 3.242-18.368 12.375l-1.811 26.966zm0 0 6.473-19.662" stroke="#2f2f2f" stroke-linecap="round" stroke-width="3"/><path d="m344.529 300.062-27.402-2.035-2.084 6.33-2.084 6.331 23.253 14.639c7.54 4.746 17.534 1.15 20.319-7.313 2.786-8.463-3.117-17.292-12.002-17.952z" fill="#fff8ec"/><path d="m315.043 304.357-2.084 6.331 23.253 14.639c7.54 4.746 17.534 1.15 20.319-7.313 2.786-8.463-3.117-17.292-12.002-17.952l-27.402-2.035zm0 0 19.662 6.473" stroke="#2f2f2f" stroke-linecap="round" stroke-width="3"/><path d="m281.022 331.689 14.835-23.391 6.523 2.147 6.522 2.147-1.96 27.629c-.649 9.145-9.728 15.237-18.436 12.371-8.708-2.867-12.394-13.161-7.484-20.903z" fill="#fff8ec"/><path d="m302.38 310.445 6.522 2.147-1.96 27.629c-.649 9.145-9.728 15.237-18.436 12.371-8.708-2.867-12.394-13.161-7.484-20.903l14.835-23.391zm0 0-6.576 19.974" stroke="#2f2f2f" stroke-linecap="round" stroke-width="3"/><path d="m274.411 276.987 23.254 14.639-2.084 6.33-2.084 6.331-27.402-2.036c-8.885-.66-14.788-9.489-12.002-17.952 2.785-8.463 12.779-12.059 20.318-7.312z" fill="#fff8ec"/><path d="m295.581 297.956-2.084 6.331-27.402-2.036c-8.885-.66-14.788-9.489-12.002-17.952 2.785-8.463 12.779-12.059 20.318-7.312l23.254 14.639zm0 0-19.662-6.472" stroke="#2f2f2f" stroke-linecap="round" stroke-width="3"/><path d="m332.196 272.854-20.971 18.056 3.016 5.975 3.015 5.975 26.982-6.146c8.726-1.987 13.267-11.64 9.234-19.629-4.032-7.989-14.494-10.07-21.276-4.231z" fill="#fff8ec"/><path d="m314.241 296.885 3.015 5.975 26.982-6.146c8.726-1.987 13.267-11.64 9.234-19.629-4.032-7.989-14.494-10.07-21.276-4.231l-20.971 18.056zm0 0 18.593-9.384" stroke="#2f2f2f" stroke-linecap="round" stroke-width="3"/><path d="m333.728 328.132-18.056-20.971-5.975 3.016-5.976 3.016 6.146 26.981c1.988 8.726 11.64 13.267 19.63 9.235 7.989-4.032 10.069-14.495 4.231-21.277z" fill="#fff8ec"/><path d="m309.697 310.177-5.976 3.016 6.146 26.981c1.988 8.726 11.64 13.267 19.63 9.235 7.989-4.032 10.069-14.495 4.231-21.277l-18.056-20.971zm0 0 9.384 18.593" stroke="#2f2f2f" stroke-linecap="round" stroke-width="3"/><path d="m266.508 306.003 26.982-6.146 3.016 5.975 3.015 5.975-20.971 18.056c-6.782 5.839-17.244 3.758-21.276-4.231s.508-17.642 9.234-19.629z" fill="#fff8ec"/><path d="m296.506 305.832 3.015 5.975-20.971 18.056c-6.782 5.839-17.244 3.758-21.276-4.231-4.032-7.989.508-17.642 9.234-19.629l26.982-6.146zm0 0-18.594 9.384" stroke="#2f2f2f" stroke-linecap="round" stroke-width="3"/><path d="m300.575 262.445 6.146 26.982-5.975 3.015-5.975 3.016-18.056-20.971c-5.839-6.782-3.758-17.244 4.231-21.276 7.989-4.033 17.642.508 19.629 9.234z" fill="#fff8ec"/><path d="m300.746 292.442-5.975 3.016-18.056-20.971c-5.839-6.782-3.758-17.244 4.231-21.276 7.989-4.033 17.642.508 19.629 9.234l6.146 26.982zm0 0-9.384-18.593" stroke="#2f2f2f" stroke-linecap="round" stroke-width="3"/><circle cx="305.342" cy="301.643" fill="#ffb944" r="20.7856" stroke="#2f2f2f" stroke-width="3" transform="matrix(.94986133 .31267148 -.31267148 .94986133 109.624603 -80.347755)"/><path d="m258.504 137.391c0-.743-.602-1.345-1.345-1.345h-10.415c-35.247 0-63.821 28.573-63.821 63.821v11.759h11.76c35.247 0 63.821-28.573 63.821-63.82z" fill="#a2b53a"/><path d="m182.923 211.626v-11.759c0-35.248 28.574-63.821 63.821-63.821h10.415c.743 0 1.345.602 1.345 1.345v10.415c0 35.247-28.574 63.82-63.821 63.82zm0 0 42.926-40.879" stroke="#2f2f2f" stroke-linecap="round" stroke-width="3"/><path d="m139.551 228.397c-.39-.633-.193-1.461.44-1.851l4.879-3.004c18.057-11.119 41.708-5.494 52.827 12.562l3.004 4.879c.39.633.193 1.462-.44 1.851l-4.879 3.005c-18.057 11.118-41.708 5.494-52.827-12.563z" fill="#a2b53a" stroke="#2f2f2f" stroke-width="3"/><path d="m127.288 131.946.955-1.157 1.157.955c44.259 36.502 66.592 74.619 77.717 120.379 10.998 45.242 10.998 97.897 10.998 163.195v.16.409 1.655l-1.647-.162c-.998-.099-1.828-.197-2.536-.283l-.201-.024c-.622-.075-1.131-.137-1.59-.18-.983-.091-1.669-.09-2.508.061l-1.766.317v-1.793c0-65.964-.341-116.976-11.01-160.861-10.574-43.496-31.638-79.647-74.175-114.728l-1.157-.954.954-1.158z" fill="#a2b53a" stroke="#2f2f2f" stroke-width="3"/><path d="m139.776 43.8247-13.178 51.4069h-13.483-13.4832l-13.1781-51.4069c-4.4632-17.4108 8.6876-34.3579 26.6613-34.3579 17.974 0 31.124 16.9472 26.661 34.3579z" fill="#fff8ec"/><path d="m113.115 95.2316h-13.4832l-13.1781-51.4069c-4.4632-17.4108 8.6876-34.3579 26.6613-34.3579 17.974 0 31.124 16.9472 26.661 34.3579l-13.178 51.4069zm0 0v-40.6464" stroke="#2f2f2f" stroke-linecap="round" stroke-width="3"/><path d="m42.8739 88.7065 52.3577 13.0275v13.086 13.087l-52.3577 13.027c-16.9767 4.224-33.4071-8.62-33.4071-26.114 0-17.4941 16.4304-30.3375 33.4071-26.1135z" fill="#fff8ec"/><path d="m95.2316 114.82v13.087l-52.3577 13.027c-16.9767 4.224-33.4071-8.62-33.4071-26.114 0-17.4941 16.4304-30.3375 33.4071-26.1135l52.3577 13.0275zm0 0h-40.6464" stroke="#2f2f2f" stroke-linecap="round" stroke-width="3"/><path d="m139.905 186.687-13.307-52.735h-13.483-13.4832l-13.3074 52.735c-4.4043 17.454 8.7899 34.391 26.7906 34.391 18.001 0 31.195-16.937 26.79-34.391z" fill="#fff8ec"/><path d="m113.115 133.952h-13.4832l-13.3074 52.735c-4.4043 17.454 8.7899 34.391 26.7906 34.391 18.001 0 31.195-16.937 26.79-34.391l-13.307-52.735zm0 0v41.292" stroke="#2f2f2f" stroke-linecap="round" stroke-width="3"/><path d="m185.818 88.707-52.358 13.027v13.087 13.086l52.358 13.027c16.976 4.224 33.407-8.619 33.407-26.113 0-17.4947-16.431-30.338-33.407-26.114z" fill="#fff8ec"/><path d="m133.46 114.821v13.086l52.358 13.027c16.976 4.224 33.407-8.619 33.407-26.113 0-17.4947-16.431-30.338-33.407-26.114l-52.358 13.027zm0 0h40.646" stroke="#2f2f2f" stroke-linecap="round" stroke-width="3"/><path d="m80.5804 45.5207 28.0286 46.5502-9.2936 9.2931-9.2932 9.293-46.5502-28.0279c-15.0539-9.064-17.597-29.8548-5.1717-42.2801s33.216-9.8822 42.2801 5.1717z" fill="#fff8ec"/><path d="m99.3154 101.364-9.2932 9.293-46.5502-28.0279c-15.0539-9.064-17.597-29.8548-5.1717-42.2801 12.4253-12.4253 33.216-9.8822 42.2801 5.1717l28.0286 46.5502zm0 0-28.9168-28.9167" stroke="#2f2f2f" stroke-linecap="round" stroke-width="3"/><path d="m43.7942 147.689 46.5502-28.028 9.2932 9.293 9.2934 9.293-28.0284 46.55c-9.0641 15.054-29.8548 17.597-42.2801 5.172-12.4254-12.425-9.8822-33.216 5.1717-42.28z" fill="#fff8ec"/><path d="m99.6376 128.954 9.2934 9.293-28.0284 46.55c-9.0641 15.054-29.8548 17.597-42.2801 5.172-12.4254-12.425-9.8822-33.216 5.1717-42.28l46.5502-28.028zm0 0-28.9168 28.917" stroke="#2f2f2f" stroke-linecap="round" stroke-width="3"/><path d="m182.749 147.689-46.55-28.028-9.294 9.293-9.293 9.293 28.028 46.55c9.064 15.054 29.855 17.597 42.281 5.172 12.425-12.425 9.882-33.216-5.172-42.28z" fill="#fff8ec"/><path d="m126.905 128.954-9.293 9.293 28.028 46.55c9.064 15.054 29.855 17.597 42.281 5.172 12.425-12.425 9.882-33.216-5.172-42.28l-46.55-28.028zm0 0 28.917 28.917" stroke="#2f2f2f" stroke-linecap="round" stroke-width="3"/><path d="m145.955 45.5207-28.029 46.5502 9.294 9.2931 9.293 9.293 46.55-28.0279c15.054-9.064 17.597-29.8548 5.172-42.2801-12.426-12.4253-33.216-9.8822-42.28 5.1717z" fill="#fff8ec"/><g stroke="#2f2f2f" stroke-width="3"><path d="m127.22 101.364 9.293 9.293 46.55-28.0279c15.054-9.064 17.597-29.8548 5.172-42.2801-12.426-12.4253-33.216-9.8822-42.28 5.1717l-28.029 46.5502zm0 0 28.916-28.9166" stroke-linecap="round"/><circle fill="#ffb944" r="40.8135" transform="matrix(-1 0 0 1 112.033 116.397)"/><path d="m91.3945 126.855c6.6992 13.787 29.9235 18.304 39.3015 0" stroke-linecap="round"/><path d="m127.746 117.789c-.838 8.728 6.4 12.621 13.538 9.532" stroke-linecap="round"/><ellipse fill="#fff8ec" rx="8.8485" ry="10.569" transform="matrix(-1 .00000001 .00000001 1 90.8654 108.645)"/><ellipse fill="#fff8ec" rx="8.8485" ry="10.569" transform="matrix(-1 .00000001 .00000001 1 114.783 108.645)"/></g><path d="m86.7436 118.724c3.871-1.6 6.5875-5.349 6.5875-9.718 0-4.592-2.9996-8.498-7.1864-9.9455-5.0899 7.7935-4.7653 12.1035.5989 19.6635z" fill="#2f2f2f"/><path d="m110.662 118.728c3.871-1.6 6.587-5.349 6.587-9.718 0-4.592-3-8.498-7.186-9.9455-5.09 7.7935-4.766 12.1035.599 19.6635z" fill="#2f2f2f"/></svg>