<svg width="2426" height="460" viewBox="0 0 2426 460" fill="none" xmlns="http://www.w3.org/2000/svg">
<mask id="path-1-inside-1_3025_10" fill="white">
<path d="M184.305 459.998C23.8047 459.998 11.8047 371.498 14.0547 315.998C18.5547 203.498 14.0547 66.998 0.554689 0.24802C53.0547 15.248 98.0547 15.248 150.555 0.24802C139.305 56.498 119.805 331.748 184.305 331.748C248.805 331.748 229.305 56.498 218.055 0.24802C270.555 15.248 315.555 15.248 368.055 0.24802C354.555 66.998 350.055 203.498 354.555 315.998C356.805 371.498 344.805 459.998 184.305 459.998ZM531.478 453.976C489.324 441.932 453.191 441.932 411.036 453.976C427.296 374.484 427.296 170.335 411.036 90.8438C453.191 102.888 489.324 102.888 531.478 90.8438C535.694 161.302 574.837 244.407 595.915 244.407C620.003 244.407 597.721 138.418 588.086 90.8438C630.24 102.888 665.771 102.888 707.925 90.8438C691.666 170.335 691.666 374.484 707.925 453.976C665.771 442.534 630.24 442.534 588.086 453.976C580.859 393.755 544.727 320.286 529.069 320.286C509.196 320.286 527.263 434.103 531.478 453.976ZM1039.85 453.976C997.696 441.33 967.586 441.33 925.431 453.976C932.658 417.241 911.58 351.6 848.951 343.772C850.757 388.335 854.37 428.081 859.79 453.976C817.636 441.932 787.525 441.932 745.371 453.976C762.232 373.882 762.232 178.164 745.371 96.2637C809.205 109.512 859.188 90.8438 903.149 90.8438C1033.83 90.8438 1057.92 253.44 967.586 313.059C1027.81 352.805 1033.23 420.854 1039.85 453.976ZM908.569 203.457C908.569 154.076 859.188 154.678 859.188 206.468C859.188 260.667 908.569 258.86 908.569 203.457ZM1214.66 453.976C1172.5 441.932 1118.3 441.932 1076.15 453.976C1092.41 374.484 1166.48 193.219 1156.24 90.8438C1190.57 104.092 1308 101.684 1336.3 90.8438C1326.06 193.219 1400.14 374.484 1416.4 453.976C1374.24 441.932 1320.04 441.932 1277.89 453.976C1283.91 397.971 1280.9 363.645 1245.97 363.645C1214.05 363.645 1209.24 397.971 1214.66 453.976ZM1245.97 207.07C1219.47 207.07 1208.03 278.733 1245.97 278.733C1283.91 278.733 1272.47 207.07 1245.97 207.07ZM1692.97 453.976C1656.84 443.738 1517.13 444.341 1481 453.976C1476.18 346.783 1443.06 158.893 1407.53 90.8438C1449.68 102.888 1499.06 102.888 1541.22 90.8438C1540.01 156.485 1562.3 341.965 1588.19 341.965C1609.27 341.965 1630.95 156.485 1629.74 90.8438C1671.9 102.888 1718.27 102.888 1760.42 90.8438C1724.89 158.893 1697.79 346.783 1692.97 453.976ZM1796.54 453.976C1812.8 374.484 1812.8 170.335 1796.54 90.8438C1880.25 102.888 1994.07 99.877 2059.1 90.8438C2045.25 117.341 2044.05 158.893 2059.1 189.004C2025.98 177.562 1990.45 176.96 1979.61 176.96C1902.53 176.96 1906.75 234.772 1960.34 234.772C1982.02 234.772 2004.3 225.739 2019.36 214.899C2004.3 246.816 2004.3 298.004 2019.36 329.921C2004.3 319.081 1982.02 310.048 1960.34 310.048C1906.75 310.048 1902.53 367.86 1973.59 367.86C1983.23 367.86 2025.98 367.258 2059.1 355.816C2044.05 385.926 2045.25 427.479 2059.1 453.976C1994.07 444.943 1880.25 441.932 1796.54 453.976ZM2098.69 0.24802C2156.44 15.248 2193.94 13.748 2248.69 0.24802C2235.94 92.498 2235.94 234.248 2235.94 288.248C2235.94 344.498 2262.19 362.498 2425.69 330.248C2406.94 367.748 2408.44 419.498 2425.69 452.498C2344.69 441.248 2202.94 437.498 2098.69 452.498C2118.94 353.498 2118.94 99.248 2098.69 0.24802Z"/>
</mask>
<path d="M184.305 459.998C23.8047 459.998 11.8047 371.498 14.0547 315.998C18.5547 203.498 14.0547 66.998 0.554689 0.24802C53.0547 15.248 98.0547 15.248 150.555 0.24802C139.305 56.498 119.805 331.748 184.305 331.748C248.805 331.748 229.305 56.498 218.055 0.24802C270.555 15.248 315.555 15.248 368.055 0.24802C354.555 66.998 350.055 203.498 354.555 315.998C356.805 371.498 344.805 459.998 184.305 459.998ZM531.478 453.976C489.324 441.932 453.191 441.932 411.036 453.976C427.296 374.484 427.296 170.335 411.036 90.8438C453.191 102.888 489.324 102.888 531.478 90.8438C535.694 161.302 574.837 244.407 595.915 244.407C620.003 244.407 597.721 138.418 588.086 90.8438C630.24 102.888 665.771 102.888 707.925 90.8438C691.666 170.335 691.666 374.484 707.925 453.976C665.771 442.534 630.24 442.534 588.086 453.976C580.859 393.755 544.727 320.286 529.069 320.286C509.196 320.286 527.263 434.103 531.478 453.976ZM1039.85 453.976C997.696 441.33 967.586 441.33 925.431 453.976C932.658 417.241 911.58 351.6 848.951 343.772C850.757 388.335 854.37 428.081 859.79 453.976C817.636 441.932 787.525 441.932 745.371 453.976C762.232 373.882 762.232 178.164 745.371 96.2637C809.205 109.512 859.188 90.8438 903.149 90.8438C1033.83 90.8438 1057.92 253.44 967.586 313.059C1027.81 352.805 1033.23 420.854 1039.85 453.976ZM908.569 203.457C908.569 154.076 859.188 154.678 859.188 206.468C859.188 260.667 908.569 258.86 908.569 203.457ZM1214.66 453.976C1172.5 441.932 1118.3 441.932 1076.15 453.976C1092.41 374.484 1166.48 193.219 1156.24 90.8438C1190.57 104.092 1308 101.684 1336.3 90.8438C1326.06 193.219 1400.14 374.484 1416.4 453.976C1374.24 441.932 1320.04 441.932 1277.89 453.976C1283.91 397.971 1280.9 363.645 1245.97 363.645C1214.05 363.645 1209.24 397.971 1214.66 453.976ZM1245.97 207.07C1219.47 207.07 1208.03 278.733 1245.97 278.733C1283.91 278.733 1272.47 207.07 1245.97 207.07ZM1692.97 453.976C1656.84 443.738 1517.13 444.341 1481 453.976C1476.18 346.783 1443.06 158.893 1407.53 90.8438C1449.68 102.888 1499.06 102.888 1541.22 90.8438C1540.01 156.485 1562.3 341.965 1588.19 341.965C1609.27 341.965 1630.95 156.485 1629.74 90.8438C1671.9 102.888 1718.27 102.888 1760.42 90.8438C1724.89 158.893 1697.79 346.783 1692.97 453.976ZM1796.54 453.976C1812.8 374.484 1812.8 170.335 1796.54 90.8438C1880.25 102.888 1994.07 99.877 2059.1 90.8438C2045.25 117.341 2044.05 158.893 2059.1 189.004C2025.98 177.562 1990.45 176.96 1979.61 176.96C1902.53 176.96 1906.75 234.772 1960.34 234.772C1982.02 234.772 2004.3 225.739 2019.36 214.899C2004.3 246.816 2004.3 298.004 2019.36 329.921C2004.3 319.081 1982.02 310.048 1960.34 310.048C1906.75 310.048 1902.53 367.86 1973.59 367.86C1983.23 367.86 2025.98 367.258 2059.1 355.816C2044.05 385.926 2045.25 427.479 2059.1 453.976C1994.07 444.943 1880.25 441.932 1796.54 453.976ZM2098.69 0.24802C2156.44 15.248 2193.94 13.748 2248.69 0.24802C2235.94 92.498 2235.94 234.248 2235.94 288.248C2235.94 344.498 2262.19 362.498 2425.69 330.248C2406.94 367.748 2408.44 419.498 2425.69 452.498C2344.69 441.248 2202.94 437.498 2098.69 452.498C2118.94 353.498 2118.94 99.248 2098.69 0.24802Z" fill="#FFF9ED"/>
<path d="M14.0547 315.998L22.0481 316.322L22.0483 316.318L14.0547 315.998ZM0.554689 0.24802L2.75246 -7.44417L-9.89377 -11.0574L-7.28655 1.83389L0.554689 0.24802ZM150.555 0.24802L158.399 1.81695L160.972 -11.0486L148.357 -7.44417L150.555 0.24802ZM218.055 0.24802L220.252 -7.44417L207.637 -11.0486L210.21 1.81695L218.055 0.24802ZM368.055 0.24802L375.896 1.83389L378.503 -11.0574L365.857 -7.44417L368.055 0.24802ZM354.555 315.998L346.561 316.318L346.561 316.322L354.555 315.998ZM184.305 459.998V451.998C105.439 451.998 65.1517 430.292 44.4446 403.875C23.4858 377.138 20.9426 343.592 22.0481 316.322L14.0547 315.998L6.06126 315.674C4.91679 343.904 7.24856 382.359 31.8523 413.746C56.7077 445.455 102.67 467.998 184.305 467.998V459.998ZM14.0547 315.998L22.0483 316.318C26.5538 203.68 22.0937 66.3901 8.39593 -1.33785L0.554689 0.24802L-7.28655 1.83389C6.01565 67.6059 10.5556 203.317 6.06108 315.678L14.0547 315.998ZM0.554689 0.24802L-1.64308 7.94021C52.2934 23.3506 98.816 23.3506 152.752 7.94021L150.555 0.24802L148.357 -7.44417C97.2934 7.1454 53.816 7.1454 2.75246 -7.44417L0.554689 0.24802ZM150.555 0.24802L142.71 -1.32091C136.938 27.5369 129.235 111.028 131.026 187.28C131.921 225.386 135.194 262.302 142.505 289.909C146.148 303.667 150.953 315.746 157.43 324.552C164.024 333.514 172.917 339.748 184.305 339.748V331.748V323.748C179.567 323.748 174.96 321.38 170.319 315.07C165.561 308.603 161.395 298.74 157.972 285.813C151.15 260.053 147.908 224.641 147.021 186.904C145.25 111.468 152.921 29.2092 158.399 1.81695L150.555 0.24802ZM184.305 331.748V339.748C195.692 339.748 204.585 333.514 211.179 324.552C217.657 315.746 222.461 303.667 226.105 289.909C233.415 262.302 236.689 225.386 237.584 187.28C239.375 111.028 231.671 27.5369 225.899 -1.32091L218.055 0.24802L210.21 1.81695C215.688 29.2092 223.36 111.468 221.588 186.904C220.702 224.641 217.46 260.053 210.638 285.813C207.215 298.74 203.048 308.603 198.291 315.07C193.649 321.38 189.042 323.748 184.305 323.748V331.748ZM218.055 0.24802L215.857 7.94021C269.793 23.3506 316.316 23.3506 370.252 7.94021L368.055 0.24802L365.857 -7.44417C314.793 7.1454 271.316 7.1454 220.252 -7.44417L218.055 0.24802ZM368.055 0.24802L360.213 -1.33785C346.516 66.3901 342.056 203.68 346.561 316.318L354.555 315.998L362.548 315.678C358.054 203.317 362.594 67.6059 375.896 1.83389L368.055 0.24802ZM354.555 315.998L346.561 316.322C347.667 343.592 345.124 377.138 324.165 403.875C303.458 430.292 263.17 451.998 184.305 451.998V459.998V467.998C265.939 467.998 311.902 445.455 336.757 413.746C361.361 382.359 363.693 343.904 362.548 315.674L354.555 315.998ZM531.478 453.976L529.28 461.668L542.063 465.32L539.304 452.316L531.478 453.976ZM411.036 453.976L403.199 452.373L400.556 465.29L413.234 461.668L411.036 453.976ZM411.036 90.8438L413.234 83.1517L400.556 79.5295L403.199 92.447L411.036 90.8438ZM531.478 90.8438L539.464 90.3661L538.868 80.4122L529.28 83.1517L531.478 90.8438ZM588.086 90.8438L590.284 83.1517L577.633 79.5373L580.245 92.4319L588.086 90.8438ZM707.925 90.8438L715.763 92.447L718.405 79.5295L705.728 83.1517L707.925 90.8438ZM707.925 453.976L705.83 461.697L718.366 465.099L715.763 452.373L707.925 453.976ZM588.086 453.976L580.143 454.929L581.246 464.122L590.181 461.697L588.086 453.976ZM531.478 453.976L533.676 446.284C490.085 433.829 452.43 433.829 408.839 446.284L411.036 453.976L413.234 461.668C453.952 450.034 488.562 450.034 529.28 461.668L531.478 453.976ZM411.036 453.976L418.874 455.579C427.176 414.991 431.231 343.396 431.231 272.41C431.231 201.424 427.176 129.829 418.874 89.2407L411.036 90.8438L403.199 92.447C411.156 131.351 415.231 201.575 415.231 272.41C415.231 343.244 411.156 413.469 403.199 452.373L411.036 453.976ZM411.036 90.8438L408.839 98.536C452.43 110.991 490.085 110.991 533.676 98.536L531.478 90.8438L529.28 83.1517C488.562 94.7854 453.952 94.7854 413.234 83.1517L411.036 90.8438ZM531.478 90.8438L523.492 91.3216C525.667 127.674 536.799 166.992 550.044 197.255C556.666 212.385 563.957 225.578 571.158 235.135C574.748 239.901 578.504 244.015 582.353 247.011C586.083 249.915 590.722 252.407 595.915 252.407V244.407V236.407C595.838 236.407 594.643 236.302 592.182 234.386C589.839 232.562 587.046 229.633 583.937 225.507C577.738 217.28 571.028 205.293 564.702 190.84C552.052 161.936 541.504 124.472 539.464 90.3661L531.478 90.8438ZM595.915 244.407V252.407C602.608 252.407 607.207 248.416 609.867 243.673C612.331 239.278 613.548 233.68 614.163 227.958C615.411 216.35 614.488 200.88 612.593 184.544C608.782 151.691 600.721 112.928 595.927 89.2558L588.086 90.8438L580.245 92.4319C585.086 116.334 592.984 154.353 596.7 186.388C598.569 202.496 599.303 216.497 598.254 226.248C597.722 231.206 596.802 234.26 595.912 235.847C595.508 236.566 595.282 236.673 595.401 236.592C595.466 236.547 595.575 236.489 595.711 236.448C595.844 236.407 595.924 236.407 595.915 236.407V244.407ZM588.086 90.8438L585.888 98.536C629.479 110.991 666.532 110.991 710.123 98.536L707.925 90.8438L705.728 83.1517C665.01 94.7854 631.002 94.7854 590.284 83.1517L588.086 90.8438ZM707.925 90.8438L700.088 89.2407C691.786 129.829 687.731 201.424 687.731 272.41C687.731 343.396 691.786 414.991 700.088 455.579L707.925 453.976L715.763 452.373C707.806 413.469 703.731 343.244 703.731 272.41C703.731 201.575 707.806 131.351 715.763 92.447L707.925 90.8438ZM707.925 453.976L710.021 446.255C666.494 434.441 629.517 434.441 585.99 446.255L588.086 453.976L590.181 461.697C630.964 450.627 665.047 450.627 705.83 461.697L707.925 453.976ZM588.086 453.976L596.029 453.023C592.294 421.896 581.159 387.662 569.009 361.209C562.933 347.979 556.469 336.402 550.346 327.996C547.3 323.814 544.153 320.159 540.987 317.466C538.064 314.98 533.937 312.286 529.069 312.286V320.286V328.286C528.116 328.286 528.543 327.887 530.622 329.654C532.456 331.215 534.757 333.77 537.413 337.416C542.695 344.668 548.652 355.221 554.469 367.887C566.106 393.223 576.652 425.835 580.143 454.929L588.086 453.976ZM529.069 320.286V312.286C521.816 312.286 517.853 317.758 515.983 321.967C514.052 326.314 513.047 331.869 512.504 337.629C511.401 349.336 511.979 364.757 513.268 380.338C515.855 411.612 521.474 445.369 523.652 455.636L531.478 453.976L539.304 452.316C537.267 442.71 531.745 409.622 529.213 379.019C527.943 363.661 527.467 349.385 528.434 339.131C528.926 333.91 529.737 330.418 530.605 328.463C531.535 326.37 531.355 328.286 529.069 328.286V320.286ZM1039.85 453.976L1037.55 461.639L1050.31 465.465L1047.7 452.407L1039.85 453.976ZM925.431 453.976L917.582 452.432L915.02 465.451L927.73 461.639L925.431 453.976ZM848.951 343.772L849.943 335.833L840.575 334.662L840.957 344.096L848.951 343.772ZM859.79 453.976L857.593 461.668L870.336 465.309L867.621 452.337L859.79 453.976ZM745.371 453.976L737.542 452.328L734.808 465.314L747.568 461.668L745.371 453.976ZM745.371 96.2637L746.996 88.4307L735.081 85.9577L737.535 97.877L745.371 96.2637ZM967.586 313.059L963.179 306.382L953.063 313.059L963.179 319.736L967.586 313.059ZM1039.85 453.976L1042.15 446.313C998.496 433.217 966.787 433.217 923.132 446.313L925.431 453.976L927.73 461.639C968.385 449.442 996.897 449.442 1037.55 461.639L1039.85 453.976ZM925.431 453.976L933.281 455.52C937.284 435.172 933.428 407.667 920.383 384.153C907.182 360.359 884.233 340.12 849.943 335.833L848.951 343.772L847.958 351.71C876.298 355.252 895.203 371.748 906.391 391.915C917.736 412.363 920.805 436.045 917.582 452.432L925.431 453.976ZM848.951 343.772L840.957 344.096C842.768 388.761 846.399 429.048 851.96 455.615L859.79 453.976L867.621 452.337C862.342 427.114 858.747 387.909 856.944 343.448L848.951 343.772ZM859.79 453.976L861.988 446.284C818.397 433.829 786.764 433.829 743.173 446.284L745.371 453.976L747.568 461.668C788.287 450.034 816.874 450.034 857.593 461.668L859.79 453.976ZM745.371 453.976L753.199 455.624C761.809 414.725 766.017 345.083 766.017 275.797C766.017 206.5 761.808 136.428 753.206 94.6505L745.371 96.2637L737.535 97.877C745.796 138 750.017 206.737 750.017 275.797C750.017 344.87 745.794 413.133 737.542 452.328L745.371 453.976ZM745.371 96.2637L743.745 104.097C776.844 110.966 806.253 109.527 832.634 106.469C859.528 103.351 881.767 98.8438 903.149 98.8438V90.8438V82.8438C880.57 82.8438 855.837 87.6714 830.791 90.5752C805.231 93.5387 777.732 94.8097 746.996 88.4307L745.371 96.2637ZM903.149 90.8438V98.8438C964.398 98.8438 1000.14 136.552 1010.45 181.388C1020.88 226.742 1005.15 278.683 963.179 306.382L967.586 313.059L971.993 319.736C1020.36 287.816 1037.74 228.65 1026.04 177.801C1014.23 126.434 972.58 82.8438 903.149 82.8438V90.8438ZM967.586 313.059L963.179 319.736C1020 357.239 1025.12 421.105 1032.01 455.545L1039.85 453.976L1047.7 452.407C1041.33 420.604 1035.61 348.37 971.993 306.382L967.586 313.059ZM908.569 203.457H916.569C916.569 176.745 902.626 158.332 883.586 159.029C864.861 159.714 851.188 178.708 851.188 206.468H859.188H867.188C867.188 182.438 878.206 175.236 884.171 175.018C889.822 174.811 900.569 180.788 900.569 203.457H908.569ZM859.188 206.468H851.188C851.188 221.138 854.519 232.945 860.359 241.254C866.264 249.655 874.87 254.512 884.269 254.054C893.571 253.6 901.868 248.03 907.559 239.286C913.241 230.554 916.569 218.426 916.569 203.457H908.569H900.569C900.569 216.19 897.725 225.063 894.148 230.559C890.58 236.042 886.532 237.924 883.489 238.073C880.543 238.216 876.803 236.825 873.449 232.053C870.03 227.189 867.188 218.898 867.188 206.468H859.188ZM1214.66 453.976L1212.46 461.668L1223.75 464.894L1222.62 453.205L1214.66 453.976ZM1076.15 453.976L1068.31 452.373L1065.67 465.29L1078.35 461.668L1076.15 453.976ZM1156.24 90.8438L1159.12 83.3805L1146.99 78.6967L1148.28 91.6399L1156.24 90.8438ZM1336.3 90.8438L1344.26 91.6399L1345.55 78.7343L1333.44 83.373L1336.3 90.8438ZM1416.4 453.976L1414.2 461.668L1426.88 465.29L1424.23 452.373L1416.4 453.976ZM1277.89 453.976L1269.93 453.121L1268.66 464.932L1280.09 461.668L1277.89 453.976ZM1214.66 453.976L1216.85 446.284C1173.26 433.829 1117.54 433.829 1073.95 446.284L1076.15 453.976L1078.35 461.668C1119.06 450.034 1171.74 450.034 1212.46 461.668L1214.66 453.976ZM1076.15 453.976L1083.99 455.579C1087.96 436.135 1095.53 410.259 1104.61 380.429C1113.66 350.744 1124.16 317.297 1133.83 283.171C1153.06 215.263 1169.49 142.956 1164.2 90.0478L1156.24 90.8438L1148.28 91.6399C1153.23 141.107 1137.74 210.62 1118.43 278.812C1108.83 312.735 1098.41 345.908 1089.31 375.766C1080.26 405.48 1072.46 432.071 1068.31 452.373L1076.15 453.976ZM1156.24 90.8438L1153.36 98.3072C1163.05 102.048 1177.78 104.448 1194.16 105.925C1210.76 107.422 1229.81 108.029 1248.6 107.877C1267.38 107.725 1286.04 106.812 1301.85 105.241C1317.38 103.697 1330.99 101.446 1339.16 98.3147L1336.3 90.8438L1333.44 83.373C1327.47 85.6615 1315.78 87.7769 1300.26 89.3192C1285.02 90.834 1266.86 91.7283 1248.47 91.8772C1230.06 92.0262 1211.55 91.4287 1195.6 89.9898C1179.41 88.5306 1166.59 86.2636 1159.12 83.3805L1156.24 90.8438ZM1336.3 90.8438L1328.34 90.0478C1323.05 142.956 1339.49 215.263 1358.72 283.171C1368.38 317.297 1378.89 350.744 1387.93 380.429C1397.02 410.259 1404.58 436.135 1408.56 455.579L1416.4 453.976L1424.23 452.373C1420.08 432.071 1412.29 405.48 1403.24 375.766C1394.14 345.908 1383.72 312.735 1374.11 278.812C1354.8 210.62 1339.32 141.107 1344.26 91.6399L1336.3 90.8438ZM1416.4 453.976L1418.59 446.284C1375 433.829 1319.28 433.829 1275.69 446.284L1277.89 453.976L1280.09 461.668C1320.8 450.034 1373.48 450.034 1414.2 461.668L1416.4 453.976ZM1277.89 453.976L1285.84 454.831C1288.84 426.932 1289.82 402.902 1284.99 385.65C1282.51 376.815 1278.34 369.098 1271.55 363.644C1264.69 358.143 1256.04 355.645 1245.97 355.645V363.645V371.645C1253.36 371.645 1258.19 373.437 1261.53 376.122C1264.94 378.854 1267.69 383.219 1269.58 389.967C1273.48 403.879 1272.96 425.014 1269.93 453.121L1277.89 453.976ZM1245.97 363.645V355.645C1236.48 355.645 1228.25 358.237 1221.69 363.767C1215.25 369.2 1211.16 376.835 1208.63 385.581C1203.65 402.77 1203.98 426.718 1206.69 454.747L1214.66 453.976L1222.62 453.205C1219.91 425.229 1219.95 404.011 1224 390.035C1225.98 383.199 1228.74 378.753 1232.01 376C1235.16 373.343 1239.51 371.645 1245.97 371.645V363.645ZM1245.97 207.07V199.07C1235.39 199.07 1227.57 206.205 1222.68 214.022C1217.68 222.008 1214.63 232.252 1213.83 242.265C1213.04 252.211 1214.39 262.94 1219.3 271.512C1224.48 280.556 1233.44 286.733 1245.97 286.733V278.733V270.733C1239.54 270.733 1235.7 267.953 1233.18 263.559C1230.39 258.695 1229.15 251.508 1229.78 243.538C1230.41 235.636 1232.83 227.964 1236.24 222.513C1239.76 216.893 1243.3 215.07 1245.97 215.07V207.07ZM1245.97 278.733V286.733C1258.51 286.733 1267.46 280.556 1272.64 271.512C1277.56 262.94 1278.9 252.211 1278.11 242.265C1277.31 232.252 1274.26 222.008 1269.27 214.022C1264.37 206.205 1256.55 199.07 1245.97 199.07V207.07V215.07C1248.64 215.07 1252.19 216.893 1255.7 222.513C1259.12 227.964 1261.53 235.636 1262.16 243.538C1262.8 251.508 1261.55 258.695 1258.76 263.559C1256.24 267.953 1252.4 270.733 1245.97 270.733V278.733ZM1692.97 453.976L1690.79 461.673L1700.51 464.427L1700.97 454.335L1692.97 453.976ZM1481 453.976L1473.01 454.335L1473.45 464.268L1483.06 461.706L1481 453.976ZM1407.53 90.8438L1409.73 83.1517L1391.81 78.0343L1400.44 94.5465L1407.53 90.8438ZM1541.22 90.8438L1549.22 90.9906L1549.42 80.1817L1539.02 83.1517L1541.22 90.8438ZM1629.74 90.8438L1631.94 83.1517L1621.55 80.1817L1621.74 90.9906L1629.74 90.8438ZM1760.42 90.8438L1767.51 94.5465L1776.14 78.0343L1758.22 83.1517L1760.42 90.8438ZM1692.97 453.976L1695.16 446.279C1685.23 443.466 1668.97 441.552 1650.22 440.319C1631.25 439.072 1609.09 438.486 1586.97 438.524C1564.86 438.561 1542.7 439.224 1523.75 440.489C1504.99 441.741 1488.79 443.617 1478.94 446.246L1481 453.976L1483.06 461.706C1491.27 459.517 1506.08 457.704 1524.81 456.454C1543.35 455.216 1565.15 454.561 1587 454.524C1608.85 454.486 1630.64 455.067 1649.17 456.285C1667.9 457.517 1682.65 459.367 1690.79 461.673L1692.97 453.976ZM1481 453.976L1488.99 453.617C1486.56 399.533 1477.01 325.362 1463.63 256.212C1450.31 187.339 1432.98 122.308 1414.62 87.1412L1407.53 90.8438L1400.44 94.5465C1417.6 127.429 1434.6 190.368 1447.93 259.25C1461.2 327.855 1470.62 401.226 1473.01 454.335L1481 453.976ZM1407.53 90.8438L1405.33 98.536C1448.92 110.991 1499.82 110.991 1543.42 98.536L1541.22 90.8438L1539.02 83.1517C1498.3 94.7854 1450.44 94.7854 1409.73 83.1517L1407.53 90.8438ZM1541.22 90.8438L1533.22 90.6971C1532.61 124.156 1537.94 187.44 1546.64 242.273C1550.99 269.696 1556.24 295.371 1562.12 314.328C1565.04 323.747 1568.25 331.948 1571.81 337.949C1573.59 340.945 1575.66 343.762 1578.14 345.91C1580.65 348.083 1584.04 349.965 1588.19 349.965V341.965V333.965C1589.1 333.965 1589.29 334.398 1588.62 333.822C1587.93 333.221 1586.88 331.989 1585.57 329.785C1582.96 325.386 1580.19 318.583 1577.4 309.588C1571.85 291.716 1566.75 266.918 1562.44 239.766C1553.83 185.449 1548.63 123.173 1549.22 90.9906L1541.22 90.8438ZM1588.19 341.965V349.965C1592.6 349.965 1595.88 347.536 1597.92 345.399C1600.02 343.205 1601.76 340.388 1603.23 337.453C1606.2 331.533 1608.93 323.422 1611.47 314.046C1616.57 295.174 1621.27 269.571 1625.24 242.166C1633.17 187.393 1638.36 124.133 1637.74 90.6971L1629.74 90.8438L1621.74 90.9906C1622.34 123.195 1617.28 185.496 1609.4 239.873C1605.47 267.044 1600.88 291.913 1596.02 309.871C1593.58 318.909 1591.17 325.801 1588.93 330.281C1587.79 332.546 1586.9 333.777 1586.37 334.333C1585.78 334.945 1586.41 333.965 1588.19 333.965V341.965ZM1629.74 90.8438L1627.55 98.536C1671.14 110.991 1719.03 110.991 1762.62 98.536L1760.42 90.8438L1758.22 83.1517C1717.51 94.7854 1672.66 94.7854 1631.94 83.1517L1629.74 90.8438ZM1760.42 90.8438L1753.33 87.1412C1734.92 122.411 1719.11 187.555 1707.3 256.378C1695.43 325.542 1687.41 399.647 1684.98 453.617L1692.97 453.976L1700.97 454.335C1703.36 401.112 1711.3 327.675 1723.07 259.084C1734.89 190.151 1750.4 127.327 1767.51 94.5465L1760.42 90.8438ZM1796.54 453.976L1788.7 452.373L1786.42 463.514L1797.68 461.894L1796.54 453.976ZM1796.54 90.8438L1797.68 82.9254L1786.42 81.3058L1788.7 92.447L1796.54 90.8438ZM2059.1 90.8438L2066.19 94.5499L2073.39 80.7829L2058 82.9199L2059.1 90.8438ZM2059.1 189.004L2056.49 196.565L2075.03 202.97L2066.26 185.426L2059.1 189.004ZM2019.36 214.899L2026.59 218.312L2039.79 190.327L2014.68 208.407L2019.36 214.899ZM2019.36 329.921L2014.68 336.413L2039.79 354.492L2026.59 326.508L2019.36 329.921ZM2059.1 355.816L2066.26 359.394L2075.03 341.85L2056.49 348.254L2059.1 355.816ZM2059.1 453.976L2058 461.9L2073.39 464.037L2066.19 450.27L2059.1 453.976ZM1796.54 453.976L1804.38 455.579C1812.68 414.991 1816.74 343.396 1816.74 272.41C1816.74 201.424 1812.68 129.829 1804.38 89.2407L1796.54 90.8438L1788.7 92.447C1796.66 131.351 1800.74 201.575 1800.74 272.41C1800.74 343.244 1796.66 413.469 1788.7 452.373L1796.54 453.976ZM1796.54 90.8438L1795.4 98.7623C1879.96 110.929 1994.54 107.888 2060.2 98.7678L2059.1 90.8438L2058 82.9199C1993.59 91.8659 1880.54 94.8473 1797.68 82.9254L1796.54 90.8438ZM2059.1 90.8438L2052.01 87.1378C2036.97 115.916 2035.75 160.178 2051.95 192.582L2059.1 189.004L2066.26 185.426C2052.35 157.609 2053.54 118.766 2066.19 94.5499L2059.1 90.8438ZM2059.1 189.004L2061.72 181.442C2027.27 169.544 1990.62 168.96 1979.61 168.96V176.96V184.96C1990.28 184.96 2024.69 185.58 2056.49 196.565L2059.1 189.004ZM1979.61 176.96V168.96C1959.43 168.96 1943.77 172.731 1932.61 179.025C1921.43 185.333 1914.39 194.477 1913.04 204.833C1911.68 215.262 1916.35 225.098 1924.88 231.969C1933.35 238.79 1945.57 242.772 1960.34 242.772V234.772V226.772C1948.31 226.772 1939.91 223.527 1934.92 219.509C1929.99 215.54 1928.38 210.922 1928.91 206.899C1929.44 202.801 1932.44 197.493 1940.48 192.961C1948.53 188.415 1961.25 184.96 1979.61 184.96V176.96ZM1960.34 234.772V242.772C1984.02 242.772 2007.9 233.009 2024.03 221.391L2019.36 214.899L2014.68 208.407C2000.71 218.469 1980.03 226.772 1960.34 226.772V234.772ZM2019.36 214.899L2012.12 211.486C2003.96 228.792 2000.07 250.808 2000.07 272.41C2000.07 294.012 2003.96 316.028 2012.12 333.334L2019.36 329.921L2026.59 326.508C2019.7 311.897 2016.07 292.361 2016.07 272.41C2016.07 252.459 2019.7 232.923 2026.59 218.312L2019.36 214.899ZM2019.36 329.921L2024.03 323.429C2007.9 311.811 1984.02 302.048 1960.34 302.048V310.048V318.048C1980.03 318.048 2000.71 326.351 2014.68 336.413L2019.36 329.921ZM1960.34 310.048V302.048C1931.44 302.048 1910.58 318.257 1912.24 339.577C1913.05 349.861 1919.35 359.165 1929.8 365.63C1940.18 372.056 1954.83 375.86 1973.59 375.86V367.86V359.86C1956.82 359.86 1945.35 356.438 1938.21 352.024C1931.14 347.649 1928.52 342.5 1928.2 338.331C1927.6 330.745 1935.64 318.048 1960.34 318.048V310.048ZM1973.59 367.86V375.86C1983.23 375.86 2027.2 375.301 2061.72 363.377L2059.1 355.816L2056.49 348.254C2024.76 359.215 1983.22 359.86 1973.59 359.86V367.86ZM2059.1 355.816L2051.95 352.238C2035.75 384.642 2036.97 428.904 2052.01 457.682L2059.1 453.976L2066.19 450.27C2053.54 426.053 2052.35 387.211 2066.26 359.394L2059.1 355.816ZM2059.1 453.976L2060.2 446.052C1994.54 436.932 1879.96 433.891 1795.4 446.058L1796.54 453.976L1797.68 461.894C1880.54 449.973 1993.59 452.954 2058 461.9L2059.1 453.976ZM2098.69 0.24802L2100.7 -7.49505L2088.28 -10.7212L2090.86 1.85119L2098.69 0.24802ZM2248.69 0.24802L2256.62 1.3433L2258.23 -10.3439L2246.78 -7.51934L2248.69 0.24802ZM2425.69 330.248L2432.85 333.826L2440.14 319.244L2424.14 322.399L2425.69 330.248ZM2425.69 452.498L2424.59 460.422L2439.98 462.559L2432.78 448.792L2425.69 452.498ZM2098.69 452.498L2090.86 450.895L2088.58 462.036L2099.83 460.416L2098.69 452.498ZM2098.69 0.24802L2096.68 7.99109C2155.86 23.3634 2194.72 21.7952 2250.61 8.01538L2248.69 0.24802L2246.78 -7.51934C2193.16 5.70087 2157.02 7.13265 2100.7 -7.49505L2098.69 0.24802ZM2248.69 0.24802L2240.77 -0.847259C2227.93 92.0616 2227.94 234.417 2227.94 288.248H2235.94H2243.94C2243.94 234.079 2243.96 92.9345 2256.62 1.3433L2248.69 0.24802ZM2235.94 288.248H2227.94C2227.94 302.71 2229.58 316.042 2235.59 326.94C2241.84 338.268 2252.21 345.935 2267.36 350.144C2282.19 354.262 2301.89 355.173 2327.68 353.177C2353.59 351.174 2386.23 346.186 2427.24 338.097L2425.69 330.248L2424.14 322.399C2383.4 330.435 2351.45 335.291 2326.45 337.225C2301.34 339.167 2283.82 338.109 2271.65 334.727C2259.8 331.436 2253.39 326.071 2249.6 319.212C2245.58 311.922 2243.94 301.911 2243.94 288.248H2235.94ZM2425.69 330.248L2418.54 326.67C2398.64 366.464 2400.16 420.923 2418.6 456.204L2425.69 452.498L2432.78 448.792C2416.72 418.073 2415.25 369.032 2432.85 333.826L2425.69 330.248ZM2425.69 452.498L2426.79 444.574C2345.17 433.237 2202.65 429.457 2097.55 444.58L2098.69 452.498L2099.83 460.416C2203.23 445.539 2344.22 449.259 2424.59 460.422L2425.69 452.498ZM2098.69 452.498L2106.53 454.101C2116.83 403.759 2121.88 314.761 2121.88 226.373C2121.88 137.985 2116.83 48.9871 2106.53 -1.35515L2098.69 0.24802L2090.86 1.85119C2100.81 50.509 2105.88 138.136 2105.88 226.373C2105.88 314.61 2100.81 402.237 2090.86 450.895L2098.69 452.498Z" fill="black" mask="url(#path-1-inside-1_3025_10)"/>
</svg>
