<svg width="2238" height="425" viewBox="0 0 2238 425" fill="none" xmlns="http://www.w3.org/2000/svg">
<mask id="path-1-inside-1_3025_6" fill="white">
<path d="M169.701 425C21.6612 425 10.5928 343.37 12.6681 292.179C16.8188 188.413 12.6681 62.5093 0.216139 0.941212C48.6405 14.7767 90.147 14.7767 138.571 0.941212C128.195 52.8244 110.209 306.706 169.701 306.706C229.194 306.706 211.208 52.8244 200.831 0.941212C249.256 14.7767 290.762 14.7767 339.186 0.941212C326.734 62.5093 322.584 188.413 326.734 292.179C328.81 343.37 317.741 425 169.701 425ZM489.923 419.445C451.041 408.336 417.713 408.336 378.831 419.445C393.829 346.125 393.829 157.824 378.831 84.5039C417.713 95.613 451.041 95.613 489.923 84.5039C493.811 149.493 529.916 226.146 549.357 226.146C571.575 226.146 551.024 128.385 542.136 84.5039C581.018 95.613 613.79 95.613 652.672 84.5039C637.675 157.824 637.675 346.125 652.672 419.445C613.79 408.892 581.018 408.892 542.136 419.445C535.471 363.9 502.143 296.134 487.701 296.134C469.371 296.134 486.035 401.115 489.923 419.445ZM958.83 419.445C919.948 407.781 892.175 407.781 853.293 419.445C859.958 385.562 840.517 325.017 782.75 317.796C784.416 358.9 787.749 395.561 792.748 419.445C753.866 408.336 726.093 408.336 687.211 419.445C702.764 345.569 702.764 165.045 687.211 89.503C746.089 101.723 792.192 84.5039 832.741 84.5039C953.275 84.5039 975.494 234.478 892.175 289.468C947.721 326.128 952.72 388.895 958.83 419.445ZM837.74 188.375C837.74 142.827 792.192 143.382 792.192 191.152C792.192 241.143 837.74 239.477 837.74 188.375ZM1120.06 419.445C1081.18 408.336 1031.19 408.336 992.309 419.445C1007.31 346.125 1075.63 178.932 1066.19 84.5039C1097.85 96.724 1206.16 94.5021 1232.27 84.5039C1222.82 178.932 1291.15 346.125 1306.14 419.445C1267.26 408.336 1217.27 408.336 1178.39 419.445C1183.94 367.788 1181.17 336.127 1148.95 336.127C1119.51 336.127 1115.07 367.788 1120.06 419.445ZM1148.95 191.707C1124.51 191.707 1113.95 257.807 1148.95 257.807C1183.94 257.807 1173.39 191.707 1148.95 191.707ZM1561.25 419.445C1527.92 410.003 1399.06 410.558 1365.73 419.445C1361.29 320.574 1330.74 147.271 1297.96 84.5039C1336.85 95.613 1382.39 95.613 1421.28 84.5039C1420.16 145.049 1440.72 316.13 1464.6 316.13C1484.04 316.13 1504.04 145.049 1502.93 84.5039C1541.81 95.613 1584.58 95.613 1623.46 84.5039C1590.69 147.271 1565.69 320.574 1561.25 419.445ZM1656.78 419.445C1671.77 346.125 1671.77 157.824 1656.78 84.5039C1733.99 95.613 1838.97 92.8358 1898.96 84.5039C1886.18 108.944 1885.07 147.271 1898.96 175.044C1868.41 164.49 1835.63 163.934 1825.64 163.934C1754.54 163.934 1758.43 217.258 1807.86 217.258C1827.86 217.258 1848.41 208.927 1862.3 198.928C1848.41 228.368 1848.41 275.582 1862.3 305.021C1848.41 295.023 1827.86 286.691 1807.86 286.691C1758.43 286.691 1754.54 340.015 1820.08 340.015C1828.97 340.015 1868.41 339.459 1898.96 328.906C1885.07 356.679 1886.18 395.005 1898.96 419.445C1838.97 411.114 1733.99 408.336 1656.78 419.445ZM1935.47 0.941212C1988.74 14.7767 2023.33 13.3932 2073.83 0.941212C2062.07 86.0297 2062.07 216.775 2062.07 266.583C2062.07 318.466 2086.28 335.069 2237.09 305.323C2219.79 339.912 2221.18 387.644 2237.09 418.082C2162.37 407.706 2031.63 404.247 1935.47 418.082C1954.15 326.768 1954.15 92.2557 1935.47 0.941212Z"/>
</mask>
<path d="M169.701 425C21.6612 425 10.5928 343.37 12.6681 292.179C16.8188 188.413 12.6681 62.5093 0.216139 0.941212C48.6405 14.7767 90.147 14.7767 138.571 0.941212C128.195 52.8244 110.209 306.706 169.701 306.706C229.194 306.706 211.208 52.8244 200.831 0.941212C249.256 14.7767 290.762 14.7767 339.186 0.941212C326.734 62.5093 322.584 188.413 326.734 292.179C328.81 343.37 317.741 425 169.701 425ZM489.923 419.445C451.041 408.336 417.713 408.336 378.831 419.445C393.829 346.125 393.829 157.824 378.831 84.5039C417.713 95.613 451.041 95.613 489.923 84.5039C493.811 149.493 529.916 226.146 549.357 226.146C571.575 226.146 551.024 128.385 542.136 84.5039C581.018 95.613 613.79 95.613 652.672 84.5039C637.675 157.824 637.675 346.125 652.672 419.445C613.79 408.892 581.018 408.892 542.136 419.445C535.471 363.9 502.143 296.134 487.701 296.134C469.371 296.134 486.035 401.115 489.923 419.445ZM958.83 419.445C919.948 407.781 892.175 407.781 853.293 419.445C859.958 385.562 840.517 325.017 782.75 317.796C784.416 358.9 787.749 395.561 792.748 419.445C753.866 408.336 726.093 408.336 687.211 419.445C702.764 345.569 702.764 165.045 687.211 89.503C746.089 101.723 792.192 84.5039 832.741 84.5039C953.275 84.5039 975.494 234.478 892.175 289.468C947.721 326.128 952.72 388.895 958.83 419.445ZM837.74 188.375C837.74 142.827 792.192 143.382 792.192 191.152C792.192 241.143 837.74 239.477 837.74 188.375ZM1120.06 419.445C1081.18 408.336 1031.19 408.336 992.309 419.445C1007.31 346.125 1075.63 178.932 1066.19 84.5039C1097.85 96.724 1206.16 94.5021 1232.27 84.5039C1222.82 178.932 1291.15 346.125 1306.14 419.445C1267.26 408.336 1217.27 408.336 1178.39 419.445C1183.94 367.788 1181.17 336.127 1148.95 336.127C1119.51 336.127 1115.07 367.788 1120.06 419.445ZM1148.95 191.707C1124.51 191.707 1113.95 257.807 1148.95 257.807C1183.94 257.807 1173.39 191.707 1148.95 191.707ZM1561.25 419.445C1527.92 410.003 1399.06 410.558 1365.73 419.445C1361.29 320.574 1330.74 147.271 1297.96 84.5039C1336.85 95.613 1382.39 95.613 1421.28 84.5039C1420.16 145.049 1440.72 316.13 1464.6 316.13C1484.04 316.13 1504.04 145.049 1502.93 84.5039C1541.81 95.613 1584.58 95.613 1623.46 84.5039C1590.69 147.271 1565.69 320.574 1561.25 419.445ZM1656.78 419.445C1671.77 346.125 1671.77 157.824 1656.78 84.5039C1733.99 95.613 1838.97 92.8358 1898.96 84.5039C1886.18 108.944 1885.07 147.271 1898.96 175.044C1868.41 164.49 1835.63 163.934 1825.64 163.934C1754.54 163.934 1758.43 217.258 1807.86 217.258C1827.86 217.258 1848.41 208.927 1862.3 198.928C1848.41 228.368 1848.41 275.582 1862.3 305.021C1848.41 295.023 1827.86 286.691 1807.86 286.691C1758.43 286.691 1754.54 340.015 1820.08 340.015C1828.97 340.015 1868.41 339.459 1898.96 328.906C1885.07 356.679 1886.18 395.005 1898.96 419.445C1838.97 411.114 1733.99 408.336 1656.78 419.445ZM1935.47 0.941212C1988.74 14.7767 2023.33 13.3932 2073.83 0.941212C2062.07 86.0297 2062.07 216.775 2062.07 266.583C2062.07 318.466 2086.28 335.069 2237.09 305.323C2219.79 339.912 2221.18 387.644 2237.09 418.082C2162.37 407.706 2031.63 404.247 1935.47 418.082C1954.15 326.768 1954.15 92.2557 1935.47 0.941212Z" fill="#5656A8"/>
<path d="M12.6681 292.179L20.6615 292.503L20.6617 292.499L12.6681 292.179ZM0.216139 0.941212L2.41391 -6.75098L-10.2323 -10.3642L-7.6251 2.52708L0.216139 0.941212ZM138.571 0.941212L146.416 2.51014L148.989 -10.3554L136.374 -6.75098L138.571 0.941212ZM200.831 0.941212L203.029 -6.75098L190.413 -10.3554L192.987 2.51014L200.831 0.941212ZM339.186 0.941212L347.028 2.52708L349.635 -10.3642L336.989 -6.75098L339.186 0.941212ZM326.734 292.179L318.741 292.499L318.741 292.503L326.734 292.179ZM169.701 425V417C97.0656 417 60.1261 397.011 41.1876 372.851C21.9973 348.369 19.6433 317.619 20.6615 292.503L12.6681 292.179L4.67468 291.855C3.61755 317.931 5.76009 353.59 28.5952 382.722C51.6821 412.174 94.2969 433 169.701 433V425ZM12.6681 292.179L20.6617 292.499C24.8179 188.594 20.7071 61.9014 8.05738 -0.644657L0.216139 0.941212L-7.6251 2.52708C4.62907 63.1171 8.81963 188.231 4.6745 291.859L12.6681 292.179ZM0.216139 0.941212L-1.98163 8.6334C47.8791 22.8793 90.9084 22.8793 140.769 8.6334L138.571 0.941212L136.374 -6.75098C89.3857 6.67412 49.4018 6.67412 2.41391 -6.75098L0.216139 0.941212ZM138.571 0.941212L130.727 -0.627717C125.392 26.0467 118.285 103.104 119.938 173.468C120.763 208.63 123.784 242.739 130.546 268.275C133.915 280.996 138.371 292.224 144.413 300.437C150.57 308.807 158.94 314.706 169.701 314.706V306.706V298.706C165.59 298.706 161.507 296.672 157.301 290.955C152.98 285.081 149.162 276.069 146.013 264.179C139.74 240.49 136.75 207.885 135.933 173.092C134.3 103.544 141.374 27.719 146.416 2.51014L138.571 0.941212ZM169.701 306.706V314.706C180.463 314.706 188.832 308.807 194.99 300.437C201.031 292.224 205.488 280.996 208.856 268.275C215.619 242.739 218.639 208.63 219.465 173.468C221.118 103.104 214.011 26.0467 208.676 -0.627719L200.831 0.941212L192.987 2.51014C198.028 27.719 205.103 103.544 203.469 173.092C202.652 207.885 199.663 240.49 193.39 264.179C190.241 276.069 186.423 285.081 182.101 290.955C177.896 296.672 173.813 298.706 169.701 298.706V306.706ZM200.831 0.941212L198.633 8.6334C248.494 22.8793 291.523 22.8793 341.384 8.6334L339.186 0.941212L336.989 -6.75098C290.001 6.67412 250.017 6.67412 203.029 -6.75098L200.831 0.941212ZM339.186 0.941212L331.345 -0.64466C318.695 61.9014 314.585 188.594 318.741 292.499L326.734 292.179L334.728 291.859C330.583 188.231 334.774 63.1171 347.028 2.52708L339.186 0.941212ZM326.734 292.179L318.741 292.503C319.759 317.619 317.405 348.369 298.215 372.851C279.276 397.011 242.337 417 169.701 417V425V433C245.106 433 287.72 412.174 310.807 382.722C333.643 353.59 335.785 317.931 334.728 291.855L326.734 292.179ZM489.923 419.445L487.725 427.138L500.507 430.79L497.749 417.785L489.923 419.445ZM378.831 419.445L370.994 417.842L368.351 430.76L381.029 427.138L378.831 419.445ZM378.831 84.5039L381.029 76.8117L368.351 73.1895L370.994 86.1071L378.831 84.5039ZM489.923 84.5039L497.909 84.0261L497.313 74.0723L487.725 76.8117L489.923 84.5039ZM542.136 84.5039L544.334 76.8117L531.684 73.1974L534.295 86.0919L542.136 84.5039ZM652.672 84.5039L660.51 86.1071L663.152 73.1895L650.475 76.8117L652.672 84.5039ZM652.672 419.445L650.577 427.166L663.113 430.569L660.51 417.842L652.672 419.445ZM542.136 419.445L534.193 420.399L535.296 429.591L544.232 427.166L542.136 419.445ZM489.923 419.445L492.121 411.753C451.802 400.234 416.952 400.234 376.634 411.753L378.831 419.445L381.029 427.138C418.475 416.439 450.28 416.439 487.725 427.138L489.923 419.445ZM378.831 419.445L386.669 421.049C394.34 383.546 398.079 317.456 398.079 251.975C398.079 186.494 394.34 120.403 386.669 82.9007L378.831 84.5039L370.994 86.1071C378.32 121.925 382.079 186.645 382.079 251.975C382.079 317.304 378.32 382.024 370.994 417.842L378.831 419.445ZM378.831 84.5039L376.634 92.1961C416.952 103.716 451.802 103.716 492.121 92.1961L489.923 84.5039L487.725 76.8117C450.28 87.5104 418.475 87.5104 381.029 76.8117L378.831 84.5039ZM489.923 84.5039L481.937 84.9817C483.949 118.599 494.239 154.936 506.479 182.903C512.598 196.885 519.346 209.1 526.026 217.967C529.357 222.388 532.859 226.229 536.467 229.038C539.956 231.754 544.369 234.146 549.357 234.146V226.146V218.146C549.485 218.146 548.517 218.142 546.295 216.413C544.193 214.776 541.654 212.12 538.805 208.339C533.127 200.803 526.96 189.793 521.137 176.488C509.492 149.881 499.786 115.397 497.909 84.0261L489.923 84.5039ZM549.357 226.146V234.146C555.817 234.146 560.239 230.284 562.768 225.772C565.102 221.61 566.236 216.348 566.806 211.04C567.965 200.261 567.107 185.935 565.358 170.858C561.839 140.524 554.397 104.742 549.977 82.9159L542.136 84.5039L534.295 86.0919C538.762 108.147 546.04 143.186 549.465 172.702C551.187 187.551 551.857 200.408 550.898 209.33C550.41 213.873 549.573 216.591 548.813 217.947C548.248 218.953 548.452 218.146 549.357 218.146V226.146ZM542.136 84.5039L539.938 92.1961C580.257 103.716 614.552 103.716 654.87 92.1961L652.672 84.5039L650.475 76.8117C613.029 87.5104 581.78 87.5104 544.334 76.8117L542.136 84.5039ZM652.672 84.5039L644.835 82.9007C637.164 120.403 633.424 186.494 633.424 251.975C633.424 317.456 637.164 383.546 644.835 421.049L652.672 419.445L660.51 417.842C653.184 382.024 649.424 317.304 649.424 251.975C649.424 186.645 653.184 121.925 660.51 86.1071L652.672 84.5039ZM652.672 419.445L654.768 411.725C614.514 400.799 580.295 400.799 540.041 411.725L542.136 419.445L544.232 427.166C581.742 416.985 613.067 416.985 650.577 427.166L652.672 419.445ZM542.136 419.445L550.079 418.492C546.625 389.703 536.332 358.064 525.105 333.621C519.49 321.396 513.508 310.678 507.829 302.88C505.004 299.002 502.068 295.587 499.096 293.06C496.367 290.739 492.417 288.134 487.701 288.134V296.134V304.134C486.596 304.134 486.847 303.646 488.731 305.248C490.371 306.643 492.461 308.957 494.896 312.3C499.735 318.944 505.209 328.638 510.565 340.299C521.279 363.625 530.982 393.642 534.193 420.399L542.136 419.445ZM487.701 296.134V288.134C480.64 288.134 476.825 293.468 475.063 297.433C473.241 301.535 472.307 306.738 471.804 312.073C470.781 322.927 471.318 337.195 472.508 351.575C474.896 380.447 480.083 411.61 482.097 421.105L489.923 419.445L497.749 417.785C495.875 408.951 490.786 378.457 488.453 350.256C487.282 336.099 486.847 322.976 487.733 313.574C488.185 308.78 488.926 305.639 489.686 303.928C490.506 302.08 490.18 304.134 487.701 304.134V296.134ZM958.83 419.445L956.531 427.108L969.286 430.935L966.675 417.876L958.83 419.445ZM853.293 419.445L845.443 417.901L842.882 430.921L855.592 427.108L853.293 419.445ZM782.75 317.796L783.742 309.858L774.374 308.687L774.756 318.121L782.75 317.796ZM792.748 419.445L790.55 427.138L803.293 430.779L800.578 417.807L792.748 419.445ZM687.211 419.445L679.382 417.797L676.648 430.783L689.408 427.138L687.211 419.445ZM687.211 89.503L688.836 81.6699L676.921 79.1969L679.375 91.1162L687.211 89.503ZM892.175 289.468L887.768 282.791L877.652 289.468L887.768 296.145L892.175 289.468ZM958.83 419.445L961.129 411.783C920.747 399.668 891.376 399.668 850.994 411.783L853.293 419.445L855.592 427.108C892.974 415.893 919.149 415.893 956.531 427.108L958.83 419.445ZM853.293 419.445L861.142 420.99C864.865 402.068 861.278 376.549 849.179 354.742C836.925 332.654 815.601 313.841 783.742 309.858L782.75 317.796L781.757 325.735C807.666 328.973 824.946 344.043 835.188 362.504C845.586 381.245 848.386 402.94 845.443 417.901L853.293 419.445ZM782.75 317.796L774.756 318.121C776.427 359.326 779.778 396.527 784.918 421.084L792.748 419.445L800.578 417.807C795.72 394.594 792.405 358.475 790.743 317.472L782.75 317.796ZM792.748 419.445L794.946 411.753C754.627 400.234 725.331 400.234 685.013 411.753L687.211 419.445L689.408 427.138C726.854 416.439 753.104 416.439 790.55 427.138L792.748 419.445ZM687.211 419.445L695.039 421.093C702.995 383.304 706.875 319.014 706.875 255.099C706.875 191.173 702.993 126.488 695.046 87.8898L687.211 89.503L679.375 91.1162C686.981 128.06 690.875 191.409 690.875 255.099C690.875 318.801 686.979 381.711 679.382 417.797L687.211 419.445ZM687.211 89.503L685.585 97.3361C716.206 103.691 743.406 102.358 767.771 99.5328C792.65 96.6483 813.065 92.5039 832.741 92.5039V84.5039V76.5039C811.868 76.5039 788.958 80.9691 765.928 83.6392C742.385 86.3689 717.094 87.5347 688.836 81.6699L687.211 89.503ZM832.741 84.5039V92.5039C888.917 92.5039 921.651 127.057 931.107 168.158C940.681 209.778 926.23 257.406 887.768 282.791L892.175 289.468L896.582 296.145C941.438 266.54 957.538 211.686 946.699 164.571C935.741 116.938 897.099 76.5039 832.741 76.5039V84.5039ZM892.175 289.468L887.768 296.145C939.917 330.563 944.612 389.146 950.985 421.014L958.83 419.445L966.675 417.876C960.828 388.645 955.525 321.694 896.582 282.791L892.175 289.468ZM837.74 188.375H845.74C845.74 163.58 832.756 146.113 814.674 146.775C796.906 147.425 784.192 165.403 784.192 191.152H792.192H800.192C800.192 169.132 810.252 162.947 815.259 162.764C819.951 162.592 829.74 167.622 829.74 188.375H837.74ZM792.192 191.152H784.192C784.192 204.77 787.284 215.797 792.764 223.595C798.31 231.485 806.436 236.099 815.356 235.664C824.179 235.233 831.997 229.953 837.328 221.761C842.651 213.581 845.74 202.268 845.74 188.375H837.74H829.74C829.74 200.032 827.135 208.091 823.918 213.034C820.709 217.965 817.14 219.558 814.576 219.683C812.109 219.803 808.849 218.655 805.854 214.394C802.794 210.041 800.192 202.53 800.192 191.152H792.192ZM1120.06 419.445L1117.87 427.138L1129.16 430.364L1128.03 418.675L1120.06 419.445ZM992.309 419.445L984.472 417.842L981.829 430.76L994.507 427.138L992.309 419.445ZM1066.19 84.5039L1069.07 77.0405L1056.93 72.3567L1058.23 85.2999L1066.19 84.5039ZM1232.27 84.5039L1240.23 85.2999L1241.52 72.3944L1229.41 77.033L1232.27 84.5039ZM1306.14 419.445L1303.95 427.138L1316.62 430.76L1313.98 417.842L1306.14 419.445ZM1178.39 419.445L1170.43 418.59L1169.16 430.401L1180.59 427.138L1178.39 419.445ZM1120.06 419.445L1122.26 411.753C1081.94 400.234 1030.43 400.234 990.112 411.753L992.309 419.445L994.507 427.138C1031.95 416.439 1080.42 416.439 1117.87 427.138L1120.06 419.445ZM992.309 419.445L1000.15 421.049C1003.81 403.148 1010.78 379.308 1019.16 351.789C1027.5 324.415 1037.19 293.554 1046.11 262.07C1063.84 199.445 1079.04 132.642 1074.15 83.7079L1066.19 84.5039L1058.23 85.2999C1062.77 130.793 1048.53 194.802 1030.72 257.71C1021.86 288.992 1012.25 319.579 1003.85 347.126C995.506 374.529 988.309 399.083 984.472 417.842L992.309 419.445ZM1066.19 84.5039L1063.3 91.9673C1072.33 95.4513 1085.99 97.6702 1101.1 99.0329C1116.44 100.416 1134.03 100.976 1151.37 100.836C1168.72 100.695 1185.94 99.8528 1200.55 98.4011C1214.88 96.9769 1227.5 94.8957 1235.13 91.9747L1232.27 84.5039L1229.41 77.033C1223.98 79.1112 1213.28 81.0571 1198.96 82.4796C1184.93 83.8746 1168.2 84.6987 1151.24 84.836C1134.29 84.9733 1117.23 84.4225 1102.54 83.0976C1087.62 81.7524 1075.87 79.6665 1069.07 77.0405L1066.19 84.5039ZM1232.27 84.5039L1224.31 83.7079C1219.41 132.642 1234.61 199.445 1252.34 262.07C1261.26 293.554 1270.95 324.415 1279.29 351.789C1287.68 379.308 1294.64 403.148 1298.31 421.049L1306.14 419.445L1313.98 417.842C1310.14 399.083 1302.95 374.529 1294.6 347.126C1286.21 319.579 1276.6 288.992 1267.74 257.71C1249.92 194.802 1235.68 130.793 1240.23 85.2999L1232.27 84.5039ZM1306.14 419.445L1308.34 411.753C1268.02 400.234 1216.51 400.234 1176.19 411.753L1178.39 419.445L1180.59 427.138C1218.03 416.439 1266.5 416.439 1303.95 427.138L1306.14 419.445ZM1178.39 419.445L1186.34 420.301C1189.11 394.576 1190.03 372.298 1185.54 356.256C1183.23 348.026 1179.33 340.778 1172.93 335.642C1166.47 330.458 1158.34 328.127 1148.95 328.127V336.127V344.127C1155.66 344.127 1159.96 345.753 1162.91 348.12C1165.92 350.534 1168.41 354.43 1170.13 360.573C1173.69 373.276 1173.22 392.657 1170.43 418.59L1178.39 419.445ZM1148.95 336.127V328.127C1140.07 328.127 1132.34 330.552 1126.16 335.764C1120.09 340.88 1116.27 348.046 1113.91 356.187C1109.28 372.166 1109.6 394.361 1112.1 420.216L1120.06 419.445L1128.03 418.675C1125.53 392.872 1125.58 373.407 1129.28 360.642C1131.08 354.41 1133.58 350.433 1136.47 347.997C1139.24 345.659 1143.1 344.127 1148.95 344.127V336.127ZM1148.95 191.707V183.707C1138.89 183.707 1131.5 190.495 1126.94 197.79C1122.26 205.254 1119.43 214.803 1118.69 224.121C1117.95 233.371 1119.2 243.404 1123.81 251.455C1128.69 259.977 1137.15 265.807 1148.95 265.807V257.807V249.807C1143.25 249.807 1139.91 247.374 1137.69 243.502C1135.2 239.16 1134.05 232.668 1134.64 225.394C1135.21 218.187 1137.41 211.211 1140.5 206.281C1143.69 201.183 1146.79 199.707 1148.95 199.707V191.707ZM1148.95 257.807V265.807C1160.75 265.807 1169.21 259.977 1174.09 251.455C1178.7 243.404 1179.95 233.371 1179.21 224.121C1178.47 214.803 1175.63 205.254 1170.96 197.79C1166.39 190.495 1159.01 183.707 1148.95 183.707V191.707V199.707C1151.11 199.707 1154.21 201.183 1157.4 206.281C1160.49 211.211 1162.69 218.187 1163.26 225.394C1163.84 232.668 1162.69 239.16 1160.21 243.502C1157.99 247.374 1154.65 249.807 1148.95 249.807V257.807ZM1561.25 419.445L1559.07 427.142L1568.79 429.896L1569.24 419.805L1561.25 419.445ZM1365.73 419.445L1357.74 419.805L1358.18 429.737L1367.79 427.175L1365.73 419.445ZM1297.96 84.5039L1300.16 76.8117L1282.25 71.6943L1290.87 88.2066L1297.96 84.5039ZM1421.28 84.5039L1429.27 84.6506L1429.47 73.8418L1419.08 76.8117L1421.28 84.5039ZM1502.93 84.5039L1505.13 76.8117L1494.73 73.8418L1494.93 84.6506L1502.93 84.5039ZM1623.46 84.5039L1630.55 88.2066L1639.18 71.6943L1621.26 76.8117L1623.46 84.5039ZM1561.25 419.445L1563.43 411.748C1554.21 409.134 1539.15 407.367 1521.85 406.229C1504.34 405.078 1483.88 404.537 1463.48 404.572C1443.07 404.607 1422.62 405.218 1405.12 406.386C1387.82 407.541 1372.82 409.274 1363.67 411.716L1365.73 419.445L1367.79 427.175C1375.3 425.173 1388.91 423.504 1406.19 422.35C1423.27 421.21 1443.36 420.606 1463.5 420.572C1483.64 420.537 1503.73 421.072 1520.8 422.195C1538.09 423.331 1551.63 425.035 1559.07 427.142L1561.25 419.445ZM1365.73 419.445L1373.72 419.086C1371.48 369.163 1362.67 300.719 1350.32 236.916C1338.04 173.39 1322.04 113.327 1305.05 80.8012L1297.96 84.5039L1290.87 88.2066C1306.66 118.448 1322.32 176.42 1334.62 239.955C1346.85 303.212 1355.54 370.856 1357.74 419.805L1365.73 419.445ZM1297.96 84.5039L1295.77 92.1961C1336.08 103.716 1383.15 103.716 1423.47 92.1961L1421.28 84.5039L1419.08 76.8117C1381.63 87.5104 1337.61 87.5104 1300.16 76.8117L1297.96 84.5039ZM1421.28 84.5039L1413.28 84.3571C1412.71 115.268 1417.64 173.678 1425.66 224.275C1429.68 249.58 1434.52 273.296 1439.96 290.823C1442.66 299.527 1445.64 307.145 1448.96 312.743C1450.61 315.537 1452.57 318.197 1454.93 320.238C1457.31 322.305 1460.58 324.13 1464.6 324.13V316.13V308.13C1465.64 308.13 1465.95 308.619 1465.41 308.15C1464.84 307.656 1463.9 306.581 1462.72 304.579C1460.35 300.584 1457.81 294.363 1455.24 286.083C1450.14 269.64 1445.44 246.801 1441.47 221.768C1433.52 171.688 1428.73 114.285 1429.27 84.6506L1421.28 84.5039ZM1464.6 316.13V324.13C1468.91 324.13 1472.08 321.758 1474.03 319.727C1476.02 317.64 1477.66 314.979 1479.03 312.247C1481.79 306.731 1484.33 299.201 1486.67 290.54C1491.39 273.098 1495.73 249.454 1499.39 224.168C1506.71 173.632 1511.49 115.245 1510.93 84.3571L1502.93 84.5039L1494.93 84.6506C1495.47 114.307 1490.82 171.734 1483.55 221.875C1479.93 246.927 1475.69 269.837 1471.22 286.365C1468.97 294.689 1466.77 300.998 1464.72 305.075C1463.69 307.138 1462.9 308.212 1462.47 308.661C1461.99 309.166 1462.72 308.13 1464.6 308.13V316.13ZM1502.93 84.5039L1500.73 92.1961C1541.05 103.716 1585.34 103.716 1625.66 92.1961L1623.46 84.5039L1621.26 76.8117C1583.82 87.5104 1542.57 87.5104 1505.13 76.8117L1502.93 84.5039ZM1623.46 84.5039L1616.37 80.8012C1599.33 113.429 1584.74 173.607 1573.85 237.082C1562.9 300.899 1555.5 369.277 1553.26 419.086L1561.25 419.445L1569.24 419.805C1571.45 370.742 1578.77 303.033 1589.62 239.788C1600.53 176.203 1614.82 118.345 1630.55 88.2066L1623.46 84.5039ZM1656.78 419.445L1648.94 417.842L1646.66 428.983L1657.92 427.364L1656.78 419.445ZM1656.78 84.5039L1657.92 76.5854L1646.66 74.9659L1648.94 86.1071L1656.78 84.5039ZM1898.96 84.5039L1906.05 88.2099L1913.24 74.4429L1897.86 76.5799L1898.96 84.5039ZM1898.96 175.044L1896.34 182.605L1914.88 189.01L1906.11 171.466L1898.96 175.044ZM1862.3 198.928L1869.53 202.341L1882.73 174.357L1857.62 192.436L1862.3 198.928ZM1862.3 305.021L1857.62 311.513L1882.73 329.593L1869.53 301.608L1862.3 305.021ZM1898.96 328.906L1906.11 332.483L1914.88 314.94L1896.34 321.344L1898.96 328.906ZM1898.96 419.445L1897.86 427.369L1913.24 429.506L1906.05 415.739L1898.96 419.445ZM1656.78 419.445L1664.61 421.049C1672.29 383.546 1676.02 317.456 1676.02 251.975C1676.02 186.494 1672.29 120.403 1664.61 82.9007L1656.78 84.5039L1648.94 86.1071C1656.27 121.925 1660.02 186.645 1660.02 251.975C1660.02 317.304 1656.27 382.024 1648.94 417.842L1656.78 419.445ZM1656.78 84.5039L1655.64 92.4223C1733.7 103.654 1839.44 100.847 1900.06 92.4278L1898.96 84.5039L1897.86 76.5799C1838.49 84.8247 1734.27 87.5723 1657.92 76.5854L1656.78 84.5039ZM1898.96 84.5039L1891.87 80.7979C1877.9 107.519 1876.77 148.555 1891.8 178.621L1898.96 175.044L1906.11 171.466C1893.37 145.986 1894.46 110.369 1906.05 88.2099L1898.96 84.5039ZM1898.96 175.044L1901.57 167.482C1869.7 156.472 1835.81 155.934 1825.64 155.934V163.934V171.934C1835.46 171.934 1867.12 172.508 1896.34 182.605L1898.96 175.044ZM1825.64 163.934V155.934C1806.95 155.934 1792.39 159.425 1781.98 165.299C1771.55 171.185 1764.89 179.769 1763.62 189.564C1762.33 199.432 1766.76 208.707 1774.77 215.157C1782.71 221.557 1794.13 225.258 1807.86 225.258V217.258V209.258C1796.87 209.258 1789.27 206.294 1784.8 202.697C1780.4 199.148 1779.03 195.092 1779.48 191.629C1779.94 188.093 1782.55 183.346 1789.84 179.234C1797.15 175.109 1808.77 171.934 1825.64 171.934V163.934ZM1807.86 217.258V225.258C1829.85 225.258 1852 216.196 1866.97 205.421L1862.3 198.928L1857.62 192.436C1844.82 201.657 1825.86 209.258 1807.86 209.258V217.258ZM1862.3 198.928L1855.06 195.515C1847.48 211.582 1843.88 231.986 1843.88 251.975C1843.88 271.963 1847.48 292.367 1855.06 308.434L1862.3 305.021L1869.53 301.608C1863.22 288.236 1859.88 270.312 1859.88 251.975C1859.88 233.637 1863.22 215.714 1869.53 202.341L1862.3 198.928ZM1862.3 305.021L1866.97 298.529C1852 287.753 1829.85 278.691 1807.86 278.691V286.691V294.691C1825.86 294.691 1844.82 302.293 1857.62 311.513L1862.3 305.021ZM1807.86 286.691V278.691C1781.04 278.691 1761.3 293.777 1762.88 313.976C1763.64 323.699 1769.59 332.442 1779.36 338.486C1789.07 344.491 1802.7 348.015 1820.08 348.015V340.015V332.015C1804.69 332.015 1794.23 328.873 1787.78 324.88C1781.39 320.925 1779.11 316.338 1778.83 312.73C1778.32 306.266 1785.24 294.691 1807.86 294.691V286.691ZM1820.08 340.015V348.015C1828.97 348.015 1869.62 347.503 1901.57 336.467L1898.96 328.906L1896.34 321.344C1867.19 331.416 1828.96 332.015 1820.08 332.015V340.015ZM1898.96 328.906L1891.8 325.328C1876.77 355.394 1877.9 396.431 1891.87 423.151L1898.96 419.445L1906.05 415.739C1894.46 393.58 1893.37 357.963 1906.11 332.483L1898.96 328.906ZM1898.96 419.445L1900.06 411.521C1839.44 403.102 1733.7 400.295 1655.64 411.527L1656.78 419.445L1657.92 427.364C1734.27 416.377 1838.49 419.125 1897.86 427.369L1898.96 419.445ZM1935.47 0.941212L1937.48 -6.80186L1925.06 -10.028L1927.63 2.54438L1935.47 0.941212ZM2073.83 0.941212L2081.75 2.03649L2083.37 -9.65072L2071.91 -6.82615L2073.83 0.941212ZM2237.09 305.323L2244.24 308.9L2251.53 294.319L2235.54 297.474L2237.09 305.323ZM2237.09 418.082L2235.99 426.006L2251.37 428.143L2244.18 414.376L2237.09 418.082ZM1935.47 418.082L1927.63 416.479L1925.36 427.62L1936.61 426.001L1935.47 418.082ZM1935.47 0.941212L1933.46 8.68428C1988.16 22.8921 2024.11 21.4403 2075.74 8.70857L2073.83 0.941212L2071.91 -6.82615C2022.55 5.34604 1989.32 6.66137 1937.48 -6.80186L1935.47 0.941212ZM2073.83 0.941212L2065.9 -0.154067C2054.05 85.5933 2054.07 216.944 2054.07 266.583H2062.07H2070.07C2070.07 216.606 2070.08 86.4661 2081.75 2.03649L2073.83 0.941212ZM2062.07 266.583H2054.07C2054.07 279.953 2055.58 292.38 2061.2 302.571C2067.06 313.194 2076.78 320.355 2090.88 324.272C2104.66 328.1 2122.91 328.934 2146.74 327.091C2170.66 325.241 2200.8 320.635 2238.63 313.171L2237.09 305.323L2235.54 297.474C2197.97 304.884 2168.53 309.358 2145.5 311.139C2122.37 312.928 2106.29 311.946 2095.17 308.856C2084.36 305.855 2078.61 300.997 2075.21 294.844C2071.58 288.26 2070.07 279.155 2070.07 266.583H2062.07ZM2237.09 305.323L2229.93 301.745C2211.49 338.627 2212.89 389.069 2230 421.788L2237.09 418.082L2244.18 414.376C2229.46 386.219 2228.09 341.196 2244.24 308.9L2237.09 305.323ZM2237.09 418.082L2238.19 410.158C2162.85 399.694 2031.34 396.206 1934.33 410.164L1935.47 418.082L1936.61 426.001C2031.92 412.287 2161.9 415.717 2235.99 426.006L2237.09 418.082ZM1935.47 418.082L1943.31 419.685C1952.82 373.186 1957.48 291.044 1957.48 209.512C1957.48 127.979 1952.82 45.8375 1943.31 -0.661958L1935.47 0.941212L1927.63 2.54438C1936.8 47.3594 1941.48 128.131 1941.48 209.512C1941.48 290.893 1936.8 371.664 1927.63 416.479L1935.47 418.082Z" fill="black" mask="url(#path-1-inside-1_3025_6)"/>
</svg>
