<svg width="2284" height="434" viewBox="0 0 2284 434" fill="none" xmlns="http://www.w3.org/2000/svg">
<mask id="path-1-inside-1_3025_7" fill="white">
<path d="M173.893 433.312C22.8314 433.312 11.5371 350.017 13.6548 297.781C17.8901 191.897 13.6548 63.424 0.948691 0.599464C50.3613 14.7173 92.7149 14.7173 142.127 0.599464C131.539 53.5415 113.186 312.605 173.893 312.605C234.6 312.605 216.246 53.5415 205.658 0.599464C255.071 14.7173 297.424 14.7173 346.837 0.599464C334.131 63.424 329.895 191.897 334.131 297.781C336.248 350.017 324.954 433.312 173.893 433.312ZM500.65 427.645C460.974 416.309 426.966 416.309 387.291 427.645C402.594 352.828 402.594 160.684 387.291 85.8675C426.966 97.2034 460.974 97.2034 500.65 85.8675C504.617 152.182 541.459 230.4 561.297 230.4C583.968 230.4 562.997 130.644 553.928 85.8675C593.604 97.2034 627.045 97.2034 666.72 85.8675C651.417 160.684 651.417 352.828 666.72 427.645C627.045 416.875 593.604 416.875 553.928 427.645C547.127 370.965 513.119 301.816 498.382 301.816C479.678 301.816 496.682 408.94 500.65 427.645ZM979.126 427.645C939.45 415.742 911.111 415.742 871.435 427.645C878.237 393.07 858.399 331.289 799.452 323.921C801.153 365.864 804.553 403.272 809.654 427.645C769.979 416.309 741.639 416.309 701.964 427.645C717.834 352.261 717.834 168.053 701.964 90.9686C762.044 103.438 809.088 85.8675 850.464 85.8675C973.458 85.8675 996.13 238.902 911.111 295.015C967.79 332.423 972.891 396.471 979.126 427.645ZM855.565 191.858C855.565 145.381 809.088 145.948 809.088 194.692C809.088 245.704 855.565 244.003 855.565 191.858ZM1143.65 427.645C1103.98 416.309 1052.96 416.309 1013.29 427.645C1028.59 352.828 1098.31 182.223 1088.67 85.8675C1120.98 98.337 1231.5 96.0698 1258.14 85.8675C1248.51 182.223 1318.22 352.828 1333.53 427.645C1293.85 416.309 1242.84 416.309 1203.16 427.645C1208.83 374.933 1206 342.625 1173.12 342.625C1143.08 342.625 1138.55 374.933 1143.65 427.645ZM1173.12 195.259C1148.19 195.259 1137.42 262.707 1173.12 262.707C1208.83 262.707 1198.06 195.259 1173.12 195.259ZM1593.84 427.645C1559.83 418.009 1428.34 418.576 1394.33 427.645C1389.8 326.755 1358.62 149.915 1325.18 85.8675C1364.86 97.2034 1411.33 97.2034 1451.01 85.8675C1449.88 147.648 1470.85 322.221 1495.22 322.221C1515.06 322.221 1535.46 147.648 1534.33 85.8675C1574 97.2034 1617.65 97.2034 1657.32 85.8675C1623.88 149.915 1598.38 326.755 1593.84 427.645ZM1691.32 427.645C1706.62 352.828 1706.62 160.684 1691.32 85.8675C1770.1 97.2034 1877.23 94.3694 1938.44 85.8675C1925.4 110.806 1924.27 149.915 1938.44 178.255C1907.27 167.486 1873.82 166.919 1863.62 166.919C1791.07 166.919 1795.04 221.331 1845.48 221.331C1865.89 221.331 1886.86 212.829 1901.03 202.627C1886.86 232.667 1886.86 280.845 1901.03 310.885C1886.86 300.683 1865.89 292.181 1845.48 292.181C1795.04 292.181 1791.07 346.593 1857.95 346.593C1867.02 346.593 1907.27 346.026 1938.44 335.257C1924.27 363.597 1925.4 402.706 1938.44 427.645C1877.23 419.143 1770.1 416.309 1691.32 427.645ZM1975.7 0.599464C2030.05 14.7173 2065.35 13.3056 2116.88 0.599464C2104.88 87.4244 2104.88 220.838 2104.88 271.663C2104.88 324.605 2129.58 341.546 2283.47 311.193C2265.82 346.488 2267.23 395.194 2283.47 426.254C2207.23 415.665 2073.82 412.136 1975.7 426.254C1994.76 333.076 1994.76 93.7775 1975.7 0.599464Z"/>
</mask>
<path d="M173.893 433.312C22.8314 433.312 11.5371 350.017 13.6548 297.781C17.8901 191.897 13.6548 63.424 0.948691 0.599464C50.3613 14.7173 92.7149 14.7173 142.127 0.599464C131.539 53.5415 113.186 312.605 173.893 312.605C234.6 312.605 216.246 53.5415 205.658 0.599464C255.071 14.7173 297.424 14.7173 346.837 0.599464C334.131 63.424 329.895 191.897 334.131 297.781C336.248 350.017 324.954 433.312 173.893 433.312ZM500.65 427.645C460.974 416.309 426.966 416.309 387.291 427.645C402.594 352.828 402.594 160.684 387.291 85.8675C426.966 97.2034 460.974 97.2034 500.65 85.8675C504.617 152.182 541.459 230.4 561.297 230.4C583.968 230.4 562.997 130.644 553.928 85.8675C593.604 97.2034 627.045 97.2034 666.72 85.8675C651.417 160.684 651.417 352.828 666.72 427.645C627.045 416.875 593.604 416.875 553.928 427.645C547.127 370.965 513.119 301.816 498.382 301.816C479.678 301.816 496.682 408.94 500.65 427.645ZM979.126 427.645C939.45 415.742 911.111 415.742 871.435 427.645C878.237 393.07 858.399 331.289 799.452 323.921C801.153 365.864 804.553 403.272 809.654 427.645C769.979 416.309 741.639 416.309 701.964 427.645C717.834 352.261 717.834 168.053 701.964 90.9686C762.044 103.438 809.088 85.8675 850.464 85.8675C973.458 85.8675 996.13 238.902 911.111 295.015C967.79 332.423 972.891 396.471 979.126 427.645ZM855.565 191.858C855.565 145.381 809.088 145.948 809.088 194.692C809.088 245.704 855.565 244.003 855.565 191.858ZM1143.65 427.645C1103.98 416.309 1052.96 416.309 1013.29 427.645C1028.59 352.828 1098.31 182.223 1088.67 85.8675C1120.98 98.337 1231.5 96.0698 1258.14 85.8675C1248.51 182.223 1318.22 352.828 1333.53 427.645C1293.85 416.309 1242.84 416.309 1203.16 427.645C1208.83 374.933 1206 342.625 1173.12 342.625C1143.08 342.625 1138.55 374.933 1143.65 427.645ZM1173.12 195.259C1148.19 195.259 1137.42 262.707 1173.12 262.707C1208.83 262.707 1198.06 195.259 1173.12 195.259ZM1593.84 427.645C1559.83 418.009 1428.34 418.576 1394.33 427.645C1389.8 326.755 1358.62 149.915 1325.18 85.8675C1364.86 97.2034 1411.33 97.2034 1451.01 85.8675C1449.88 147.648 1470.85 322.221 1495.22 322.221C1515.06 322.221 1535.46 147.648 1534.33 85.8675C1574 97.2034 1617.65 97.2034 1657.32 85.8675C1623.88 149.915 1598.38 326.755 1593.84 427.645ZM1691.32 427.645C1706.62 352.828 1706.62 160.684 1691.32 85.8675C1770.1 97.2034 1877.23 94.3694 1938.44 85.8675C1925.4 110.806 1924.27 149.915 1938.44 178.255C1907.27 167.486 1873.82 166.919 1863.62 166.919C1791.07 166.919 1795.04 221.331 1845.48 221.331C1865.89 221.331 1886.86 212.829 1901.03 202.627C1886.86 232.667 1886.86 280.845 1901.03 310.885C1886.86 300.683 1865.89 292.181 1845.48 292.181C1795.04 292.181 1791.07 346.593 1857.95 346.593C1867.02 346.593 1907.27 346.026 1938.44 335.257C1924.27 363.597 1925.4 402.706 1938.44 427.645C1877.23 419.143 1770.1 416.309 1691.32 427.645ZM1975.7 0.599464C2030.05 14.7173 2065.35 13.3056 2116.88 0.599464C2104.88 87.4244 2104.88 220.838 2104.88 271.663C2104.88 324.605 2129.58 341.546 2283.47 311.193C2265.82 346.488 2267.23 395.194 2283.47 426.254C2207.23 415.665 2073.82 412.136 1975.7 426.254C1994.76 333.076 1994.76 93.7775 1975.7 0.599464Z" fill="#DD5587"/>
<path d="M13.6548 297.781L21.6482 298.105L21.6484 298.101L13.6548 297.781ZM0.948691 0.599464L3.14646 -7.09273L-9.49977 -10.7059L-6.89255 2.18533L0.948691 0.599464ZM142.127 0.599464L149.972 2.16839L152.545 -10.6972L139.93 -7.09273L142.127 0.599464ZM205.658 0.599464L207.856 -7.09273L195.24 -10.6972L197.813 2.1684L205.658 0.599464ZM346.837 0.599464L354.678 2.18534L357.285 -10.7059L344.639 -7.09273L346.837 0.599464ZM334.131 297.781L326.137 298.101L326.137 298.105L334.131 297.781ZM173.893 433.312V425.312C99.7464 425.312 61.9951 404.907 42.6278 380.2C23.0087 355.171 20.6088 323.743 21.6482 298.105L13.6548 297.781L5.66135 297.457C4.58304 324.055 6.77147 360.392 30.0354 390.071C53.5512 420.07 96.9777 441.312 173.893 441.312V433.312ZM13.6548 297.781L21.6484 298.101C25.8893 192.078 21.6938 62.8162 8.78993 -0.986405L0.948691 0.599464L-6.89255 2.18533C5.61575 64.0319 9.89101 191.715 5.66118 297.461L13.6548 297.781ZM0.948691 0.599464L-1.24908 8.29166C49.5999 22.8199 93.4762 22.8199 144.325 8.29166L142.127 0.599464L139.93 -7.09273C91.9536 6.61473 51.1226 6.61473 3.14646 -7.09273L0.948691 0.599464ZM142.127 0.599464L134.283 -0.969465C128.842 26.2343 121.591 104.852 123.277 176.643C124.119 212.52 127.201 247.309 134.096 273.347C137.532 286.319 142.072 297.754 148.22 306.11C154.483 314.624 162.98 320.605 173.893 320.605V312.605V304.605C169.629 304.605 165.42 302.49 161.108 296.629C156.681 290.611 152.779 281.393 149.563 269.251C143.157 245.06 140.106 211.775 139.272 176.267C137.605 105.292 144.824 27.9066 149.972 2.16839L142.127 0.599464ZM173.893 312.605V320.605C184.806 320.605 193.302 314.624 199.566 306.11C205.713 297.754 210.254 286.319 213.689 273.347C220.585 247.309 223.666 212.52 224.509 176.643C226.195 104.852 218.943 26.2343 213.503 -0.969467L205.658 0.599464L197.813 2.1684C202.961 27.9066 210.18 105.292 208.513 176.267C207.679 211.775 204.629 245.06 198.222 269.251C195.007 281.393 191.105 290.611 186.677 296.629C182.366 302.49 178.156 304.605 173.893 304.605V312.605ZM205.658 0.599464L203.46 8.29166C254.309 22.8199 298.186 22.8199 349.035 8.29166L346.837 0.599464L344.639 -7.09273C296.663 6.61473 255.832 6.61473 207.856 -7.09273L205.658 0.599464ZM346.837 0.599464L338.996 -0.986408C326.092 62.8162 321.896 192.078 326.137 298.101L334.131 297.781L342.124 297.461C337.894 191.715 342.17 64.0319 354.678 2.18534L346.837 0.599464ZM334.131 297.781L326.137 298.105C327.177 323.743 324.777 355.171 305.158 380.2C285.79 404.907 248.039 425.312 173.893 425.312V433.312V441.312C250.808 441.312 294.234 420.07 317.75 390.071C341.014 360.392 343.202 324.055 342.124 297.457L334.131 297.781ZM500.65 427.645L498.452 435.337L511.234 438.989L508.476 425.985L500.65 427.645ZM387.291 427.645L379.453 426.041L376.811 438.959L389.489 435.337L387.291 427.645ZM387.291 85.8675L389.489 78.1753L376.811 74.5531L379.453 87.4707L387.291 85.8675ZM500.65 85.8675L508.635 85.3897L508.04 75.4359L498.452 78.1753L500.65 85.8675ZM553.928 85.8675L556.126 78.1753L543.476 74.561L546.088 87.4555L553.928 85.8675ZM666.72 85.8675L674.558 87.4707L677.2 74.5531L664.523 78.1753L666.72 85.8675ZM666.72 427.645L664.625 435.365L677.161 438.768L674.558 426.041L666.72 427.645ZM553.928 427.645L545.985 428.598L547.088 437.791L556.024 435.365L553.928 427.645ZM500.65 427.645L502.847 419.952C461.735 408.206 426.205 408.206 385.093 419.952L387.291 427.645L389.489 435.337C427.728 424.411 460.213 424.411 498.452 435.337L500.65 427.645ZM387.291 427.645L395.128 429.248C402.952 390.997 406.768 323.572 406.768 256.756C406.768 189.94 402.952 122.515 395.128 84.2643L387.291 85.8675L379.453 87.4707C386.932 124.037 390.768 190.092 390.768 256.756C390.768 323.42 386.932 389.475 379.453 426.041L387.291 427.645ZM387.291 85.8675L385.093 93.5597C426.205 105.306 461.735 105.306 502.847 93.5597L500.65 85.8675L498.452 78.1753C460.213 89.1008 427.728 89.1008 389.489 78.1753L387.291 85.8675ZM500.65 85.8675L492.664 86.3453C494.715 120.626 505.209 157.686 517.693 186.209C523.934 200.47 530.813 212.922 537.62 221.956C541.014 226.461 544.577 230.368 548.243 233.222C551.791 235.984 556.259 238.4 561.297 238.4V230.4V222.4C561.375 222.4 560.352 222.372 558.072 220.597C555.911 218.915 553.311 216.193 550.399 212.328C544.594 204.624 538.296 193.378 532.351 179.794C520.462 152.63 510.552 117.424 508.635 85.3897L500.65 85.8675ZM561.297 230.4V238.4C567.813 238.4 572.278 234.507 574.839 229.939C577.205 225.72 578.358 220.377 578.939 214.969C580.12 203.988 579.246 189.385 577.462 174.003C573.872 143.058 566.28 106.553 561.769 84.2795L553.928 85.8675L546.088 87.4555C550.645 109.959 558.073 145.72 561.568 175.847C563.326 191.001 564.012 204.135 563.031 213.259C562.532 217.902 561.675 220.702 560.883 222.113C560.288 223.176 560.449 222.4 561.297 222.4V230.4ZM553.928 85.8675L551.731 93.5597C592.843 105.306 627.806 105.306 668.918 93.5597L666.72 85.8675L664.523 78.1753C626.283 89.1008 594.365 89.1008 556.126 78.1753L553.928 85.8675ZM666.72 85.8675L658.883 84.2643C651.059 122.515 647.243 189.94 647.243 256.756C647.243 323.572 651.059 390.997 658.883 429.248L666.72 427.645L674.558 426.041C667.079 389.475 663.243 323.42 663.243 256.756C663.243 190.092 667.079 124.037 674.558 87.4707L666.72 85.8675ZM666.72 427.645L668.816 419.924C627.768 408.782 592.881 408.782 551.833 419.924L553.928 427.645L556.024 435.365C594.327 424.969 626.321 424.969 664.625 435.365L666.72 427.645ZM553.928 427.645L561.871 426.691C558.349 397.336 547.852 365.067 536.401 340.137C530.674 327.668 524.576 316.741 518.789 308.796C515.91 304.844 512.923 301.372 509.904 298.804C507.128 296.443 503.135 293.816 498.382 293.816V301.816V309.816C497.314 309.816 497.607 309.35 499.539 310.992C501.226 312.428 503.367 314.8 505.856 318.216C510.802 325.008 516.394 334.911 521.861 346.815C532.799 370.628 542.706 401.274 545.985 428.598L553.928 427.645ZM498.382 301.816V293.816C491.275 293.816 487.423 299.184 485.636 303.208C483.787 307.37 482.836 312.658 482.323 318.096C481.281 329.157 481.828 343.705 483.041 358.376C485.478 387.83 490.77 419.622 492.824 429.305L500.65 427.645L508.476 425.985C506.562 416.963 501.368 385.84 498.987 357.057C497.792 342.609 497.347 329.206 498.253 319.597C498.714 314.7 499.472 311.473 500.258 309.703C501.105 307.796 500.814 309.816 498.382 309.816V301.816ZM979.126 427.645L976.827 435.307L989.582 439.134L986.971 426.076L979.126 427.645ZM871.435 427.645L863.586 426.1L861.024 439.12L873.734 435.307L871.435 427.645ZM799.452 323.921L800.444 315.983L791.076 314.812L791.459 324.245L799.452 323.921ZM809.654 427.645L807.457 435.337L820.2 438.978L817.485 426.006L809.654 427.645ZM701.964 427.645L694.135 425.996L691.401 438.982L704.161 435.337L701.964 427.645ZM701.964 90.9686L703.589 83.1356L691.674 80.6626L694.128 92.5819L701.964 90.9686ZM911.111 295.015L906.704 288.338L896.587 295.015L906.704 301.692L911.111 295.015ZM979.126 427.645L981.425 419.982C940.25 407.629 910.311 407.629 869.136 419.982L871.435 427.645L873.734 435.307C911.91 423.854 938.651 423.854 976.827 435.307L979.126 427.645ZM871.435 427.645L879.285 429.189C883.075 409.921 879.423 383.921 867.095 361.699C854.611 339.198 832.893 320.039 800.444 315.983L799.452 323.921L798.46 331.859C824.958 335.172 842.632 350.587 853.104 369.462C863.731 388.616 866.597 410.794 863.586 426.1L871.435 427.645ZM799.452 323.921L791.459 324.245C793.163 366.29 796.582 404.239 801.824 429.283L809.654 427.645L817.485 426.006C812.524 402.306 809.142 365.438 807.446 323.597L799.452 323.921ZM809.654 427.645L811.852 419.952C770.74 408.206 740.878 408.206 699.766 419.952L701.964 427.645L704.161 435.337C742.4 424.411 769.218 424.411 807.457 435.337L809.654 427.645ZM701.964 427.645L709.792 429.293C717.906 390.749 721.866 325.161 721.866 259.944C721.866 194.716 717.905 128.725 709.799 89.3554L701.964 90.9686L694.128 92.5819C701.893 130.296 705.866 194.952 705.866 259.944C705.866 324.948 701.891 389.156 694.135 425.996L701.964 427.645ZM701.964 90.9686L700.338 98.8017C731.56 105.282 759.295 103.922 784.149 101.041C809.517 98.0997 830.374 93.8675 850.464 93.8675V85.8675V77.8675C829.177 77.8675 805.825 82.4206 782.306 85.1474C758.274 87.9337 732.448 89.125 703.589 83.1356L701.964 90.9686ZM850.464 85.8675V93.8675C907.87 93.8675 941.332 129.185 950.996 171.192C960.779 213.718 946.016 262.392 906.704 288.338L911.111 295.015L915.517 301.692C961.224 271.525 977.636 215.625 966.589 167.605C955.423 119.067 916.052 77.8675 850.464 77.8675V85.8675ZM911.111 295.015L906.704 301.692C959.986 336.858 964.783 396.721 971.281 429.213L979.126 427.645L986.971 426.076C981 396.22 975.594 327.989 915.517 288.338L911.111 295.015ZM855.565 191.858H863.565C863.565 166.598 850.348 148.902 832.034 149.572C814.034 150.231 801.088 168.455 801.088 194.692H809.088H817.088C817.088 172.185 827.38 165.753 832.619 165.562C837.543 165.381 847.565 170.641 847.565 191.858H855.565ZM809.088 194.692H801.088C801.088 208.565 804.237 219.782 809.805 227.703C815.437 235.717 823.68 240.39 832.716 239.949C841.656 239.513 849.59 234.162 855.008 225.837C860.418 217.523 863.565 206.012 863.565 191.858H855.565H847.565C847.565 203.777 844.902 212.032 841.598 217.109C838.301 222.174 834.616 223.838 831.936 223.968C829.353 224.094 825.976 222.887 822.895 218.502C819.748 214.025 817.088 206.325 817.088 194.692H809.088ZM1143.65 427.645L1141.45 435.337L1152.75 438.563L1151.61 426.874L1143.65 427.645ZM1013.29 427.645L1005.45 426.041L1002.81 438.959L1015.49 435.337L1013.29 427.645ZM1088.67 85.8675L1091.55 78.4041L1079.42 73.7203L1080.71 86.6635L1088.67 85.8675ZM1258.14 85.8675L1266.1 86.6635L1267.39 73.758L1255.28 78.3966L1258.14 85.8675ZM1333.53 427.645L1331.33 435.337L1344.01 438.959L1341.37 426.041L1333.53 427.645ZM1203.16 427.645L1195.21 426.789L1193.94 438.6L1205.36 435.337L1203.16 427.645ZM1143.65 427.645L1145.85 419.952C1104.74 408.206 1052.2 408.206 1011.09 419.952L1013.29 427.645L1015.49 435.337C1053.73 424.411 1103.21 424.411 1141.45 435.337L1143.65 427.645ZM1013.29 427.645L1021.13 429.248C1024.86 410.973 1031.98 386.639 1040.53 358.56C1049.04 330.626 1058.93 299.138 1068.03 267.013C1086.13 203.107 1101.62 134.97 1096.63 85.0715L1088.67 85.8675L1080.71 86.6635C1085.36 133.12 1070.81 198.463 1052.64 262.653C1043.6 294.576 1033.79 325.789 1025.23 353.897C1016.71 381.86 1009.36 406.908 1005.45 426.041L1013.29 427.645ZM1088.67 85.8675L1085.79 93.3309C1094.98 96.8773 1108.9 99.1401 1124.32 100.53C1139.96 101.941 1157.91 102.512 1175.6 102.369C1193.29 102.226 1210.86 101.367 1225.76 99.8859C1240.38 98.4326 1253.24 96.3104 1261.01 93.3383L1258.14 85.8675L1255.28 78.3966C1249.72 80.5258 1238.78 82.5128 1224.18 83.9643C1209.85 85.3884 1192.77 86.2296 1175.47 86.3697C1158.16 86.5098 1140.75 85.9477 1125.75 84.5951C1110.53 83.2223 1098.52 81.0925 1091.55 78.4041L1088.67 85.8675ZM1258.14 85.8675L1250.18 85.0715C1245.19 134.97 1260.69 203.107 1278.79 267.013C1287.88 299.138 1297.77 330.626 1306.29 358.56C1314.84 386.639 1321.95 410.973 1325.69 429.248L1333.53 427.645L1341.37 426.041C1337.45 406.908 1330.11 381.86 1321.59 353.897C1313.03 325.789 1303.22 294.576 1294.18 262.653C1276 198.463 1261.46 133.12 1266.1 86.6635L1258.14 85.8675ZM1333.53 427.645L1335.73 419.952C1294.61 408.206 1242.08 408.206 1200.97 419.952L1203.16 427.645L1205.36 435.337C1243.6 424.411 1293.09 424.411 1331.33 435.337L1333.53 427.645ZM1203.16 427.645L1211.12 428.5C1213.94 402.248 1214.88 379.545 1210.3 363.21C1207.95 354.833 1203.99 347.471 1197.49 342.258C1190.94 336.997 1182.68 334.625 1173.12 334.625V342.625V350.625C1180 350.625 1184.43 352.292 1187.48 354.736C1190.58 357.228 1193.13 361.237 1194.89 367.526C1198.54 380.523 1198.06 400.329 1195.21 426.789L1203.16 427.645ZM1173.12 342.625V334.625C1164.1 334.625 1156.25 337.091 1149.97 342.38C1143.81 347.573 1139.93 354.853 1137.53 363.141C1132.81 379.413 1133.14 402.033 1135.69 428.415L1143.65 427.645L1151.61 426.874C1149.07 400.544 1149.11 380.654 1152.89 367.595C1154.74 361.217 1157.3 357.126 1160.29 354.614C1163.15 352.198 1167.13 350.625 1173.12 350.625V342.625ZM1173.12 195.259V187.259C1162.94 187.259 1155.45 194.13 1150.8 201.553C1146.05 209.143 1143.16 218.86 1142.41 228.346C1141.66 237.766 1142.93 247.967 1147.61 256.145C1152.57 264.793 1161.15 270.707 1173.12 270.707V262.707V254.707C1167.25 254.707 1163.79 252.19 1161.5 248.192C1158.94 243.723 1157.76 237.062 1158.36 229.62C1158.95 222.244 1161.2 215.099 1164.36 210.043C1167.63 204.818 1170.84 203.259 1173.12 203.259V195.259ZM1173.12 262.707V270.707C1185.1 270.707 1193.68 264.793 1198.64 256.145C1203.32 247.967 1204.59 237.766 1203.84 228.346C1203.08 218.86 1200.2 209.143 1195.45 201.553C1190.8 194.13 1183.31 187.259 1173.12 187.259V195.259V203.259C1175.41 203.259 1178.62 204.818 1181.89 210.043C1185.05 215.099 1187.3 222.244 1187.89 229.62C1188.49 237.062 1187.31 243.723 1184.75 248.192C1182.46 252.19 1179 254.707 1173.12 254.707V262.707ZM1593.84 427.645L1591.66 435.342L1601.38 438.095L1601.83 428.004L1593.84 427.645ZM1394.33 427.645L1386.34 428.004L1386.78 437.936L1396.39 435.374L1394.33 427.645ZM1325.18 85.8675L1327.38 78.1753L1309.47 73.0579L1318.09 89.5702L1325.18 85.8675ZM1451.01 85.8675L1459.01 86.0143L1459.21 75.2054L1448.81 78.1753L1451.01 85.8675ZM1534.33 85.8675L1536.53 78.1753L1526.13 75.2054L1526.33 86.0143L1534.33 85.8675ZM1657.32 85.8675L1664.41 89.5702L1673.04 73.058L1655.12 78.1753L1657.32 85.8675ZM1593.84 427.645L1596.02 419.948C1586.63 417.285 1571.27 415.482 1553.63 414.322C1535.77 413.147 1514.89 412.595 1494.07 412.63C1473.25 412.666 1452.38 413.29 1434.53 414.481C1416.88 415.66 1401.59 417.428 1392.27 419.915L1394.33 427.645L1396.39 435.374C1404.07 433.327 1417.97 431.623 1435.6 430.446C1453.03 429.282 1473.55 428.666 1494.1 428.63C1514.65 428.595 1535.16 429.141 1552.58 430.287C1570.21 431.447 1584.05 433.186 1591.66 435.342L1593.84 427.645ZM1394.33 427.645L1402.32 427.285C1400.03 376.353 1391.04 306.521 1378.45 241.421C1365.91 176.599 1349.59 115.331 1332.27 82.1648L1325.18 85.8675L1318.09 89.5702C1334.21 120.452 1350.2 179.628 1362.74 244.46C1375.23 309.014 1384.09 378.046 1386.34 428.004L1394.33 427.645ZM1325.18 85.8675L1322.98 93.5597C1364.09 105.306 1412.09 105.306 1453.21 93.5597L1451.01 85.8675L1448.81 78.1753C1410.57 89.1008 1365.62 89.1008 1327.38 78.1753L1325.18 85.8675ZM1451.01 85.8675L1443.01 85.7207C1442.43 117.249 1447.46 176.841 1455.65 228.465C1459.74 254.284 1464.68 278.475 1470.23 296.348C1472.98 305.226 1476.02 312.986 1479.4 318.681C1481.08 321.524 1483.07 324.222 1485.45 326.29C1487.87 328.382 1491.17 330.221 1495.22 330.221V322.221V314.221C1496.23 314.221 1496.51 314.696 1495.93 314.201C1495.33 313.681 1494.37 312.568 1493.16 310.517C1490.73 306.424 1488.13 300.062 1485.51 291.609C1480.3 274.819 1475.5 251.506 1471.45 225.959C1463.34 174.851 1458.45 116.266 1459.01 86.0143L1451.01 85.8675ZM1495.22 322.221V330.221C1499.56 330.221 1502.75 327.835 1504.72 325.778C1506.74 323.665 1508.4 320.967 1509.79 318.185C1512.61 312.571 1515.19 304.901 1517.58 296.066C1522.39 278.277 1526.82 254.159 1530.55 228.359C1538.02 176.795 1542.9 117.227 1542.33 85.7207L1534.33 85.8675L1526.33 86.0143C1526.88 116.289 1522.13 174.897 1514.72 226.065C1511.02 251.631 1506.7 275.017 1502.14 291.891C1499.84 300.388 1497.58 306.838 1495.49 311.013C1494.43 313.125 1493.62 314.237 1493.16 314.712C1492.65 315.243 1493.36 314.221 1495.22 314.221V322.221ZM1534.33 85.8675L1532.13 93.5597C1573.24 105.306 1618.41 105.306 1659.52 93.5597L1657.32 85.8675L1655.12 78.1753C1616.89 89.1008 1574.76 89.1008 1536.53 78.1753L1534.33 85.8675ZM1657.32 85.8675L1650.23 82.1648C1632.86 115.433 1617.97 176.815 1606.86 241.588C1595.68 306.701 1588.13 376.467 1585.85 427.285L1593.84 427.645L1601.83 428.004C1604.08 377.933 1611.55 308.834 1622.63 244.293C1633.76 179.411 1648.34 120.349 1664.41 89.5702L1657.32 85.8675ZM1691.32 427.645L1683.48 426.041L1681.2 437.183L1692.46 435.563L1691.32 427.645ZM1691.32 85.8675L1692.46 77.949L1681.2 76.3295L1683.48 87.4707L1691.32 85.8675ZM1938.44 85.8675L1945.53 89.5735L1952.73 75.8065L1937.34 77.9436L1938.44 85.8675ZM1938.44 178.255L1935.83 185.817L1954.37 192.221L1945.59 174.677L1938.44 178.255ZM1901.03 202.627L1908.27 206.04L1921.47 178.056L1896.36 196.135L1901.03 202.627ZM1901.03 310.885L1896.36 317.377L1921.47 335.456L1908.27 307.472L1901.03 310.885ZM1938.44 335.257L1945.59 338.835L1954.37 321.291L1935.83 327.696L1938.44 335.257ZM1938.44 427.645L1937.34 435.568L1952.73 437.706L1945.53 423.939L1938.44 427.645ZM1691.32 427.645L1699.15 429.248C1706.98 390.997 1710.79 323.572 1710.79 256.756C1710.79 189.94 1706.98 122.515 1699.15 84.2643L1691.32 85.8675L1683.48 87.4707C1690.96 124.037 1694.79 190.092 1694.79 256.756C1694.79 323.42 1690.96 389.475 1683.48 426.041L1691.32 427.645ZM1691.32 85.8675L1690.18 93.7859C1769.81 105.244 1877.7 102.381 1939.54 93.7914L1938.44 85.8675L1937.34 77.9436C1876.75 86.3583 1770.39 89.1626 1692.46 77.949L1691.32 85.8675ZM1938.44 85.8675L1931.35 82.1615C1917.12 109.381 1915.97 151.2 1931.28 181.833L1938.44 178.255L1945.59 174.677C1932.57 148.631 1933.68 112.232 1945.53 89.5735L1938.44 85.8675ZM1938.44 178.255L1941.05 170.693C1908.55 159.468 1874 158.919 1863.62 158.919V166.919V174.919C1873.65 174.919 1905.98 175.504 1935.83 185.817L1938.44 178.255ZM1863.62 166.919V158.919C1844.57 158.919 1829.75 162.478 1819.16 168.453C1808.54 174.442 1801.79 183.162 1800.5 193.092C1799.19 203.097 1803.68 212.507 1811.82 219.059C1819.89 225.562 1831.5 229.331 1845.48 229.331V221.331V213.331C1834.24 213.331 1826.45 210.299 1821.85 206.6C1817.32 202.949 1815.89 198.757 1816.36 195.158C1816.84 191.486 1819.55 186.602 1827.02 182.389C1834.51 178.162 1846.39 174.919 1863.62 174.919V166.919ZM1845.48 221.331V229.331C1867.88 229.331 1890.46 220.099 1905.7 209.119L1901.03 202.627L1896.36 196.135C1883.27 205.56 1863.89 213.331 1845.48 213.331V221.331ZM1901.03 202.627L1893.79 199.214C1886.07 215.582 1882.4 236.376 1882.4 256.756C1882.4 277.136 1886.07 297.93 1893.79 314.298L1901.03 310.885L1908.27 307.472C1901.82 293.799 1898.4 275.485 1898.4 256.756C1898.4 238.027 1901.82 219.713 1908.27 206.04L1901.03 202.627ZM1901.03 310.885L1905.7 304.393C1890.46 293.413 1867.88 284.181 1845.48 284.181V292.181V300.181C1863.89 300.181 1883.27 307.952 1896.36 317.377L1901.03 310.885ZM1845.48 292.181V284.181C1818.16 284.181 1798.15 299.539 1799.75 320.01C1800.52 329.869 1806.55 338.748 1816.49 344.894C1826.36 351.001 1840.24 354.593 1857.95 354.593V346.593V338.593C1842.23 338.593 1831.52 335.383 1824.91 331.288C1818.35 327.232 1815.99 322.508 1815.7 318.764C1815.17 312.028 1822.36 300.181 1845.48 300.181V292.181ZM1857.95 346.593V354.593C1867.03 354.593 1908.48 354.069 1941.05 342.819L1938.44 335.257L1935.83 327.696C1906.05 337.983 1867.02 338.593 1857.95 338.593V346.593ZM1938.44 335.257L1931.28 331.679C1915.97 362.313 1917.12 404.131 1931.35 431.351L1938.44 427.645L1945.53 423.939C1933.68 401.28 1932.57 364.881 1945.59 338.835L1938.44 335.257ZM1938.44 427.645L1939.54 419.721C1877.7 411.132 1769.81 408.268 1690.18 419.726L1691.32 427.645L1692.46 435.563C1770.39 424.349 1876.75 427.154 1937.34 435.568L1938.44 427.645ZM1975.7 0.599464L1977.71 -7.14361L1965.29 -10.3697L1967.86 2.20263L1975.7 0.599464ZM2116.88 0.599464L2124.8 1.69474L2126.42 -9.99247L2114.96 -7.16789L2116.88 0.599464ZM2283.47 311.193L2290.62 314.771L2297.92 300.189L2281.92 303.344L2283.47 311.193ZM2283.47 426.254L2282.37 434.177L2297.76 436.315L2290.56 422.548L2283.47 426.254ZM1975.7 426.254L1967.86 424.65L1965.58 435.792L1976.84 434.172L1975.7 426.254ZM1975.7 0.599464L1973.69 8.34253C2029.48 22.8327 2066.13 21.3527 2118.79 8.36682L2116.88 0.599464L2114.96 -7.16789C2064.57 5.25841 2030.63 6.60197 1977.71 -7.14361L1975.7 0.599464ZM2116.88 0.599464L2108.95 -0.495815C2096.86 86.988 2096.88 221.007 2096.88 271.663H2104.88H2112.88C2112.88 220.67 2112.89 87.8609 2124.8 1.69474L2116.88 0.599464ZM2104.88 271.663H2096.88C2096.88 285.298 2098.42 297.944 2104.14 308.306C2110.09 319.1 2119.97 326.384 2134.33 330.372C2148.36 334.27 2166.96 335.122 2191.26 333.243C2215.67 331.355 2246.41 326.656 2285.02 319.042L2283.47 311.193L2281.92 303.344C2243.58 310.906 2213.53 315.472 2190.03 317.29C2166.41 319.117 2149.99 318.116 2138.61 314.955C2127.55 311.884 2121.64 306.903 2118.15 300.579C2114.42 293.824 2112.88 284.499 2112.88 271.663H2104.88ZM2283.47 311.193L2276.31 307.615C2257.52 345.203 2258.95 396.62 2276.38 429.96L2283.47 426.254L2290.56 422.548C2275.52 393.769 2274.12 347.772 2290.62 314.771L2283.47 311.193ZM2283.47 426.254L2284.57 418.33C2207.71 407.654 2073.53 404.095 1974.56 418.335L1975.7 426.254L1976.84 434.172C2074.11 420.176 2206.76 423.676 2282.37 434.177L2283.47 426.254ZM1975.7 426.254L1983.54 427.857C1993.24 380.426 1997.99 296.621 1997.99 213.427C1997.99 130.232 1993.24 46.4275 1983.54 -1.00371L1975.7 0.599464L1967.86 2.20263C1977.22 47.9494 1981.99 130.383 1981.99 213.427C1981.99 296.47 1977.22 378.904 1967.86 424.65L1975.7 426.254Z" fill="black" mask="url(#path-1-inside-1_3025_7)"/>
</svg>
