<svg width="2330" height="443" viewBox="0 0 2330 443" fill="none" xmlns="http://www.w3.org/2000/svg">
<mask id="path-1-inside-1_3025_8" fill="white">
<path d="M177.134 442.312C22.9902 442.312 11.4654 357.317 13.6263 304.015C17.9481 195.97 13.6263 64.8753 0.660884 0.768582C51.0819 15.1746 94.2999 15.1746 144.721 0.768582C133.916 54.7911 115.189 319.141 177.134 319.141C239.08 319.141 220.352 54.7911 209.548 0.768582C259.969 15.1746 303.187 15.1746 353.608 0.768582C340.642 64.8753 336.321 195.97 340.642 304.015C342.803 357.317 331.279 442.312 177.134 442.312ZM510.56 436.529C470.074 424.962 435.373 424.962 394.887 436.529C410.503 360.185 410.503 164.121 394.887 87.7768C435.373 99.344 470.074 99.344 510.56 87.7768C514.608 155.445 552.202 235.259 572.445 235.259C595.579 235.259 574.18 133.467 564.926 87.7768C605.411 99.344 639.534 99.344 680.02 87.7768C664.404 164.121 664.404 360.185 680.02 436.529C639.534 425.54 605.411 425.54 564.926 436.529C557.985 378.693 523.284 308.133 508.246 308.133C489.16 308.133 506.511 417.443 510.56 436.529ZM998.801 436.529C958.316 424.383 929.398 424.383 888.912 436.529C895.853 401.249 875.61 338.207 815.46 330.689C817.195 373.487 820.666 411.659 825.871 436.529C785.385 424.962 756.467 424.962 715.982 436.529C732.176 359.607 732.176 171.639 715.982 92.9821C777.288 105.706 825.292 87.7768 867.513 87.7768C993.017 87.7768 1016.15 243.934 929.398 301.192C987.234 339.364 992.439 404.719 998.801 436.529ZM872.718 195.93C872.718 148.505 825.292 149.083 825.292 198.822C825.292 250.875 872.718 249.14 872.718 195.93ZM1166.68 436.529C1126.2 424.962 1074.15 424.962 1033.66 436.529C1049.28 360.185 1120.41 186.098 1110.58 87.7768C1143.55 100.501 1256.33 98.1873 1283.51 87.7768C1273.68 186.098 1344.82 360.185 1360.44 436.529C1319.95 424.962 1267.9 424.962 1227.41 436.529C1233.2 382.741 1230.3 349.775 1196.76 349.775C1166.11 349.775 1161.48 382.741 1166.68 436.529ZM1196.76 199.401C1171.31 199.401 1160.32 268.226 1196.76 268.226C1233.2 268.226 1222.21 199.401 1196.76 199.401ZM1626.06 436.529C1591.36 426.697 1457.18 427.275 1422.48 436.529C1417.85 333.581 1386.04 153.132 1351.92 87.7768C1392.4 99.344 1439.83 99.344 1480.31 87.7768C1479.16 150.818 1500.56 328.954 1525.43 328.954C1545.67 328.954 1566.49 150.818 1565.33 87.7768C1605.82 99.344 1650.35 99.344 1690.84 87.7768C1656.71 153.132 1630.69 333.581 1626.06 436.529ZM1725.53 436.529C1741.14 360.185 1741.14 164.121 1725.53 87.7768C1805.92 99.344 1915.23 96.4522 1977.69 87.7768C1964.39 113.225 1963.23 153.132 1977.69 182.05C1945.88 171.061 1911.76 170.483 1901.35 170.483C1827.32 170.483 1831.37 226.005 1882.84 226.005C1903.66 226.005 1925.06 217.33 1939.52 206.919C1925.06 237.572 1925.06 286.733 1939.52 317.386C1925.06 306.976 1903.66 298.3 1882.84 298.3C1831.37 298.3 1827.32 353.823 1895.56 353.823C1904.82 353.823 1945.88 353.245 1977.69 342.256C1963.23 371.174 1964.39 411.081 1977.69 436.529C1915.23 427.853 1805.92 424.962 1725.53 436.529ZM2015.71 0.768582C2071.18 15.1746 2107.19 13.734 2159.77 0.768582C2147.53 89.3655 2147.53 225.502 2147.53 277.364C2147.53 331.386 2172.74 348.673 2329.76 317.701C2311.76 353.716 2313.2 403.416 2329.76 435.109C2251.97 424.305 2115.83 420.703 2015.71 435.109C2035.16 340.03 2035.16 95.8482 2015.71 0.768582Z"/>
</mask>
<path d="M177.134 442.312C22.9902 442.312 11.4654 357.317 13.6263 304.015C17.9481 195.97 13.6263 64.8753 0.660884 0.768582C51.0819 15.1746 94.2999 15.1746 144.721 0.768582C133.916 54.7911 115.189 319.141 177.134 319.141C239.08 319.141 220.352 54.7911 209.548 0.768582C259.969 15.1746 303.187 15.1746 353.608 0.768582C340.642 64.8753 336.321 195.97 340.642 304.015C342.803 357.317 331.279 442.312 177.134 442.312ZM510.56 436.529C470.074 424.962 435.373 424.962 394.887 436.529C410.503 360.185 410.503 164.121 394.887 87.7768C435.373 99.344 470.074 99.344 510.56 87.7768C514.608 155.445 552.202 235.259 572.445 235.259C595.579 235.259 574.18 133.467 564.926 87.7768C605.411 99.344 639.534 99.344 680.02 87.7768C664.404 164.121 664.404 360.185 680.02 436.529C639.534 425.54 605.411 425.54 564.926 436.529C557.985 378.693 523.284 308.133 508.246 308.133C489.16 308.133 506.511 417.443 510.56 436.529ZM998.801 436.529C958.316 424.383 929.398 424.383 888.912 436.529C895.853 401.249 875.61 338.207 815.46 330.689C817.195 373.487 820.666 411.659 825.871 436.529C785.385 424.962 756.467 424.962 715.982 436.529C732.176 359.607 732.176 171.639 715.982 92.9821C777.288 105.706 825.292 87.7768 867.513 87.7768C993.017 87.7768 1016.15 243.934 929.398 301.192C987.234 339.364 992.439 404.719 998.801 436.529ZM872.718 195.93C872.718 148.505 825.292 149.083 825.292 198.822C825.292 250.875 872.718 249.14 872.718 195.93ZM1166.68 436.529C1126.2 424.962 1074.15 424.962 1033.66 436.529C1049.28 360.185 1120.41 186.098 1110.58 87.7768C1143.55 100.501 1256.33 98.1873 1283.51 87.7768C1273.68 186.098 1344.82 360.185 1360.44 436.529C1319.95 424.962 1267.9 424.962 1227.41 436.529C1233.2 382.741 1230.3 349.775 1196.76 349.775C1166.11 349.775 1161.48 382.741 1166.68 436.529ZM1196.76 199.401C1171.31 199.401 1160.32 268.226 1196.76 268.226C1233.2 268.226 1222.21 199.401 1196.76 199.401ZM1626.06 436.529C1591.36 426.697 1457.18 427.275 1422.48 436.529C1417.85 333.581 1386.04 153.132 1351.92 87.7768C1392.4 99.344 1439.83 99.344 1480.31 87.7768C1479.16 150.818 1500.56 328.954 1525.43 328.954C1545.67 328.954 1566.49 150.818 1565.33 87.7768C1605.82 99.344 1650.35 99.344 1690.84 87.7768C1656.71 153.132 1630.69 333.581 1626.06 436.529ZM1725.53 436.529C1741.14 360.185 1741.14 164.121 1725.53 87.7768C1805.92 99.344 1915.23 96.4522 1977.69 87.7768C1964.39 113.225 1963.23 153.132 1977.69 182.05C1945.88 171.061 1911.76 170.483 1901.35 170.483C1827.32 170.483 1831.37 226.005 1882.84 226.005C1903.66 226.005 1925.06 217.33 1939.52 206.919C1925.06 237.572 1925.06 286.733 1939.52 317.386C1925.06 306.976 1903.66 298.3 1882.84 298.3C1831.37 298.3 1827.32 353.823 1895.56 353.823C1904.82 353.823 1945.88 353.245 1977.69 342.256C1963.23 371.174 1964.39 411.081 1977.69 436.529C1915.23 427.853 1805.92 424.962 1725.53 436.529ZM2015.71 0.768582C2071.18 15.1746 2107.19 13.734 2159.77 0.768582C2147.53 89.3655 2147.53 225.502 2147.53 277.364C2147.53 331.386 2172.74 348.673 2329.76 317.701C2311.76 353.716 2313.2 403.416 2329.76 435.109C2251.97 424.305 2115.83 420.703 2015.71 435.109C2035.16 340.03 2035.16 95.8482 2015.71 0.768582Z" fill="#F66541"/>
<path d="M13.6263 304.015L21.6197 304.339L21.6199 304.335L13.6263 304.015ZM0.660884 0.768582L2.85865 -6.92361L-9.78758 -10.5368L-7.18035 2.35445L0.660884 0.768582ZM144.721 0.768582L152.566 2.33751L155.139 -10.528L142.523 -6.92361L144.721 0.768582ZM209.548 0.768582L211.746 -6.92361L199.13 -10.528L201.703 2.33751L209.548 0.768582ZM353.608 0.768582L361.449 2.35445L364.056 -10.5368L351.41 -6.92361L353.608 0.768582ZM340.642 304.015L332.649 304.335L332.649 304.339L340.642 304.015ZM177.134 442.312V434.312C101.447 434.312 62.867 413.482 43.0621 388.217C23.0054 362.63 20.5587 330.51 21.6197 304.339L13.6263 304.015L5.63285 303.691C4.53293 330.822 6.76818 367.851 30.4697 398.087C54.4231 428.645 98.6779 450.312 177.134 450.312V442.312ZM13.6263 304.015L21.6199 304.335C25.9472 196.151 21.6653 64.2674 8.50212 -0.817287L0.660884 0.768582L-7.18035 2.35445C5.58725 65.4831 9.94895 195.788 5.63268 303.695L13.6263 304.015ZM0.660884 0.768582L-1.53688 8.46077C50.3206 23.2772 95.0612 23.2772 146.919 8.46077L144.721 0.768582L142.523 -6.92361C93.5386 7.07197 51.8432 7.07197 2.85865 -6.92361L0.660884 0.768582ZM144.721 0.768582L136.876 -0.800347C131.327 26.9437 123.928 107.153 125.648 180.401C126.508 217.006 129.652 252.49 136.684 279.04C140.187 292.269 144.814 303.915 151.069 312.418C157.44 321.078 166.066 327.141 177.134 327.141V319.141V311.141C172.716 311.141 168.377 308.944 163.957 302.936C159.422 296.772 155.434 287.342 152.15 274.944C145.608 250.241 142.495 216.261 141.644 180.025C139.943 107.593 147.31 28.616 152.566 2.33751L144.721 0.768582ZM177.134 319.141V327.141C188.202 327.141 196.829 321.078 203.2 312.418C209.455 303.915 214.082 292.269 217.585 279.04C224.616 252.49 227.761 217.006 228.62 180.401C230.341 107.153 222.941 26.9437 217.393 -0.800349L209.548 0.768582L201.703 2.33751C206.959 28.616 214.326 107.593 212.625 180.025C211.774 216.261 208.66 250.241 202.118 274.944C198.835 287.342 194.847 296.772 190.311 302.936C185.892 308.944 181.553 311.141 177.134 311.141V319.141ZM209.548 0.768582L207.35 8.46077C259.208 23.2772 303.948 23.2772 355.806 8.46077L353.608 0.768582L351.41 -6.92361C302.426 7.07197 260.73 7.07197 211.746 -6.92361L209.548 0.768582ZM353.608 0.768582L345.767 -0.81729C332.603 64.2674 328.322 196.151 332.649 304.335L340.642 304.015L348.636 303.695C344.32 195.788 348.682 65.4831 361.449 2.35445L353.608 0.768582ZM340.642 304.015L332.649 304.339C333.71 330.51 331.263 362.63 311.207 388.217C291.402 413.482 252.822 434.312 177.134 434.312V442.312V450.312C255.591 450.312 299.846 428.645 323.799 398.087C347.501 367.851 349.736 330.822 348.636 303.691L340.642 304.015ZM510.56 436.529L508.362 444.221L521.144 447.873L518.386 434.869L510.56 436.529ZM394.887 436.529L387.05 434.926L384.408 447.843L397.085 444.221L394.887 436.529ZM394.887 87.7768L397.085 80.0846L384.408 76.4624L387.05 89.38L394.887 87.7768ZM510.56 87.7768L518.546 87.299L517.95 77.3452L508.362 80.0846L510.56 87.7768ZM564.926 87.7768L567.124 80.0846L554.473 76.4703L557.085 89.3648L564.926 87.7768ZM680.02 87.7768L687.857 89.38L690.5 76.4624L677.822 80.0846L680.02 87.7768ZM680.02 436.529L677.924 444.25L690.461 447.652L687.857 434.926L680.02 436.529ZM564.926 436.529L556.983 437.482L558.086 446.675L567.021 444.25L564.926 436.529ZM510.56 436.529L512.758 428.837C470.836 416.859 434.611 416.859 392.69 428.837L394.887 436.529L397.085 444.221C436.134 433.064 469.313 433.064 508.362 444.221L510.56 436.529ZM394.887 436.529L402.725 438.132C410.705 399.118 414.599 330.331 414.599 262.153C414.599 193.975 410.705 125.188 402.725 86.1736L394.887 87.7768L387.05 89.38C394.685 126.71 398.599 194.126 398.599 262.153C398.599 330.179 394.685 397.596 387.05 434.926L394.887 436.529ZM394.887 87.7768L392.69 95.469C434.611 107.447 470.836 107.447 512.758 95.469L510.56 87.7768L508.362 80.0846C469.313 91.2414 436.134 91.2414 397.085 80.0846L394.887 87.7768ZM510.56 87.7768L502.574 88.2546C504.666 123.212 515.368 161.009 528.101 190.101C534.466 204.645 541.48 217.34 548.415 226.545C551.873 231.135 555.499 235.109 559.225 238.01C562.832 240.818 567.356 243.259 572.445 243.259V235.259V227.259C572.472 227.259 571.393 227.206 569.054 225.385C566.833 223.656 564.17 220.867 561.194 216.917C555.261 209.042 548.828 197.554 542.758 183.686C530.621 155.954 520.503 120.01 518.546 87.299L510.56 87.7768ZM572.445 235.259V243.259C579.018 243.259 583.527 239.334 586.121 234.709C588.519 230.433 589.693 225.006 590.285 219.495C591.487 208.31 590.598 193.424 588.777 177.73C585.115 146.162 577.37 108.919 572.767 86.1888L564.926 87.7768L557.085 89.3648C561.735 112.325 569.317 148.824 572.884 179.574C574.678 195.039 575.379 208.457 574.377 217.785C573.867 222.531 572.989 225.414 572.165 226.883C571.537 228.003 571.654 227.259 572.445 227.259V235.259ZM564.926 87.7768L562.728 95.469C604.65 107.447 640.296 107.447 682.218 95.469L680.02 87.7768L677.822 80.0846C638.773 91.2414 606.172 91.2414 567.124 80.0846L564.926 87.7768ZM680.02 87.7768L672.182 86.1736C664.202 125.188 660.308 193.975 660.308 262.153C660.308 330.331 664.202 399.118 672.182 438.132L680.02 436.529L687.857 434.926C680.222 397.596 676.308 330.179 676.308 262.153C676.308 194.126 680.222 126.71 687.857 89.38L680.02 87.7768ZM680.02 436.529L682.115 428.808C640.258 417.447 604.688 417.447 562.83 428.808L564.926 436.529L567.021 444.25C606.134 433.633 638.811 433.633 677.924 444.25L680.02 436.529ZM564.926 436.529L572.869 435.576C569.277 405.641 558.572 372.731 546.892 347.303C541.052 334.586 534.833 323.447 528.937 315.351C526.004 311.324 522.965 307.792 519.897 305.183C517.073 302.782 513.037 300.133 508.246 300.133V308.133V316.133C507.216 316.133 507.553 315.689 509.532 317.372C511.268 318.848 513.461 321.28 516.004 324.771C521.06 331.713 526.771 341.828 532.353 353.981C543.519 378.292 553.635 409.58 556.983 437.482L564.926 436.529ZM508.246 308.133V300.133C501.091 300.133 497.203 305.534 495.389 309.619C493.513 313.841 492.544 319.217 492.022 324.76C490.959 336.032 491.517 350.865 492.755 365.833C495.241 395.882 500.64 428.315 502.734 438.189L510.56 436.529L518.386 434.869C516.432 425.657 511.131 393.892 508.7 364.514C507.481 349.769 507.026 336.081 507.951 326.261C508.423 321.258 509.198 317.945 510.011 316.114C510.885 314.147 510.63 316.133 508.246 316.133V308.133ZM998.801 436.529L996.502 444.191L1009.26 448.018L1006.65 434.96L998.801 436.529ZM888.912 436.529L881.063 434.985L878.501 448.004L891.211 444.191L888.912 436.529ZM815.46 330.689L816.453 322.75L807.084 321.579L807.467 331.013L815.46 330.689ZM825.871 436.529L823.673 444.221L836.416 447.862L833.701 434.89L825.871 436.529ZM715.982 436.529L708.154 434.881L705.42 447.867L718.18 444.221L715.982 436.529ZM715.982 92.9821L717.608 85.149L705.692 82.676L708.146 94.5953L715.982 92.9821ZM929.398 301.192L924.991 294.515L914.874 301.192L924.991 307.869L929.398 301.192ZM998.801 436.529L1001.1 428.866C959.115 416.271 928.598 416.271 886.613 428.866L888.912 436.529L891.211 444.191C930.197 432.496 957.516 432.496 996.502 444.191L998.801 436.529ZM888.912 436.529L896.762 438.073C900.622 418.452 896.903 391.961 884.341 369.317C871.623 346.394 849.503 326.882 816.453 322.75L815.46 330.689L814.468 338.627C841.568 342.014 859.644 357.782 870.349 377.079C881.211 396.656 884.143 419.325 881.063 434.985L888.912 436.529ZM815.46 330.689L807.467 331.013C809.206 373.913 812.695 412.626 818.04 438.168L825.871 436.529L833.701 434.89C828.637 410.693 825.185 373.062 823.454 330.365L815.46 330.689ZM825.871 436.529L828.069 428.837C786.147 416.859 755.706 416.859 713.784 428.837L715.982 436.529L718.18 444.221C757.229 433.064 784.624 433.064 823.673 444.221L825.871 436.529ZM715.982 436.529L723.81 438.177C732.087 398.864 736.128 331.952 736.128 265.406C736.128 198.849 732.085 131.525 723.818 91.3688L715.982 92.9821L708.146 94.5953C716.073 133.096 720.128 199.085 720.128 265.406C720.128 331.739 716.071 397.272 708.154 434.881L715.982 436.529ZM715.982 92.9821L714.356 100.815C746.191 107.422 774.474 106.037 799.826 103.098C825.692 100.099 847.001 95.7768 867.513 95.7768V87.7768V79.7768C845.804 79.7768 822.001 84.4195 797.983 87.2041C773.452 90.0484 747.079 91.2657 717.608 85.149L715.982 92.9821ZM867.513 87.7768V95.7768C926.174 95.7768 960.38 131.875 970.256 174.806C980.251 218.256 965.171 267.997 924.991 294.515L929.398 301.192L933.804 307.869C980.379 277.13 997.108 220.163 985.849 171.219C974.47 121.757 934.356 79.7768 867.513 79.7768V87.7768ZM929.398 301.192L924.991 307.869C979.43 343.799 984.331 404.97 990.956 438.098L998.801 436.529L1006.65 434.96C1000.55 404.468 995.038 334.93 933.804 294.515L929.398 301.192ZM872.718 195.93H880.718C880.718 170.196 867.264 152.266 848.713 152.945C830.476 153.612 817.292 172.088 817.292 198.822H825.292H833.292C833.292 175.817 843.822 169.135 849.298 168.934C854.459 168.745 864.718 174.239 864.718 195.93H872.718ZM825.292 198.822H817.292C817.292 212.955 820.501 224.365 826.158 232.413C831.879 240.553 840.241 245.287 849.395 244.84C858.453 244.398 866.506 238.976 872.013 230.513C877.512 222.063 880.718 210.351 880.718 195.93H872.718H864.718C864.718 208.115 861.996 216.572 858.603 221.786C855.218 226.988 851.414 228.723 848.615 228.859C845.914 228.991 842.418 227.723 839.248 223.212C836.012 218.609 833.292 210.715 833.292 198.822H825.292ZM1166.68 436.529L1164.49 444.221L1175.78 447.447L1174.65 435.758L1166.68 436.529ZM1033.66 436.529L1025.82 434.926L1023.18 447.843L1035.86 444.221L1033.66 436.529ZM1110.58 87.7768L1113.46 80.3134L1101.33 75.6296L1102.62 88.5728L1110.58 87.7768ZM1283.51 87.7768L1291.47 88.5728L1292.76 75.6673L1280.65 80.3059L1283.51 87.7768ZM1360.44 436.529L1358.24 444.221L1370.92 447.843L1368.27 434.926L1360.44 436.529ZM1227.41 436.529L1219.46 435.674L1218.19 447.484L1229.61 444.221L1227.41 436.529ZM1166.68 436.529L1168.88 428.837C1126.96 416.859 1073.38 416.859 1031.46 428.837L1033.66 436.529L1035.86 444.221C1074.91 433.064 1125.44 433.064 1164.49 444.221L1166.68 436.529ZM1033.66 436.529L1041.5 438.132C1045.31 419.475 1052.57 394.638 1061.3 365.987C1069.99 337.481 1080.08 305.353 1089.36 272.574C1107.83 207.361 1123.63 137.862 1118.54 86.9808L1110.58 87.7768L1102.62 88.5728C1107.37 136.013 1092.52 202.718 1073.97 268.215C1064.74 300.791 1054.74 332.644 1046 361.324C1037.3 389.858 1029.81 415.411 1025.82 434.926L1033.66 436.529ZM1110.58 87.7768L1107.7 95.2402C1117.06 98.8502 1131.24 101.158 1146.97 102.576C1162.93 104.015 1181.23 104.598 1199.28 104.452C1217.33 104.306 1235.26 103.429 1250.45 101.919C1265.37 100.436 1278.48 98.2717 1286.37 95.2477L1283.51 87.7768L1280.65 80.3059C1274.96 82.4871 1263.77 84.5161 1248.87 85.9973C1234.24 87.451 1216.81 88.3095 1199.15 88.4525C1181.49 88.5955 1163.72 88.0218 1148.41 86.641C1132.87 85.24 1120.59 83.0654 1113.46 80.3134L1110.58 87.7768ZM1283.51 87.7768L1275.55 86.9808C1270.46 137.862 1286.27 207.361 1304.73 272.574C1314.02 305.353 1324.11 337.481 1332.79 365.987C1341.52 394.638 1348.78 419.475 1352.6 438.132L1360.44 436.529L1368.27 434.926C1364.28 415.411 1356.79 389.858 1348.1 361.324C1339.36 332.644 1329.35 300.791 1320.13 268.215C1301.58 202.718 1286.73 136.013 1291.47 88.5728L1283.51 87.7768ZM1360.44 436.529L1362.63 428.837C1320.71 416.859 1267.14 416.859 1225.21 428.837L1227.41 436.529L1229.61 444.221C1268.66 433.064 1319.19 433.064 1358.24 444.221L1360.44 436.529ZM1227.41 436.529L1235.37 437.384C1238.25 410.594 1239.2 387.458 1234.54 370.823C1232.15 362.297 1228.11 354.819 1221.52 349.527C1214.87 344.188 1206.48 341.775 1196.76 341.775V349.775V357.775C1203.81 357.775 1208.36 359.482 1211.51 362.005C1214.71 364.575 1217.33 368.701 1219.13 375.14C1222.86 388.435 1222.36 408.676 1219.46 435.674L1227.41 436.529ZM1196.76 349.775V341.775C1187.58 341.775 1179.61 344.282 1173.24 349.65C1166.99 354.921 1163.04 362.317 1160.59 370.754C1155.79 387.326 1156.12 410.379 1158.72 437.299L1166.68 436.529L1174.65 435.758C1172.05 408.891 1172.09 388.567 1175.96 375.209C1177.85 368.681 1180.48 364.474 1183.55 361.883C1186.51 359.388 1190.61 357.775 1196.76 357.775V349.775ZM1196.76 199.401V191.401C1186.44 191.401 1178.85 198.358 1174.12 205.909C1169.29 213.628 1166.35 223.518 1165.58 233.176C1164.81 242.768 1166.11 253.142 1170.87 261.448C1175.89 270.226 1184.6 276.226 1196.76 276.226V268.226V260.226C1190.7 260.226 1187.11 257.622 1184.75 253.495C1182.12 248.897 1180.92 242.064 1181.53 234.45C1182.13 226.902 1184.43 219.585 1187.68 214.4C1191.03 209.046 1194.35 207.401 1196.76 207.401V199.401ZM1196.76 268.226V276.226C1208.92 276.226 1217.62 270.226 1222.65 261.448C1227.41 253.142 1228.71 242.768 1227.94 233.176C1227.17 223.518 1224.23 213.628 1219.4 205.909C1214.67 198.358 1207.07 191.401 1196.76 191.401V199.401V207.401C1199.17 207.401 1202.49 209.046 1205.84 214.4C1209.08 219.585 1211.39 226.902 1211.99 234.45C1212.6 242.064 1211.4 248.897 1208.77 253.495C1206.4 257.622 1202.82 260.226 1196.76 260.226V268.226ZM1626.06 436.529L1623.88 444.226L1633.6 446.98L1634.05 436.888L1626.06 436.529ZM1422.48 436.529L1414.49 436.888L1414.93 446.821L1424.54 444.259L1422.48 436.529ZM1351.92 87.7768L1354.12 80.0846L1336.2 74.9673L1344.83 91.4795L1351.92 87.7768ZM1480.31 87.7768L1488.31 87.9236L1488.51 77.1147L1478.12 80.0846L1480.31 87.7768ZM1565.33 87.7768L1567.53 80.0846L1557.14 77.1147L1557.33 87.9236L1565.33 87.7768ZM1690.84 87.7768L1697.93 91.4795L1706.55 74.9673L1688.64 80.0846L1690.84 87.7768ZM1626.06 436.529L1628.24 428.832C1618.67 426.121 1603.02 424.281 1585.02 423.097C1566.79 421.899 1545.5 421.335 1524.26 421.372C1503.01 421.408 1481.72 422.044 1463.51 423.26C1445.5 424.463 1429.92 426.266 1420.42 428.799L1422.48 436.529L1424.54 444.259C1432.39 442.165 1446.59 440.426 1464.58 439.225C1482.37 438.036 1503.31 437.408 1524.28 437.372C1545.26 437.336 1566.19 437.893 1583.97 439.062C1601.96 440.246 1616.1 442.021 1623.88 444.226L1626.06 436.529ZM1422.48 436.529L1430.47 436.17C1428.13 384.208 1418.96 312.959 1406.11 246.536C1393.32 180.39 1376.67 117.894 1359.01 84.0741L1351.92 87.7768L1344.83 91.4795C1361.29 123.014 1377.61 183.42 1390.4 249.575C1403.15 315.452 1412.19 385.901 1414.49 436.888L1422.48 436.529ZM1351.92 87.7768L1349.72 95.469C1391.64 107.447 1440.59 107.447 1482.51 95.469L1480.31 87.7768L1478.12 80.0846C1439.07 91.2414 1393.16 91.2414 1354.12 80.0846L1351.92 87.7768ZM1480.31 87.7768L1472.32 87.63C1471.73 119.789 1476.85 180.587 1485.21 233.259C1489.39 259.602 1494.43 284.277 1500.08 302.505C1502.89 311.56 1505.98 319.463 1509.42 325.258C1511.14 328.151 1513.15 330.888 1515.57 332.982C1518.01 335.101 1521.34 336.954 1525.43 336.954V328.954V320.954C1526.4 320.954 1526.65 321.415 1526.05 320.893C1525.42 320.347 1524.43 319.196 1523.18 317.094C1520.69 312.901 1518.04 306.395 1515.36 297.765C1510.05 280.622 1505.15 256.824 1501.01 230.752C1492.74 178.597 1487.75 118.806 1488.31 87.9236L1480.31 87.7768ZM1525.43 328.954V336.954C1529.79 336.954 1533.01 334.553 1535 332.471C1537.05 330.332 1538.73 327.594 1540.15 324.762C1543.02 319.049 1545.65 311.234 1548.09 302.223C1552.99 284.08 1557.51 259.477 1561.32 233.152C1568.94 180.541 1573.92 119.766 1573.33 87.63L1565.33 87.7768L1557.33 87.9236C1557.9 118.829 1553.05 178.643 1545.49 230.859C1541.71 256.949 1537.3 280.819 1532.64 298.047C1530.3 306.721 1527.99 313.316 1525.85 317.59C1524.76 319.753 1523.92 320.904 1523.45 321.405C1522.91 321.962 1523.59 320.954 1525.43 320.954V328.954ZM1565.33 87.7768L1563.14 95.469C1605.06 107.447 1651.11 107.447 1693.04 95.469L1690.84 87.7768L1688.64 80.0846C1649.59 91.2414 1606.58 91.2414 1567.53 80.0846L1565.33 87.7768ZM1690.84 87.7768L1683.75 84.0741C1666.03 117.996 1650.84 180.607 1639.5 246.702C1628.1 313.139 1620.4 384.322 1618.07 436.17L1626.06 436.529L1634.05 436.888C1636.35 385.787 1643.97 315.272 1655.27 249.408C1666.63 183.203 1681.52 122.912 1697.93 91.4795L1690.84 87.7768ZM1725.53 436.529L1717.69 434.926L1715.41 446.067L1726.67 444.447L1725.53 436.529ZM1725.53 87.7768L1726.67 79.8583L1715.41 78.2388L1717.69 89.38L1725.53 87.7768ZM1977.69 87.7768L1984.78 91.4828L1991.98 77.7158L1976.59 79.8529L1977.69 87.7768ZM1977.69 182.05L1975.08 189.611L1993.62 196.016L1984.85 178.472L1977.69 182.05ZM1939.52 206.919L1946.76 210.332L1959.96 182.348L1934.85 200.427L1939.52 206.919ZM1939.52 317.386L1934.85 323.879L1959.96 341.958L1946.76 313.973L1939.52 317.386ZM1977.69 342.256L1984.85 345.834L1993.62 328.29L1975.08 334.694L1977.69 342.256ZM1977.69 436.529L1976.59 444.453L1991.98 446.59L1984.78 432.823L1977.69 436.529ZM1725.53 436.529L1733.36 438.132C1741.34 399.118 1745.24 330.331 1745.24 262.153C1745.24 193.975 1741.34 125.188 1733.36 86.1736L1725.53 87.7768L1717.69 89.38C1725.32 126.71 1729.24 194.126 1729.24 262.153C1729.24 330.179 1725.32 397.596 1717.69 434.926L1725.53 436.529ZM1725.53 87.7768L1724.39 95.6953C1805.63 107.385 1915.7 104.463 1978.79 95.7007L1977.69 87.7768L1976.59 79.8529C1914.76 88.4411 1806.21 91.3033 1726.67 79.8583L1725.53 87.7768ZM1977.69 87.7768L1970.6 84.0708C1956.11 111.799 1954.93 154.416 1970.54 185.627L1977.69 182.05L1984.85 178.472C1971.53 151.847 1972.67 114.65 1984.78 91.4828L1977.69 87.7768ZM1977.69 182.05L1980.3 174.488C1947.17 163.043 1911.93 162.483 1901.35 162.483V170.483V178.483C1911.59 178.483 1944.59 179.079 1975.08 189.611L1977.69 182.05ZM1901.35 170.483V162.483C1881.93 162.483 1866.83 166.111 1856.06 172.19C1845.26 178.283 1838.41 187.141 1837.1 197.211C1835.78 207.354 1840.32 216.904 1848.59 223.56C1856.79 230.167 1868.6 234.005 1882.84 234.005V226.005V218.005C1871.34 218.005 1863.35 214.904 1858.62 211.1C1853.96 207.346 1852.48 203.014 1852.96 199.277C1853.46 195.466 1856.26 190.443 1863.92 186.126C1871.59 181.795 1883.75 178.483 1901.35 178.483V170.483ZM1882.84 226.005V234.005C1905.66 234.005 1928.66 224.6 1944.19 213.412L1939.52 206.919L1934.85 200.427C1921.47 210.06 1901.67 218.005 1882.84 218.005V226.005ZM1939.52 206.919L1932.28 203.506C1924.42 220.18 1920.68 241.374 1920.68 262.153C1920.68 282.932 1924.42 304.125 1932.28 320.799L1939.52 317.386L1946.76 313.973C1940.16 299.994 1936.68 281.281 1936.68 262.153C1936.68 243.025 1940.16 224.312 1946.76 210.332L1939.52 206.919ZM1939.52 317.386L1944.19 310.894C1928.66 299.706 1905.66 290.3 1882.84 290.3V298.3V306.3C1901.67 306.3 1921.47 314.246 1934.85 323.879L1939.52 317.386ZM1882.84 298.3V290.3C1855 290.3 1834.71 305.937 1836.33 326.685C1837.11 336.683 1843.23 345.701 1853.34 351.951C1863.38 358.162 1877.51 361.823 1895.56 361.823V353.823V345.823C1879.5 345.823 1868.54 342.544 1861.76 338.345C1855.03 334.184 1852.59 329.322 1852.28 325.439C1851.73 318.426 1859.2 306.3 1882.84 306.3V298.3ZM1895.56 353.823V361.823C1904.82 361.823 1947.1 361.288 1980.3 349.817L1977.69 342.256L1975.08 334.694C1944.66 345.202 1904.81 345.823 1895.56 345.823V353.823ZM1977.69 342.256L1970.54 338.678C1954.93 369.89 1956.11 412.506 1970.6 440.235L1977.69 436.529L1984.78 432.823C1972.67 409.656 1971.53 372.458 1984.85 345.834L1977.69 342.256ZM1977.69 436.529L1978.79 428.605C1915.7 419.842 1805.63 416.921 1724.39 428.61L1725.53 436.529L1726.67 444.447C1806.21 433.002 1914.76 435.865 1976.59 444.453L1977.69 436.529ZM2015.71 0.768582L2017.72 -6.97449L2005.3 -10.2006L2007.88 2.37175L2015.71 0.768582ZM2159.77 0.768582L2167.7 1.86386L2169.31 -9.82335L2157.86 -6.99878L2159.77 0.768582ZM2329.76 317.701L2336.92 321.278L2344.21 306.697L2328.22 309.852L2329.76 317.701ZM2329.76 435.109L2328.66 443.033L2344.05 445.17L2336.85 431.403L2329.76 435.109ZM2015.71 435.109L2007.88 433.506L2005.6 444.648L2016.85 443.028L2015.71 435.109ZM2015.71 0.768582L2013.7 8.51165C2070.6 23.2899 2107.97 21.7811 2161.69 8.53594L2159.77 0.768582L2157.86 -6.99878C2106.41 5.68684 2071.75 7.05921 2017.72 -6.97449L2015.71 0.768582ZM2159.77 0.768582L2151.85 -0.326697C2139.51 88.9291 2139.53 225.671 2139.53 277.364H2147.53H2155.53C2155.53 225.333 2155.54 89.8019 2167.7 1.86386L2159.77 0.768582ZM2147.53 277.364H2139.53C2139.53 291.269 2141.1 304.139 2146.92 314.676C2152.96 325.645 2163 333.054 2177.62 337.114C2191.91 341.084 2210.87 341.955 2235.66 340.038C2260.56 338.112 2291.92 333.319 2331.31 325.549L2329.76 317.701L2328.22 309.852C2289.09 317.569 2258.42 322.229 2234.43 324.085C2210.33 325.95 2193.54 324.93 2181.9 321.697C2170.59 318.554 2164.51 313.448 2160.93 306.949C2157.1 300.019 2155.53 290.47 2155.53 277.364H2147.53ZM2329.76 317.701L2322.61 314.123C2303.45 352.431 2304.91 404.842 2322.67 438.816L2329.76 435.109L2336.85 431.403C2321.48 401.991 2320.06 355 2336.92 321.278L2329.76 317.701ZM2329.76 435.109L2330.86 427.186C2252.44 416.294 2115.55 412.663 2014.57 427.191L2015.71 435.109L2016.85 443.028C2116.12 428.744 2251.5 432.316 2328.66 443.033L2329.76 435.109ZM2015.71 435.109L2023.55 436.713C2033.45 388.331 2038.3 302.83 2038.3 217.939C2038.3 133.048 2033.45 47.5474 2023.55 -0.834588L2015.71 0.768582L2007.88 2.37175C2017.43 49.0693 2022.3 133.199 2022.3 217.939C2022.3 302.679 2017.43 386.809 2007.88 433.506L2015.71 435.109Z" fill="black" mask="url(#path-1-inside-1_3025_8)"/>
</svg>
