<svg width="2378" height="452" viewBox="0 0 2378 452" fill="none" xmlns="http://www.w3.org/2000/svg">
<mask id="path-1-inside-1_3025_9" fill="white">
<path d="M180.973 451.312C23.6828 451.312 11.9228 364.582 14.1278 310.192C18.5378 199.942 14.1278 66.1725 0.897755 0.757474C52.3478 15.4575 96.4478 15.4575 147.898 0.757474C136.873 55.8825 117.763 325.627 180.973 325.627C244.183 325.627 225.073 55.8825 214.048 0.757474C265.498 15.4575 309.598 15.4575 361.048 0.757474C347.818 66.1725 343.408 199.942 347.818 310.192C350.023 364.582 338.263 451.312 180.973 451.312ZM521.203 445.411C479.891 433.608 444.481 433.608 403.17 445.411C419.104 367.509 419.104 167.443 403.17 89.5414C444.481 101.345 479.891 101.345 521.203 89.5414C525.334 158.591 563.695 240.033 584.35 240.033C607.957 240.033 586.121 136.164 576.678 89.5414C617.99 101.345 652.81 101.345 694.121 89.5414C678.187 167.443 678.187 367.509 694.121 445.411C652.81 434.198 617.99 434.198 576.678 445.411C569.596 386.394 534.186 314.394 518.842 314.394C499.367 314.394 517.072 425.935 521.203 445.411ZM1019.41 445.411C978.097 433.017 948.588 433.017 907.277 445.411C914.359 409.411 893.703 345.083 832.326 337.411C834.096 381.083 837.637 420.034 842.949 445.411C801.637 433.608 772.129 433.608 730.817 445.411C747.342 366.919 747.342 175.115 730.817 94.8529C793.375 107.837 842.359 89.5414 885.441 89.5414C1013.51 89.5414 1037.11 248.886 948.588 307.312C1007.6 346.263 1012.92 412.952 1019.41 445.411ZM890.752 199.902C890.752 151.509 842.359 152.099 842.359 202.853C842.359 255.968 890.752 254.197 890.752 199.902ZM1190.72 445.411C1149.41 433.608 1096.29 433.608 1054.98 445.411C1070.91 367.509 1143.5 189.869 1133.47 89.5414C1167.11 102.525 1282.19 100.164 1309.93 89.5414C1299.9 189.869 1372.49 367.509 1388.42 445.411C1347.11 433.608 1294 433.608 1252.68 445.411C1258.59 390.526 1255.64 356.886 1221.41 356.886C1190.13 356.886 1185.41 390.526 1190.72 445.411ZM1221.41 203.443C1195.44 203.443 1184.23 273.673 1221.41 273.673C1258.59 273.673 1247.37 203.443 1221.41 203.443ZM1659.47 445.411C1624.06 435.378 1487.14 435.968 1451.73 445.411C1447.01 340.361 1414.55 156.23 1379.73 89.5414C1421.04 101.345 1469.44 101.345 1510.75 89.5414C1509.57 153.869 1531.4 335.64 1556.78 335.64C1577.44 335.64 1598.68 153.869 1597.5 89.5414C1638.81 101.345 1684.26 101.345 1725.57 89.5414C1690.75 156.23 1664.19 340.361 1659.47 445.411ZM1760.96 445.411C1776.9 367.509 1776.9 167.443 1760.96 89.5414C1843 101.345 1954.54 98.3939 2018.28 89.5414C2004.7 115.509 2003.52 156.23 2018.28 185.738C1985.82 174.525 1951 173.935 1940.37 173.935C1864.83 173.935 1868.96 230.591 1921.49 230.591C1942.73 230.591 1964.57 221.738 1979.33 211.115C1964.57 242.394 1964.57 292.558 1979.33 323.837C1964.57 313.214 1942.73 304.361 1921.49 304.361C1868.96 304.361 1864.83 361.017 1934.47 361.017C1943.92 361.017 1985.82 360.427 2018.28 349.214C2003.52 378.722 2004.7 419.444 2018.28 445.411C1954.54 436.558 1843 433.608 1760.96 445.411ZM2057.07 0.757474C2113.67 15.4575 2150.42 13.9875 2204.07 0.757474C2191.58 91.1625 2191.58 230.077 2191.58 282.997C2191.58 338.122 2217.3 355.762 2377.53 324.157C2359.16 360.907 2360.63 411.622 2377.53 443.962C2298.15 432.937 2159.24 429.262 2057.07 443.962C2076.92 346.942 2076.92 97.7775 2057.07 0.757474Z"/>
</mask>
<path d="M180.973 451.312C23.6828 451.312 11.9228 364.582 14.1278 310.192C18.5378 199.942 14.1278 66.1725 0.897755 0.757474C52.3478 15.4575 96.4478 15.4575 147.898 0.757474C136.873 55.8825 117.763 325.627 180.973 325.627C244.183 325.627 225.073 55.8825 214.048 0.757474C265.498 15.4575 309.598 15.4575 361.048 0.757474C347.818 66.1725 343.408 199.942 347.818 310.192C350.023 364.582 338.263 451.312 180.973 451.312ZM521.203 445.411C479.891 433.608 444.481 433.608 403.17 445.411C419.104 367.509 419.104 167.443 403.17 89.5414C444.481 101.345 479.891 101.345 521.203 89.5414C525.334 158.591 563.695 240.033 584.35 240.033C607.957 240.033 586.121 136.164 576.678 89.5414C617.99 101.345 652.81 101.345 694.121 89.5414C678.187 167.443 678.187 367.509 694.121 445.411C652.81 434.198 617.99 434.198 576.678 445.411C569.596 386.394 534.186 314.394 518.842 314.394C499.367 314.394 517.072 425.935 521.203 445.411ZM1019.41 445.411C978.097 433.017 948.588 433.017 907.277 445.411C914.359 409.411 893.703 345.083 832.326 337.411C834.096 381.083 837.637 420.034 842.949 445.411C801.637 433.608 772.129 433.608 730.817 445.411C747.342 366.919 747.342 175.115 730.817 94.8529C793.375 107.837 842.359 89.5414 885.441 89.5414C1013.51 89.5414 1037.11 248.886 948.588 307.312C1007.6 346.263 1012.92 412.952 1019.41 445.411ZM890.752 199.902C890.752 151.509 842.359 152.099 842.359 202.853C842.359 255.968 890.752 254.197 890.752 199.902ZM1190.72 445.411C1149.41 433.608 1096.29 433.608 1054.98 445.411C1070.91 367.509 1143.5 189.869 1133.47 89.5414C1167.11 102.525 1282.19 100.164 1309.93 89.5414C1299.9 189.869 1372.49 367.509 1388.42 445.411C1347.11 433.608 1294 433.608 1252.68 445.411C1258.59 390.526 1255.64 356.886 1221.41 356.886C1190.13 356.886 1185.41 390.526 1190.72 445.411ZM1221.41 203.443C1195.44 203.443 1184.23 273.673 1221.41 273.673C1258.59 273.673 1247.37 203.443 1221.41 203.443ZM1659.47 445.411C1624.06 435.378 1487.14 435.968 1451.73 445.411C1447.01 340.361 1414.55 156.23 1379.73 89.5414C1421.04 101.345 1469.44 101.345 1510.75 89.5414C1509.57 153.869 1531.4 335.64 1556.78 335.64C1577.44 335.64 1598.68 153.869 1597.5 89.5414C1638.81 101.345 1684.26 101.345 1725.57 89.5414C1690.75 156.23 1664.19 340.361 1659.47 445.411ZM1760.96 445.411C1776.9 367.509 1776.9 167.443 1760.96 89.5414C1843 101.345 1954.54 98.3939 2018.28 89.5414C2004.7 115.509 2003.52 156.23 2018.28 185.738C1985.82 174.525 1951 173.935 1940.37 173.935C1864.83 173.935 1868.96 230.591 1921.49 230.591C1942.73 230.591 1964.57 221.738 1979.33 211.115C1964.57 242.394 1964.57 292.558 1979.33 323.837C1964.57 313.214 1942.73 304.361 1921.49 304.361C1868.96 304.361 1864.83 361.017 1934.47 361.017C1943.92 361.017 1985.82 360.427 2018.28 349.214C2003.52 378.722 2004.7 419.444 2018.28 445.411C1954.54 436.558 1843 433.608 1760.96 445.411ZM2057.07 0.757474C2113.67 15.4575 2150.42 13.9875 2204.07 0.757474C2191.58 91.1625 2191.58 230.077 2191.58 282.997C2191.58 338.122 2217.3 355.762 2377.53 324.157C2359.16 360.907 2360.63 411.622 2377.53 443.962C2298.15 432.937 2159.24 429.262 2057.07 443.962C2076.92 346.942 2076.92 97.7775 2057.07 0.757474Z" fill="#FFB843"/>
<path d="M14.1278 310.192L22.1212 310.517L22.1214 310.512L14.1278 310.192ZM0.897755 0.757474L3.09552 -6.93472L-9.55071 -10.5479L-6.94348 2.34334L0.897755 0.757474ZM147.898 0.757474L155.742 2.3264L158.316 -10.5391L145.7 -6.93472L147.898 0.757474ZM214.048 0.757474L216.246 -6.93472L203.63 -10.5391L206.203 2.3264L214.048 0.757474ZM361.048 0.757474L368.889 2.34335L371.496 -10.5479L358.85 -6.93472L361.048 0.757474ZM347.818 310.192L339.824 310.512L339.824 310.517L347.818 310.192ZM180.973 451.312V443.312C103.712 443.312 64.2872 422.049 44.0358 396.213C23.5326 370.057 21.0382 337.231 22.1212 310.517L14.1278 310.192L6.13432 309.868C5.01236 337.544 7.29538 375.278 31.4435 406.084C55.8433 437.211 100.943 459.312 180.973 459.312V451.312ZM14.1278 310.192L22.1214 310.512C26.5369 200.124 22.1668 65.5646 8.73899 -0.828395L0.897755 0.757474L-6.94348 2.34334C6.08872 66.7803 10.5386 199.761 6.13415 309.873L14.1278 310.192ZM0.897755 0.757474L-1.30001 8.44967C51.5864 23.5601 97.2091 23.5601 150.096 8.44967L147.898 0.757474L145.7 -6.93472C95.6864 7.35486 53.1091 7.35486 3.09552 -6.93472L0.897755 0.757474ZM147.898 0.757474L140.053 -0.811455C134.394 27.4838 126.844 109.318 128.599 184.052C129.476 221.4 132.685 257.593 139.854 284.666C143.427 298.157 148.142 310.017 154.507 318.67C160.988 327.48 169.747 333.627 180.973 333.627V325.627V317.627C176.396 317.627 171.925 315.346 167.395 309.189C162.75 302.874 158.674 293.23 155.321 280.571C148.641 255.344 145.463 220.655 144.595 183.677C142.859 109.757 150.376 29.1561 155.742 2.3264L147.898 0.757474ZM180.973 325.627V333.627C192.199 333.627 200.957 327.48 207.438 318.67C213.804 310.017 218.519 298.157 222.091 284.666C229.261 257.593 232.469 221.4 233.346 184.052C235.101 109.318 227.551 27.4838 221.892 -0.811457L214.048 0.757474L206.203 2.3264C211.569 29.1561 219.087 109.757 217.351 183.677C216.482 220.655 213.305 255.344 206.624 280.571C203.272 293.23 199.195 302.874 194.55 309.189C190.021 315.346 185.549 317.627 180.973 317.627V325.627ZM214.048 0.757474L211.85 8.44967C264.736 23.5601 310.359 23.5601 363.246 8.44967L361.048 0.757474L358.85 -6.93472C308.836 7.35486 266.259 7.35486 216.246 -6.93472L214.048 0.757474ZM361.048 0.757474L353.207 -0.828398C339.779 65.5646 335.409 200.124 339.824 310.512L347.818 310.192L355.811 309.873C351.407 199.761 355.857 66.7803 368.889 2.34335L361.048 0.757474ZM347.818 310.192L339.824 310.517C340.907 337.231 338.413 370.057 317.91 396.213C297.658 422.049 258.233 443.312 180.973 443.312V451.312V459.312C261.002 459.312 306.102 437.211 330.502 406.084C354.65 375.278 356.933 337.544 355.811 309.868L347.818 310.192ZM521.203 445.411L519.005 453.103L531.787 456.755L529.029 443.751L521.203 445.411ZM403.17 445.411L395.332 443.808L392.69 456.725L405.368 453.103L403.17 445.411ZM403.17 89.5414L405.368 81.8492L392.69 78.227L395.332 91.1446L403.17 89.5414ZM521.203 89.5414L529.189 89.0636L528.593 79.1098L519.005 81.8492L521.203 89.5414ZM576.678 89.5414L578.876 81.8492L566.226 78.2349L568.838 91.1294L576.678 89.5414ZM694.121 89.5414L701.959 91.1446L704.601 78.227L691.923 81.8492L694.121 89.5414ZM694.121 445.411L692.026 453.132L704.562 456.534L701.959 443.808L694.121 445.411ZM576.678 445.411L568.735 446.364L569.838 455.557L578.774 453.132L576.678 445.411ZM521.203 445.411L523.401 437.719C480.653 425.505 443.72 425.505 400.972 437.719L403.17 445.411L405.368 453.103C445.243 441.71 479.13 441.71 519.005 453.103L521.203 445.411ZM403.17 445.411L411.008 447.014C419.147 407.221 423.121 337.044 423.121 267.476C423.121 197.908 419.147 127.731 411.008 87.9382L403.17 89.5414L395.332 91.1446C403.127 129.253 407.121 198.06 407.121 267.476C407.121 336.892 403.127 405.699 395.332 443.808L403.17 445.411ZM403.17 89.5414L400.972 97.2336C443.72 109.447 480.653 109.447 523.401 97.2336L521.203 89.5414L519.005 81.8492C479.13 93.2421 445.243 93.2421 405.368 81.8492L403.17 89.5414ZM521.203 89.5414L513.217 90.0192C515.35 125.667 526.265 164.217 539.251 193.888C545.743 208.723 552.894 221.664 559.961 231.043C563.485 235.72 567.175 239.764 570.962 242.712C574.63 245.567 579.211 248.033 584.35 248.033V240.033V232.033C584.38 232.033 584.106 232.04 583.461 231.761C582.81 231.479 581.916 230.963 580.79 230.086C578.509 228.311 575.782 225.452 572.74 221.415C566.675 213.366 560.105 201.631 553.909 187.473C541.518 159.161 531.187 122.465 529.189 89.0636L521.203 89.5414ZM584.35 240.033V248.033C590.983 248.033 595.537 244.076 598.164 239.392C600.594 235.057 601.789 229.546 602.393 223.93C603.618 212.536 602.712 197.361 600.855 181.349C597.119 149.145 589.217 111.15 584.519 87.9534L576.678 89.5414L568.838 91.1294C573.582 114.556 581.32 151.807 584.961 183.193C586.792 198.977 587.51 212.683 586.484 222.22C585.963 227.071 585.065 230.039 584.208 231.566C583.821 232.256 583.615 232.339 583.757 232.242C583.834 232.19 583.955 232.126 584.104 232.08C584.173 232.059 584.233 232.047 584.28 232.04C584.327 232.033 584.352 232.033 584.35 232.033V240.033ZM576.678 89.5414L574.481 97.2336C617.229 109.447 653.571 109.447 696.319 97.2336L694.121 89.5414L691.923 81.8492C652.048 93.2421 618.751 93.2421 578.876 81.8492L576.678 89.5414ZM694.121 89.5414L686.283 87.9382C678.144 127.731 674.17 197.908 674.17 267.476C674.17 337.044 678.144 407.221 686.283 447.014L694.121 445.411L701.959 443.808C694.164 405.699 690.17 336.892 690.17 267.476C690.17 198.06 694.164 129.253 701.959 91.1446L694.121 89.5414ZM694.121 445.411L696.217 437.69C653.533 426.105 617.266 426.105 574.583 437.69L576.678 445.411L578.774 453.132C618.713 442.291 652.086 442.291 692.026 453.132L694.121 445.411ZM576.678 445.411L584.621 444.458C580.958 413.933 570.041 380.368 558.128 354.432C552.171 341.462 545.831 330.105 539.823 321.856C536.834 317.753 533.741 314.159 530.625 311.509C527.752 309.066 523.671 306.394 518.842 306.394V314.394V322.394C517.85 322.394 518.231 321.973 520.26 323.697C522.044 325.215 524.291 327.708 526.89 331.276C532.058 338.372 537.89 348.704 543.589 361.11C554.988 385.929 565.316 417.872 568.735 446.364L576.678 445.411ZM518.842 314.394V306.394C511.638 306.394 507.713 311.831 505.871 315.977C503.969 320.261 502.982 325.725 502.449 331.376C501.366 342.864 501.934 357.987 503.197 373.259C505.733 403.914 511.241 437.002 513.377 447.071L521.203 445.411L529.029 443.751C527.033 434.344 521.623 401.924 519.143 371.94C517.898 356.891 517.433 342.913 518.379 332.878C518.86 327.767 519.653 324.365 520.494 322.473C521.395 320.443 521.177 322.394 518.842 322.394V314.394ZM1019.41 445.411L1017.11 453.073L1029.86 456.9L1027.25 443.842L1019.41 445.411ZM907.277 445.411L899.427 443.867L896.866 456.886L909.576 453.073L907.277 445.411ZM832.326 337.411L833.318 329.472L823.95 328.301L824.332 337.735L832.326 337.411ZM842.949 445.411L840.751 453.103L853.494 456.744L850.779 443.772L842.949 445.411ZM730.817 445.411L722.989 443.763L720.255 456.749L733.015 453.103L730.817 445.411ZM730.817 94.8529L732.443 87.0198L720.528 84.5468L722.982 96.4661L730.817 94.8529ZM948.588 307.312L944.182 300.635L934.065 307.312L944.182 313.989L948.588 307.312ZM1019.41 445.411L1021.71 437.748C978.896 424.905 947.789 424.905 904.978 437.748L907.277 445.411L909.576 453.073C949.388 441.13 977.297 441.13 1017.11 453.073L1019.41 445.411ZM907.277 445.411L915.126 446.955C919.057 426.974 915.27 399.981 902.469 376.907C889.512 353.552 866.982 333.68 833.318 329.472L832.326 337.411L831.334 345.349C859.047 348.813 877.533 364.941 888.478 384.669C899.578 404.677 902.579 427.847 899.427 443.867L907.277 445.411ZM832.326 337.411L824.332 337.735C826.107 381.509 829.666 421 835.118 447.05L842.949 445.411L850.779 443.772C845.608 419.067 842.086 380.657 840.319 337.087L832.326 337.411ZM842.949 445.411L845.147 437.719C802.399 425.505 771.368 425.505 728.62 437.719L730.817 445.411L733.015 453.103C772.89 441.71 800.876 441.71 840.751 453.103L842.949 445.411ZM730.817 445.411L738.646 447.059C747.087 406.961 751.211 338.698 751.211 270.796C751.211 202.882 747.086 134.198 738.653 93.2396L730.817 94.8529L722.982 96.4661C731.074 135.77 735.211 203.119 735.211 270.796C735.211 338.484 731.072 405.369 722.989 443.763L730.817 445.411ZM730.817 94.8529L729.192 102.686C761.652 109.423 790.492 108.011 816.354 105.013C842.729 101.955 864.498 97.5414 885.441 97.5414V89.5414V81.5414C863.301 81.5414 839.037 86.2756 814.511 89.1192C789.471 92.0225 762.54 93.2663 732.443 87.0198L730.817 94.8529ZM885.441 89.5414V97.5414C945.382 97.5414 980.347 134.437 990.44 178.31C1000.65 222.703 985.247 273.532 944.182 300.635L948.588 307.312L952.995 313.989C1000.45 282.666 1017.51 224.61 1006.03 174.723C994.437 124.318 953.565 81.5414 885.441 81.5414V89.5414ZM948.588 307.312L944.182 313.989C999.801 350.698 1004.81 413.202 1011.56 446.98L1019.41 445.411L1027.25 443.842C1021.02 412.701 1015.41 341.829 952.995 300.635L948.588 307.312ZM890.752 199.902H898.752C898.752 173.684 885.056 155.515 866.263 156.203C847.784 156.879 834.359 175.611 834.359 202.853H842.359H850.359C850.359 179.341 861.13 172.401 866.848 172.192C872.251 171.994 882.752 177.727 882.752 199.902H890.752ZM842.359 202.853H834.359C834.359 217.252 837.628 228.858 843.375 237.035C849.187 245.305 857.67 250.099 866.945 249.647C876.124 249.199 884.298 243.704 889.896 235.102C895.486 226.513 898.752 214.594 898.752 199.902H890.752H882.752C882.752 212.358 879.969 221.022 876.486 226.375C873.01 231.716 869.085 233.523 866.166 233.666C863.343 233.804 859.726 232.475 856.465 227.835C853.139 223.102 850.359 215.012 850.359 202.853H842.359ZM1190.72 445.411L1188.52 453.103L1199.81 456.329L1198.68 444.64L1190.72 445.411ZM1054.98 445.411L1047.14 443.808L1044.5 456.725L1057.18 453.103L1054.98 445.411ZM1133.47 89.5414L1136.35 82.078L1124.22 77.3942L1125.51 90.3374L1133.47 89.5414ZM1309.93 89.5414L1317.89 90.3374L1319.18 77.4319L1307.07 82.0705L1309.93 89.5414ZM1388.42 445.411L1386.22 453.103L1398.9 456.725L1396.26 443.808L1388.42 445.411ZM1252.68 445.411L1244.73 444.556L1243.46 456.366L1254.88 453.103L1252.68 445.411ZM1190.72 445.411L1192.92 437.719C1150.17 425.505 1095.53 425.505 1052.78 437.719L1054.98 445.411L1057.18 453.103C1097.05 441.71 1148.64 441.71 1188.52 453.103L1190.72 445.411ZM1054.98 445.411L1062.82 447.014C1066.71 427.968 1074.12 402.616 1083.03 373.382C1091.89 344.292 1102.19 311.511 1111.66 278.066C1130.51 211.519 1146.62 140.63 1141.43 88.7454L1133.47 89.5414L1125.51 90.3374C1130.36 138.781 1115.19 206.876 1096.27 273.706C1086.85 306.949 1076.64 339.456 1067.72 368.718C1058.85 397.837 1051.21 423.903 1047.14 443.808L1054.98 445.411ZM1133.47 89.5414L1130.59 97.0048C1140.11 100.68 1154.57 103.033 1170.62 104.48C1186.89 105.948 1205.57 106.543 1223.98 106.394C1242.4 106.244 1260.68 105.35 1276.18 103.81C1291.4 102.296 1304.76 100.089 1312.79 97.0122L1309.93 89.5414L1307.07 82.0705C1301.24 84.3048 1289.8 86.3766 1274.6 87.888C1259.67 89.372 1241.88 90.2482 1223.85 90.3941C1205.82 90.5401 1187.68 89.9546 1172.05 88.545C1156.2 87.1153 1143.65 84.8949 1136.35 82.078L1133.47 89.5414ZM1309.93 89.5414L1301.97 88.7454C1296.78 140.63 1312.9 211.519 1331.74 278.066C1341.21 311.511 1351.51 344.292 1360.37 373.382C1369.28 402.616 1376.69 427.968 1380.58 447.014L1388.42 445.411L1396.26 443.808C1392.19 423.903 1384.55 397.837 1375.68 368.718C1366.76 339.456 1356.55 306.949 1347.14 273.706C1328.21 206.876 1313.05 138.781 1317.89 90.3374L1309.93 89.5414ZM1388.42 445.411L1390.62 437.719C1347.87 425.505 1293.23 425.505 1250.49 437.719L1252.68 445.411L1254.88 453.103C1294.76 441.71 1346.35 441.71 1386.22 453.103L1388.42 445.411ZM1252.68 445.411L1260.64 446.266C1263.58 418.927 1264.54 395.348 1259.8 378.408C1257.37 369.729 1253.26 362.133 1246.57 356.761C1239.82 351.341 1231.3 348.886 1221.41 348.886V356.886V364.886C1228.62 364.886 1233.31 366.636 1236.56 369.239C1239.86 371.889 1242.54 376.133 1244.39 382.725C1248.2 396.326 1247.69 417.009 1244.73 444.556L1252.68 445.411ZM1221.41 356.886V348.886C1212.07 348.886 1203.97 351.435 1197.51 356.883C1191.16 362.235 1187.15 369.749 1184.66 378.339C1179.76 395.216 1180.1 418.712 1182.75 446.181L1190.72 445.411L1198.68 444.64C1196.03 417.224 1196.06 396.458 1200.02 382.794C1201.96 376.113 1204.66 371.788 1207.82 369.116C1210.88 366.542 1215.1 364.886 1221.41 364.886V356.886ZM1221.41 203.443V195.443C1210.96 195.443 1203.25 202.488 1198.44 210.171C1193.53 218.022 1190.54 228.088 1189.75 237.921C1188.97 247.689 1190.29 258.238 1195.13 266.676C1200.23 275.585 1209.06 281.673 1221.41 281.673V273.673V265.673C1215.16 265.673 1211.45 262.982 1209.01 258.723C1206.3 253.993 1205.08 246.985 1205.7 239.195C1206.32 231.471 1208.67 223.979 1212 218.662C1215.44 213.177 1218.87 211.443 1221.41 211.443V203.443ZM1221.41 273.673V281.673C1233.75 281.673 1242.58 275.585 1247.68 266.676C1252.52 258.238 1253.84 247.689 1253.06 237.921C1252.28 228.088 1249.28 218.022 1244.37 210.171C1239.56 202.488 1231.85 195.443 1221.41 195.443V203.443V211.443C1223.94 211.443 1227.37 213.177 1230.81 218.662C1234.14 223.979 1236.49 231.471 1237.11 239.195C1237.73 246.985 1236.51 253.993 1233.8 258.723C1231.36 262.982 1227.65 265.673 1221.41 265.673V273.673ZM1659.47 445.411L1657.29 453.108L1667.01 455.862L1667.46 445.77L1659.47 445.411ZM1451.73 445.411L1443.74 445.77L1444.19 455.703L1453.79 453.141L1451.73 445.411ZM1379.73 89.5414L1381.93 81.8492L1364.02 76.7318L1372.64 93.2441L1379.73 89.5414ZM1510.75 89.5414L1518.75 89.6881L1518.95 78.8793L1508.55 81.8492L1510.75 89.5414ZM1597.5 89.5414L1599.7 81.8492L1589.31 78.8793L1589.5 89.6881L1597.5 89.5414ZM1725.57 89.5414L1732.66 93.2441L1741.28 76.7318L1723.37 81.8492L1725.57 89.5414ZM1659.47 445.411L1661.65 437.714C1651.9 434.952 1635.95 433.076 1617.58 431.868C1598.99 430.645 1577.26 430.07 1555.59 430.108C1533.91 430.145 1512.19 430.794 1493.62 432.034C1475.24 433.261 1459.35 435.1 1449.67 437.681L1451.73 445.411L1453.79 453.141C1461.82 451 1476.33 449.224 1494.68 447.999C1512.84 446.786 1534.21 446.144 1555.61 446.108C1577.02 446.071 1598.38 446.64 1616.53 447.833C1634.89 449.041 1649.33 450.853 1657.29 453.108L1659.47 445.411ZM1451.73 445.411L1459.72 445.052C1457.34 392.04 1447.98 319.344 1434.87 251.571C1421.82 184.076 1404.83 120.325 1386.82 85.8387L1379.73 89.5414L1372.64 93.2441C1389.45 125.446 1406.11 187.105 1419.16 254.61C1432.17 321.838 1441.4 393.733 1443.74 445.77L1451.73 445.411ZM1379.73 89.5414L1377.53 97.2336C1420.28 109.447 1470.2 109.447 1512.95 97.2336L1510.75 89.5414L1508.55 81.8492C1468.68 93.2421 1421.8 93.2421 1381.93 81.8492L1379.73 89.5414ZM1510.75 89.5414L1502.75 89.3946C1502.15 122.197 1507.38 184.225 1515.9 237.967C1520.17 264.845 1525.31 290.015 1531.08 308.603C1533.94 317.839 1537.09 325.889 1540.59 331.786C1542.33 334.73 1544.38 337.507 1546.83 339.628C1549.3 341.773 1552.66 343.64 1556.78 343.64V335.64V327.64C1557.73 327.64 1557.94 328.087 1557.31 327.539C1556.65 326.965 1555.63 325.774 1554.35 323.622C1551.8 319.327 1549.09 312.674 1546.36 303.863C1540.93 286.359 1535.93 262.067 1531.71 235.46C1523.26 182.235 1518.17 121.214 1518.75 89.6881L1510.75 89.5414ZM1556.78 335.64V343.64C1561.17 343.64 1564.41 341.226 1566.43 339.116C1568.51 336.95 1570.22 334.173 1571.66 331.29C1574.58 325.475 1577.26 317.513 1579.75 308.321C1584.75 289.818 1589.36 264.719 1593.25 237.86C1601.02 184.179 1606.1 122.174 1605.5 89.3946L1597.5 89.5414L1589.5 89.6881C1590.08 121.236 1585.13 182.281 1577.41 235.567C1573.56 262.192 1569.06 286.557 1564.3 304.146C1561.91 313 1559.55 319.742 1557.36 324.118C1556.25 326.331 1555.38 327.522 1554.88 328.05C1554.32 328.634 1554.97 327.64 1556.78 327.64V335.64ZM1597.5 89.5414L1595.3 97.2336C1638.05 109.447 1685.02 109.447 1727.77 97.2336L1725.57 89.5414L1723.37 81.8492C1683.5 93.2421 1639.58 93.2421 1599.7 81.8492L1597.5 89.5414ZM1725.57 89.5414L1718.48 85.8387C1700.42 120.428 1684.92 184.293 1673.35 251.738C1661.72 319.524 1653.86 392.153 1651.48 445.052L1659.47 445.411L1667.46 445.77C1669.81 393.619 1677.58 321.658 1689.12 254.444C1700.71 186.889 1715.9 125.344 1732.66 93.2441L1725.57 89.5414ZM1760.96 445.411L1753.13 443.808L1750.85 454.949L1762.1 453.329L1760.96 445.411ZM1760.96 89.5414L1762.1 81.6229L1750.85 80.0034L1753.13 91.1446L1760.96 89.5414ZM2018.28 89.5414L2025.37 93.2474L2032.56 79.4804L2017.18 81.6174L2018.28 89.5414ZM2018.28 185.738L2015.66 193.3L2034.2 199.704L2025.43 182.161L2018.28 185.738ZM1979.33 211.115L1986.56 214.528L1999.76 186.544L1974.65 204.623L1979.33 211.115ZM1979.33 323.837L1974.65 330.329L1999.76 348.408L1986.56 320.424L1979.33 323.837ZM2018.28 349.214L2025.43 352.792L2034.2 335.248L2015.66 341.652L2018.28 349.214ZM2018.28 445.411L2017.18 453.335L2032.56 455.472L2025.37 441.705L2018.28 445.411ZM1760.96 445.411L1768.8 447.014C1776.94 407.221 1780.91 337.044 1780.91 267.476C1780.91 197.908 1776.94 127.731 1768.8 87.9382L1760.96 89.5414L1753.13 91.1446C1760.92 129.253 1764.91 198.06 1764.91 267.476C1764.91 336.892 1760.92 405.699 1753.13 443.808L1760.96 445.411ZM1760.96 89.5414L1759.82 97.4598C1842.71 109.385 1955.01 106.405 2019.38 97.4653L2018.28 89.5414L2017.18 81.6174C1954.07 90.3827 1843.29 93.3039 1762.1 81.6229L1760.96 89.5414ZM2018.28 89.5414L2011.19 85.8354C1996.42 114.083 1995.22 157.514 2011.12 189.316L2018.28 185.738L2025.43 182.161C2011.82 154.946 2012.98 116.934 2025.37 93.2474L2018.28 89.5414ZM2018.28 185.738L2020.89 178.177C1987.11 166.507 1951.17 165.935 1940.37 165.935V173.935V181.935C1950.83 181.935 1984.53 182.544 2015.66 193.3L2018.28 185.738ZM1940.37 173.935V165.935C1920.58 165.935 1905.2 169.634 1894.24 175.82C1883.25 182.019 1876.3 191.019 1874.97 201.23C1873.63 211.515 1878.24 221.206 1886.64 227.968C1894.97 234.681 1906.99 238.591 1921.49 238.591V230.591V222.591C1909.73 222.591 1901.53 219.418 1896.68 215.508C1891.88 211.648 1890.33 207.175 1890.84 203.296C1891.35 199.343 1894.26 194.179 1902.1 189.755C1909.96 185.318 1922.4 181.935 1940.37 181.935V173.935ZM1921.49 230.591V238.591C1944.73 238.591 1968.17 229.008 1984 217.608L1979.33 211.115L1974.65 204.623C1960.98 214.469 1940.74 222.591 1921.49 222.591V230.591ZM1979.33 211.115L1972.09 207.702C1964.08 224.689 1960.26 246.29 1960.26 267.476C1960.26 288.662 1964.08 310.263 1972.09 327.25L1979.33 323.837L1986.56 320.424C1979.82 306.132 1976.26 287.011 1976.26 267.476C1976.26 247.941 1979.82 228.82 1986.56 214.528L1979.33 211.115ZM1979.33 323.837L1984 317.345C1968.17 305.944 1944.73 296.361 1921.49 296.361V304.361V312.361C1940.74 312.361 1960.98 320.484 1974.65 330.329L1979.33 323.837ZM1921.49 304.361V296.361C1893.13 296.361 1872.55 312.281 1874.19 333.312C1874.99 343.452 1881.2 352.612 1891.47 358.968C1901.68 365.285 1916.07 369.017 1934.47 369.017V361.017V353.017C1918.06 353.017 1906.85 349.667 1899.89 345.362C1892.99 341.095 1890.46 336.091 1890.14 332.066C1889.57 324.77 1897.33 312.361 1921.49 312.361V304.361ZM1934.47 361.017V369.017C1943.92 369.017 1987.03 368.47 2020.89 356.775L2018.28 349.214L2015.66 341.652C1984.6 352.384 1943.91 353.017 1934.47 353.017V361.017ZM2018.28 349.214L2011.12 345.636C1995.22 377.438 1996.42 420.869 2011.19 449.117L2018.28 445.411L2025.37 441.705C2012.98 418.018 2011.82 380.006 2025.43 352.792L2018.28 349.214ZM2018.28 445.411L2019.38 437.487C1955.01 428.547 1842.71 425.567 1759.82 437.492L1760.96 445.411L1762.1 453.329C1843.29 441.648 1954.07 444.569 2017.18 453.335L2018.28 445.411ZM2057.07 0.757474L2059.08 -6.9856L2046.66 -10.2117L2049.24 2.36064L2057.07 0.757474ZM2204.07 0.757474L2212 1.85275L2213.61 -9.83446L2202.16 -7.00988L2204.07 0.757474ZM2377.53 324.157L2384.69 327.735L2391.98 313.154L2375.99 316.309L2377.53 324.157ZM2377.53 443.962L2376.43 451.886L2391.82 454.023L2384.62 440.256L2377.53 443.962ZM2057.07 443.962L2049.24 442.359L2046.96 453.501L2058.21 451.881L2057.07 443.962ZM2057.07 0.757474L2055.06 8.50054C2113.09 23.5728 2151.2 22.0346 2205.99 8.52483L2204.07 0.757474L2202.16 -7.00988C2149.64 5.94033 2114.25 7.3421 2059.08 -6.9856L2057.07 0.757474ZM2204.07 0.757474L2196.15 -0.337805C2183.56 90.7261 2183.58 230.246 2183.58 282.997H2191.58H2199.58C2199.58 229.909 2199.59 91.5989 2212 1.85275L2204.07 0.757474ZM2191.58 282.997H2183.58C2183.58 297.178 2185.19 310.277 2191.1 320.993C2197.24 332.139 2207.45 339.676 2222.33 343.809C2236.89 347.853 2256.21 348.744 2281.5 346.788C2306.89 344.824 2338.89 339.934 2379.08 332.006L2377.53 324.157L2375.99 316.309C2336.06 324.183 2304.76 328.941 2280.26 330.835C2255.66 332.738 2238.51 331.7 2226.61 328.393C2215.03 325.177 2208.79 319.942 2205.11 313.265C2201.19 306.157 2199.58 296.379 2199.58 282.997H2191.58ZM2377.53 324.157L2370.38 320.58C2350.86 359.623 2352.35 413.048 2370.44 447.669L2377.53 443.962L2384.62 440.256C2368.91 410.197 2367.46 362.192 2384.69 327.735L2377.53 324.157ZM2377.53 443.962L2378.63 436.039C2298.63 424.926 2158.95 421.222 2055.93 436.044L2057.07 443.962L2058.21 451.881C2159.53 437.303 2297.68 440.949 2376.43 451.886L2377.53 443.962ZM2057.07 443.962L2064.91 445.566C2075.01 396.213 2079.96 308.982 2079.96 222.36C2079.96 135.738 2075.01 48.5065 2064.91 -0.845696L2057.07 0.757474L2049.24 2.36064C2058.99 50.0284 2063.96 135.889 2063.96 222.36C2063.96 308.831 2058.99 394.692 2049.24 442.359L2057.07 443.962Z" fill="black" mask="url(#path-1-inside-1_3025_9)"/>
</svg>
